mtllib Untitled.mtl
g polySurface1_N3D

# Vertex Positions:
v 77.34338 0 -6.73222
v 2.40469 0 20.5432
v 42.27875 0 -48.52065
v -11.44339 0 -57.99332
v -58.68586 0 -30.7179
v -77.34337 0 20.54318
v -58.68588 0.00001 71.80426
v -11.44343 0.00001 99.07972
v 42.27872 0.00001 89.60706
v 77.34338 0 47.81865
v 2.40469 29.49498 20.5432
v 70.21828 29.49498 -4.13891
v 38.48755 29.49498 -41.95413
v -10.12673 29.49498 -50.52615
v -52.87743 29.49498 -25.84404
v -69.761 29.49498 20.54318
v -52.87745 29.49498 66.9304
v -10.12676 29.49498 91.61254
v 38.48754 29.49498 83.04054
v 70.21828 29.49498 45.22532
v 77.34338 175.06288 -6.73223
v 77.34338 175.06288 47.81864
v 42.27875 175.06288 -48.52065
v -11.44339 175.06288 -57.99333
v -58.68586 175.06288 -30.71791
v -77.34337 175.06288 20.54317
v -58.68588 175.06288 71.80426
v -11.44343 175.06288 99.07971
v 42.27872 175.06288 89.60706
v 70.21828 179.6194 -4.13891
v 38.48755 179.6194 -41.95414
v -10.12673 179.6194 -50.52615
v -52.87743 179.6194 -25.84405
v -69.761 179.6194 20.54317
v -52.87745 179.6194 66.9304
v -10.12676 179.6194 91.61253
v 38.48754 179.6194 83.04054
v 70.21828 179.6194 45.22532
v 72.99561 179.6194 -5.14978
v 72.99561 179.6194 46.23618
v 39.96535 179.6194 -44.51373
v -10.63996 179.6194 -53.43683
v -55.14154 179.6194 -27.74386
v -72.71657 179.6194 20.54317
v -55.14154 179.6194 68.83022
v -10.63999 179.6194 94.52321
v 39.96532 179.6194 85.60014
v 28.57845 27.70353 -49.41946
v 3.07134 27.70353 -54.15214
v 9.43549 27.70353 -88.45211
v 34.9426 27.70353 -83.71941
v 3.07134 155.30046 -54.15215
v 28.57845 155.30046 -49.41946
v 34.9426 155.30046 -83.71941
v 9.43549 155.30046 -88.45212
v 36.91448 40.09149 -94.34702
v 11.40737 40.09149 -99.07971
v 36.91448 142.91249 -94.34702
v 11.40737 142.91249 -99.07972
v 34.07899 135.70009 -79.06494
v 34.07899 47.30385 -79.06493
v 8.57188 47.30385 -83.79763
v 8.57188 135.70009 -83.79762
v 3.07134 135.70009 -54.15215
v 28.57845 135.70009 -49.41946
v 28.57845 47.30385 -49.41946
v 3.07134 47.30385 -54.15214

# Vertex Texture Coordinates:
vt 0.64683 0.10281 
vt 0.5 0.15 
vt 0.57812 0.02093 
vt 0.47287 0.00237 
vt 0.38031 0.05581 
vt 0.34375 0.15625 
vt 0.38031 0.25669 
vt 0.47287 0.31013 
vt 0.57812 0.29157 
vt 0.64683 0.20969 
vt 0.5 0.8375 
vt 0.64683 0.89719 
vt 0.57812 0.97907 
vt 0.47287 0.99763 
vt 0.38031 0.94419 
vt 0.34375 0.84375 
vt 0.38031 0.74331 
vt 0.47287 0.68987 
vt 0.57812 0.70843 
vt 0.64683 0.79031 
vt 0.59722 0.3125 
vt 0.625 0.3125 
vt 0.625 0.66729 
vt 0.59722 0.66729 
vt 0.375 0.3125 
vt 0.40278 0.3125 
vt 0.40278 0.66729 
vt 0.375 0.66729 
vt 0.43056 0.3125 
vt 0.43056 0.66729 
vt 0.45833 0.3125 
vt 0.45833 0.66729 
vt 0.48611 0.3125 
vt 0.48611 0.66729 
vt 0.51389 0.3125 
vt 0.51389 0.66729 
vt 0.54167 0.3125 
vt 0.54167 0.66729 
vt 0.56945 0.3125 
vt 0.56945 0.66729 
vt 0.64683 0.89719 
vt 0.57812 0.97907 
vt 0.47287 0.99763 
vt 0.38031 0.94419 
vt 0.34375 0.84375 
vt 0.38031 0.74331 
vt 0.47287 0.68987 
vt 0.57812 0.70843 
vt 0.64683 0.79031 
vt 0.6246 0.68844 
vt 0.59763 0.68844 
vt 0.3754 0.68844 
vt 0.40238 0.68844 
vt 0.40318 0.68844 
vt 0.43015 0.68844 
vt 0.43096 0.68844 
vt 0.45793 0.68844 
vt 0.45874 0.68844 
vt 0.48571 0.68844 
vt 0.48651 0.68844 
vt 0.51349 0.68844 
vt 0.51429 0.68844 
vt 0.54126 0.68844 
vt 0.54207 0.68844 
vt 0.56904 0.68844 
vt 0.56985 0.68844 
vt 0.59682 0.68844 
vt 0.64683 0.89719 
vt 0.57812 0.97907 
vt 0.47287 0.99763 
vt 0.38031 0.94419 
vt 0.34375 0.84375 
vt 0.38031 0.74331 
vt 0.47287 0.68987 
vt 0.57812 0.70843 
vt 0.64683 0.79031 
vt 0.41667 0.45348 
vt 0.43056 0.45348 
vt 0.43056 0.45348 
vt 0.41667 0.45348 
vt 0.43056 0.54746 
vt 0.41667 0.54746 
vt 0.41667 0.54746 
vt 0.43056 0.54746 
vt 0.41667 0.47302 
vt 0.43056 0.47335 
vt 0.41667 0.52816 
vt 0.43056 0.52783 
vt 0.41667 0.50994 
vt 0.41667 0.49101 
vt 0.43056 0.49101 
vt 0.43056 0.50994 
vt 0.21528 0.42314 
vt 0.20833 0.25497 
vt 0.70833 0.2455 
vt 0.71528 0.41368 

# Vertex Surface Normals:
vn -0 -1 0
vn -0 -1 0
vn -0 -1 0
vn -0 -1 0
vn -0 -1 0
vn -0 -1 0
vn -0 -1 0
vn -0 -1 0
vn -0 -1 0
vn -0 -1 0
vn 0 1 -0
vn 0 1 -0
vn 0 1 -0
vn 0 1 -0
vn 0 1 -0
vn 0 1 -0
vn 0 1 -0
vn 0 1 -0
vn 0 1 -0
vn 0 1 -0
vn 0.93969 0 0.34202
vn 0.93969 -0 -0.34202
vn 0.93969 -0 -0.34202
vn 0.93969 0 0.34202
vn 0.5 -0 -0.86603
vn 0.5 -0 -0.86603
vn -0.17365 -0 -0.98481
vn -0.17365 -0 -0.98481
vn -0.76604 -0 -0.64279
vn -0.76604 -0 -0.64279
vn -1 0 -0
vn -1 0 -0
vn -0.76605 0 0.64279
vn -0.76605 0 0.64279
vn -0.17365 0 0.98481
vn -0.17365 0 0.98481
vn 0.5 0 0.86603
vn 0.5 0 0.86603
vn -0.93969 0 0.34202
vn -0.93969 0 0.34202
vn -0.5 0 0.86603
vn -0.5 0 0.86603
vn 0.17365 0 0.98481
vn 0.17365 0 0.98481
vn 0.76604 0 0.64279
vn 0.76604 0 0.64279
vn 1 -0 0
vn 1 -0 0
vn 0.76605 -0 -0.64279
vn 0.76605 -0 -0.64279
vn 0.17365 -0 -0.98481
vn 0.17365 -0 -0.98481
vn -0.5 -0 -0.86603
vn -0.5 -0 -0.86603
vn -0.93969 -0 -0.34202
vn -0.93969 -0 -0.34202
vn 0.65936 0.7125 -0.23999
vn 0.65936 0.7125 -0.23999
vn 0.65936 0.7125 0.23999
vn 0.65936 0.7125 0.23999
vn 0.35084 0.7125 -0.60767
vn 0.35084 0.7125 -0.60767
vn -0.12185 0.7125 -0.69102
vn -0.12185 0.7125 -0.69102
vn -0.53752 0.7125 -0.45103
vn -0.53752 0.7125 -0.45103
vn -0.70168 0.7125 -0
vn -0.70168 0.7125 -0
vn -0.53751 0.7125 0.45103
vn -0.53751 0.7125 0.45103
vn -0.12185 0.7125 0.69102
vn -0.12185 0.7125 0.69102
vn 0.35084 0.7125 0.60767
vn 0.35084 0.7125 0.60767
vn 0 1 -0
vn 0.00001 1 -0
vn 0.00001 1 -0
vn 0 1 -0
vn 0 1 -0
vn 0 1 -0
vn 0.00001 1 -0
vn 0.00001 1 -0
vn -0 1 -0
vn -0 1 -0
vn -0 1 -0
vn -0 1 -0
vn -0 1 -0
vn -0 1 -0
vn 0 1 -0
vn 0 1 -0
vn 0.00001 1 -0
vn 0.00001 1 -0
vn -0 -1 0
vn -0 -1 0
vn -0 -1 0
vn -0 -1 0
vn 0 1 -0
vn 0 1 -0
vn 0 1 -0
vn 0 1 -0
vn 0.13746 -0.65745 -0.74085
vn 0.13746 -0.65745 -0.74085
vn 0.13746 -0.65745 -0.74085
vn 0.13746 -0.65745 -0.74085
vn 0.13746 0.65745 -0.74085
vn 0.13746 0.65745 -0.74085
vn 0.13746 0.65745 -0.74085
vn 0.13746 0.65745 -0.74085
vn 0.98322 0 0.18243
vn 0.98322 0 0.18243
vn 0.98322 0 0.18243
vn 0.98322 0 0.18243
vn 0.18243 -0 -0.98322
vn 0.18243 -0 -0.98322
vn 0.18243 -0 -0.98322
vn 0.18243 -0 -0.98322
vn -0.98322 -0 -0.18243
vn -0.98322 -0 -0.18243
vn -0.98322 -0 -0.18243
vn -0.98322 -0 -0.18243
vn 0.98322 0 0.18243
vn -0.98322 -0 -0.18243
vn -0.98322 -0 -0.18243
vn -0.98322 -0 -0.18243
vn 0.98322 0 0.18243
vn 0.98322 0 0.18243
vn 0.98322 0 0.18243
vn 0.98322 0 0.18243
vn 0.98322 0 0.18243
vn -0.98322 -0 -0.18243
vn -0.98322 -0 -0.18243
vn -0.98322 -0 -0.18243
vn 0 1 -0
vn 0 1 -0
vn 0 1 -0
vn 0 1 -0
vn -0.18243 0 0.98322
vn -0.18243 0 0.98322
vn -0.18243 0 0.98322
vn -0.18243 0 0.98322
vn -0 -1 0
vn -0 -1 0
vn -0 -1 0
vn -0 -1 0

# Faces:
usemtl polySurface1_N3D_blinn6SG_stack
f 1/1/1 2/2/2 3/3/3
f 3/3/3 2/2/2 4/4/4
f 4/4/4 2/2/2 5/5/5
f 5/5/5 2/2/2 6/6/6
f 6/6/6 2/2/2 7/7/7
f 7/7/7 2/2/2 8/8/8
f 8/8/8 2/2/2 9/9/9
f 9/9/9 2/2/2 10/10/10
f 10/10/10 2/2/2 1/1/1
f 11/11/11 12/12/12 13/13/13
f 11/11/11 13/13/13 14/14/14
f 11/11/11 14/14/14 15/15/15
f 11/11/11 15/15/15 16/16/16
f 11/11/11 16/16/16 17/17/17
f 11/11/11 17/17/17 18/18/18
f 11/11/11 18/18/18 19/19/19
f 11/11/11 19/19/19 20/20/20
f 11/11/11 20/20/20 12/12/12
f 10/21/21 1/22/22 21/23/23 22/24/24
f 1/25/22 3/26/25 23/27/26 21/28/23
f 23/27/26 3/26/25 4/29/27 24/30/28
f 4/29/27 5/31/29 25/32/30 24/30/28
f 5/31/29 6/33/31 26/34/32 25/32/30
f 6/33/31 7/35/33 27/36/34 26/34/32
f 7/35/33 8/37/35 28/38/36 27/36/34
f 8/37/35 9/39/37 29/40/38 28/38/36
f 9/39/37 10/21/21 22/24/24 29/40/38
f 12/12/39 30/41/40 31/42/41 13/13/42
f 13/13/42 31/42/41 32/43/43 14/14/44
f 14/14/44 32/43/43 33/44/45 15/15/46
f 15/15/46 33/44/45 34/45/47 16/16/48
f 16/16/48 34/45/47 35/46/49 17/17/50
f 17/17/50 35/46/49 36/47/51 18/18/52
f 18/18/52 36/47/51 37/48/53 19/19/54
f 19/19/54 37/48/53 38/49/55 20/20/56
f 20/20/56 38/49/55 30/41/40 12/12/39
f 21/23/57 39/50/58 40/51/59 22/24/60
f 39/52/58 21/28/57 23/27/61 41/53/62
f 41/54/62 23/27/61 24/30/63 42/55/64
f 42/56/64 24/30/63 25/32/65 43/57/66
f 43/58/66 25/32/65 26/34/67 44/59/68
f 44/60/68 26/34/67 27/36/69 45/61/70
f 45/62/70 27/36/69 28/38/71 46/63/72
f 46/64/72 28/38/71 29/40/73 47/65/74
f 47/66/74 29/40/73 22/24/60 40/67/59
f 31/42/75 30/41/76 39/68/77 41/69/78
f 32/43/79 31/42/75 41/69/78 42/70/80
f 33/44/81 32/43/79 42/70/80 43/71/82
f 34/45/83 33/44/81 43/71/82 44/72/84
f 35/46/85 34/45/83 44/72/84 45/73/86
f 36/47/87 35/46/85 45/73/86 46/74/88
f 37/48/89 36/47/87 46/74/88 47/75/90
f 38/49/91 37/48/89 47/75/90 40/76/92
f 30/41/76 38/49/91 40/76/92 39/68/77
f 48/77/93 49/78/94 50/79/95 51/80/96
f 52/81/97 53/82/98 54/83/99 55/84/100
f 56/85/101 51/80/102 50/79/103 57/86/104
f 54/83/105 58/87/106 59/88/107 55/84/108
f 60/89/109 61/90/110 56/85/111 58/87/112
f 58/87/113 56/85/114 57/86/115 59/88/116
f 59/88/117 57/86/118 62/91/119 63/92/120
f 54/83/121 60/89/109 58/87/112
f 64/93/122 52/81/123 55/84/124 63/92/120
f 53/82/125 65/94/126 60/89/109 54/83/121
f 63/92/120 55/84/124 59/88/117
f 61/90/110 66/95/127 48/77/128 51/80/129
f 56/85/111 61/90/110 51/80/129
f 50/79/130 62/91/119 57/86/118
f 49/78/131 67/96/132 62/91/119 50/79/130
f 66/95/133 61/90/134 62/91/135 67/96/136
f 61/90/137 60/89/138 63/92/139 62/91/140
f 60/89/141 65/94/142 64/93/143 63/92/144
