<svg id="Lines" xmlns="http://www.w3.org/2000/svg" viewBox="0 0 1700 720"><defs><style>.cls-1{fill:#231f20;}</style></defs><rect class="cls-1" x="121.06" y="576.94" width="11.13" height="11.13" rx="5.56"/><rect class="cls-1" x="121.06" y="554.69" width="11.13" height="11.13" rx="5.56"/><rect class="cls-1" x="121.06" y="532.44" width="11.13" height="11.13" rx="5.56"/><rect class="cls-1" x="121.06" y="510.19" width="11.13" height="11.13" rx="5.56"/><rect class="cls-1" x="121.06" y="487.94" width="11.13" height="11.13" rx="5.56"/><rect class="cls-1" x="121.06" y="465.69" width="11.13" height="11.13" rx="5.56"/><rect class="cls-1" x="121.06" y="443.44" width="11.13" height="11.13" rx="5.56"/><rect class="cls-1" x="121.06" y="421.19" width="11.13" height="11.13" rx="5.56"/><rect class="cls-1" x="121.06" y="398.94" width="11.13" height="11.13" rx="5.56"/><rect class="cls-1" x="121.06" y="376.69" width="11.13" height="11.13" rx="5.56"/><rect class="cls-1" x="121.06" y="354.44" width="11.13" height="11.13" rx="5.56"/><rect class="cls-1" x="121.06" y="332.19" width="11.13" height="11.13" rx="5.56"/><rect class="cls-1" x="121.06" y="309.94" width="11.13" height="11.13" rx="5.56"/><rect class="cls-1" x="121.06" y="287.69" width="11.13" height="11.13" rx="5.56"/><rect class="cls-1" x="121.06" y="265.44" width="11.13" height="11.13" rx="5.56"/><rect class="cls-1" x="121.06" y="243.19" width="11.13" height="11.13" rx="5.56"/><rect class="cls-1" x="121.06" y="220.94" width="11.13" height="11.13" rx="5.56"/><rect class="cls-1" x="121.06" y="198.69" width="11.13" height="11.13" rx="5.56"/><rect class="cls-1" x="121.06" y="176.44" width="11.13" height="11.13" rx="5.56"/><rect class="cls-1" x="121.06" y="154.19" width="11.13" height="11.13" rx="5.56"/><rect class="cls-1" x="121.06" y="131.94" width="11.13" height="11.13" rx="5.56"/><rect class="cls-1" x="143.31" y="131.94" width="11.13" height="11.13" rx="5.56"/><rect class="cls-1" x="165.56" y="131.94" width="11.13" height="11.13" rx="5.56"/><rect class="cls-1" x="187.81" y="131.94" width="11.13" height="11.13" rx="5.56"/><rect class="cls-1" x="210.06" y="131.94" width="11.13" height="11.13" rx="5.56"/><rect class="cls-1" x="232.31" y="131.94" width="11.13" height="11.13" rx="5.56"/><rect class="cls-1" x="254.56" y="131.94" width="11.13" height="11.13" rx="5.56"/><rect class="cls-1" x="276.81" y="131.94" width="11.13" height="11.13" rx="5.56"/><rect class="cls-1" x="299.06" y="131.94" width="11.13" height="11.13" rx="5.56"/><rect class="cls-1" x="321.31" y="131.94" width="11.13" height="11.13" rx="5.56"/><rect class="cls-1" x="343.56" y="131.94" width="11.13" height="11.13" rx="5.56"/><rect class="cls-1" x="343.56" y="154.19" width="11.13" height="11.13" rx="5.56"/><rect class="cls-1" x="343.56" y="176.44" width="11.13" height="11.13" rx="5.56"/><rect class="cls-1" x="365.81" y="176.44" width="11.13" height="11.13" rx="5.56"/><rect class="cls-1" x="388.06" y="176.44" width="11.13" height="11.13" rx="5.56"/><rect class="cls-1" x="388.06" y="198.69" width="11.13" height="11.13" rx="5.56"/><rect class="cls-1" x="343.56" y="220.94" width="11.13" height="11.13" rx="5.56"/><rect class="cls-1" x="343.56" y="243.19" width="11.13" height="11.13" rx="5.56"/><rect class="cls-1" x="365.81" y="220.94" width="11.13" height="11.13" rx="5.56"/><rect class="cls-1" x="388.06" y="220.94" width="11.13" height="11.13" rx="5.56"/><rect class="cls-1" x="343.56" y="332.19" width="11.13" height="11.13" rx="5.56"/><rect class="cls-1" x="343.56" y="354.44" width="11.13" height="11.13" rx="5.56"/><rect class="cls-1" x="365.81" y="354.44" width="11.13" height="11.13" rx="5.56"/><rect class="cls-1" x="388.06" y="354.44" width="11.13" height="11.13" rx="5.56"/><rect class="cls-1" x="388.06" y="376.69" width="11.13" height="11.13" rx="5.56"/><rect class="cls-1" x="343.56" y="398.94" width="11.13" height="11.13" rx="5.56"/><rect class="cls-1" x="343.56" y="421.19" width="11.13" height="11.13" rx="5.56"/><rect class="cls-1" x="343.56" y="443.44" width="11.13" height="11.13" rx="5.56"/><rect class="cls-1" x="321.31" y="443.44" width="11.13" height="11.13" rx="5.56"/><rect class="cls-1" x="299.06" y="443.44" width="11.13" height="11.13" rx="5.56"/><rect class="cls-1" x="299.06" y="421.19" width="11.13" height="11.13" rx="5.56"/><rect class="cls-1" x="299.06" y="398.94" width="11.13" height="11.13" rx="5.56"/><rect class="cls-1" x="299.06" y="376.69" width="11.13" height="11.13" rx="5.56"/><rect class="cls-1" x="299.06" y="354.44" width="11.13" height="11.13" rx="5.56"/><rect class="cls-1" x="299.06" y="332.19" width="11.13" height="11.13" rx="5.56"/><rect class="cls-1" x="299.06" y="309.94" width="11.13" height="11.13" rx="5.56"/><rect class="cls-1" x="299.06" y="287.69" width="11.13" height="11.13" rx="5.56"/><rect class="cls-1" x="299.06" y="265.44" width="11.13" height="11.13" rx="5.56"/><rect class="cls-1" x="299.06" y="243.19" width="11.13" height="11.13" rx="5.56"/><rect class="cls-1" x="299.06" y="220.94" width="11.13" height="11.13" rx="5.56"/><rect class="cls-1" x="299.06" y="198.69" width="11.13" height="11.13" rx="5.56"/><rect class="cls-1" x="299.06" y="176.44" width="11.13" height="11.13" rx="5.56"/><rect class="cls-1" x="254.56" y="443.44" width="11.13" height="11.13" rx="5.56"/><rect class="cls-1" x="254.56" y="465.69" width="11.13" height="11.13" rx="5.56"/><rect class="cls-1" x="254.56" y="487.94" width="11.13" height="11.13" rx="5.56"/><rect class="cls-1" x="254.56" y="510.19" width="11.13" height="11.13" rx="5.56"/><rect class="cls-1" x="254.56" y="532.44" width="11.13" height="11.13" rx="5.56"/><rect class="cls-1" x="254.56" y="554.69" width="11.13" height="11.13" rx="5.56"/><rect class="cls-1" x="254.56" y="576.94" width="11.13" height="11.13" rx="5.56"/><rect class="cls-1" x="254.56" y="421.19" width="11.13" height="11.13" rx="5.56"/><rect class="cls-1" x="254.56" y="398.94" width="11.13" height="11.13" rx="5.56"/><rect class="cls-1" x="254.56" y="376.69" width="11.13" height="11.13" rx="5.56"/><rect class="cls-1" x="254.56" y="354.44" width="11.13" height="11.13" rx="5.56"/><rect class="cls-1" x="254.56" y="332.19" width="11.13" height="11.13" rx="5.56"/><rect class="cls-1" x="254.56" y="309.94" width="11.13" height="11.13" rx="5.56"/><rect class="cls-1" x="254.56" y="287.69" width="11.13" height="11.13" rx="5.56"/><rect class="cls-1" x="254.56" y="265.44" width="11.13" height="11.13" rx="5.56"/><rect class="cls-1" x="254.56" y="243.19" width="11.13" height="11.13" rx="5.56"/><rect class="cls-1" x="254.56" y="220.94" width="11.13" height="11.13" rx="5.56"/><rect class="cls-1" x="254.56" y="198.69" width="11.13" height="11.13" rx="5.56"/><rect class="cls-1" x="254.56" y="176.44" width="11.13" height="11.13" rx="5.56"/><rect class="cls-1" x="232.31" y="176.44" width="11.13" height="11.13" rx="5.56"/><rect class="cls-1" x="210.06" y="176.44" width="11.13" height="11.13" rx="5.56"/><rect class="cls-1" x="187.81" y="176.44" width="11.13" height="11.13" rx="5.56"/><rect class="cls-1" x="165.56" y="176.44" width="11.13" height="11.13" rx="5.56"/><rect class="cls-1" x="210.06" y="220.94" width="11.13" height="11.13" rx="5.56"/><rect class="cls-1" x="210.06" y="243.19" width="11.13" height="11.13" rx="5.56"/><rect class="cls-1" x="187.81" y="220.94" width="11.13" height="11.13" rx="5.56"/><rect class="cls-1" x="165.56" y="220.94" width="11.13" height="11.13" rx="5.56"/><rect class="cls-1" x="210.06" y="265.44" width="11.13" height="11.13" rx="5.56"/><rect class="cls-1" x="187.81" y="265.44" width="11.13" height="11.13" rx="5.56"/><rect class="cls-1" x="165.56" y="265.44" width="11.13" height="11.13" rx="5.56"/><rect class="cls-1" x="165.56" y="198.69" width="11.13" height="11.13" rx="5.56"/><rect class="cls-1" x="210.06" y="309.94" width="11.13" height="11.13" rx="5.56"/><rect class="cls-1" x="210.06" y="332.19" width="11.13" height="11.13" rx="5.56"/><rect class="cls-1" x="187.81" y="309.94" width="11.13" height="11.13" rx="5.56"/><rect class="cls-1" x="165.56" y="309.94" width="11.13" height="11.13" rx="5.56"/><rect class="cls-1" x="210.06" y="354.44" width="11.13" height="11.13" rx="5.56"/><rect class="cls-1" x="187.81" y="354.44" width="11.13" height="11.13" rx="5.56"/><rect class="cls-1" x="165.56" y="354.44" width="11.13" height="11.13" rx="5.56"/><rect class="cls-1" x="210.06" y="443.44" width="11.13" height="11.13" rx="5.56"/><rect class="cls-1" x="187.81" y="443.44" width="11.13" height="11.13" rx="5.56"/><rect class="cls-1" x="165.56" y="443.44" width="11.13" height="11.13" rx="5.56"/><rect class="cls-1" x="165.56" y="287.69" width="11.13" height="11.13" rx="5.56"/><rect class="cls-1" x="210.06" y="398.94" width="11.13" height="11.13" rx="5.56"/><rect class="cls-1" x="210.06" y="421.19" width="11.13" height="11.13" rx="5.56"/><rect class="cls-1" x="187.81" y="398.94" width="11.13" height="11.13" rx="5.56"/><rect class="cls-1" x="165.56" y="398.94" width="11.13" height="11.13" rx="5.56"/><rect class="cls-1" x="165.56" y="376.69" width="11.13" height="11.13" rx="5.56"/><rect class="cls-1" x="210.06" y="487.94" width="11.13" height="11.13" rx="5.56"/><rect class="cls-1" x="210.06" y="510.19" width="11.13" height="11.13" rx="5.56"/><rect class="cls-1" x="187.81" y="487.94" width="11.13" height="11.13" rx="5.56"/><rect class="cls-1" x="165.56" y="487.94" width="11.13" height="11.13" rx="5.56"/><rect class="cls-1" x="187.81" y="576.94" width="11.13" height="11.13" rx="5.56"/><rect class="cls-1" x="210.06" y="576.94" width="11.13" height="11.13" rx="5.56"/><rect class="cls-1" x="232.31" y="576.94" width="11.13" height="11.13" rx="5.56"/><rect class="cls-1" x="165.56" y="576.94" width="11.13" height="11.13" rx="5.56"/><rect class="cls-1" x="143.31" y="576.94" width="11.13" height="11.13" rx="5.56"/><rect class="cls-1" x="210.06" y="532.44" width="11.13" height="11.13" rx="5.56"/><rect class="cls-1" x="187.81" y="532.44" width="11.13" height="11.13" rx="5.56"/><rect class="cls-1" x="165.56" y="532.44" width="11.13" height="11.13" rx="5.56"/><rect class="cls-1" x="165.56" y="465.69" width="11.13" height="11.13" rx="5.56"/><rect class="cls-1" x="365.81" y="398.94" width="11.13" height="11.13" rx="5.56"/><rect class="cls-1" x="388.06" y="398.94" width="11.13" height="11.13" rx="5.56"/><rect class="cls-1" x="343.56" y="265.44" width="11.13" height="11.13" rx="5.56"/><rect class="cls-1" x="365.81" y="265.44" width="11.13" height="11.13" rx="5.56"/><rect class="cls-1" x="388.06" y="265.44" width="11.13" height="11.13" rx="5.56"/><rect class="cls-1" x="343.56" y="309.94" width="11.13" height="11.13" rx="5.56"/><rect class="cls-1" x="365.81" y="309.94" width="11.13" height="11.13" rx="5.56"/><rect class="cls-1" x="388.06" y="309.94" width="11.13" height="11.13" rx="5.56"/><rect class="cls-1" x="410.31" y="265.44" width="11.13" height="11.13" rx="5.56"/><rect class="cls-1" x="410.31" y="309.94" width="11.13" height="11.13" rx="5.56"/><rect class="cls-1" x="432.56" y="265.44" width="11.13" height="11.13" rx="5.56"/><rect class="cls-1" x="432.56" y="287.69" width="11.13" height="11.13" rx="5.56"/><rect class="cls-1" x="432.56" y="309.94" width="11.13" height="11.13" rx="5.56"/><rect class="cls-1" x="1256.32" y="576.94" width="11.13" height="11.13" rx="5.56"/><rect class="cls-1" x="1278.57" y="576.94" width="11.13" height="11.13" rx="5.56"/><rect class="cls-1" x="1300.82" y="576.94" width="11.13" height="11.13" rx="5.56"/><rect class="cls-1" x="1323.07" y="576.94" width="11.13" height="11.13" rx="5.56"/><rect class="cls-1" x="1345.32" y="576.94" width="11.13" height="11.13" rx="5.56"/><rect class="cls-1" x="1256.32" y="554.69" width="11.13" height="11.13" rx="5.56"/><rect class="cls-1" x="1256.32" y="532.44" width="11.13" height="11.13" rx="5.56"/><rect class="cls-1" x="1256.32" y="510.19" width="11.13" height="11.13" rx="5.56"/><rect class="cls-1" x="1256.32" y="487.94" width="11.13" height="11.13" rx="5.56"/><rect class="cls-1" x="1256.32" y="465.69" width="11.13" height="11.13" rx="5.56"/><rect class="cls-1" x="1256.32" y="443.44" width="11.13" height="11.13" rx="5.56"/><rect class="cls-1" x="1256.32" y="421.19" width="11.13" height="11.13" rx="5.56"/><rect class="cls-1" x="1256.32" y="398.94" width="11.13" height="11.13" rx="5.56"/><rect class="cls-1" x="1256.32" y="376.69" width="11.13" height="11.13" rx="5.56"/><rect class="cls-1" x="1256.32" y="354.44" width="11.13" height="11.13" rx="5.56"/><rect class="cls-1" x="1256.32" y="332.19" width="11.13" height="11.13" rx="5.56"/><rect class="cls-1" x="1256.32" y="309.94" width="11.13" height="11.13" rx="5.56"/><rect class="cls-1" x="1256.32" y="287.69" width="11.13" height="11.13" rx="5.56"/><rect class="cls-1" x="1256.32" y="265.44" width="11.13" height="11.13" rx="5.56"/><rect class="cls-1" x="1256.32" y="243.19" width="11.13" height="11.13" rx="5.56"/><rect class="cls-1" x="1256.32" y="220.94" width="11.13" height="11.13" rx="5.56"/><rect class="cls-1" x="1256.32" y="198.69" width="11.13" height="11.13" rx="5.56"/><rect class="cls-1" x="1256.32" y="176.44" width="11.13" height="11.13" rx="5.56"/><rect class="cls-1" x="1256.32" y="154.19" width="11.13" height="11.13" rx="5.56"/><rect class="cls-1" x="1256.32" y="131.94" width="11.13" height="11.13" rx="5.56"/><rect class="cls-1" x="1278.57" y="131.94" width="11.13" height="11.13" rx="5.56"/><rect class="cls-1" x="1300.82" y="131.94" width="11.13" height="11.13" rx="5.56"/><rect class="cls-1" x="1323.07" y="131.94" width="11.13" height="11.13" rx="5.56"/><rect class="cls-1" x="1345.32" y="131.94" width="11.13" height="11.13" rx="5.56"/><rect class="cls-1" x="1367.57" y="131.94" width="11.13" height="11.13" rx="5.56"/><rect class="cls-1" x="1389.82" y="131.94" width="11.13" height="11.13" rx="5.56"/><rect class="cls-1" x="1412.07" y="131.94" width="11.13" height="11.13" rx="5.56"/><rect class="cls-1" x="1389.82" y="443.44" width="11.13" height="11.13" rx="5.56"/><rect class="cls-1" x="1389.82" y="465.69" width="11.13" height="11.13" rx="5.56"/><rect class="cls-1" x="1389.82" y="487.94" width="11.13" height="11.13" rx="5.56"/><rect class="cls-1" x="1389.82" y="510.19" width="11.13" height="11.13" rx="5.56"/><rect class="cls-1" x="1389.82" y="532.44" width="11.13" height="11.13" rx="5.56"/><rect class="cls-1" x="1389.82" y="554.69" width="11.13" height="11.13" rx="5.56"/><rect class="cls-1" x="1389.82" y="576.94" width="11.13" height="11.13" rx="5.56"/><rect class="cls-1" x="1412.07" y="576.94" width="11.13" height="11.13" rx="5.56"/><rect class="cls-1" x="1434.32" y="576.94" width="11.13" height="11.13" rx="5.56"/><rect class="cls-1" x="1434.32" y="554.69" width="11.13" height="11.13" rx="5.56"/><rect class="cls-1" x="1434.32" y="532.44" width="11.13" height="11.13" rx="5.56"/><rect class="cls-1" x="1434.32" y="510.19" width="11.13" height="11.13" rx="5.56"/><rect class="cls-1" x="1456.57" y="510.19" width="11.13" height="11.13" rx="5.56"/><rect class="cls-1" x="1478.82" y="510.19" width="11.13" height="11.13" rx="5.56"/><rect class="cls-1" x="1501.07" y="510.19" width="11.13" height="11.13" rx="5.56"/><rect class="cls-1" x="1523.32" y="510.19" width="11.13" height="11.13" rx="5.56"/><rect class="cls-1" x="1523.32" y="487.94" width="11.13" height="11.13" rx="5.56"/><rect class="cls-1" x="1523.32" y="465.69" width="11.13" height="11.13" rx="5.56"/><rect class="cls-1" x="1501.07" y="465.69" width="11.13" height="11.13" rx="5.56"/><rect class="cls-1" x="1478.82" y="465.69" width="11.13" height="11.13" rx="5.56"/><rect class="cls-1" x="1478.82" y="443.44" width="11.13" height="11.13" rx="5.56"/><rect class="cls-1" x="1478.82" y="421.19" width="11.13" height="11.13" rx="5.56"/><rect class="cls-1" x="1501.07" y="421.19" width="11.13" height="11.13" rx="5.56"/><rect class="cls-1" x="1523.32" y="421.19" width="11.13" height="11.13" rx="5.56"/><rect class="cls-1" x="1545.57" y="421.19" width="11.13" height="11.13" rx="5.56"/><rect class="cls-1" x="1567.82" y="421.19" width="11.13" height="11.13" rx="5.56"/><rect class="cls-1" x="1478.82" y="376.69" width="11.13" height="11.13" rx="5.56"/><rect class="cls-1" x="1478.82" y="354.44" width="11.13" height="11.13" rx="5.56"/><rect class="cls-1" x="1501.07" y="376.69" width="11.13" height="11.13" rx="5.56"/><rect class="cls-1" x="1523.32" y="376.69" width="11.13" height="11.13" rx="5.56"/><rect class="cls-1" x="1545.57" y="376.69" width="11.13" height="11.13" rx="5.56"/><rect class="cls-1" x="1567.82" y="376.69" width="11.13" height="11.13" rx="5.56"/><rect class="cls-1" x="1567.82" y="398.94" width="11.13" height="11.13" rx="5.56"/><rect class="cls-1" x="1478.82" y="332.19" width="11.13" height="11.13" rx="5.56"/><rect class="cls-1" x="1501.07" y="332.19" width="11.13" height="11.13" rx="5.56"/><rect class="cls-1" x="1523.32" y="332.19" width="11.13" height="11.13" rx="5.56"/><rect class="cls-1" x="1545.57" y="332.19" width="11.13" height="11.13" rx="5.56"/><rect class="cls-1" x="1567.82" y="332.19" width="11.13" height="11.13" rx="5.56"/><rect class="cls-1" x="1478.82" y="287.69" width="11.13" height="11.13" rx="5.56"/><rect class="cls-1" x="1478.82" y="265.44" width="11.13" height="11.13" rx="5.56"/><rect class="cls-1" x="1478.82" y="243.19" width="11.13" height="11.13" rx="5.56"/><rect class="cls-1" x="1501.07" y="243.19" width="11.13" height="11.13" rx="5.56"/><rect class="cls-1" x="1523.32" y="243.19" width="11.13" height="11.13" rx="5.56"/><rect class="cls-1" x="1523.32" y="220.94" width="11.13" height="11.13" rx="5.56"/><rect class="cls-1" x="1523.32" y="198.69" width="11.13" height="11.13" rx="5.56"/><rect class="cls-1" x="1501.07" y="198.69" width="11.13" height="11.13" rx="5.56"/><rect class="cls-1" x="1478.82" y="198.69" width="11.13" height="11.13" rx="5.56"/><rect class="cls-1" x="1456.57" y="198.69" width="11.13" height="11.13" rx="5.56"/><rect class="cls-1" x="1434.32" y="198.69" width="11.13" height="11.13" rx="5.56"/><rect class="cls-1" x="1434.32" y="176.44" width="11.13" height="11.13" rx="5.56"/><rect class="cls-1" x="1434.32" y="154.19" width="11.13" height="11.13" rx="5.56"/><rect class="cls-1" x="1434.32" y="131.94" width="11.13" height="11.13" rx="5.56"/><rect class="cls-1" x="1501.07" y="287.69" width="11.13" height="11.13" rx="5.56"/><rect class="cls-1" x="1523.32" y="287.69" width="11.13" height="11.13" rx="5.56"/><rect class="cls-1" x="1545.57" y="287.69" width="11.13" height="11.13" rx="5.56"/><rect class="cls-1" x="1567.82" y="287.69" width="11.13" height="11.13" rx="5.56"/><rect class="cls-1" x="1567.82" y="309.94" width="11.13" height="11.13" rx="5.56"/><rect class="cls-1" x="1389.82" y="421.19" width="11.13" height="11.13" rx="5.56"/><rect class="cls-1" x="1389.82" y="398.94" width="11.13" height="11.13" rx="5.56"/><rect class="cls-1" x="1389.82" y="376.69" width="11.13" height="11.13" rx="5.56"/><rect class="cls-1" x="1389.82" y="354.44" width="11.13" height="11.13" rx="5.56"/><rect class="cls-1" x="1389.82" y="332.19" width="11.13" height="11.13" rx="5.56"/><rect class="cls-1" x="1389.82" y="309.94" width="11.13" height="11.13" rx="5.56"/><rect class="cls-1" x="1389.82" y="287.69" width="11.13" height="11.13" rx="5.56"/><rect class="cls-1" x="1389.82" y="265.44" width="11.13" height="11.13" rx="5.56"/><rect class="cls-1" x="1389.82" y="243.19" width="11.13" height="11.13" rx="5.56"/><rect class="cls-1" x="1389.82" y="220.94" width="11.13" height="11.13" rx="5.56"/><rect class="cls-1" x="1389.82" y="198.69" width="11.13" height="11.13" rx="5.56"/><rect class="cls-1" x="1389.82" y="176.44" width="11.13" height="11.13" rx="5.56"/><rect class="cls-1" x="1367.57" y="176.44" width="11.13" height="11.13" rx="5.56"/><rect class="cls-1" x="1345.32" y="176.44" width="11.13" height="11.13" rx="5.56"/><rect class="cls-1" x="1323.07" y="176.44" width="11.13" height="11.13" rx="5.56"/><rect class="cls-1" x="1300.82" y="176.44" width="11.13" height="11.13" rx="5.56"/><rect class="cls-1" x="1345.32" y="220.94" width="11.13" height="11.13" rx="5.56"/><rect class="cls-1" x="1345.32" y="243.19" width="11.13" height="11.13" rx="5.56"/><rect class="cls-1" x="1323.07" y="220.94" width="11.13" height="11.13" rx="5.56"/><rect class="cls-1" x="1300.82" y="220.94" width="11.13" height="11.13" rx="5.56"/><rect class="cls-1" x="1345.32" y="265.44" width="11.13" height="11.13" rx="5.56"/><rect class="cls-1" x="1323.07" y="265.44" width="11.13" height="11.13" rx="5.56"/><rect class="cls-1" x="1300.82" y="265.44" width="11.13" height="11.13" rx="5.56"/><rect class="cls-1" x="1300.82" y="198.69" width="11.13" height="11.13" rx="5.56"/><rect class="cls-1" x="1345.32" y="309.94" width="11.13" height="11.13" rx="5.56"/><rect class="cls-1" x="1345.32" y="332.19" width="11.13" height="11.13" rx="5.56"/><rect class="cls-1" x="1323.07" y="309.94" width="11.13" height="11.13" rx="5.56"/><rect class="cls-1" x="1300.82" y="309.94" width="11.13" height="11.13" rx="5.56"/><rect class="cls-1" x="1345.32" y="354.44" width="11.13" height="11.13" rx="5.56"/><rect class="cls-1" x="1323.07" y="354.44" width="11.13" height="11.13" rx="5.56"/><rect class="cls-1" x="1300.82" y="354.44" width="11.13" height="11.13" rx="5.56"/><rect class="cls-1" x="1345.32" y="443.44" width="11.13" height="11.13" rx="5.56"/><rect class="cls-1" x="1323.07" y="443.44" width="11.13" height="11.13" rx="5.56"/><rect class="cls-1" x="1300.82" y="443.44" width="11.13" height="11.13" rx="5.56"/><rect class="cls-1" x="1300.82" y="287.69" width="11.13" height="11.13" rx="5.56"/><rect class="cls-1" x="1345.32" y="398.94" width="11.13" height="11.13" rx="5.56"/><rect class="cls-1" x="1345.32" y="421.19" width="11.13" height="11.13" rx="5.56"/><rect class="cls-1" x="1323.07" y="398.94" width="11.13" height="11.13" rx="5.56"/><rect class="cls-1" x="1300.82" y="398.94" width="11.13" height="11.13" rx="5.56"/><rect class="cls-1" x="1300.82" y="376.69" width="11.13" height="11.13" rx="5.56"/><rect class="cls-1" x="1345.32" y="487.94" width="11.13" height="11.13" rx="5.56"/><rect class="cls-1" x="1345.32" y="510.19" width="11.13" height="11.13" rx="5.56"/><rect class="cls-1" x="1323.07" y="487.94" width="11.13" height="11.13" rx="5.56"/><rect class="cls-1" x="1300.82" y="487.94" width="11.13" height="11.13" rx="5.56"/><rect class="cls-1" x="1345.32" y="532.44" width="11.13" height="11.13" rx="5.56"/><rect class="cls-1" x="1323.07" y="532.44" width="11.13" height="11.13" rx="5.56"/><rect class="cls-1" x="1300.82" y="532.44" width="11.13" height="11.13" rx="5.56"/><rect class="cls-1" x="1300.82" y="465.69" width="11.13" height="11.13" rx="5.56"/><rect class="cls-1" x="876.56" y="576.94" width="11.13" height="11.13" rx="5.56"/><rect class="cls-1" x="898.81" y="576.94" width="11.13" height="11.13" rx="5.56"/><rect class="cls-1" x="921.06" y="576.94" width="11.13" height="11.13" rx="5.56"/><rect class="cls-1" x="943.31" y="576.94" width="11.13" height="11.13" rx="5.56"/><rect class="cls-1" x="965.56" y="576.94" width="11.13" height="11.13" rx="5.56"/><rect class="cls-1" x="876.56" y="554.69" width="11.13" height="11.13" rx="5.56"/><rect class="cls-1" x="876.56" y="532.44" width="11.13" height="11.13" rx="5.56"/><rect class="cls-1" x="876.56" y="510.19" width="11.13" height="11.13" rx="5.56"/><rect class="cls-1" x="876.56" y="487.94" width="11.13" height="11.13" rx="5.56"/><rect class="cls-1" x="876.56" y="465.69" width="11.13" height="11.13" rx="5.56"/><rect class="cls-1" x="876.56" y="443.44" width="11.13" height="11.13" rx="5.56"/><rect class="cls-1" x="876.56" y="421.19" width="11.13" height="11.13" rx="5.56"/><rect class="cls-1" x="876.56" y="398.94" width="11.13" height="11.13" rx="5.56"/><rect class="cls-1" x="876.56" y="376.69" width="11.13" height="11.13" rx="5.56"/><rect class="cls-1" x="876.56" y="354.44" width="11.13" height="11.13" rx="5.56"/><rect class="cls-1" x="876.56" y="332.19" width="11.13" height="11.13" rx="5.56"/><rect class="cls-1" x="876.56" y="309.94" width="11.13" height="11.13" rx="5.56"/><rect class="cls-1" x="876.56" y="287.69" width="11.13" height="11.13" rx="5.56"/><rect class="cls-1" x="876.56" y="265.44" width="11.13" height="11.13" rx="5.56"/><rect class="cls-1" x="876.56" y="243.19" width="11.13" height="11.13" rx="5.56"/><rect class="cls-1" x="876.56" y="220.94" width="11.13" height="11.13" rx="5.56"/><rect class="cls-1" x="876.56" y="198.69" width="11.13" height="11.13" rx="5.56"/><rect class="cls-1" x="876.56" y="176.44" width="11.13" height="11.13" rx="5.56"/><rect class="cls-1" x="876.56" y="154.19" width="11.13" height="11.13" rx="5.56"/><rect class="cls-1" x="876.56" y="131.94" width="11.13" height="11.13" rx="5.56"/><rect class="cls-1" x="898.81" y="131.94" width="11.13" height="11.13" rx="5.56"/><rect class="cls-1" x="921.06" y="131.94" width="11.13" height="11.13" rx="5.56"/><rect class="cls-1" x="943.31" y="131.94" width="11.13" height="11.13" rx="5.56"/><rect class="cls-1" x="965.56" y="131.94" width="11.13" height="11.13" rx="5.56"/><rect class="cls-1" x="965.56" y="154.19" width="11.13" height="11.13" rx="5.56"/><rect class="cls-1" x="965.56" y="176.44" width="11.13" height="11.13" rx="5.56"/><rect class="cls-1" x="943.31" y="176.44" width="11.13" height="11.13" rx="5.56"/><rect class="cls-1" x="921.06" y="176.44" width="11.13" height="11.13" rx="5.56"/><rect class="cls-1" x="921.06" y="198.69" width="11.13" height="11.13" rx="5.56"/><rect class="cls-1" x="921.06" y="220.94" width="11.13" height="11.13" rx="5.56"/><rect class="cls-1" x="921.06" y="265.44" width="11.13" height="11.13" rx="5.56"/><rect class="cls-1" x="921.06" y="287.69" width="11.13" height="11.13" rx="5.56"/><rect class="cls-1" x="921.06" y="309.94" width="11.13" height="11.13" rx="5.56"/><rect class="cls-1" x="921.06" y="332.19" width="11.13" height="11.13" rx="5.56"/><rect class="cls-1" x="921.06" y="354.44" width="11.13" height="11.13" rx="5.56"/><rect class="cls-1" x="943.31" y="354.44" width="11.13" height="11.13" rx="5.56"/><rect class="cls-1" x="965.56" y="354.44" width="11.13" height="11.13" rx="5.56"/><rect class="cls-1" x="965.56" y="376.69" width="11.13" height="11.13" rx="5.56"/><rect class="cls-1" x="965.56" y="398.94" width="11.13" height="11.13" rx="5.56"/><rect class="cls-1" x="943.31" y="398.94" width="11.13" height="11.13" rx="5.56"/><rect class="cls-1" x="921.06" y="398.94" width="11.13" height="11.13" rx="5.56"/><rect class="cls-1" x="921.06" y="421.19" width="11.13" height="11.13" rx="5.56"/><rect class="cls-1" x="921.06" y="443.44" width="11.13" height="11.13" rx="5.56"/><rect class="cls-1" x="943.31" y="443.44" width="11.13" height="11.13" rx="5.56"/><rect class="cls-1" x="965.56" y="443.44" width="11.13" height="11.13" rx="5.56"/><rect class="cls-1" x="965.56" y="465.69" width="11.13" height="11.13" rx="5.56"/><rect class="cls-1" x="965.56" y="487.94" width="11.13" height="11.13" rx="5.56"/><rect class="cls-1" x="943.31" y="487.94" width="11.13" height="11.13" rx="5.56"/><rect class="cls-1" x="921.06" y="487.94" width="11.13" height="11.13" rx="5.56"/><rect class="cls-1" x="921.06" y="510.19" width="11.13" height="11.13" rx="5.56"/><rect class="cls-1" x="921.06" y="532.44" width="11.13" height="11.13" rx="5.56"/><rect class="cls-1" x="943.31" y="532.44" width="11.13" height="11.13" rx="5.56"/><rect class="cls-1" x="965.56" y="532.44" width="11.13" height="11.13" rx="5.56"/><rect class="cls-1" x="965.56" y="554.69" width="11.13" height="11.13" rx="5.56"/><rect class="cls-1" x="943.31" y="220.94" width="11.13" height="11.13" rx="5.56"/><rect class="cls-1" x="965.56" y="220.94" width="11.13" height="11.13" rx="5.56"/><rect class="cls-1" x="987.81" y="220.94" width="11.13" height="11.13" rx="5.56"/><rect class="cls-1" x="1010.06" y="220.94" width="11.13" height="11.13" rx="5.56"/><rect class="cls-1" x="1010.06" y="243.19" width="11.13" height="11.13" rx="5.56"/><rect class="cls-1" x="1010.06" y="265.44" width="11.13" height="11.13" rx="5.56"/><rect class="cls-1" x="987.81" y="265.44" width="11.13" height="11.13" rx="5.56"/><rect class="cls-1" x="965.56" y="265.44" width="11.13" height="11.13" rx="5.56"/><rect class="cls-1" x="965.56" y="287.69" width="11.13" height="11.13" rx="5.56"/><rect class="cls-1" x="965.56" y="309.94" width="11.13" height="11.13" rx="5.56"/><rect class="cls-1" x="987.81" y="309.94" width="11.13" height="11.13" rx="5.56"/><rect class="cls-1" x="1010.06" y="309.94" width="11.13" height="11.13" rx="5.56"/><rect class="cls-1" x="1032.31" y="309.94" width="11.13" height="11.13" rx="5.56"/><rect class="cls-1" x="1054.56" y="309.94" width="11.13" height="11.13" rx="5.56"/><rect class="cls-1" x="1054.56" y="332.19" width="11.13" height="11.13" rx="5.56"/><rect class="cls-1" x="1054.56" y="354.44" width="11.13" height="11.13" rx="5.56"/><rect class="cls-1" x="1032.31" y="354.44" width="11.13" height="11.13" rx="5.56"/><rect class="cls-1" x="1010.06" y="354.44" width="11.13" height="11.13" rx="5.56"/><rect class="cls-1" x="1010.06" y="376.69" width="11.13" height="11.13" rx="5.56"/><rect class="cls-1" x="1010.06" y="398.94" width="11.13" height="11.13" rx="5.56"/><rect class="cls-1" x="1032.31" y="398.94" width="11.13" height="11.13" rx="5.56"/><rect class="cls-1" x="1054.56" y="398.94" width="11.13" height="11.13" rx="5.56"/><rect class="cls-1" x="1076.81" y="398.94" width="11.13" height="11.13" rx="5.56"/><rect class="cls-1" x="1099.06" y="398.94" width="11.13" height="11.13" rx="5.56"/><rect class="cls-1" x="1099.06" y="421.19" width="11.13" height="11.13" rx="5.56"/><rect class="cls-1" x="1099.06" y="443.44" width="11.13" height="11.13" rx="5.56"/><rect class="cls-1" x="1076.81" y="443.44" width="11.13" height="11.13" rx="5.56"/><rect class="cls-1" x="1054.56" y="443.44" width="11.13" height="11.13" rx="5.56"/><rect class="cls-1" x="1054.56" y="465.69" width="11.13" height="11.13" rx="5.56"/><rect class="cls-1" x="1054.56" y="487.94" width="11.13" height="11.13" rx="5.56"/><rect class="cls-1" x="1076.81" y="487.94" width="11.13" height="11.13" rx="5.56"/><rect class="cls-1" x="1099.06" y="487.94" width="11.13" height="11.13" rx="5.56"/><rect class="cls-1" x="1121.31" y="487.94" width="11.13" height="11.13" rx="5.56"/><rect class="cls-1" x="1143.56" y="487.94" width="11.13" height="11.13" rx="5.56"/><rect class="cls-1" x="1143.56" y="510.19" width="11.13" height="11.13" rx="5.56"/><rect class="cls-1" x="1143.56" y="532.44" width="11.13" height="11.13" rx="5.56"/><rect class="cls-1" x="1121.31" y="532.44" width="11.13" height="11.13" rx="5.56"/><rect class="cls-1" x="1099.06" y="532.44" width="11.13" height="11.13" rx="5.56"/><rect class="cls-1" x="1099.06" y="554.69" width="11.13" height="11.13" rx="5.56"/><rect class="cls-1" x="1188.06" y="576.94" width="11.13" height="11.13" rx="5.56" transform="translate(2387.24 1165) rotate(-180)"/><rect class="cls-1" x="1165.81" y="576.94" width="11.13" height="11.13" rx="5.56" transform="translate(2342.74 1165) rotate(-180)"/><rect class="cls-1" x="1143.56" y="576.94" width="11.13" height="11.13" rx="5.56" transform="translate(2298.24 1165) rotate(180)"/><rect class="cls-1" x="1121.31" y="576.94" width="11.13" height="11.13" rx="5.56" transform="translate(2253.74 1165) rotate(180)"/><rect class="cls-1" x="1099.06" y="576.94" width="11.13" height="11.13" rx="5.56" transform="translate(2209.24 1165) rotate(-180)"/><rect class="cls-1" x="1188.06" y="554.69" width="11.13" height="11.13" rx="5.56" transform="translate(2387.24 1120.5) rotate(180)"/><rect class="cls-1" x="1188.06" y="532.44" width="11.13" height="11.13" rx="5.56" transform="translate(2387.24 1076) rotate(180)"/><rect class="cls-1" x="1188.06" y="510.19" width="11.13" height="11.13" rx="5.56" transform="translate(2387.24 1031.5) rotate(-180)"/><rect class="cls-1" x="1188.06" y="487.94" width="11.13" height="11.13" rx="5.56" transform="translate(2387.24 987) rotate(180)"/><rect class="cls-1" x="1188.06" y="465.69" width="11.13" height="11.13" rx="5.56" transform="translate(2387.24 942.5) rotate(180)"/><rect class="cls-1" x="1188.06" y="443.44" width="11.13" height="11.13" rx="5.56" transform="translate(2387.24 898) rotate(180)"/><rect class="cls-1" x="1188.06" y="421.19" width="11.13" height="11.13" rx="5.56" transform="translate(2387.24 853.5) rotate(-180)"/><rect class="cls-1" x="1188.06" y="398.94" width="11.13" height="11.13" rx="5.56" transform="translate(2387.24 809) rotate(-180)"/><rect class="cls-1" x="1188.06" y="376.69" width="11.13" height="11.13" rx="5.56" transform="translate(2387.24 764.5) rotate(180)"/><rect class="cls-1" x="1188.06" y="354.44" width="11.13" height="11.13" rx="5.56" transform="translate(2387.24 720) rotate(180)"/><rect class="cls-1" x="1188.06" y="332.19" width="11.13" height="11.13" rx="5.56" transform="translate(2387.24 675.5) rotate(180)"/><rect class="cls-1" x="1188.06" y="309.94" width="11.13" height="11.13" rx="5.56" transform="translate(2387.24 631) rotate(180)"/><rect class="cls-1" x="1188.06" y="287.69" width="11.13" height="11.13" rx="5.56" transform="translate(2387.24 586.5) rotate(180)"/><rect class="cls-1" x="1188.06" y="265.44" width="11.13" height="11.13" rx="5.56" transform="translate(2387.24 542) rotate(180)"/><rect class="cls-1" x="1188.06" y="243.19" width="11.13" height="11.13" rx="5.56" transform="translate(2387.24 497.5) rotate(180)"/><rect class="cls-1" x="1188.06" y="220.94" width="11.13" height="11.13" rx="5.56" transform="translate(2387.24 453) rotate(-180)"/><rect class="cls-1" x="1188.06" y="198.69" width="11.13" height="11.13" rx="5.56" transform="translate(2387.24 408.5) rotate(180)"/><rect class="cls-1" x="1188.06" y="176.44" width="11.13" height="11.13" rx="5.56" transform="translate(2387.24 364) rotate(180)"/><rect class="cls-1" x="1188.06" y="154.19" width="11.13" height="11.13" rx="5.56" transform="translate(2387.24 319.5) rotate(180)"/><rect class="cls-1" x="1188.06" y="131.94" width="11.13" height="11.13" rx="5.56" transform="translate(2387.24 275) rotate(-180)"/><rect class="cls-1" x="1165.81" y="131.94" width="11.13" height="11.13" rx="5.56" transform="translate(2342.74 275) rotate(-180)"/><rect class="cls-1" x="1143.56" y="131.94" width="11.13" height="11.13" rx="5.56" transform="translate(2298.24 275) rotate(180)"/><rect class="cls-1" x="1121.31" y="131.94" width="11.13" height="11.13" rx="5.56" transform="translate(2253.74 275) rotate(180)"/><rect class="cls-1" x="1099.06" y="131.94" width="11.13" height="11.13" rx="5.56" transform="translate(2209.24 275) rotate(-180)"/><rect class="cls-1" x="1099.06" y="154.19" width="11.13" height="11.13" rx="5.56" transform="translate(2209.24 319.5) rotate(-180)"/><rect class="cls-1" x="1099.06" y="176.44" width="11.13" height="11.13" rx="5.56" transform="translate(2209.24 364) rotate(-180)"/><rect class="cls-1" x="1121.31" y="176.44" width="11.13" height="11.13" rx="5.56" transform="translate(2253.74 364) rotate(-180)"/><rect class="cls-1" x="1143.56" y="176.44" width="11.13" height="11.13" rx="5.56" transform="translate(2298.24 364) rotate(180)"/><rect class="cls-1" x="1143.56" y="198.69" width="11.13" height="11.13" rx="5.56" transform="translate(2298.24 408.5) rotate(180)"/><rect class="cls-1" x="1143.56" y="220.94" width="11.13" height="11.13" rx="5.56" transform="translate(2298.24 453) rotate(180)"/><rect class="cls-1" x="1121.31" y="220.94" width="11.13" height="11.13" rx="5.56" transform="translate(2253.74 453) rotate(-180)"/><rect class="cls-1" x="1099.06" y="220.94" width="11.13" height="11.13" rx="5.56" transform="translate(2209.24 453) rotate(180)"/><rect class="cls-1" x="1099.06" y="243.19" width="11.13" height="11.13" rx="5.56" transform="translate(2209.24 497.5) rotate(180)"/><rect class="cls-1" x="1099.06" y="265.44" width="11.13" height="11.13" rx="5.56" transform="translate(2209.24 542) rotate(180)"/><rect class="cls-1" x="1121.31" y="265.44" width="11.13" height="11.13" rx="5.56" transform="translate(2253.74 542) rotate(180)"/><rect class="cls-1" x="1143.56" y="265.44" width="11.13" height="11.13" rx="5.56" transform="translate(2298.24 542) rotate(180)"/><rect class="cls-1" x="1143.56" y="287.69" width="11.13" height="11.13" rx="5.56" transform="translate(2298.24 586.5) rotate(180)"/><rect class="cls-1" x="1143.56" y="309.94" width="11.13" height="11.13" rx="5.56" transform="translate(2298.24 631) rotate(180)"/><rect class="cls-1" x="1121.31" y="309.94" width="11.13" height="11.13" rx="5.56" transform="translate(2253.74 631) rotate(180)"/><rect class="cls-1" x="1099.06" y="309.94" width="11.13" height="11.13" rx="5.56" transform="translate(2209.24 631) rotate(-180)"/><rect class="cls-1" x="1099.06" y="332.19" width="11.13" height="11.13" rx="5.56" transform="translate(2209.24 675.5) rotate(-180)"/><rect class="cls-1" x="1099.06" y="354.44" width="11.13" height="11.13" rx="5.56" transform="translate(2209.24 720) rotate(-180)"/><rect class="cls-1" x="1121.31" y="354.44" width="11.13" height="11.13" rx="5.56" transform="translate(2253.74 720) rotate(180)"/><rect class="cls-1" x="1143.56" y="354.44" width="11.13" height="11.13" rx="5.56" transform="translate(2298.24 720) rotate(-180)"/><rect class="cls-1" x="1143.56" y="376.69" width="11.13" height="11.13" rx="5.56" transform="translate(2298.24 764.5) rotate(-180)"/><rect class="cls-1" x="1143.56" y="398.94" width="11.13" height="11.13" rx="5.56" transform="translate(2298.24 809) rotate(180)"/><rect class="cls-1" x="1143.56" y="421.19" width="11.13" height="11.13" rx="5.56" transform="translate(2298.24 853.5) rotate(180)"/><rect class="cls-1" x="1143.56" y="443.44" width="11.13" height="11.13" rx="5.56" transform="translate(2298.24 898.01) rotate(-180)"/><rect class="cls-1" x="632.31" y="131.94" width="11.13" height="11.13" rx="5.56"/><rect class="cls-1" x="632.31" y="154.19" width="11.13" height="11.13" rx="5.56"/><rect class="cls-1" x="632.31" y="176.44" width="11.13" height="11.13" rx="5.56"/><rect class="cls-1" x="632.31" y="198.69" width="11.13" height="11.13" rx="5.56"/><rect class="cls-1" x="610.06" y="198.69" width="11.13" height="11.13" rx="5.56"/><rect class="cls-1" x="587.81" y="198.69" width="11.13" height="11.13" rx="5.56"/><rect class="cls-1" x="565.56" y="198.69" width="11.13" height="11.13" rx="5.56"/><rect class="cls-1" x="543.31" y="198.69" width="11.13" height="11.13" rx="5.56"/><rect class="cls-1" x="543.31" y="220.94" width="11.13" height="11.13" rx="5.56"/><rect class="cls-1" x="543.31" y="243.19" width="11.13" height="11.13" rx="5.56"/><rect class="cls-1" x="565.56" y="243.19" width="11.13" height="11.13" rx="5.56"/><rect class="cls-1" x="587.81" y="243.19" width="11.13" height="11.13" rx="5.56"/><rect class="cls-1" x="587.81" y="265.44" width="11.13" height="11.13" rx="5.56"/><rect class="cls-1" x="587.81" y="287.69" width="11.13" height="11.13" rx="5.56"/><rect class="cls-1" x="565.56" y="287.69" width="11.13" height="11.13" rx="5.56"/><rect class="cls-1" x="543.31" y="287.69" width="11.13" height="11.13" rx="5.56"/><rect class="cls-1" x="521.06" y="287.69" width="11.13" height="11.13" rx="5.56"/><rect class="cls-1" x="498.81" y="287.69" width="11.13" height="11.13" rx="5.56"/><rect class="cls-1" x="498.81" y="309.94" width="11.13" height="11.13" rx="5.56"/><rect class="cls-1" x="498.81" y="332.19" width="11.13" height="11.13" rx="5.56"/><rect class="cls-1" x="521.06" y="332.19" width="11.13" height="11.13" rx="5.56"/><rect class="cls-1" x="543.31" y="332.19" width="11.13" height="11.13" rx="5.56"/><rect class="cls-1" x="543.31" y="354.44" width="11.13" height="11.13" rx="5.56"/><rect class="cls-1" x="543.31" y="376.69" width="11.13" height="11.13" rx="5.56"/><rect class="cls-1" x="521.06" y="376.69" width="11.13" height="11.13" rx="5.56"/><rect class="cls-1" x="498.81" y="376.69" width="11.13" height="11.13" rx="5.56"/><rect class="cls-1" x="498.81" y="398.94" width="11.13" height="11.13" rx="5.56"/><rect class="cls-1" x="498.81" y="421.19" width="11.13" height="11.13" rx="5.56"/><rect class="cls-1" x="521.06" y="421.19" width="11.13" height="11.13" rx="5.56"/><rect class="cls-1" x="543.31" y="421.19" width="11.13" height="11.13" rx="5.56"/><rect class="cls-1" x="565.56" y="421.19" width="11.13" height="11.13" rx="5.56"/><rect class="cls-1" x="587.81" y="421.19" width="11.13" height="11.13" rx="5.56"/><rect class="cls-1" x="587.81" y="443.44" width="11.13" height="11.13" rx="5.56"/><rect class="cls-1" x="587.81" y="465.69" width="11.13" height="11.13" rx="5.56"/><rect class="cls-1" x="565.56" y="465.69" width="11.13" height="11.13" rx="5.56"/><rect class="cls-1" x="543.31" y="465.69" width="11.13" height="11.13" rx="5.56"/><rect class="cls-1" x="543.31" y="487.94" width="11.13" height="11.13" rx="5.56"/><rect class="cls-1" x="543.31" y="510.19" width="11.13" height="11.13" rx="5.56"/><rect class="cls-1" x="565.56" y="510.19" width="11.13" height="11.13" rx="5.56"/><rect class="cls-1" x="587.81" y="510.19" width="11.13" height="11.13" rx="5.56"/><rect class="cls-1" x="610.06" y="510.19" width="11.13" height="11.13" rx="5.56"/><rect class="cls-1" x="632.31" y="510.19" width="11.13" height="11.13" rx="5.56"/><rect class="cls-1" x="632.31" y="532.44" width="11.13" height="11.13" rx="5.56"/><rect class="cls-1" x="632.31" y="554.69" width="11.13" height="11.13" rx="5.56"/><rect class="cls-1" x="632.31" y="576.94" width="11.13" height="11.13" rx="5.56"/><rect class="cls-1" x="654.56" y="576.94" width="11.13" height="11.13" rx="5.56"/><rect class="cls-1" x="676.81" y="576.94" width="11.13" height="11.13" rx="5.56"/><rect class="cls-1" x="676.81" y="554.69" width="11.13" height="11.13" rx="5.56"/><rect class="cls-1" x="676.81" y="532.44" width="11.13" height="11.13" rx="5.56"/><rect class="cls-1" x="676.81" y="510.19" width="11.13" height="11.13" rx="5.56"/><rect class="cls-1" x="699.06" y="510.19" width="11.13" height="11.13" rx="5.56"/><rect class="cls-1" x="721.31" y="510.19" width="11.13" height="11.13" rx="5.56"/><rect class="cls-1" x="743.56" y="510.19" width="11.13" height="11.13" rx="5.56"/><rect class="cls-1" x="765.81" y="510.19" width="11.13" height="11.13" rx="5.56"/><rect class="cls-1" x="765.81" y="487.94" width="11.13" height="11.13" rx="5.56"/><rect class="cls-1" x="765.81" y="465.69" width="11.13" height="11.13" rx="5.56"/><rect class="cls-1" x="743.56" y="465.69" width="11.13" height="11.13" rx="5.56"/><rect class="cls-1" x="721.31" y="465.69" width="11.13" height="11.13" rx="5.56"/><rect class="cls-1" x="721.31" y="443.44" width="11.13" height="11.13" rx="5.56"/><rect class="cls-1" x="721.31" y="421.19" width="11.13" height="11.13" rx="5.56"/><rect class="cls-1" x="743.56" y="421.19" width="11.13" height="11.13" rx="5.56"/><rect class="cls-1" x="765.81" y="421.19" width="11.13" height="11.13" rx="5.56"/><rect class="cls-1" x="788.06" y="421.19" width="11.13" height="11.13" rx="5.56"/><rect class="cls-1" x="810.31" y="421.19" width="11.13" height="11.13" rx="5.56"/><rect class="cls-1" x="810.31" y="398.94" width="11.13" height="11.13" rx="5.56"/><rect class="cls-1" x="810.31" y="376.69" width="11.13" height="11.13" rx="5.56"/><rect class="cls-1" x="788.06" y="376.69" width="11.13" height="11.13" rx="5.56"/><rect class="cls-1" x="765.81" y="376.69" width="11.13" height="11.13" rx="5.56"/><rect class="cls-1" x="765.81" y="354.44" width="11.13" height="11.13" rx="5.56"/><rect class="cls-1" x="765.81" y="332.19" width="11.13" height="11.13" rx="5.56"/><rect class="cls-1" x="788.06" y="332.19" width="11.13" height="11.13" rx="5.56"/><rect class="cls-1" x="810.31" y="332.19" width="11.13" height="11.13" rx="5.56"/><rect class="cls-1" x="810.31" y="309.94" width="11.13" height="11.13" rx="5.56"/><rect class="cls-1" x="810.31" y="287.69" width="11.13" height="11.13" rx="5.56"/><rect class="cls-1" x="788.06" y="287.69" width="11.13" height="11.13" rx="5.56"/><rect class="cls-1" x="765.81" y="287.69" width="11.13" height="11.13" rx="5.56"/><rect class="cls-1" x="743.56" y="287.69" width="11.13" height="11.13" rx="5.56"/><rect class="cls-1" x="721.31" y="287.69" width="11.13" height="11.13" rx="5.56"/><rect class="cls-1" x="721.31" y="265.44" width="11.13" height="11.13" rx="5.56"/><rect class="cls-1" x="721.31" y="243.19" width="11.13" height="11.13" rx="5.56"/><rect class="cls-1" x="743.56" y="243.19" width="11.13" height="11.13" rx="5.56"/><rect class="cls-1" x="765.81" y="243.19" width="11.13" height="11.13" rx="5.56"/><rect class="cls-1" x="765.81" y="220.94" width="11.13" height="11.13" rx="5.56"/><rect class="cls-1" x="765.81" y="198.69" width="11.13" height="11.13" rx="5.56"/><rect class="cls-1" x="743.56" y="198.69" width="11.13" height="11.13" rx="5.56"/><rect class="cls-1" x="721.31" y="198.69" width="11.13" height="11.13" rx="5.56"/><rect class="cls-1" x="654.56" y="131.94" width="11.13" height="11.13" rx="5.56"/><rect class="cls-1" x="676.81" y="131.94" width="11.13" height="11.13" rx="5.56"/><rect class="cls-1" x="676.81" y="154.19" width="11.13" height="11.13" rx="5.56"/><rect class="cls-1" x="676.81" y="176.44" width="11.13" height="11.13" rx="5.56"/><rect class="cls-1" x="676.81" y="198.69" width="11.13" height="11.13" rx="5.56"/><rect class="cls-1" x="676.81" y="220.94" width="11.13" height="11.13" rx="5.56"/><rect class="cls-1" x="676.81" y="243.19" width="11.13" height="11.13" rx="5.56"/><rect class="cls-1" x="676.81" y="265.44" width="11.13" height="11.13" rx="5.56"/><rect class="cls-1" x="676.81" y="287.69" width="11.13" height="11.13" rx="5.56"/><rect class="cls-1" x="676.81" y="309.94" width="11.13" height="11.13" rx="5.56"/><rect class="cls-1" x="676.81" y="332.19" width="11.13" height="11.13" rx="5.56"/><rect class="cls-1" x="699.06" y="332.19" width="11.13" height="11.13" rx="5.56"/><rect class="cls-1" x="721.31" y="332.19" width="11.13" height="11.13" rx="5.56"/><rect class="cls-1" x="721.31" y="354.44" width="11.13" height="11.13" rx="5.56"/><rect class="cls-1" x="721.31" y="376.69" width="11.13" height="11.13" rx="5.56"/><rect class="cls-1" x="699.06" y="376.69" width="11.13" height="11.13" rx="5.56"/><rect class="cls-1" x="676.81" y="376.69" width="11.13" height="11.13" rx="5.56"/><rect class="cls-1" x="676.81" y="398.94" width="11.13" height="11.13" rx="5.56"/><rect class="cls-1" x="676.81" y="421.19" width="11.13" height="11.13" rx="5.56"/><rect class="cls-1" x="676.81" y="443.44" width="11.13" height="11.13" rx="5.56"/><rect class="cls-1" x="676.81" y="465.69" width="11.13" height="11.13" rx="5.56"/><rect class="cls-1" x="654.56" y="465.69" width="11.13" height="11.13" rx="5.56"/><rect class="cls-1" x="632.31" y="465.69" width="11.13" height="11.13" rx="5.56"/><rect class="cls-1" x="632.31" y="443.44" width="11.13" height="11.13" rx="5.56"/><rect class="cls-1" x="632.31" y="421.19" width="11.13" height="11.13" rx="5.56"/><rect class="cls-1" x="632.31" y="398.94" width="11.13" height="11.13" rx="5.56"/><rect class="cls-1" x="632.31" y="376.69" width="11.13" height="11.13" rx="5.56"/><rect class="cls-1" x="610.06" y="376.69" width="11.13" height="11.13" rx="5.56"/><rect class="cls-1" x="587.81" y="376.69" width="11.13" height="11.13" rx="5.56"/><rect class="cls-1" x="587.81" y="354.44" width="11.13" height="11.13" rx="5.56"/><rect class="cls-1" x="587.81" y="332.19" width="11.13" height="11.13" rx="5.56"/><rect class="cls-1" x="610.06" y="332.19" width="11.13" height="11.13" rx="5.56"/><rect class="cls-1" x="632.31" y="332.19" width="11.13" height="11.13" rx="5.56"/><rect class="cls-1" x="632.31" y="309.94" width="11.13" height="11.13" rx="5.56"/><rect class="cls-1" x="632.31" y="287.69" width="11.13" height="11.13" rx="5.56"/><rect class="cls-1" x="632.31" y="265.44" width="11.13" height="11.13" rx="5.56"/><rect class="cls-1" x="632.31" y="243.19" width="11.13" height="11.13" rx="5.56"/></svg>