<svg id="Lines" xmlns="http://www.w3.org/2000/svg" viewBox="0 0 1700 720"><defs><style>.cls-1{fill:#231f20;}</style></defs><rect class="cls-1" x="115.49" y="571.38" width="22.25" height="22.25" rx="11.12"/><rect class="cls-1" x="115.49" y="549.13" width="22.25" height="22.25" rx="11.12"/><rect class="cls-1" x="115.49" y="526.88" width="22.25" height="22.25" rx="11.12"/><rect class="cls-1" x="115.49" y="504.63" width="22.25" height="22.25" rx="11.12"/><rect class="cls-1" x="115.49" y="482.38" width="22.25" height="22.25" rx="11.12"/><rect class="cls-1" x="115.49" y="460.13" width="22.25" height="22.25" rx="11.12"/><rect class="cls-1" x="115.49" y="437.88" width="22.25" height="22.25" rx="11.12"/><rect class="cls-1" x="115.49" y="415.63" width="22.25" height="22.25" rx="11.12"/><rect class="cls-1" x="115.49" y="393.38" width="22.25" height="22.25" rx="11.12"/><rect class="cls-1" x="115.49" y="371.13" width="22.25" height="22.25" rx="11.12"/><rect class="cls-1" x="115.49" y="348.87" width="22.25" height="22.25" rx="11.12"/><rect class="cls-1" x="115.49" y="326.62" width="22.25" height="22.25" rx="11.12"/><rect class="cls-1" x="115.49" y="304.37" width="22.25" height="22.25" rx="11.12"/><rect class="cls-1" x="115.49" y="282.12" width="22.25" height="22.25" rx="11.12"/><rect class="cls-1" x="115.49" y="259.87" width="22.25" height="22.25" rx="11.12"/><rect class="cls-1" x="115.49" y="237.62" width="22.25" height="22.25" rx="11.12"/><rect class="cls-1" x="115.49" y="215.37" width="22.25" height="22.25" rx="11.12"/><rect class="cls-1" x="115.49" y="193.12" width="22.25" height="22.25" rx="11.12"/><rect class="cls-1" x="115.49" y="170.87" width="22.25" height="22.25" rx="11.12"/><rect class="cls-1" x="115.49" y="148.62" width="22.25" height="22.25" rx="11.12"/><rect class="cls-1" x="115.49" y="126.37" width="22.25" height="22.25" rx="11.12"/><rect class="cls-1" x="137.74" y="126.37" width="22.25" height="22.25" rx="11.12"/><rect class="cls-1" x="159.99" y="126.37" width="22.25" height="22.25" rx="11.12"/><rect class="cls-1" x="182.24" y="126.37" width="22.25" height="22.25" rx="11.12"/><rect class="cls-1" x="204.49" y="126.37" width="22.25" height="22.25" rx="11.12"/><rect class="cls-1" x="226.74" y="126.37" width="22.25" height="22.25" rx="11.12"/><rect class="cls-1" x="248.99" y="126.37" width="22.25" height="22.25" rx="11.12"/><rect class="cls-1" x="271.24" y="126.37" width="22.25" height="22.25" rx="11.12"/><rect class="cls-1" x="293.49" y="126.37" width="22.25" height="22.25" rx="11.12"/><rect class="cls-1" x="315.74" y="126.37" width="22.25" height="22.25" rx="11.12"/><rect class="cls-1" x="337.99" y="126.37" width="22.25" height="22.25" rx="11.12"/><rect class="cls-1" x="337.99" y="148.62" width="22.25" height="22.25" rx="11.12"/><rect class="cls-1" x="337.99" y="170.87" width="22.25" height="22.25" rx="11.12"/><rect class="cls-1" x="360.24" y="170.87" width="22.25" height="22.25" rx="11.12"/><rect class="cls-1" x="382.49" y="170.87" width="22.25" height="22.25" rx="11.12"/><rect class="cls-1" x="382.49" y="193.12" width="22.25" height="22.25" rx="11.12"/><rect class="cls-1" x="337.99" y="215.37" width="22.25" height="22.25" rx="11.12"/><rect class="cls-1" x="337.99" y="237.62" width="22.25" height="22.25" rx="11.12"/><rect class="cls-1" x="360.24" y="215.37" width="22.25" height="22.25" rx="11.12"/><rect class="cls-1" x="382.49" y="215.37" width="22.25" height="22.25" rx="11.12"/><rect class="cls-1" x="337.99" y="326.62" width="22.25" height="22.25" rx="11.12"/><rect class="cls-1" x="337.99" y="348.87" width="22.25" height="22.25" rx="11.12"/><rect class="cls-1" x="360.24" y="348.87" width="22.25" height="22.25" rx="11.12"/><rect class="cls-1" x="382.49" y="348.87" width="22.25" height="22.25" rx="11.12"/><rect class="cls-1" x="382.49" y="371.13" width="22.25" height="22.25" rx="11.12"/><rect class="cls-1" x="337.99" y="393.38" width="22.25" height="22.25" rx="11.12"/><rect class="cls-1" x="337.99" y="415.63" width="22.25" height="22.25" rx="11.12"/><rect class="cls-1" x="337.99" y="437.88" width="22.25" height="22.25" rx="11.12"/><rect class="cls-1" x="315.74" y="437.88" width="22.25" height="22.25" rx="11.12"/><rect class="cls-1" x="293.49" y="437.88" width="22.25" height="22.25" rx="11.12"/><rect class="cls-1" x="293.49" y="415.63" width="22.25" height="22.25" rx="11.12"/><rect class="cls-1" x="293.49" y="393.38" width="22.25" height="22.25" rx="11.12"/><rect class="cls-1" x="293.49" y="371.13" width="22.25" height="22.25" rx="11.12"/><rect class="cls-1" x="293.49" y="348.87" width="22.25" height="22.25" rx="11.12"/><rect class="cls-1" x="293.49" y="326.62" width="22.25" height="22.25" rx="11.12"/><rect class="cls-1" x="293.49" y="304.37" width="22.25" height="22.25" rx="11.12"/><rect class="cls-1" x="293.49" y="282.12" width="22.25" height="22.25" rx="11.12"/><rect class="cls-1" x="293.49" y="259.87" width="22.25" height="22.25" rx="11.12"/><rect class="cls-1" x="293.49" y="237.62" width="22.25" height="22.25" rx="11.12"/><rect class="cls-1" x="293.49" y="215.37" width="22.25" height="22.25" rx="11.12"/><rect class="cls-1" x="293.49" y="193.12" width="22.25" height="22.25" rx="11.12"/><rect class="cls-1" x="293.49" y="170.87" width="22.25" height="22.25" rx="11.12"/><rect class="cls-1" x="248.99" y="437.88" width="22.25" height="22.25" rx="11.12"/><rect class="cls-1" x="248.99" y="460.13" width="22.25" height="22.25" rx="11.12"/><rect class="cls-1" x="248.99" y="482.38" width="22.25" height="22.25" rx="11.12"/><rect class="cls-1" x="248.99" y="504.63" width="22.25" height="22.25" rx="11.12"/><rect class="cls-1" x="248.99" y="526.88" width="22.25" height="22.25" rx="11.12"/><rect class="cls-1" x="248.99" y="549.13" width="22.25" height="22.25" rx="11.12"/><rect class="cls-1" x="248.99" y="571.38" width="22.25" height="22.25" rx="11.12"/><rect class="cls-1" x="248.99" y="415.63" width="22.25" height="22.25" rx="11.12"/><rect class="cls-1" x="248.99" y="393.38" width="22.25" height="22.25" rx="11.12"/><rect class="cls-1" x="248.99" y="371.13" width="22.25" height="22.25" rx="11.12"/><rect class="cls-1" x="248.99" y="348.87" width="22.25" height="22.25" rx="11.12"/><rect class="cls-1" x="248.99" y="326.62" width="22.25" height="22.25" rx="11.12"/><rect class="cls-1" x="248.99" y="304.37" width="22.25" height="22.25" rx="11.12"/><rect class="cls-1" x="248.99" y="282.12" width="22.25" height="22.25" rx="11.12"/><rect class="cls-1" x="248.99" y="259.87" width="22.25" height="22.25" rx="11.12"/><rect class="cls-1" x="248.99" y="237.62" width="22.25" height="22.25" rx="11.12"/><rect class="cls-1" x="248.99" y="215.37" width="22.25" height="22.25" rx="11.12"/><rect class="cls-1" x="248.99" y="193.12" width="22.25" height="22.25" rx="11.12"/><rect class="cls-1" x="248.99" y="170.87" width="22.25" height="22.25" rx="11.12"/><rect class="cls-1" x="226.74" y="170.87" width="22.25" height="22.25" rx="11.12"/><rect class="cls-1" x="204.49" y="170.87" width="22.25" height="22.25" rx="11.12"/><rect class="cls-1" x="182.24" y="170.87" width="22.25" height="22.25" rx="11.12"/><rect class="cls-1" x="159.99" y="170.87" width="22.25" height="22.25" rx="11.12"/><rect class="cls-1" x="204.49" y="215.37" width="22.25" height="22.25" rx="11.12"/><rect class="cls-1" x="204.49" y="237.62" width="22.25" height="22.25" rx="11.12"/><rect class="cls-1" x="182.24" y="215.37" width="22.25" height="22.25" rx="11.12"/><rect class="cls-1" x="159.99" y="215.37" width="22.25" height="22.25" rx="11.12"/><rect class="cls-1" x="204.49" y="259.87" width="22.25" height="22.25" rx="11.12"/><rect class="cls-1" x="182.24" y="259.87" width="22.25" height="22.25" rx="11.12"/><rect class="cls-1" x="159.99" y="259.87" width="22.25" height="22.25" rx="11.12"/><rect class="cls-1" x="159.99" y="193.12" width="22.25" height="22.25" rx="11.12"/><rect class="cls-1" x="204.49" y="304.37" width="22.25" height="22.25" rx="11.12"/><rect class="cls-1" x="204.49" y="326.62" width="22.25" height="22.25" rx="11.12"/><rect class="cls-1" x="182.24" y="304.37" width="22.25" height="22.25" rx="11.12"/><rect class="cls-1" x="159.99" y="304.37" width="22.25" height="22.25" rx="11.12"/><rect class="cls-1" x="204.49" y="348.87" width="22.25" height="22.25" rx="11.12"/><rect class="cls-1" x="182.24" y="348.87" width="22.25" height="22.25" rx="11.12"/><rect class="cls-1" x="159.99" y="348.87" width="22.25" height="22.25" rx="11.12"/><rect class="cls-1" x="204.49" y="437.88" width="22.25" height="22.25" rx="11.12"/><rect class="cls-1" x="182.24" y="437.88" width="22.25" height="22.25" rx="11.12"/><rect class="cls-1" x="159.99" y="437.88" width="22.25" height="22.25" rx="11.12"/><rect class="cls-1" x="159.99" y="282.12" width="22.25" height="22.25" rx="11.12"/><rect class="cls-1" x="204.49" y="393.38" width="22.25" height="22.25" rx="11.12"/><rect class="cls-1" x="204.49" y="415.63" width="22.25" height="22.25" rx="11.12"/><rect class="cls-1" x="182.24" y="393.38" width="22.25" height="22.25" rx="11.12"/><rect class="cls-1" x="159.99" y="393.38" width="22.25" height="22.25" rx="11.12"/><rect class="cls-1" x="159.99" y="371.13" width="22.25" height="22.25" rx="11.12"/><rect class="cls-1" x="204.49" y="482.38" width="22.25" height="22.25" rx="11.12"/><rect class="cls-1" x="204.49" y="504.63" width="22.25" height="22.25" rx="11.12"/><rect class="cls-1" x="182.24" y="482.38" width="22.25" height="22.25" rx="11.12"/><rect class="cls-1" x="159.99" y="482.38" width="22.25" height="22.25" rx="11.12"/><rect class="cls-1" x="182.24" y="571.38" width="22.25" height="22.25" rx="11.12"/><rect class="cls-1" x="204.49" y="571.38" width="22.25" height="22.25" rx="11.12"/><rect class="cls-1" x="226.74" y="571.38" width="22.25" height="22.25" rx="11.12"/><rect class="cls-1" x="159.99" y="571.38" width="22.25" height="22.25" rx="11.12"/><rect class="cls-1" x="137.74" y="571.38" width="22.25" height="22.25" rx="11.12"/><rect class="cls-1" x="204.49" y="526.88" width="22.25" height="22.25" rx="11.12"/><rect class="cls-1" x="182.24" y="526.88" width="22.25" height="22.25" rx="11.12"/><rect class="cls-1" x="159.99" y="526.88" width="22.25" height="22.25" rx="11.12"/><rect class="cls-1" x="159.99" y="460.13" width="22.25" height="22.25" rx="11.12"/><rect class="cls-1" x="360.24" y="393.38" width="22.25" height="22.25" rx="11.12"/><rect class="cls-1" x="382.49" y="393.38" width="22.25" height="22.25" rx="11.12"/><rect class="cls-1" x="337.99" y="259.87" width="22.25" height="22.25" rx="11.12"/><rect class="cls-1" x="360.24" y="259.87" width="22.25" height="22.25" rx="11.12"/><rect class="cls-1" x="382.49" y="259.87" width="22.25" height="22.25" rx="11.12"/><rect class="cls-1" x="337.99" y="304.37" width="22.25" height="22.25" rx="11.12"/><rect class="cls-1" x="360.24" y="304.37" width="22.25" height="22.25" rx="11.12"/><rect class="cls-1" x="382.49" y="304.37" width="22.25" height="22.25" rx="11.12"/><rect class="cls-1" x="404.74" y="259.87" width="22.25" height="22.25" rx="11.12"/><rect class="cls-1" x="404.74" y="304.37" width="22.25" height="22.25" rx="11.12"/><rect class="cls-1" x="426.99" y="259.87" width="22.25" height="22.25" rx="11.12"/><rect class="cls-1" x="426.99" y="282.12" width="22.25" height="22.25" rx="11.12"/><rect class="cls-1" x="426.99" y="304.37" width="22.25" height="22.25" rx="11.12"/><rect class="cls-1" x="1250.76" y="571.38" width="22.25" height="22.25" rx="11.12"/><rect class="cls-1" x="1273.01" y="571.38" width="22.25" height="22.25" rx="11.12"/><rect class="cls-1" x="1295.26" y="571.38" width="22.25" height="22.25" rx="11.12"/><rect class="cls-1" x="1317.51" y="571.38" width="22.25" height="22.25" rx="11.12"/><rect class="cls-1" x="1339.76" y="571.38" width="22.25" height="22.25" rx="11.12"/><rect class="cls-1" x="1250.76" y="549.13" width="22.25" height="22.25" rx="11.12"/><rect class="cls-1" x="1250.76" y="526.88" width="22.25" height="22.25" rx="11.12"/><rect class="cls-1" x="1250.76" y="504.63" width="22.25" height="22.25" rx="11.12"/><rect class="cls-1" x="1250.76" y="482.38" width="22.25" height="22.25" rx="11.12"/><rect class="cls-1" x="1250.76" y="460.13" width="22.25" height="22.25" rx="11.12"/><rect class="cls-1" x="1250.76" y="437.88" width="22.25" height="22.25" rx="11.12"/><rect class="cls-1" x="1250.76" y="415.63" width="22.25" height="22.25" rx="11.12"/><rect class="cls-1" x="1250.76" y="393.37" width="22.25" height="22.25" rx="11.12"/><rect class="cls-1" x="1250.76" y="371.12" width="22.25" height="22.25" rx="11.12"/><rect class="cls-1" x="1250.76" y="348.87" width="22.25" height="22.25" rx="11.12"/><rect class="cls-1" x="1250.76" y="326.62" width="22.25" height="22.25" rx="11.12"/><rect class="cls-1" x="1250.76" y="304.37" width="22.25" height="22.25" rx="11.12"/><rect class="cls-1" x="1250.76" y="282.12" width="22.25" height="22.25" rx="11.12"/><rect class="cls-1" x="1250.76" y="259.87" width="22.25" height="22.25" rx="11.12"/><rect class="cls-1" x="1250.76" y="237.62" width="22.25" height="22.25" rx="11.12"/><rect class="cls-1" x="1250.76" y="215.37" width="22.25" height="22.25" rx="11.12"/><rect class="cls-1" x="1250.76" y="193.12" width="22.25" height="22.25" rx="11.12"/><rect class="cls-1" x="1250.76" y="170.87" width="22.25" height="22.25" rx="11.12"/><rect class="cls-1" x="1250.76" y="148.62" width="22.25" height="22.25" rx="11.12"/><rect class="cls-1" x="1250.76" y="126.37" width="22.25" height="22.25" rx="11.12"/><rect class="cls-1" x="1273.01" y="126.37" width="22.25" height="22.25" rx="11.12"/><rect class="cls-1" x="1295.26" y="126.37" width="22.25" height="22.25" rx="11.12"/><rect class="cls-1" x="1317.51" y="126.37" width="22.25" height="22.25" rx="11.12"/><rect class="cls-1" x="1339.76" y="126.37" width="22.25" height="22.25" rx="11.12"/><rect class="cls-1" x="1362.01" y="126.37" width="22.25" height="22.25" rx="11.12"/><rect class="cls-1" x="1384.26" y="126.37" width="22.25" height="22.25" rx="11.12"/><rect class="cls-1" x="1406.51" y="126.37" width="22.25" height="22.25" rx="11.12"/><rect class="cls-1" x="1384.26" y="437.88" width="22.25" height="22.25" rx="11.12"/><rect class="cls-1" x="1384.26" y="460.13" width="22.25" height="22.25" rx="11.12"/><rect class="cls-1" x="1384.26" y="482.38" width="22.25" height="22.25" rx="11.12"/><rect class="cls-1" x="1384.26" y="504.63" width="22.25" height="22.25" rx="11.12"/><rect class="cls-1" x="1384.26" y="526.88" width="22.25" height="22.25" rx="11.12"/><rect class="cls-1" x="1384.26" y="549.13" width="22.25" height="22.25" rx="11.12"/><rect class="cls-1" x="1384.26" y="571.38" width="22.25" height="22.25" rx="11.12"/><rect class="cls-1" x="1406.51" y="571.38" width="22.25" height="22.25" rx="11.12"/><rect class="cls-1" x="1428.76" y="571.38" width="22.25" height="22.25" rx="11.12"/><rect class="cls-1" x="1428.76" y="549.13" width="22.25" height="22.25" rx="11.12"/><rect class="cls-1" x="1428.76" y="526.88" width="22.25" height="22.25" rx="11.12"/><rect class="cls-1" x="1428.76" y="504.63" width="22.25" height="22.25" rx="11.12"/><rect class="cls-1" x="1451.01" y="504.63" width="22.25" height="22.25" rx="11.12"/><rect class="cls-1" x="1473.26" y="504.63" width="22.25" height="22.25" rx="11.12"/><rect class="cls-1" x="1495.51" y="504.63" width="22.25" height="22.25" rx="11.12"/><rect class="cls-1" x="1517.76" y="504.63" width="22.25" height="22.25" rx="11.12"/><rect class="cls-1" x="1517.76" y="482.38" width="22.25" height="22.25" rx="11.12"/><rect class="cls-1" x="1517.76" y="460.13" width="22.25" height="22.25" rx="11.12"/><rect class="cls-1" x="1495.51" y="460.13" width="22.25" height="22.25" rx="11.12"/><rect class="cls-1" x="1473.26" y="460.13" width="22.25" height="22.25" rx="11.12"/><rect class="cls-1" x="1473.26" y="437.88" width="22.25" height="22.25" rx="11.12"/><rect class="cls-1" x="1473.26" y="415.63" width="22.25" height="22.25" rx="11.12"/><rect class="cls-1" x="1495.51" y="415.63" width="22.25" height="22.25" rx="11.12"/><rect class="cls-1" x="1517.76" y="415.63" width="22.25" height="22.25" rx="11.12"/><rect class="cls-1" x="1540.01" y="415.63" width="22.25" height="22.25" rx="11.12"/><rect class="cls-1" x="1562.26" y="415.63" width="22.25" height="22.25" rx="11.12"/><rect class="cls-1" x="1473.26" y="371.12" width="22.25" height="22.25" rx="11.12"/><rect class="cls-1" x="1473.26" y="348.87" width="22.25" height="22.25" rx="11.12"/><rect class="cls-1" x="1495.51" y="371.12" width="22.25" height="22.25" rx="11.12"/><rect class="cls-1" x="1517.76" y="371.12" width="22.25" height="22.25" rx="11.12"/><rect class="cls-1" x="1540.01" y="371.12" width="22.25" height="22.25" rx="11.12"/><rect class="cls-1" x="1562.26" y="371.12" width="22.25" height="22.25" rx="11.12"/><rect class="cls-1" x="1562.26" y="393.38" width="22.25" height="22.25" rx="11.12"/><rect class="cls-1" x="1473.26" y="326.62" width="22.25" height="22.25" rx="11.12"/><rect class="cls-1" x="1495.51" y="326.62" width="22.25" height="22.25" rx="11.12"/><rect class="cls-1" x="1517.76" y="326.62" width="22.25" height="22.25" rx="11.12"/><rect class="cls-1" x="1540.01" y="326.62" width="22.25" height="22.25" rx="11.12"/><rect class="cls-1" x="1562.26" y="326.62" width="22.25" height="22.25" rx="11.12"/><rect class="cls-1" x="1473.26" y="282.12" width="22.25" height="22.25" rx="11.12"/><rect class="cls-1" x="1473.26" y="259.87" width="22.25" height="22.25" rx="11.12"/><rect class="cls-1" x="1473.26" y="237.62" width="22.25" height="22.25" rx="11.12"/><rect class="cls-1" x="1495.51" y="237.62" width="22.25" height="22.25" rx="11.12"/><rect class="cls-1" x="1517.76" y="237.62" width="22.25" height="22.25" rx="11.12"/><rect class="cls-1" x="1517.76" y="215.37" width="22.25" height="22.25" rx="11.12"/><rect class="cls-1" x="1517.76" y="193.12" width="22.25" height="22.25" rx="11.12"/><rect class="cls-1" x="1495.51" y="193.12" width="22.25" height="22.25" rx="11.12"/><rect class="cls-1" x="1473.26" y="193.12" width="22.25" height="22.25" rx="11.12"/><rect class="cls-1" x="1451.01" y="193.12" width="22.25" height="22.25" rx="11.12"/><rect class="cls-1" x="1428.76" y="193.12" width="22.25" height="22.25" rx="11.12"/><rect class="cls-1" x="1428.76" y="170.87" width="22.25" height="22.25" rx="11.12"/><rect class="cls-1" x="1428.76" y="148.62" width="22.25" height="22.25" rx="11.12"/><rect class="cls-1" x="1428.76" y="126.37" width="22.25" height="22.25" rx="11.12"/><rect class="cls-1" x="1495.51" y="282.12" width="22.25" height="22.25" rx="11.12"/><rect class="cls-1" x="1517.76" y="282.12" width="22.25" height="22.25" rx="11.12"/><rect class="cls-1" x="1540.01" y="282.12" width="22.25" height="22.25" rx="11.12"/><rect class="cls-1" x="1562.26" y="282.12" width="22.25" height="22.25" rx="11.12"/><rect class="cls-1" x="1562.26" y="304.37" width="22.25" height="22.25" rx="11.12"/><rect class="cls-1" x="1384.26" y="415.63" width="22.25" height="22.25" rx="11.12"/><rect class="cls-1" x="1384.26" y="393.38" width="22.25" height="22.25" rx="11.12"/><rect class="cls-1" x="1384.26" y="371.12" width="22.25" height="22.25" rx="11.12"/><rect class="cls-1" x="1384.26" y="348.87" width="22.25" height="22.25" rx="11.12"/><rect class="cls-1" x="1384.26" y="326.62" width="22.25" height="22.25" rx="11.12"/><rect class="cls-1" x="1384.26" y="304.37" width="22.25" height="22.25" rx="11.12"/><rect class="cls-1" x="1384.26" y="282.12" width="22.25" height="22.25" rx="11.12"/><rect class="cls-1" x="1384.26" y="259.87" width="22.25" height="22.25" rx="11.12"/><rect class="cls-1" x="1384.26" y="237.62" width="22.25" height="22.25" rx="11.12"/><rect class="cls-1" x="1384.26" y="215.37" width="22.25" height="22.25" rx="11.12"/><rect class="cls-1" x="1384.26" y="193.12" width="22.25" height="22.25" rx="11.12"/><rect class="cls-1" x="1384.26" y="170.87" width="22.25" height="22.25" rx="11.12"/><rect class="cls-1" x="1362.01" y="170.87" width="22.25" height="22.25" rx="11.12"/><rect class="cls-1" x="1339.76" y="170.87" width="22.25" height="22.25" rx="11.12"/><rect class="cls-1" x="1317.51" y="170.87" width="22.25" height="22.25" rx="11.12"/><rect class="cls-1" x="1295.26" y="170.87" width="22.25" height="22.25" rx="11.12"/><rect class="cls-1" x="1339.76" y="215.37" width="22.25" height="22.25" rx="11.12"/><rect class="cls-1" x="1339.76" y="237.62" width="22.25" height="22.25" rx="11.12"/><rect class="cls-1" x="1317.51" y="215.37" width="22.25" height="22.25" rx="11.12"/><rect class="cls-1" x="1295.26" y="215.37" width="22.25" height="22.25" rx="11.12"/><rect class="cls-1" x="1339.76" y="259.87" width="22.25" height="22.25" rx="11.12"/><rect class="cls-1" x="1317.51" y="259.87" width="22.25" height="22.25" rx="11.12"/><rect class="cls-1" x="1295.26" y="259.87" width="22.25" height="22.25" rx="11.12"/><rect class="cls-1" x="1295.26" y="193.12" width="22.25" height="22.25" rx="11.12"/><rect class="cls-1" x="1339.76" y="304.37" width="22.25" height="22.25" rx="11.12"/><rect class="cls-1" x="1339.76" y="326.62" width="22.25" height="22.25" rx="11.12"/><rect class="cls-1" x="1317.51" y="304.37" width="22.25" height="22.25" rx="11.12"/><rect class="cls-1" x="1295.26" y="304.37" width="22.25" height="22.25" rx="11.12"/><rect class="cls-1" x="1339.76" y="348.87" width="22.25" height="22.25" rx="11.12"/><rect class="cls-1" x="1317.51" y="348.87" width="22.25" height="22.25" rx="11.12"/><rect class="cls-1" x="1295.26" y="348.87" width="22.25" height="22.25" rx="11.12"/><rect class="cls-1" x="1339.76" y="437.88" width="22.25" height="22.25" rx="11.12"/><rect class="cls-1" x="1317.51" y="437.88" width="22.25" height="22.25" rx="11.12"/><rect class="cls-1" x="1295.26" y="437.88" width="22.25" height="22.25" rx="11.12"/><rect class="cls-1" x="1295.26" y="282.12" width="22.25" height="22.25" rx="11.12"/><rect class="cls-1" x="1339.76" y="393.37" width="22.25" height="22.25" rx="11.12"/><rect class="cls-1" x="1339.76" y="415.63" width="22.25" height="22.25" rx="11.12"/><rect class="cls-1" x="1317.51" y="393.37" width="22.25" height="22.25" rx="11.12"/><rect class="cls-1" x="1295.26" y="393.38" width="22.25" height="22.25" rx="11.12"/><rect class="cls-1" x="1295.26" y="371.12" width="22.25" height="22.25" rx="11.12"/><rect class="cls-1" x="1339.76" y="482.38" width="22.25" height="22.25" rx="11.12"/><rect class="cls-1" x="1339.76" y="504.63" width="22.25" height="22.25" rx="11.12"/><rect class="cls-1" x="1317.51" y="482.38" width="22.25" height="22.25" rx="11.12"/><rect class="cls-1" x="1295.26" y="482.38" width="22.25" height="22.25" rx="11.12"/><rect class="cls-1" x="1339.76" y="526.88" width="22.25" height="22.25" rx="11.12"/><rect class="cls-1" x="1317.51" y="526.88" width="22.25" height="22.25" rx="11.12"/><rect class="cls-1" x="1295.26" y="526.88" width="22.25" height="22.25" rx="11.12"/><rect class="cls-1" x="1295.26" y="460.13" width="22.25" height="22.25" rx="11.12"/><rect class="cls-1" x="870.99" y="571.38" width="22.25" height="22.25" rx="11.12"/><rect class="cls-1" x="893.24" y="571.38" width="22.25" height="22.25" rx="11.12"/><rect class="cls-1" x="915.49" y="571.38" width="22.25" height="22.25" rx="11.12"/><rect class="cls-1" x="937.74" y="571.38" width="22.25" height="22.25" rx="11.12"/><rect class="cls-1" x="959.99" y="571.38" width="22.25" height="22.25" rx="11.12"/><rect class="cls-1" x="870.99" y="549.13" width="22.25" height="22.25" rx="11.12"/><rect class="cls-1" x="870.99" y="526.88" width="22.25" height="22.25" rx="11.12"/><rect class="cls-1" x="870.99" y="504.63" width="22.25" height="22.25" rx="11.12"/><rect class="cls-1" x="870.99" y="482.38" width="22.25" height="22.25" rx="11.12"/><rect class="cls-1" x="870.99" y="460.13" width="22.25" height="22.25" rx="11.12"/><rect class="cls-1" x="870.99" y="437.88" width="22.25" height="22.25" rx="11.12"/><rect class="cls-1" x="870.99" y="415.63" width="22.25" height="22.25" rx="11.12"/><rect class="cls-1" x="870.99" y="393.38" width="22.25" height="22.25" rx="11.12"/><rect class="cls-1" x="870.99" y="371.13" width="22.25" height="22.25" rx="11.12"/><rect class="cls-1" x="870.99" y="348.87" width="22.25" height="22.25" rx="11.12"/><rect class="cls-1" x="870.99" y="326.62" width="22.25" height="22.25" rx="11.12"/><rect class="cls-1" x="870.99" y="304.37" width="22.25" height="22.25" rx="11.12"/><rect class="cls-1" x="870.99" y="282.12" width="22.25" height="22.25" rx="11.12"/><rect class="cls-1" x="870.99" y="259.87" width="22.25" height="22.25" rx="11.12"/><rect class="cls-1" x="870.99" y="237.62" width="22.25" height="22.25" rx="11.12"/><rect class="cls-1" x="870.99" y="215.37" width="22.25" height="22.25" rx="11.12"/><rect class="cls-1" x="870.99" y="193.12" width="22.25" height="22.25" rx="11.12"/><rect class="cls-1" x="870.99" y="170.87" width="22.25" height="22.25" rx="11.12"/><rect class="cls-1" x="870.99" y="148.62" width="22.25" height="22.25" rx="11.12"/><rect class="cls-1" x="870.99" y="126.37" width="22.25" height="22.25" rx="11.12"/><rect class="cls-1" x="893.24" y="126.37" width="22.25" height="22.25" rx="11.12"/><rect class="cls-1" x="915.49" y="126.37" width="22.25" height="22.25" rx="11.12"/><rect class="cls-1" x="937.74" y="126.37" width="22.25" height="22.25" rx="11.12"/><rect class="cls-1" x="959.99" y="126.37" width="22.25" height="22.25" rx="11.12"/><rect class="cls-1" x="959.99" y="148.62" width="22.25" height="22.25" rx="11.12"/><rect class="cls-1" x="959.99" y="170.87" width="22.25" height="22.25" rx="11.12"/><rect class="cls-1" x="937.74" y="170.87" width="22.25" height="22.25" rx="11.12"/><rect class="cls-1" x="915.49" y="170.87" width="22.25" height="22.25" rx="11.12"/><rect class="cls-1" x="915.49" y="193.12" width="22.25" height="22.25" rx="11.12"/><rect class="cls-1" x="915.49" y="215.37" width="22.25" height="22.25" rx="11.12"/><rect class="cls-1" x="915.49" y="259.87" width="22.25" height="22.25" rx="11.12"/><rect class="cls-1" x="915.49" y="282.12" width="22.25" height="22.25" rx="11.12"/><rect class="cls-1" x="915.49" y="304.37" width="22.25" height="22.25" rx="11.12"/><rect class="cls-1" x="915.49" y="326.62" width="22.25" height="22.25" rx="11.12"/><rect class="cls-1" x="915.49" y="348.87" width="22.25" height="22.25" rx="11.12"/><rect class="cls-1" x="937.74" y="348.87" width="22.25" height="22.25" rx="11.12"/><rect class="cls-1" x="959.99" y="348.87" width="22.25" height="22.25" rx="11.12"/><rect class="cls-1" x="959.99" y="371.12" width="22.25" height="22.25" rx="11.12"/><rect class="cls-1" x="959.99" y="393.37" width="22.25" height="22.25" rx="11.12"/><rect class="cls-1" x="937.74" y="393.37" width="22.25" height="22.25" rx="11.12"/><rect class="cls-1" x="915.49" y="393.37" width="22.25" height="22.25" rx="11.12"/><rect class="cls-1" x="915.49" y="415.62" width="22.25" height="22.25" rx="11.12"/><rect class="cls-1" x="915.49" y="437.87" width="22.25" height="22.25" rx="11.12"/><rect class="cls-1" x="937.74" y="437.87" width="22.25" height="22.25" rx="11.12"/><rect class="cls-1" x="959.99" y="437.87" width="22.25" height="22.25" rx="11.12"/><rect class="cls-1" x="959.99" y="460.12" width="22.25" height="22.25" rx="11.12"/><rect class="cls-1" x="959.99" y="482.37" width="22.25" height="22.25" rx="11.12"/><rect class="cls-1" x="937.74" y="482.37" width="22.25" height="22.25" rx="11.12"/><rect class="cls-1" x="915.49" y="482.37" width="22.25" height="22.25" rx="11.12"/><rect class="cls-1" x="915.49" y="504.63" width="22.25" height="22.25" rx="11.12"/><rect class="cls-1" x="915.49" y="526.88" width="22.25" height="22.25" rx="11.12"/><rect class="cls-1" x="937.74" y="526.88" width="22.25" height="22.25" rx="11.12"/><rect class="cls-1" x="959.99" y="526.88" width="22.25" height="22.25" rx="11.12"/><rect class="cls-1" x="959.99" y="549.12" width="22.25" height="22.25" rx="11.12"/><rect class="cls-1" x="937.74" y="215.37" width="22.25" height="22.25" rx="11.12"/><rect class="cls-1" x="959.99" y="215.37" width="22.25" height="22.25" rx="11.12"/><rect class="cls-1" x="982.24" y="215.37" width="22.25" height="22.25" rx="11.12"/><rect class="cls-1" x="1004.49" y="215.37" width="22.25" height="22.25" rx="11.12"/><rect class="cls-1" x="1004.49" y="237.62" width="22.25" height="22.25" rx="11.12"/><rect class="cls-1" x="1004.49" y="259.88" width="22.25" height="22.25" rx="11.12"/><rect class="cls-1" x="982.24" y="259.88" width="22.25" height="22.25" rx="11.12"/><rect class="cls-1" x="959.99" y="259.88" width="22.25" height="22.25" rx="11.12"/><rect class="cls-1" x="959.99" y="282.12" width="22.25" height="22.25" rx="11.12"/><rect class="cls-1" x="959.99" y="304.37" width="22.25" height="22.25" rx="11.12"/><rect class="cls-1" x="982.24" y="304.37" width="22.25" height="22.25" rx="11.12"/><rect class="cls-1" x="1004.49" y="304.37" width="22.25" height="22.25" rx="11.12"/><rect class="cls-1" x="1026.74" y="304.37" width="22.25" height="22.25" rx="11.12"/><rect class="cls-1" x="1048.99" y="304.37" width="22.25" height="22.25" rx="11.12"/><rect class="cls-1" x="1048.99" y="326.63" width="22.25" height="22.25" rx="11.12"/><rect class="cls-1" x="1048.99" y="348.88" width="22.25" height="22.25" rx="11.12"/><rect class="cls-1" x="1026.74" y="348.88" width="22.25" height="22.25" rx="11.12"/><rect class="cls-1" x="1004.49" y="348.88" width="22.25" height="22.25" rx="11.12"/><rect class="cls-1" x="1004.49" y="371.13" width="22.25" height="22.25" rx="11.12"/><rect class="cls-1" x="1004.49" y="393.37" width="22.25" height="22.25" rx="11.12"/><rect class="cls-1" x="1026.74" y="393.37" width="22.25" height="22.25" rx="11.12"/><rect class="cls-1" x="1048.99" y="393.37" width="22.25" height="22.25" rx="11.12"/><rect class="cls-1" x="1071.24" y="393.37" width="22.25" height="22.25" rx="11.12"/><rect class="cls-1" x="1093.49" y="393.37" width="22.25" height="22.25" rx="11.12"/><rect class="cls-1" x="1093.49" y="415.62" width="22.25" height="22.25" rx="11.12"/><rect class="cls-1" x="1093.49" y="437.88" width="22.25" height="22.25" rx="11.12"/><rect class="cls-1" x="1071.24" y="437.88" width="22.25" height="22.25" rx="11.12"/><rect class="cls-1" x="1048.99" y="437.88" width="22.25" height="22.25" rx="11.12"/><rect class="cls-1" x="1048.99" y="460.12" width="22.25" height="22.25" rx="11.12"/><rect class="cls-1" x="1048.99" y="482.37" width="22.25" height="22.25" rx="11.12"/><rect class="cls-1" x="1071.24" y="482.37" width="22.25" height="22.25" rx="11.12"/><rect class="cls-1" x="1093.49" y="482.37" width="22.25" height="22.25" rx="11.12"/><rect class="cls-1" x="1115.74" y="482.37" width="22.25" height="22.25" rx="11.12"/><rect class="cls-1" x="1137.99" y="482.37" width="22.25" height="22.25" rx="11.12"/><rect class="cls-1" x="1137.99" y="504.63" width="22.25" height="22.25" rx="11.12"/><rect class="cls-1" x="1137.99" y="526.88" width="22.25" height="22.25" rx="11.12"/><rect class="cls-1" x="1115.74" y="526.88" width="22.25" height="22.25" rx="11.12"/><rect class="cls-1" x="1093.49" y="526.88" width="22.25" height="22.25" rx="11.12"/><rect class="cls-1" x="1093.49" y="549.12" width="22.25" height="22.25" rx="11.12"/><rect class="cls-1" x="1182.49" y="571.38" width="22.25" height="22.25" rx="11.12" transform="translate(2387.24 1165) rotate(180)"/><rect class="cls-1" x="1160.24" y="571.38" width="22.25" height="22.25" rx="11.12" transform="translate(2342.74 1165) rotate(-180)"/><rect class="cls-1" x="1137.99" y="571.38" width="22.25" height="22.25" rx="11.12" transform="translate(2298.24 1165) rotate(180)"/><rect class="cls-1" x="1115.74" y="571.38" width="22.25" height="22.25" rx="11.12" transform="translate(2253.74 1165) rotate(180)"/><rect class="cls-1" x="1093.49" y="571.38" width="22.25" height="22.25" rx="11.12" transform="translate(2209.24 1165) rotate(-180)"/><rect class="cls-1" x="1182.49" y="549.13" width="22.25" height="22.25" rx="11.12" transform="translate(2387.24 1120.5) rotate(180)"/><rect class="cls-1" x="1182.49" y="526.88" width="22.25" height="22.25" rx="11.12" transform="translate(2387.24 1076) rotate(180)"/><rect class="cls-1" x="1182.49" y="504.63" width="22.25" height="22.25" rx="11.12" transform="translate(2387.24 1031.5) rotate(-180)"/><rect class="cls-1" x="1182.49" y="482.38" width="22.25" height="22.25" rx="11.12" transform="translate(2387.24 987) rotate(-180)"/><rect class="cls-1" x="1182.49" y="460.13" width="22.25" height="22.25" rx="11.12" transform="translate(2387.24 942.5) rotate(180)"/><rect class="cls-1" x="1182.49" y="437.88" width="22.25" height="22.25" rx="11.12" transform="translate(2387.24 898) rotate(-180)"/><rect class="cls-1" x="1182.49" y="415.63" width="22.25" height="22.25" rx="11.12" transform="translate(2387.24 853.5) rotate(-180)"/><rect class="cls-1" x="1182.49" y="393.38" width="22.25" height="22.25" rx="11.12" transform="translate(2387.24 809) rotate(180)"/><rect class="cls-1" x="1182.49" y="371.13" width="22.25" height="22.25" rx="11.12" transform="translate(2387.24 764.5) rotate(180)"/><rect class="cls-1" x="1182.49" y="348.88" width="22.25" height="22.25" rx="11.12" transform="translate(2387.24 720) rotate(180)"/><rect class="cls-1" x="1182.49" y="326.63" width="22.25" height="22.25" rx="11.12" transform="translate(2387.24 675.5) rotate(-180)"/><rect class="cls-1" x="1182.49" y="304.37" width="22.25" height="22.25" rx="11.12" transform="translate(2387.24 631) rotate(-180)"/><rect class="cls-1" x="1182.49" y="282.12" width="22.25" height="22.25" rx="11.12" transform="translate(2387.24 586.5) rotate(180)"/><rect class="cls-1" x="1182.49" y="259.87" width="22.25" height="22.25" rx="11.12" transform="translate(2387.24 542) rotate(180)"/><rect class="cls-1" x="1182.49" y="237.62" width="22.25" height="22.25" rx="11.12" transform="translate(2387.24 497.5) rotate(-180)"/><rect class="cls-1" x="1182.49" y="215.37" width="22.25" height="22.25" rx="11.12" transform="translate(2387.24 453) rotate(180)"/><rect class="cls-1" x="1182.49" y="193.12" width="22.25" height="22.25" rx="11.12" transform="translate(2387.24 408.5) rotate(180)"/><rect class="cls-1" x="1182.49" y="170.87" width="22.25" height="22.25" rx="11.12" transform="translate(2387.24 364) rotate(180)"/><rect class="cls-1" x="1182.49" y="148.62" width="22.25" height="22.25" rx="11.12" transform="translate(2387.24 319.5) rotate(-180)"/><rect class="cls-1" x="1182.49" y="126.37" width="22.25" height="22.25" rx="11.12" transform="translate(2387.24 275) rotate(180)"/><rect class="cls-1" x="1160.24" y="126.37" width="22.25" height="22.25" rx="11.12" transform="translate(2342.74 275) rotate(-180)"/><rect class="cls-1" x="1137.99" y="126.37" width="22.25" height="22.25" rx="11.12" transform="translate(2298.24 275) rotate(-180)"/><rect class="cls-1" x="1115.74" y="126.37" width="22.25" height="22.25" rx="11.12" transform="translate(2253.74 275) rotate(-180)"/><rect class="cls-1" x="1093.49" y="126.37" width="22.25" height="22.25" rx="11.12" transform="translate(2209.24 275) rotate(180)"/><rect class="cls-1" x="1093.49" y="148.62" width="22.25" height="22.25" rx="11.12" transform="translate(2209.24 319.5) rotate(180)"/><rect class="cls-1" x="1093.49" y="170.87" width="22.25" height="22.25" rx="11.12" transform="translate(2209.24 364) rotate(180)"/><rect class="cls-1" x="1115.74" y="170.87" width="22.25" height="22.25" rx="11.12" transform="translate(2253.74 364) rotate(-180)"/><rect class="cls-1" x="1137.99" y="170.87" width="22.25" height="22.25" rx="11.12" transform="translate(2298.24 364) rotate(-180)"/><rect class="cls-1" x="1137.99" y="193.12" width="22.25" height="22.25" rx="11.12" transform="translate(2298.24 408.5) rotate(180)"/><rect class="cls-1" x="1137.99" y="215.37" width="22.25" height="22.25" rx="11.12" transform="translate(2298.24 453) rotate(180)"/><rect class="cls-1" x="1115.74" y="215.37" width="22.25" height="22.25" rx="11.12" transform="translate(2253.74 453) rotate(-180)"/><rect class="cls-1" x="1093.49" y="215.37" width="22.25" height="22.25" rx="11.12" transform="translate(2209.24 453) rotate(180)"/><rect class="cls-1" x="1093.49" y="237.62" width="22.25" height="22.25" rx="11.12" transform="translate(2209.24 497.5) rotate(-180)"/><rect class="cls-1" x="1093.49" y="259.88" width="22.25" height="22.25" rx="11.12" transform="translate(2209.24 542) rotate(180)"/><rect class="cls-1" x="1115.74" y="259.88" width="22.25" height="22.25" rx="11.12" transform="translate(2253.74 542) rotate(180)"/><rect class="cls-1" x="1137.99" y="259.88" width="22.25" height="22.25" rx="11.12" transform="translate(2298.24 542) rotate(180)"/><rect class="cls-1" x="1137.99" y="282.12" width="22.25" height="22.25" rx="11.12" transform="translate(2298.24 586.5) rotate(180)"/><rect class="cls-1" x="1137.99" y="304.37" width="22.25" height="22.25" rx="11.12" transform="translate(2298.24 631) rotate(180)"/><rect class="cls-1" x="1115.74" y="304.37" width="22.25" height="22.25" rx="11.12" transform="translate(2253.74 631) rotate(-180)"/><rect class="cls-1" x="1093.49" y="304.37" width="22.25" height="22.25" rx="11.12" transform="translate(2209.24 631) rotate(180)"/><rect class="cls-1" x="1093.49" y="326.62" width="22.25" height="22.25" rx="11.12" transform="translate(2209.24 675.5) rotate(-180)"/><rect class="cls-1" x="1093.49" y="348.87" width="22.25" height="22.25" rx="11.12" transform="translate(2209.24 720) rotate(-180)"/><rect class="cls-1" x="1115.74" y="348.87" width="22.25" height="22.25" rx="11.12" transform="translate(2253.74 720) rotate(180)"/><rect class="cls-1" x="1137.99" y="348.87" width="22.25" height="22.25" rx="11.12" transform="translate(2298.24 720) rotate(180)"/><rect class="cls-1" x="1137.99" y="371.12" width="22.25" height="22.25" rx="11.12" transform="translate(2298.24 764.5) rotate(180)"/><rect class="cls-1" x="1137.99" y="393.38" width="22.25" height="22.25" rx="11.12" transform="translate(2298.24 809) rotate(-180)"/><rect class="cls-1" x="1137.99" y="415.63" width="22.25" height="22.25" rx="11.12" transform="translate(2298.24 853.5) rotate(180)"/><rect class="cls-1" x="1137.99" y="437.88" width="22.25" height="22.25" rx="11.12" transform="translate(2298.24 898.01) rotate(180)"/><rect class="cls-1" x="626.74" y="126.37" width="22.25" height="22.25" rx="11.12"/><rect class="cls-1" x="626.74" y="148.62" width="22.25" height="22.25" rx="11.12"/><rect class="cls-1" x="626.74" y="170.87" width="22.25" height="22.25" rx="11.12"/><rect class="cls-1" x="626.74" y="193.12" width="22.25" height="22.25" rx="11.12"/><rect class="cls-1" x="604.49" y="193.12" width="22.25" height="22.25" rx="11.12"/><rect class="cls-1" x="582.24" y="193.12" width="22.25" height="22.25" rx="11.12"/><rect class="cls-1" x="559.99" y="193.12" width="22.25" height="22.25" rx="11.12"/><rect class="cls-1" x="537.74" y="193.12" width="22.25" height="22.25" rx="11.12"/><rect class="cls-1" x="537.74" y="215.37" width="22.25" height="22.25" rx="11.12"/><rect class="cls-1" x="537.74" y="237.62" width="22.25" height="22.25" rx="11.12"/><rect class="cls-1" x="559.99" y="237.62" width="22.25" height="22.25" rx="11.12"/><rect class="cls-1" x="582.24" y="237.62" width="22.25" height="22.25" rx="11.12"/><rect class="cls-1" x="582.24" y="259.87" width="22.25" height="22.25" rx="11.12"/><rect class="cls-1" x="582.24" y="282.12" width="22.25" height="22.25" rx="11.12"/><rect class="cls-1" x="559.99" y="282.12" width="22.25" height="22.25" rx="11.12"/><rect class="cls-1" x="537.74" y="282.12" width="22.25" height="22.25" rx="11.12"/><rect class="cls-1" x="515.49" y="282.12" width="22.25" height="22.25" rx="11.12"/><rect class="cls-1" x="493.24" y="282.12" width="22.25" height="22.25" rx="11.12"/><rect class="cls-1" x="493.24" y="304.37" width="22.25" height="22.25" rx="11.12"/><rect class="cls-1" x="493.24" y="326.62" width="22.25" height="22.25" rx="11.12"/><rect class="cls-1" x="515.49" y="326.62" width="22.25" height="22.25" rx="11.12"/><rect class="cls-1" x="537.74" y="326.62" width="22.25" height="22.25" rx="11.12"/><rect class="cls-1" x="537.74" y="348.87" width="22.25" height="22.25" rx="11.12"/><rect class="cls-1" x="537.74" y="371.13" width="22.25" height="22.25" rx="11.12"/><rect class="cls-1" x="515.49" y="371.13" width="22.25" height="22.25" rx="11.12"/><rect class="cls-1" x="493.24" y="371.13" width="22.25" height="22.25" rx="11.12"/><rect class="cls-1" x="493.24" y="393.38" width="22.25" height="22.25" rx="11.12"/><rect class="cls-1" x="493.24" y="415.63" width="22.25" height="22.25" rx="11.12"/><rect class="cls-1" x="515.49" y="415.63" width="22.25" height="22.25" rx="11.12"/><rect class="cls-1" x="537.74" y="415.63" width="22.25" height="22.25" rx="11.12"/><rect class="cls-1" x="559.99" y="415.63" width="22.25" height="22.25" rx="11.12"/><rect class="cls-1" x="582.24" y="415.63" width="22.25" height="22.25" rx="11.12"/><rect class="cls-1" x="582.24" y="437.88" width="22.25" height="22.25" rx="11.12"/><rect class="cls-1" x="582.24" y="460.13" width="22.25" height="22.25" rx="11.12"/><rect class="cls-1" x="559.99" y="460.13" width="22.25" height="22.25" rx="11.12"/><rect class="cls-1" x="537.74" y="460.13" width="22.25" height="22.25" rx="11.12"/><rect class="cls-1" x="537.74" y="482.38" width="22.25" height="22.25" rx="11.12"/><rect class="cls-1" x="537.74" y="504.63" width="22.25" height="22.25" rx="11.12"/><rect class="cls-1" x="559.99" y="504.63" width="22.25" height="22.25" rx="11.12"/><rect class="cls-1" x="582.24" y="504.63" width="22.25" height="22.25" rx="11.12"/><rect class="cls-1" x="604.49" y="504.63" width="22.25" height="22.25" rx="11.12"/><rect class="cls-1" x="626.74" y="504.63" width="22.25" height="22.25" rx="11.12"/><rect class="cls-1" x="626.74" y="526.88" width="22.25" height="22.25" rx="11.12"/><rect class="cls-1" x="626.74" y="549.13" width="22.25" height="22.25" rx="11.12"/><rect class="cls-1" x="626.74" y="571.38" width="22.25" height="22.25" rx="11.12"/><rect class="cls-1" x="648.99" y="571.38" width="22.25" height="22.25" rx="11.12"/><rect class="cls-1" x="671.24" y="571.38" width="22.25" height="22.25" rx="11.12"/><rect class="cls-1" x="671.24" y="549.13" width="22.25" height="22.25" rx="11.12"/><rect class="cls-1" x="671.24" y="526.88" width="22.25" height="22.25" rx="11.12"/><rect class="cls-1" x="671.24" y="504.63" width="22.25" height="22.25" rx="11.12"/><rect class="cls-1" x="693.49" y="504.63" width="22.25" height="22.25" rx="11.12"/><rect class="cls-1" x="715.74" y="504.63" width="22.25" height="22.25" rx="11.12"/><rect class="cls-1" x="737.99" y="504.63" width="22.25" height="22.25" rx="11.12"/><rect class="cls-1" x="760.24" y="504.63" width="22.25" height="22.25" rx="11.12"/><rect class="cls-1" x="760.24" y="482.38" width="22.25" height="22.25" rx="11.12"/><rect class="cls-1" x="760.24" y="460.13" width="22.25" height="22.25" rx="11.12"/><rect class="cls-1" x="737.99" y="460.13" width="22.25" height="22.25" rx="11.12"/><rect class="cls-1" x="715.74" y="460.13" width="22.25" height="22.25" rx="11.12"/><rect class="cls-1" x="715.74" y="437.88" width="22.25" height="22.25" rx="11.12"/><rect class="cls-1" x="715.74" y="415.63" width="22.25" height="22.25" rx="11.12"/><rect class="cls-1" x="737.99" y="415.63" width="22.25" height="22.25" rx="11.12"/><rect class="cls-1" x="760.24" y="415.63" width="22.25" height="22.25" rx="11.12"/><rect class="cls-1" x="782.49" y="415.63" width="22.25" height="22.25" rx="11.12"/><rect class="cls-1" x="804.74" y="415.63" width="22.25" height="22.25" rx="11.12"/><rect class="cls-1" x="804.74" y="393.38" width="22.25" height="22.25" rx="11.12"/><rect class="cls-1" x="804.74" y="371.13" width="22.25" height="22.25" rx="11.12"/><rect class="cls-1" x="782.49" y="371.13" width="22.25" height="22.25" rx="11.12"/><rect class="cls-1" x="760.24" y="371.13" width="22.25" height="22.25" rx="11.12"/><rect class="cls-1" x="760.24" y="348.87" width="22.25" height="22.25" rx="11.12"/><rect class="cls-1" x="760.24" y="326.62" width="22.25" height="22.25" rx="11.12"/><rect class="cls-1" x="782.49" y="326.62" width="22.25" height="22.25" rx="11.12"/><rect class="cls-1" x="804.74" y="326.62" width="22.25" height="22.25" rx="11.12"/><rect class="cls-1" x="804.74" y="304.37" width="22.25" height="22.25" rx="11.12"/><rect class="cls-1" x="804.74" y="282.12" width="22.25" height="22.25" rx="11.12"/><rect class="cls-1" x="782.49" y="282.12" width="22.25" height="22.25" rx="11.12"/><rect class="cls-1" x="760.24" y="282.12" width="22.25" height="22.25" rx="11.12"/><rect class="cls-1" x="737.99" y="282.12" width="22.25" height="22.25" rx="11.12"/><rect class="cls-1" x="715.74" y="282.12" width="22.25" height="22.25" rx="11.12"/><rect class="cls-1" x="715.74" y="259.87" width="22.25" height="22.25" rx="11.12"/><rect class="cls-1" x="715.74" y="237.62" width="22.25" height="22.25" rx="11.12"/><rect class="cls-1" x="737.99" y="237.62" width="22.25" height="22.25" rx="11.12"/><rect class="cls-1" x="760.24" y="237.62" width="22.25" height="22.25" rx="11.12"/><rect class="cls-1" x="760.24" y="215.37" width="22.25" height="22.25" rx="11.12"/><rect class="cls-1" x="760.24" y="193.12" width="22.25" height="22.25" rx="11.12"/><rect class="cls-1" x="737.99" y="193.12" width="22.25" height="22.25" rx="11.12"/><rect class="cls-1" x="715.74" y="193.12" width="22.25" height="22.25" rx="11.12"/><rect class="cls-1" x="648.99" y="126.37" width="22.25" height="22.25" rx="11.12"/><rect class="cls-1" x="671.24" y="126.37" width="22.25" height="22.25" rx="11.12"/><rect class="cls-1" x="671.24" y="148.62" width="22.25" height="22.25" rx="11.12"/><rect class="cls-1" x="671.24" y="170.87" width="22.25" height="22.25" rx="11.12"/><rect class="cls-1" x="671.24" y="193.12" width="22.25" height="22.25" rx="11.12"/><rect class="cls-1" x="671.24" y="215.37" width="22.25" height="22.25" rx="11.12"/><rect class="cls-1" x="671.24" y="237.62" width="22.25" height="22.25" rx="11.12"/><rect class="cls-1" x="671.24" y="259.87" width="22.25" height="22.25" rx="11.12"/><rect class="cls-1" x="671.24" y="282.12" width="22.25" height="22.25" rx="11.12"/><rect class="cls-1" x="671.24" y="304.37" width="22.25" height="22.25" rx="11.12"/><rect class="cls-1" x="671.24" y="326.62" width="22.25" height="22.25" rx="11.12"/><rect class="cls-1" x="693.49" y="326.62" width="22.25" height="22.25" rx="11.12"/><rect class="cls-1" x="715.74" y="326.62" width="22.25" height="22.25" rx="11.12"/><rect class="cls-1" x="715.74" y="348.87" width="22.25" height="22.25" rx="11.12"/><rect class="cls-1" x="715.74" y="371.13" width="22.25" height="22.25" rx="11.12"/><rect class="cls-1" x="693.49" y="371.13" width="22.25" height="22.25" rx="11.12"/><rect class="cls-1" x="671.24" y="371.13" width="22.25" height="22.25" rx="11.12"/><rect class="cls-1" x="671.24" y="393.38" width="22.25" height="22.25" rx="11.12"/><rect class="cls-1" x="671.24" y="415.63" width="22.25" height="22.25" rx="11.12"/><rect class="cls-1" x="671.24" y="437.88" width="22.25" height="22.25" rx="11.12"/><rect class="cls-1" x="671.24" y="460.13" width="22.25" height="22.25" rx="11.12"/><rect class="cls-1" x="648.99" y="460.13" width="22.25" height="22.25" rx="11.12"/><rect class="cls-1" x="626.74" y="460.13" width="22.25" height="22.25" rx="11.12"/><rect class="cls-1" x="626.74" y="437.88" width="22.25" height="22.25" rx="11.12"/><rect class="cls-1" x="626.74" y="415.63" width="22.25" height="22.25" rx="11.12"/><rect class="cls-1" x="626.74" y="393.38" width="22.25" height="22.25" rx="11.12"/><rect class="cls-1" x="626.74" y="371.13" width="22.25" height="22.25" rx="11.12"/><rect class="cls-1" x="604.49" y="371.13" width="22.25" height="22.25" rx="11.12"/><rect class="cls-1" x="582.24" y="371.13" width="22.25" height="22.25" rx="11.12"/><rect class="cls-1" x="582.24" y="348.87" width="22.25" height="22.25" rx="11.12"/><rect class="cls-1" x="582.24" y="326.62" width="22.25" height="22.25" rx="11.12"/><rect class="cls-1" x="604.49" y="326.62" width="22.25" height="22.25" rx="11.12"/><rect class="cls-1" x="626.74" y="326.62" width="22.25" height="22.25" rx="11.12"/><rect class="cls-1" x="626.74" y="304.37" width="22.25" height="22.25" rx="11.12"/><rect class="cls-1" x="626.74" y="282.12" width="22.25" height="22.25" rx="11.12"/><rect class="cls-1" x="626.74" y="259.87" width="22.25" height="22.25" rx="11.12"/><rect class="cls-1" x="626.74" y="237.62" width="22.25" height="22.25" rx="11.12"/></svg>