<svg id="Lines" xmlns="http://www.w3.org/2000/svg" viewBox="0 0 1700 720"><defs><style>.cls-1{fill:#231f20;}</style></defs><path class="cls-1" d="M126.62,593.63h0a11.11,11.11,0,0,0-11.12-11.12h0a11.12,11.12,0,0,0,11.12-11.12h0a11.12,11.12,0,0,0,11.12,11.12h0A11.12,11.12,0,0,0,126.62,593.63Z"/><path class="cls-1" d="M126.62,571.38h0a11.11,11.11,0,0,0-11.12-11.12h0a11.12,11.12,0,0,0,11.12-11.12h0a11.12,11.12,0,0,0,11.12,11.12h0A11.12,11.12,0,0,0,126.62,571.38Z"/><path class="cls-1" d="M126.62,549.13h0A11.11,11.11,0,0,0,115.49,538h0a11.12,11.12,0,0,0,11.12-11.12h0A11.12,11.12,0,0,0,137.74,538h0A11.12,11.12,0,0,0,126.62,549.13Z"/><path class="cls-1" d="M126.62,526.88h0a11.11,11.11,0,0,0-11.12-11.12h0a11.12,11.12,0,0,0,11.12-11.12h0a11.12,11.12,0,0,0,11.12,11.12h0A11.12,11.12,0,0,0,126.62,526.88Z"/><path class="cls-1" d="M126.62,504.63h0a11.11,11.11,0,0,0-11.12-11.12h0a11.12,11.12,0,0,0,11.12-11.12h0a11.12,11.12,0,0,0,11.12,11.12h0A11.12,11.12,0,0,0,126.62,504.63Z"/><path class="cls-1" d="M126.62,482.38h0a11.11,11.11,0,0,0-11.12-11.12h0a11.12,11.12,0,0,0,11.12-11.12h0a11.12,11.12,0,0,0,11.12,11.12h0A11.12,11.12,0,0,0,126.62,482.38Z"/><path class="cls-1" d="M126.62,460.13h0A11.11,11.11,0,0,0,115.49,449h0a11.12,11.12,0,0,0,11.12-11.12h0A11.12,11.12,0,0,0,137.74,449h0A11.12,11.12,0,0,0,126.62,460.13Z"/><path class="cls-1" d="M126.62,437.88h0a11.11,11.11,0,0,0-11.12-11.12h0a11.12,11.12,0,0,0,11.12-11.12h0a11.12,11.12,0,0,0,11.12,11.12h0A11.12,11.12,0,0,0,126.62,437.88Z"/><path class="cls-1" d="M126.62,415.63h0a11.11,11.11,0,0,0-11.12-11.12h0a11.12,11.12,0,0,0,11.12-11.12h0a11.12,11.12,0,0,0,11.12,11.12h0A11.12,11.12,0,0,0,126.62,415.63Z"/><path class="cls-1" d="M126.62,393.38h0a11.11,11.11,0,0,0-11.12-11.12h0a11.12,11.12,0,0,0,11.12-11.12h0a11.12,11.12,0,0,0,11.12,11.12h0A11.12,11.12,0,0,0,126.62,393.38Z"/><path class="cls-1" d="M126.62,371.13h0A11.11,11.11,0,0,0,115.49,360v0a11.11,11.11,0,0,0,11.12-11.12h0A11.12,11.12,0,0,0,137.74,360v0A11.12,11.12,0,0,0,126.62,371.13Z"/><path class="cls-1" d="M126.62,348.87h0a11.12,11.12,0,0,0-11.12-11.12h0a11.11,11.11,0,0,0,11.12-11.12h0a11.12,11.12,0,0,0,11.12,11.12h0A11.12,11.12,0,0,0,126.62,348.87Z"/><path class="cls-1" d="M126.62,326.62h0a11.12,11.12,0,0,0-11.12-11.12h0a11.11,11.11,0,0,0,11.12-11.12h0a11.12,11.12,0,0,0,11.12,11.12h0A11.12,11.12,0,0,0,126.62,326.62Z"/><path class="cls-1" d="M126.62,304.37h0a11.12,11.12,0,0,0-11.12-11.12h0a11.11,11.11,0,0,0,11.12-11.12h0a11.12,11.12,0,0,0,11.12,11.12h0A11.12,11.12,0,0,0,126.62,304.37Z"/><path class="cls-1" d="M126.62,282.12h0A11.12,11.12,0,0,0,115.49,271h0a11.11,11.11,0,0,0,11.12-11.12h0A11.12,11.12,0,0,0,137.74,271h0A11.12,11.12,0,0,0,126.62,282.12Z"/><path class="cls-1" d="M126.62,259.87h0a11.12,11.12,0,0,0-11.12-11.12h0a11.11,11.11,0,0,0,11.12-11.12h0a11.12,11.12,0,0,0,11.12,11.12h0A11.12,11.12,0,0,0,126.62,259.87Z"/><path class="cls-1" d="M126.62,237.62h0a11.12,11.12,0,0,0-11.12-11.12h0a11.11,11.11,0,0,0,11.12-11.12h0a11.12,11.12,0,0,0,11.12,11.12h0A11.12,11.12,0,0,0,126.62,237.62Z"/><path class="cls-1" d="M126.62,215.37h0a11.12,11.12,0,0,0-11.12-11.12h0a11.11,11.11,0,0,0,11.12-11.12h0a11.12,11.12,0,0,0,11.12,11.12h0A11.12,11.12,0,0,0,126.62,215.37Z"/><path class="cls-1" d="M126.62,193.12h0A11.12,11.12,0,0,0,115.49,182h0a11.11,11.11,0,0,0,11.12-11.12h0A11.12,11.12,0,0,0,137.74,182h0A11.12,11.12,0,0,0,126.62,193.12Z"/><path class="cls-1" d="M126.62,170.87h0a11.12,11.12,0,0,0-11.12-11.12h0a11.11,11.11,0,0,0,11.12-11.12h0a11.12,11.12,0,0,0,11.12,11.12h0A11.12,11.12,0,0,0,126.62,170.87Z"/><path class="cls-1" d="M126.62,148.62h0a11.12,11.12,0,0,0-11.12-11.12h0a11.11,11.11,0,0,0,11.12-11.12h0a11.12,11.12,0,0,0,11.12,11.12h0A11.12,11.12,0,0,0,126.62,148.62Z"/><path class="cls-1" d="M148.87,148.62h0a11.12,11.12,0,0,0-11.12-11.12h0a11.11,11.11,0,0,0,11.12-11.12h0A11.12,11.12,0,0,0,160,137.49h0A11.12,11.12,0,0,0,148.87,148.62Z"/><path class="cls-1" d="M171.12,148.62h0A11.12,11.12,0,0,0,160,137.5h0a11.11,11.11,0,0,0,11.12-11.12h0a11.12,11.12,0,0,0,11.12,11.12h0A11.12,11.12,0,0,0,171.12,148.62Z"/><path class="cls-1" d="M193.37,148.62h0a11.12,11.12,0,0,0-11.12-11.12h0a11.11,11.11,0,0,0,11.12-11.12h0a11.12,11.12,0,0,0,11.12,11.12h0A11.12,11.12,0,0,0,193.37,148.62Z"/><path class="cls-1" d="M215.62,148.62h0a11.12,11.12,0,0,0-11.12-11.12h0a11.11,11.11,0,0,0,11.12-11.12h0a11.12,11.12,0,0,0,11.12,11.12h0A11.12,11.12,0,0,0,215.62,148.62Z"/><path class="cls-1" d="M237.87,148.62h0a11.12,11.12,0,0,0-11.12-11.12h0a11.11,11.11,0,0,0,11.12-11.12h0A11.12,11.12,0,0,0,249,137.49h0A11.12,11.12,0,0,0,237.87,148.62Z"/><path class="cls-1" d="M260.12,148.62h0A11.12,11.12,0,0,0,249,137.5h0a11.11,11.11,0,0,0,11.12-11.12h0a11.12,11.12,0,0,0,11.12,11.12h0A11.12,11.12,0,0,0,260.12,148.62Z"/><path class="cls-1" d="M282.37,148.62h0a11.12,11.12,0,0,0-11.12-11.12h0a11.11,11.11,0,0,0,11.12-11.12h0a11.12,11.12,0,0,0,11.12,11.12h0A11.12,11.12,0,0,0,282.37,148.62Z"/><path class="cls-1" d="M304.62,148.62h0a11.12,11.12,0,0,0-11.12-11.12h0a11.11,11.11,0,0,0,11.12-11.12h0a11.12,11.12,0,0,0,11.12,11.12h0A11.12,11.12,0,0,0,304.62,148.62Z"/><path class="cls-1" d="M326.87,148.62h0a11.12,11.12,0,0,0-11.12-11.12h0a11.11,11.11,0,0,0,11.12-11.12h0A11.12,11.12,0,0,0,338,137.49h0A11.12,11.12,0,0,0,326.87,148.62Z"/><path class="cls-1" d="M349.12,148.62h0A11.12,11.12,0,0,0,338,137.5h0a11.11,11.11,0,0,0,11.12-11.12h0a11.12,11.12,0,0,0,11.12,11.12h0A11.12,11.12,0,0,0,349.12,148.62Z"/><path class="cls-1" d="M349.12,170.87h0A11.12,11.12,0,0,0,338,159.75h0a11.11,11.11,0,0,0,11.12-11.12h0a11.12,11.12,0,0,0,11.12,11.12h0A11.12,11.12,0,0,0,349.12,170.87Z"/><path class="cls-1" d="M349.12,193.12h0A11.12,11.12,0,0,0,338,182h0a11.11,11.11,0,0,0,11.12-11.12h0A11.12,11.12,0,0,0,360.24,182h0A11.12,11.12,0,0,0,349.12,193.12Z"/><path class="cls-1" d="M371.37,193.12h0A11.12,11.12,0,0,0,360.24,182h0a11.11,11.11,0,0,0,11.12-11.12h0A11.12,11.12,0,0,0,382.49,182h0A11.12,11.12,0,0,0,371.37,193.12Z"/><path class="cls-1" d="M393.62,193.12h0A11.12,11.12,0,0,0,382.49,182h0a11.11,11.11,0,0,0,11.12-11.12h0A11.12,11.12,0,0,0,404.74,182h0A11.12,11.12,0,0,0,393.62,193.12Z"/><path class="cls-1" d="M393.62,215.37h0a11.12,11.12,0,0,0-11.12-11.12h0a11.11,11.11,0,0,0,11.12-11.12h0a11.12,11.12,0,0,0,11.12,11.12h0A11.12,11.12,0,0,0,393.62,215.37Z"/><path class="cls-1" d="M349.12,237.62h0A11.12,11.12,0,0,0,338,226.5h0a11.11,11.11,0,0,0,11.12-11.12h0a11.12,11.12,0,0,0,11.12,11.12h0A11.12,11.12,0,0,0,349.12,237.62Z"/><path class="cls-1" d="M349.12,259.87h0A11.12,11.12,0,0,0,338,248.75h0a11.11,11.11,0,0,0,11.12-11.12h0a11.12,11.12,0,0,0,11.12,11.12h0A11.12,11.12,0,0,0,349.12,259.87Z"/><path class="cls-1" d="M371.37,237.62h0a11.12,11.12,0,0,0-11.12-11.12h0a11.11,11.11,0,0,0,11.12-11.12h0a11.12,11.12,0,0,0,11.12,11.12h0A11.12,11.12,0,0,0,371.37,237.62Z"/><path class="cls-1" d="M393.62,237.62h0a11.12,11.12,0,0,0-11.12-11.12h0a11.11,11.11,0,0,0,11.12-11.12h0a11.12,11.12,0,0,0,11.12,11.12h0A11.12,11.12,0,0,0,393.62,237.62Z"/><path class="cls-1" d="M349.12,348.87h0A11.12,11.12,0,0,0,338,337.75h0a11.11,11.11,0,0,0,11.12-11.12h0a11.12,11.12,0,0,0,11.12,11.12h0A11.12,11.12,0,0,0,349.12,348.87Z"/><path class="cls-1" d="M349.12,371.13h0A11.11,11.11,0,0,0,338,360v0a11.11,11.11,0,0,0,11.12-11.12h0A11.12,11.12,0,0,0,360.24,360v0A11.12,11.12,0,0,0,349.12,371.13Z"/><path class="cls-1" d="M371.37,371.13h0A11.11,11.11,0,0,0,360.24,360v0a11.11,11.11,0,0,0,11.12-11.12h0A11.12,11.12,0,0,0,382.49,360v0A11.12,11.12,0,0,0,371.37,371.13Z"/><path class="cls-1" d="M393.62,371.13h0A11.11,11.11,0,0,0,382.49,360v0a11.11,11.11,0,0,0,11.12-11.12h0A11.13,11.13,0,0,0,404.74,360h0A11.12,11.12,0,0,0,393.62,371.13Z"/><path class="cls-1" d="M393.62,393.38h0a11.11,11.11,0,0,0-11.12-11.12h0a11.12,11.12,0,0,0,11.12-11.12h0a11.12,11.12,0,0,0,11.12,11.12h0A11.12,11.12,0,0,0,393.62,393.38Z"/><path class="cls-1" d="M349.12,415.63h0A11.11,11.11,0,0,0,338,404.51h0a11.12,11.12,0,0,0,11.12-11.12h0a11.12,11.12,0,0,0,11.12,11.12h0A11.12,11.12,0,0,0,349.12,415.63Z"/><path class="cls-1" d="M349.12,437.88h0A11.11,11.11,0,0,0,338,426.76h0a11.12,11.12,0,0,0,11.12-11.12h0a11.12,11.12,0,0,0,11.12,11.12h0A11.12,11.12,0,0,0,349.12,437.88Z"/><path class="cls-1" d="M349.12,460.13h0A11.11,11.11,0,0,0,338,449h0a11.12,11.12,0,0,0,11.12-11.12h0A11.12,11.12,0,0,0,360.24,449h0A11.12,11.12,0,0,0,349.12,460.13Z"/><path class="cls-1" d="M326.87,460.13h0A11.11,11.11,0,0,0,315.74,449h0a11.12,11.12,0,0,0,11.12-11.12h0A11.12,11.12,0,0,0,338,449h0A11.12,11.12,0,0,0,326.87,460.13Z"/><path class="cls-1" d="M304.62,460.13h0A11.11,11.11,0,0,0,293.49,449h0a11.12,11.12,0,0,0,11.12-11.12h0A11.12,11.12,0,0,0,315.74,449h0A11.12,11.12,0,0,0,304.62,460.13Z"/><path class="cls-1" d="M304.62,437.88h0a11.11,11.11,0,0,0-11.12-11.12h0a11.12,11.12,0,0,0,11.12-11.12h0a11.12,11.12,0,0,0,11.12,11.12h0A11.12,11.12,0,0,0,304.62,437.88Z"/><path class="cls-1" d="M304.62,415.63h0a11.11,11.11,0,0,0-11.12-11.12h0a11.12,11.12,0,0,0,11.12-11.12h0a11.12,11.12,0,0,0,11.12,11.12h0A11.12,11.12,0,0,0,304.62,415.63Z"/><path class="cls-1" d="M304.62,393.38h0a11.11,11.11,0,0,0-11.12-11.12h0a11.12,11.12,0,0,0,11.12-11.12h0a11.12,11.12,0,0,0,11.12,11.12h0A11.12,11.12,0,0,0,304.62,393.38Z"/><path class="cls-1" d="M304.62,371.13h0A11.11,11.11,0,0,0,293.49,360v0a11.11,11.11,0,0,0,11.12-11.12h0A11.12,11.12,0,0,0,315.74,360v0A11.12,11.12,0,0,0,304.62,371.13Z"/><path class="cls-1" d="M304.62,348.87h0a11.12,11.12,0,0,0-11.12-11.12h0a11.11,11.11,0,0,0,11.12-11.12h0a11.12,11.12,0,0,0,11.12,11.12h0A11.12,11.12,0,0,0,304.62,348.87Z"/><path class="cls-1" d="M304.62,326.62h0a11.12,11.12,0,0,0-11.12-11.12h0a11.11,11.11,0,0,0,11.12-11.12h0a11.12,11.12,0,0,0,11.12,11.12h0A11.12,11.12,0,0,0,304.62,326.62Z"/><path class="cls-1" d="M304.62,304.37h0a11.12,11.12,0,0,0-11.12-11.12h0a11.11,11.11,0,0,0,11.12-11.12h0a11.12,11.12,0,0,0,11.12,11.12h0A11.12,11.12,0,0,0,304.62,304.37Z"/><path class="cls-1" d="M304.62,282.12h0A11.12,11.12,0,0,0,293.49,271h0a11.11,11.11,0,0,0,11.12-11.12h0A11.12,11.12,0,0,0,315.74,271h0A11.12,11.12,0,0,0,304.62,282.12Z"/><path class="cls-1" d="M304.62,259.87h0a11.12,11.12,0,0,0-11.12-11.12h0a11.11,11.11,0,0,0,11.12-11.12h0a11.12,11.12,0,0,0,11.12,11.12h0A11.12,11.12,0,0,0,304.62,259.87Z"/><path class="cls-1" d="M304.62,237.62h0a11.12,11.12,0,0,0-11.12-11.12h0a11.11,11.11,0,0,0,11.12-11.12h0a11.12,11.12,0,0,0,11.12,11.12h0A11.12,11.12,0,0,0,304.62,237.62Z"/><path class="cls-1" d="M304.62,215.37h0a11.12,11.12,0,0,0-11.12-11.12h0a11.11,11.11,0,0,0,11.12-11.12h0a11.12,11.12,0,0,0,11.12,11.12h0A11.12,11.12,0,0,0,304.62,215.37Z"/><path class="cls-1" d="M304.62,193.12h0A11.12,11.12,0,0,0,293.49,182h0a11.11,11.11,0,0,0,11.12-11.12h0A11.12,11.12,0,0,0,315.74,182h0A11.12,11.12,0,0,0,304.62,193.12Z"/><path class="cls-1" d="M260.12,460.13h0A11.11,11.11,0,0,0,249,449h0a11.12,11.12,0,0,0,11.12-11.12h0A11.12,11.12,0,0,0,271.24,449h0A11.12,11.12,0,0,0,260.12,460.13Z"/><path class="cls-1" d="M260.12,482.38h0A11.11,11.11,0,0,0,249,471.26h0a11.12,11.12,0,0,0,11.12-11.12h0a11.12,11.12,0,0,0,11.12,11.12h0A11.12,11.12,0,0,0,260.12,482.38Z"/><path class="cls-1" d="M260.12,504.63h0A11.11,11.11,0,0,0,249,493.51h0a11.12,11.12,0,0,0,11.12-11.12h0a11.12,11.12,0,0,0,11.12,11.12h0A11.12,11.12,0,0,0,260.12,504.63Z"/><path class="cls-1" d="M260.12,526.88h0A11.11,11.11,0,0,0,249,515.76h0a11.12,11.12,0,0,0,11.12-11.12h0a11.12,11.12,0,0,0,11.12,11.12h0A11.12,11.12,0,0,0,260.12,526.88Z"/><path class="cls-1" d="M260.12,549.13h0A11.11,11.11,0,0,0,249,538h0a11.12,11.12,0,0,0,11.12-11.12h0A11.12,11.12,0,0,0,271.24,538h0A11.12,11.12,0,0,0,260.12,549.13Z"/><path class="cls-1" d="M260.12,571.38h0A11.11,11.11,0,0,0,249,560.26h0a11.12,11.12,0,0,0,11.12-11.12h0a11.12,11.12,0,0,0,11.12,11.12h0A11.12,11.12,0,0,0,260.12,571.38Z"/><path class="cls-1" d="M260.12,593.63h0A11.11,11.11,0,0,0,249,582.51h0a11.12,11.12,0,0,0,11.12-11.12h0a11.12,11.12,0,0,0,11.12,11.12h0A11.12,11.12,0,0,0,260.12,593.63Z"/><path class="cls-1" d="M260.12,437.88h0A11.11,11.11,0,0,0,249,426.76h0a11.12,11.12,0,0,0,11.12-11.12h0a11.12,11.12,0,0,0,11.12,11.12h0A11.12,11.12,0,0,0,260.12,437.88Z"/><path class="cls-1" d="M260.12,415.63h0A11.11,11.11,0,0,0,249,404.51h0a11.12,11.12,0,0,0,11.12-11.12h0a11.12,11.12,0,0,0,11.12,11.12h0A11.12,11.12,0,0,0,260.12,415.63Z"/><path class="cls-1" d="M260.12,393.38h0A11.11,11.11,0,0,0,249,382.26h0a11.12,11.12,0,0,0,11.12-11.12h0a11.12,11.12,0,0,0,11.12,11.12h0A11.12,11.12,0,0,0,260.12,393.38Z"/><path class="cls-1" d="M260.12,371.13h0A11.11,11.11,0,0,0,249,360v0a11.11,11.11,0,0,0,11.12-11.12h0A11.12,11.12,0,0,0,271.24,360v0A11.12,11.12,0,0,0,260.12,371.13Z"/><path class="cls-1" d="M260.12,348.87h0A11.11,11.11,0,0,0,249,337.76v0a11.11,11.11,0,0,0,11.12-11.12h0a11.12,11.12,0,0,0,11.12,11.12h0A11.12,11.12,0,0,0,260.12,348.87Z"/><path class="cls-1" d="M260.12,326.62h0A11.12,11.12,0,0,0,249,315.5h0a11.11,11.11,0,0,0,11.12-11.12h0a11.12,11.12,0,0,0,11.12,11.12h0A11.12,11.12,0,0,0,260.12,326.62Z"/><path class="cls-1" d="M260.12,304.37h0A11.12,11.12,0,0,0,249,293.25h0a11.11,11.11,0,0,0,11.12-11.12h0a11.12,11.12,0,0,0,11.12,11.12h0A11.12,11.12,0,0,0,260.12,304.37Z"/><path class="cls-1" d="M260.12,282.12h0A11.12,11.12,0,0,0,249,271h0a11.11,11.11,0,0,0,11.12-11.12h0A11.12,11.12,0,0,0,271.24,271h0A11.12,11.12,0,0,0,260.12,282.12Z"/><path class="cls-1" d="M260.12,259.87h0A11.12,11.12,0,0,0,249,248.75h0a11.11,11.11,0,0,0,11.12-11.12h0a11.12,11.12,0,0,0,11.12,11.12h0A11.12,11.12,0,0,0,260.12,259.87Z"/><path class="cls-1" d="M260.12,237.62h0A11.12,11.12,0,0,0,249,226.5h0a11.11,11.11,0,0,0,11.12-11.12h0a11.12,11.12,0,0,0,11.12,11.12h0A11.12,11.12,0,0,0,260.12,237.62Z"/><path class="cls-1" d="M260.12,215.37h0A11.12,11.12,0,0,0,249,204.25h0a11.11,11.11,0,0,0,11.12-11.12h0a11.12,11.12,0,0,0,11.12,11.12h0A11.12,11.12,0,0,0,260.12,215.37Z"/><path class="cls-1" d="M260.12,193.12h0A11.12,11.12,0,0,0,249,182h0a11.11,11.11,0,0,0,11.12-11.12h0A11.12,11.12,0,0,0,271.24,182h0A11.12,11.12,0,0,0,260.12,193.12Z"/><path class="cls-1" d="M237.87,193.12h0A11.12,11.12,0,0,0,226.74,182h0a11.11,11.11,0,0,0,11.12-11.12h0A11.12,11.12,0,0,0,249,182h0A11.12,11.12,0,0,0,237.87,193.12Z"/><path class="cls-1" d="M215.62,193.12h0A11.12,11.12,0,0,0,204.49,182h0a11.11,11.11,0,0,0,11.12-11.12h0A11.12,11.12,0,0,0,226.74,182h0A11.12,11.12,0,0,0,215.62,193.12Z"/><path class="cls-1" d="M193.37,193.12h0A11.12,11.12,0,0,0,182.24,182h0a11.11,11.11,0,0,0,11.12-11.12h0A11.12,11.12,0,0,0,204.49,182h0A11.12,11.12,0,0,0,193.37,193.12Z"/><path class="cls-1" d="M171.12,193.12h0A11.12,11.12,0,0,0,160,182h0a11.11,11.11,0,0,0,11.12-11.12h0A11.12,11.12,0,0,0,182.24,182h0A11.12,11.12,0,0,0,171.12,193.12Z"/><path class="cls-1" d="M215.62,237.62h0a11.12,11.12,0,0,0-11.12-11.12h0a11.11,11.11,0,0,0,11.12-11.12h0a11.12,11.12,0,0,0,11.12,11.12h0A11.12,11.12,0,0,0,215.62,237.62Z"/><path class="cls-1" d="M215.62,259.87h0a11.12,11.12,0,0,0-11.12-11.12h0a11.11,11.11,0,0,0,11.12-11.12h0a11.12,11.12,0,0,0,11.12,11.12h0A11.12,11.12,0,0,0,215.62,259.87Z"/><path class="cls-1" d="M193.37,237.62h0a11.12,11.12,0,0,0-11.12-11.12h0a11.11,11.11,0,0,0,11.12-11.12h0a11.12,11.12,0,0,0,11.12,11.12h0A11.12,11.12,0,0,0,193.37,237.62Z"/><path class="cls-1" d="M171.12,237.62h0A11.12,11.12,0,0,0,160,226.5h0a11.11,11.11,0,0,0,11.12-11.12h0a11.12,11.12,0,0,0,11.12,11.12h0A11.12,11.12,0,0,0,171.12,237.62Z"/><path class="cls-1" d="M215.62,282.12h0A11.12,11.12,0,0,0,204.49,271h0a11.11,11.11,0,0,0,11.12-11.12h0A11.12,11.12,0,0,0,226.74,271h0A11.12,11.12,0,0,0,215.62,282.12Z"/><path class="cls-1" d="M193.37,282.12h0A11.12,11.12,0,0,0,182.24,271h0a11.11,11.11,0,0,0,11.12-11.12h0A11.12,11.12,0,0,0,204.49,271h0A11.12,11.12,0,0,0,193.37,282.12Z"/><path class="cls-1" d="M171.12,282.12h0A11.12,11.12,0,0,0,160,271h0a11.11,11.11,0,0,0,11.12-11.12h0A11.12,11.12,0,0,0,182.24,271h0A11.12,11.12,0,0,0,171.12,282.12Z"/><path class="cls-1" d="M171.12,215.37h0A11.12,11.12,0,0,0,160,204.25h0a11.11,11.11,0,0,0,11.12-11.12h0a11.12,11.12,0,0,0,11.12,11.12h0A11.12,11.12,0,0,0,171.12,215.37Z"/><path class="cls-1" d="M215.62,326.62h0a11.12,11.12,0,0,0-11.12-11.12h0a11.11,11.11,0,0,0,11.12-11.12h0a11.12,11.12,0,0,0,11.12,11.12h0A11.12,11.12,0,0,0,215.62,326.62Z"/><path class="cls-1" d="M215.62,348.87h0a11.12,11.12,0,0,0-11.12-11.12h0a11.11,11.11,0,0,0,11.12-11.12h0a11.12,11.12,0,0,0,11.12,11.12h0A11.12,11.12,0,0,0,215.62,348.87Z"/><path class="cls-1" d="M193.37,326.62h0a11.12,11.12,0,0,0-11.12-11.12h0a11.11,11.11,0,0,0,11.12-11.12h0a11.12,11.12,0,0,0,11.12,11.12h0A11.12,11.12,0,0,0,193.37,326.62Z"/><path class="cls-1" d="M171.12,326.62h0A11.12,11.12,0,0,0,160,315.5h0a11.11,11.11,0,0,0,11.12-11.12h0a11.12,11.12,0,0,0,11.12,11.12h0A11.12,11.12,0,0,0,171.12,326.62Z"/><path class="cls-1" d="M215.62,371.13h0A11.11,11.11,0,0,0,204.49,360v0a11.11,11.11,0,0,0,11.12-11.12h0A11.12,11.12,0,0,0,226.74,360v0A11.12,11.12,0,0,0,215.62,371.13Z"/><path class="cls-1" d="M193.37,371.13h0A11.11,11.11,0,0,0,182.24,360v0a11.11,11.11,0,0,0,11.12-11.12h0A11.11,11.11,0,0,0,204.49,360v0A11.12,11.12,0,0,0,193.37,371.13Z"/><path class="cls-1" d="M171.12,371.13h0A11.11,11.11,0,0,0,160,360v0a11.11,11.11,0,0,0,11.12-11.12h0A11.12,11.12,0,0,0,182.24,360v0A11.12,11.12,0,0,0,171.12,371.13Z"/><path class="cls-1" d="M215.62,460.13h0A11.11,11.11,0,0,0,204.49,449h0a11.12,11.12,0,0,0,11.12-11.12h0A11.12,11.12,0,0,0,226.74,449h0A11.12,11.12,0,0,0,215.62,460.13Z"/><path class="cls-1" d="M193.37,460.13h0A11.11,11.11,0,0,0,182.24,449h0a11.12,11.12,0,0,0,11.12-11.12h0A11.12,11.12,0,0,0,204.49,449h0A11.12,11.12,0,0,0,193.37,460.13Z"/><path class="cls-1" d="M171.12,460.13h0A11.11,11.11,0,0,0,160,449h0a11.12,11.12,0,0,0,11.12-11.12h0A11.12,11.12,0,0,0,182.24,449h0A11.12,11.12,0,0,0,171.12,460.13Z"/><path class="cls-1" d="M171.12,304.37h0A11.12,11.12,0,0,0,160,293.25h0a11.11,11.11,0,0,0,11.12-11.12h0a11.12,11.12,0,0,0,11.12,11.12h0A11.12,11.12,0,0,0,171.12,304.37Z"/><path class="cls-1" d="M215.62,415.63h0a11.11,11.11,0,0,0-11.12-11.12h0a11.12,11.12,0,0,0,11.12-11.12h0a11.12,11.12,0,0,0,11.12,11.12h0A11.12,11.12,0,0,0,215.62,415.63Z"/><path class="cls-1" d="M215.62,437.88h0a11.11,11.11,0,0,0-11.12-11.12h0a11.12,11.12,0,0,0,11.12-11.12h0a11.12,11.12,0,0,0,11.12,11.12h0A11.12,11.12,0,0,0,215.62,437.88Z"/><path class="cls-1" d="M193.37,415.63h0a11.11,11.11,0,0,0-11.12-11.12h0a11.12,11.12,0,0,0,11.12-11.12h0a11.12,11.12,0,0,0,11.12,11.12h0A11.12,11.12,0,0,0,193.37,415.63Z"/><path class="cls-1" d="M171.12,415.63h0A11.11,11.11,0,0,0,160,404.51h0a11.12,11.12,0,0,0,11.12-11.12h0a11.12,11.12,0,0,0,11.12,11.12h0A11.12,11.12,0,0,0,171.12,415.63Z"/><path class="cls-1" d="M171.12,393.38h0A11.11,11.11,0,0,0,160,382.26h0a11.12,11.12,0,0,0,11.12-11.12h0a11.12,11.12,0,0,0,11.12,11.12h0A11.12,11.12,0,0,0,171.12,393.38Z"/><path class="cls-1" d="M215.62,504.63h0a11.11,11.11,0,0,0-11.12-11.12h0a11.12,11.12,0,0,0,11.12-11.12h0a11.12,11.12,0,0,0,11.12,11.12h0A11.12,11.12,0,0,0,215.62,504.63Z"/><path class="cls-1" d="M215.62,526.88h0a11.11,11.11,0,0,0-11.12-11.12h0a11.12,11.12,0,0,0,11.12-11.12h0a11.12,11.12,0,0,0,11.12,11.12h0A11.12,11.12,0,0,0,215.62,526.88Z"/><path class="cls-1" d="M193.37,504.63h0a11.11,11.11,0,0,0-11.12-11.12h0a11.12,11.12,0,0,0,11.12-11.12h0a11.12,11.12,0,0,0,11.12,11.12h0A11.12,11.12,0,0,0,193.37,504.63Z"/><path class="cls-1" d="M171.12,504.63h0A11.11,11.11,0,0,0,160,493.51h0a11.12,11.12,0,0,0,11.12-11.12h0a11.12,11.12,0,0,0,11.12,11.12h0A11.12,11.12,0,0,0,171.12,504.63Z"/><path class="cls-1" d="M193.37,593.63h0a11.11,11.11,0,0,0-11.12-11.12h0a11.12,11.12,0,0,0,11.12-11.12h0a11.12,11.12,0,0,0,11.12,11.12h0A11.12,11.12,0,0,0,193.37,593.63Z"/><path class="cls-1" d="M215.62,593.63h0a11.11,11.11,0,0,0-11.12-11.12h0a11.12,11.12,0,0,0,11.12-11.12h0a11.12,11.12,0,0,0,11.12,11.12h0A11.12,11.12,0,0,0,215.62,593.63Z"/><path class="cls-1" d="M237.87,593.63h0a11.11,11.11,0,0,0-11.12-11.12h0a11.12,11.12,0,0,0,11.12-11.12h0A11.12,11.12,0,0,0,249,582.5h0A11.12,11.12,0,0,0,237.87,593.63Z"/><path class="cls-1" d="M171.12,593.63h0A11.11,11.11,0,0,0,160,582.51h0a11.12,11.12,0,0,0,11.12-11.12h0a11.12,11.12,0,0,0,11.12,11.12h0A11.12,11.12,0,0,0,171.12,593.63Z"/><path class="cls-1" d="M148.87,593.63h0a11.11,11.11,0,0,0-11.12-11.12h0a11.12,11.12,0,0,0,11.12-11.12h0A11.12,11.12,0,0,0,160,582.5h0A11.12,11.12,0,0,0,148.87,593.63Z"/><path class="cls-1" d="M215.62,549.13h0A11.11,11.11,0,0,0,204.49,538h0a11.12,11.12,0,0,0,11.12-11.12h0A11.12,11.12,0,0,0,226.74,538h0A11.12,11.12,0,0,0,215.62,549.13Z"/><path class="cls-1" d="M193.37,549.13h0A11.11,11.11,0,0,0,182.24,538h0a11.12,11.12,0,0,0,11.12-11.12h0A11.12,11.12,0,0,0,204.49,538h0A11.12,11.12,0,0,0,193.37,549.13Z"/><path class="cls-1" d="M171.12,549.13h0A11.11,11.11,0,0,0,160,538h0a11.12,11.12,0,0,0,11.12-11.12h0A11.12,11.12,0,0,0,182.24,538h0A11.12,11.12,0,0,0,171.12,549.13Z"/><path class="cls-1" d="M171.12,482.38h0A11.11,11.11,0,0,0,160,471.26h0a11.12,11.12,0,0,0,11.12-11.12h0a11.12,11.12,0,0,0,11.12,11.12h0A11.12,11.12,0,0,0,171.12,482.38Z"/><path class="cls-1" d="M371.37,415.63h0a11.11,11.11,0,0,0-11.12-11.12h0a11.12,11.12,0,0,0,11.12-11.12h0a11.12,11.12,0,0,0,11.12,11.12h0A11.12,11.12,0,0,0,371.37,415.63Z"/><path class="cls-1" d="M393.62,415.63h0a11.11,11.11,0,0,0-11.12-11.12h0a11.12,11.12,0,0,0,11.12-11.12h0a11.12,11.12,0,0,0,11.12,11.12h0A11.12,11.12,0,0,0,393.62,415.63Z"/><path class="cls-1" d="M349.12,282.12h0A11.12,11.12,0,0,0,338,271h0a11.11,11.11,0,0,0,11.12-11.12h0A11.12,11.12,0,0,0,360.24,271h0A11.12,11.12,0,0,0,349.12,282.12Z"/><path class="cls-1" d="M371.37,282.12h0A11.12,11.12,0,0,0,360.24,271h0a11.11,11.11,0,0,0,11.12-11.12h0A11.12,11.12,0,0,0,382.49,271h0A11.12,11.12,0,0,0,371.37,282.12Z"/><path class="cls-1" d="M393.62,282.12h0A11.12,11.12,0,0,0,382.49,271h0a11.11,11.11,0,0,0,11.12-11.12h0A11.12,11.12,0,0,0,404.74,271h0A11.12,11.12,0,0,0,393.62,282.12Z"/><path class="cls-1" d="M349.12,326.62h0A11.12,11.12,0,0,0,338,315.5h0a11.11,11.11,0,0,0,11.12-11.12h0a11.12,11.12,0,0,0,11.12,11.12h0A11.12,11.12,0,0,0,349.12,326.62Z"/><path class="cls-1" d="M371.37,326.62h0a11.12,11.12,0,0,0-11.12-11.12h0a11.11,11.11,0,0,0,11.12-11.12h0a11.12,11.12,0,0,0,11.12,11.12h0A11.12,11.12,0,0,0,371.37,326.62Z"/><path class="cls-1" d="M393.62,326.62h0a11.12,11.12,0,0,0-11.12-11.12h0a11.11,11.11,0,0,0,11.12-11.12h0a11.12,11.12,0,0,0,11.12,11.12h0A11.12,11.12,0,0,0,393.62,326.62Z"/><path class="cls-1" d="M415.87,282.12h0A11.12,11.12,0,0,0,404.74,271h0a11.11,11.11,0,0,0,11.12-11.12h0A11.12,11.12,0,0,0,427,271h0A11.12,11.12,0,0,0,415.87,282.12Z"/><path class="cls-1" d="M415.87,326.62h0a11.12,11.12,0,0,0-11.12-11.12h0a11.11,11.11,0,0,0,11.12-11.12h0A11.12,11.12,0,0,0,427,315.49h0A11.12,11.12,0,0,0,415.87,326.62Z"/><path class="cls-1" d="M438.12,282.12h0A11.12,11.12,0,0,0,427,271h0a11.11,11.11,0,0,0,11.12-11.12h0A11.12,11.12,0,0,0,449.24,271h0A11.12,11.12,0,0,0,438.12,282.12Z"/><path class="cls-1" d="M438.12,304.37h0A11.12,11.12,0,0,0,427,293.25h0a11.11,11.11,0,0,0,11.12-11.12h0a11.12,11.12,0,0,0,11.12,11.12h0A11.12,11.12,0,0,0,438.12,304.37Z"/><path class="cls-1" d="M438.12,326.62h0A11.12,11.12,0,0,0,427,315.5h0a11.11,11.11,0,0,0,11.12-11.12h0a11.12,11.12,0,0,0,11.12,11.12h0A11.12,11.12,0,0,0,438.12,326.62Z"/><path class="cls-1" d="M1261.89,593.63h0a11.12,11.12,0,0,0-11.12-11.12h0a11.12,11.12,0,0,0,11.12-11.12h0A11.12,11.12,0,0,0,1273,582.5h0A11.11,11.11,0,0,0,1261.89,593.63Z"/><path class="cls-1" d="M1284.14,593.63h0A11.12,11.12,0,0,0,1273,582.51h0a11.12,11.12,0,0,0,11.12-11.12h0a11.12,11.12,0,0,0,11.12,11.12h0A11.11,11.11,0,0,0,1284.14,593.63Z"/><path class="cls-1" d="M1306.39,593.63h0a11.12,11.12,0,0,0-11.12-11.12h0a11.12,11.12,0,0,0,11.12-11.12h0a11.12,11.12,0,0,0,11.12,11.12h0A11.11,11.11,0,0,0,1306.39,593.63Z"/><path class="cls-1" d="M1328.64,593.63h0a11.12,11.12,0,0,0-11.12-11.12h0a11.12,11.12,0,0,0,11.12-11.12h0a11.12,11.12,0,0,0,11.12,11.12h0A11.11,11.11,0,0,0,1328.64,593.63Z"/><path class="cls-1" d="M1350.89,593.63h0a11.12,11.12,0,0,0-11.12-11.12h0a11.12,11.12,0,0,0,11.12-11.12h0A11.12,11.12,0,0,0,1362,582.5h0A11.11,11.11,0,0,0,1350.89,593.63Z"/><path class="cls-1" d="M1261.89,571.38h0a11.12,11.12,0,0,0-11.12-11.12h0a11.12,11.12,0,0,0,11.12-11.12h0A11.12,11.12,0,0,0,1273,560.25h0A11.11,11.11,0,0,0,1261.89,571.38Z"/><path class="cls-1" d="M1261.89,549.13h0A11.12,11.12,0,0,0,1250.76,538h0a11.12,11.12,0,0,0,11.12-11.12h0A11.12,11.12,0,0,0,1273,538h0A11.11,11.11,0,0,0,1261.89,549.13Z"/><path class="cls-1" d="M1261.89,526.88h0a11.12,11.12,0,0,0-11.12-11.12h0a11.12,11.12,0,0,0,11.12-11.12h0A11.12,11.12,0,0,0,1273,515.75h0A11.11,11.11,0,0,0,1261.89,526.88Z"/><path class="cls-1" d="M1261.89,504.63h0a11.12,11.12,0,0,0-11.12-11.12h0a11.12,11.12,0,0,0,11.12-11.12h0A11.12,11.12,0,0,0,1273,493.5h0A11.11,11.11,0,0,0,1261.89,504.63Z"/><path class="cls-1" d="M1261.89,482.38h0a11.12,11.12,0,0,0-11.12-11.12h0a11.12,11.12,0,0,0,11.12-11.12h0A11.12,11.12,0,0,0,1273,471.25h0A11.11,11.11,0,0,0,1261.89,482.38Z"/><path class="cls-1" d="M1261.89,460.13h0A11.12,11.12,0,0,0,1250.76,449h0a11.12,11.12,0,0,0,11.12-11.12h0A11.12,11.12,0,0,0,1273,449h0A11.11,11.11,0,0,0,1261.89,460.13Z"/><path class="cls-1" d="M1261.89,437.88h0a11.12,11.12,0,0,0-11.12-11.12h0a11.12,11.12,0,0,0,11.12-11.12h0A11.12,11.12,0,0,0,1273,426.75h0A11.11,11.11,0,0,0,1261.89,437.88Z"/><path class="cls-1" d="M1261.89,415.63h0a11.12,11.12,0,0,0-11.12-11.12v0a11.11,11.11,0,0,0,11.12-11.11h0A11.11,11.11,0,0,0,1273,404.49v0A11.11,11.11,0,0,0,1261.89,415.63Z"/><path class="cls-1" d="M1261.89,393.37h0a11.12,11.12,0,0,0-11.12-11.12h0a11.12,11.12,0,0,0,11.12-11.12h0A11.11,11.11,0,0,0,1273,382.24h0A11.12,11.12,0,0,0,1261.89,393.37Z"/><path class="cls-1" d="M1261.89,371.12h0A11.12,11.12,0,0,0,1250.76,360h0a11.12,11.12,0,0,0,11.12-11.12h0A11.11,11.11,0,0,0,1273,360h0A11.12,11.12,0,0,0,1261.89,371.12Z"/><path class="cls-1" d="M1261.89,348.87h0a11.12,11.12,0,0,0-11.12-11.12h0a11.12,11.12,0,0,0,11.12-11.12h0A11.11,11.11,0,0,0,1273,337.74h0A11.12,11.12,0,0,0,1261.89,348.87Z"/><path class="cls-1" d="M1261.89,326.62h0a11.12,11.12,0,0,0-11.12-11.12h0a11.12,11.12,0,0,0,11.12-11.12h0A11.11,11.11,0,0,0,1273,315.49h0A11.12,11.12,0,0,0,1261.89,326.62Z"/><path class="cls-1" d="M1261.89,304.37h0a11.12,11.12,0,0,0-11.12-11.12h0a11.12,11.12,0,0,0,11.12-11.12h0A11.11,11.11,0,0,0,1273,293.24h0A11.12,11.12,0,0,0,1261.89,304.37Z"/><path class="cls-1" d="M1261.89,282.12h0A11.12,11.12,0,0,0,1250.76,271h0a11.12,11.12,0,0,0,11.12-11.12h0A11.11,11.11,0,0,0,1273,271h0A11.12,11.12,0,0,0,1261.89,282.12Z"/><path class="cls-1" d="M1261.89,259.87h0a11.12,11.12,0,0,0-11.12-11.12h0a11.12,11.12,0,0,0,11.12-11.12h0A11.11,11.11,0,0,0,1273,248.74h0A11.12,11.12,0,0,0,1261.89,259.87Z"/><path class="cls-1" d="M1261.89,237.62h0a11.12,11.12,0,0,0-11.12-11.12h0a11.12,11.12,0,0,0,11.12-11.12h0A11.11,11.11,0,0,0,1273,226.49h0A11.12,11.12,0,0,0,1261.89,237.62Z"/><path class="cls-1" d="M1261.89,215.37h0a11.12,11.12,0,0,0-11.12-11.12h0a11.12,11.12,0,0,0,11.12-11.12h0A11.11,11.11,0,0,0,1273,204.24h0A11.12,11.12,0,0,0,1261.89,215.37Z"/><path class="cls-1" d="M1261.89,193.12h0A11.12,11.12,0,0,0,1250.76,182h0a11.12,11.12,0,0,0,11.12-11.12h0A11.11,11.11,0,0,0,1273,182h0A11.12,11.12,0,0,0,1261.89,193.12Z"/><path class="cls-1" d="M1261.89,170.87h0a11.12,11.12,0,0,0-11.12-11.12h0a11.12,11.12,0,0,0,11.12-11.12h0A11.11,11.11,0,0,0,1273,159.74h0A11.12,11.12,0,0,0,1261.89,170.87Z"/><path class="cls-1" d="M1261.89,148.62h0a11.12,11.12,0,0,0-11.12-11.12h0a11.12,11.12,0,0,0,11.12-11.12h0A11.11,11.11,0,0,0,1273,137.49h0A11.12,11.12,0,0,0,1261.89,148.62Z"/><path class="cls-1" d="M1284.14,148.62h0A11.12,11.12,0,0,0,1273,137.5h0a11.12,11.12,0,0,0,11.12-11.12h0a11.11,11.11,0,0,0,11.12,11.12h0A11.12,11.12,0,0,0,1284.14,148.62Z"/><path class="cls-1" d="M1306.39,148.62h0a11.12,11.12,0,0,0-11.12-11.12h0a11.12,11.12,0,0,0,11.12-11.12h0a11.11,11.11,0,0,0,11.12,11.12h0A11.12,11.12,0,0,0,1306.39,148.62Z"/><path class="cls-1" d="M1328.64,148.62h0a11.12,11.12,0,0,0-11.12-11.12h0a11.12,11.12,0,0,0,11.12-11.12h0a11.11,11.11,0,0,0,11.12,11.12h0A11.12,11.12,0,0,0,1328.64,148.62Z"/><path class="cls-1" d="M1350.89,148.62h0a11.12,11.12,0,0,0-11.12-11.12h0a11.12,11.12,0,0,0,11.12-11.12h0A11.11,11.11,0,0,0,1362,137.49h0A11.12,11.12,0,0,0,1350.89,148.62Z"/><path class="cls-1" d="M1373.14,148.62h0A11.12,11.12,0,0,0,1362,137.5h0a11.12,11.12,0,0,0,11.12-11.12h0a11.11,11.11,0,0,0,11.12,11.12h0A11.12,11.12,0,0,0,1373.14,148.62Z"/><path class="cls-1" d="M1395.39,148.62h0a11.12,11.12,0,0,0-11.12-11.12h0a11.12,11.12,0,0,0,11.12-11.12h0a11.11,11.11,0,0,0,11.12,11.12h0A11.12,11.12,0,0,0,1395.39,148.62Z"/><path class="cls-1" d="M1417.64,148.62h0a11.12,11.12,0,0,0-11.12-11.12h0a11.12,11.12,0,0,0,11.12-11.12h0a11.11,11.11,0,0,0,11.12,11.12h0A11.12,11.12,0,0,0,1417.64,148.62Z"/><path class="cls-1" d="M1395.39,460.13h0A11.12,11.12,0,0,0,1384.26,449h0a11.12,11.12,0,0,0,11.12-11.12h0A11.12,11.12,0,0,0,1406.51,449h0A11.11,11.11,0,0,0,1395.39,460.13Z"/><path class="cls-1" d="M1395.39,482.38h0a11.12,11.12,0,0,0-11.12-11.12h0a11.12,11.12,0,0,0,11.12-11.12h0a11.12,11.12,0,0,0,11.12,11.12h0A11.11,11.11,0,0,0,1395.39,482.38Z"/><path class="cls-1" d="M1395.39,504.63h0a11.12,11.12,0,0,0-11.12-11.12h0a11.12,11.12,0,0,0,11.12-11.12h0a11.12,11.12,0,0,0,11.12,11.12h0A11.11,11.11,0,0,0,1395.39,504.63Z"/><path class="cls-1" d="M1395.39,526.88h0a11.12,11.12,0,0,0-11.12-11.12h0a11.12,11.12,0,0,0,11.12-11.12h0a11.12,11.12,0,0,0,11.12,11.12h0A11.11,11.11,0,0,0,1395.39,526.88Z"/><path class="cls-1" d="M1395.39,549.13h0A11.12,11.12,0,0,0,1384.26,538h0a11.12,11.12,0,0,0,11.12-11.12h0A11.12,11.12,0,0,0,1406.51,538h0A11.11,11.11,0,0,0,1395.39,549.13Z"/><path class="cls-1" d="M1395.39,571.38h0a11.12,11.12,0,0,0-11.12-11.12h0a11.12,11.12,0,0,0,11.12-11.12h0a11.12,11.12,0,0,0,11.12,11.12h0A11.11,11.11,0,0,0,1395.39,571.38Z"/><path class="cls-1" d="M1395.39,593.63h0a11.12,11.12,0,0,0-11.12-11.12h0a11.12,11.12,0,0,0,11.12-11.12h0a11.12,11.12,0,0,0,11.12,11.12h0A11.11,11.11,0,0,0,1395.39,593.63Z"/><path class="cls-1" d="M1417.64,593.63h0a11.12,11.12,0,0,0-11.12-11.12h0a11.12,11.12,0,0,0,11.12-11.12h0a11.12,11.12,0,0,0,11.12,11.12h0A11.11,11.11,0,0,0,1417.64,593.63Z"/><path class="cls-1" d="M1439.89,593.63h0a11.12,11.12,0,0,0-11.12-11.12h0a11.12,11.12,0,0,0,11.12-11.12h0A11.12,11.12,0,0,0,1451,582.5h0A11.11,11.11,0,0,0,1439.89,593.63Z"/><path class="cls-1" d="M1439.89,571.38h0a11.12,11.12,0,0,0-11.12-11.12h0a11.12,11.12,0,0,0,11.12-11.12h0A11.12,11.12,0,0,0,1451,560.25h0A11.11,11.11,0,0,0,1439.89,571.38Z"/><path class="cls-1" d="M1439.89,549.13h0A11.12,11.12,0,0,0,1428.76,538h0a11.12,11.12,0,0,0,11.12-11.12h0A11.12,11.12,0,0,0,1451,538h0A11.11,11.11,0,0,0,1439.89,549.13Z"/><path class="cls-1" d="M1439.89,526.88h0a11.12,11.12,0,0,0-11.12-11.12h0a11.12,11.12,0,0,0,11.12-11.12h0A11.12,11.12,0,0,0,1451,515.75h0A11.11,11.11,0,0,0,1439.89,526.88Z"/><path class="cls-1" d="M1462.14,526.88h0A11.12,11.12,0,0,0,1451,515.76h0a11.12,11.12,0,0,0,11.12-11.12h0a11.12,11.12,0,0,0,11.12,11.12h0A11.11,11.11,0,0,0,1462.14,526.88Z"/><path class="cls-1" d="M1484.39,526.88h0a11.12,11.12,0,0,0-11.12-11.12h0a11.12,11.12,0,0,0,11.12-11.12h0a11.12,11.12,0,0,0,11.12,11.12h0A11.11,11.11,0,0,0,1484.39,526.88Z"/><path class="cls-1" d="M1506.64,526.88h0a11.12,11.12,0,0,0-11.12-11.12h0a11.12,11.12,0,0,0,11.12-11.12h0a11.12,11.12,0,0,0,11.12,11.12h0A11.11,11.11,0,0,0,1506.64,526.88Z"/><path class="cls-1" d="M1528.89,526.88h0a11.12,11.12,0,0,0-11.12-11.12h0a11.12,11.12,0,0,0,11.12-11.12h0A11.12,11.12,0,0,0,1540,515.75h0A11.11,11.11,0,0,0,1528.89,526.88Z"/><path class="cls-1" d="M1528.89,504.63h0a11.12,11.12,0,0,0-11.12-11.12h0a11.12,11.12,0,0,0,11.12-11.12h0A11.12,11.12,0,0,0,1540,493.5h0A11.11,11.11,0,0,0,1528.89,504.63Z"/><path class="cls-1" d="M1528.89,482.38h0a11.12,11.12,0,0,0-11.12-11.12h0a11.12,11.12,0,0,0,11.12-11.12h0A11.12,11.12,0,0,0,1540,471.25h0A11.11,11.11,0,0,0,1528.89,482.38Z"/><path class="cls-1" d="M1506.64,482.38h0a11.12,11.12,0,0,0-11.12-11.12h0a11.12,11.12,0,0,0,11.12-11.12h0a11.12,11.12,0,0,0,11.12,11.12h0A11.11,11.11,0,0,0,1506.64,482.38Z"/><path class="cls-1" d="M1484.39,482.38h0a11.12,11.12,0,0,0-11.12-11.12h0a11.12,11.12,0,0,0,11.12-11.12h0a11.12,11.12,0,0,0,11.12,11.12h0A11.11,11.11,0,0,0,1484.39,482.38Z"/><path class="cls-1" d="M1484.39,460.13h0A11.12,11.12,0,0,0,1473.26,449h0a11.12,11.12,0,0,0,11.12-11.12h0A11.12,11.12,0,0,0,1495.51,449h0A11.11,11.11,0,0,0,1484.39,460.13Z"/><path class="cls-1" d="M1484.39,437.88h0a11.12,11.12,0,0,0-11.12-11.12h0a11.12,11.12,0,0,0,11.12-11.12h0a11.12,11.12,0,0,0,11.12,11.12h0A11.11,11.11,0,0,0,1484.39,437.88Z"/><path class="cls-1" d="M1506.64,437.88h0a11.12,11.12,0,0,0-11.12-11.12h0a11.12,11.12,0,0,0,11.12-11.12h0a11.12,11.12,0,0,0,11.12,11.12h0A11.11,11.11,0,0,0,1506.64,437.88Z"/><path class="cls-1" d="M1528.89,437.88h0a11.12,11.12,0,0,0-11.12-11.12h0a11.12,11.12,0,0,0,11.12-11.12h0A11.12,11.12,0,0,0,1540,426.75h0A11.11,11.11,0,0,0,1528.89,437.88Z"/><path class="cls-1" d="M1551.14,437.88h0A11.12,11.12,0,0,0,1540,426.76h0a11.12,11.12,0,0,0,11.12-11.12h0a11.12,11.12,0,0,0,11.12,11.12h0A11.11,11.11,0,0,0,1551.14,437.88Z"/><path class="cls-1" d="M1573.39,437.88h0a11.12,11.12,0,0,0-11.12-11.12h0a11.12,11.12,0,0,0,11.12-11.12h0a11.12,11.12,0,0,0,11.12,11.12h0A11.11,11.11,0,0,0,1573.39,437.88Z"/><path class="cls-1" d="M1484.39,393.37h0a11.12,11.12,0,0,0-11.12-11.12h0a11.12,11.12,0,0,0,11.12-11.12h0a11.11,11.11,0,0,0,11.12,11.12h0A11.12,11.12,0,0,0,1484.39,393.37Z"/><path class="cls-1" d="M1484.39,371.12h0A11.12,11.12,0,0,0,1473.26,360h0a11.12,11.12,0,0,0,11.12-11.12h0A11.11,11.11,0,0,0,1495.51,360h0A11.12,11.12,0,0,0,1484.39,371.12Z"/><path class="cls-1" d="M1506.64,393.37h0a11.12,11.12,0,0,0-11.12-11.12h0a11.12,11.12,0,0,0,11.12-11.12h0a11.11,11.11,0,0,0,11.12,11.12v0A11.1,11.1,0,0,0,1506.64,393.37Z"/><path class="cls-1" d="M1528.89,393.37h0a11.12,11.12,0,0,0-11.12-11.12h0a11.12,11.12,0,0,0,11.12-11.12h0A11.11,11.11,0,0,0,1540,382.24v0A11.11,11.11,0,0,0,1528.89,393.37Z"/><path class="cls-1" d="M1551.14,393.38h0A11.12,11.12,0,0,0,1540,382.26v0a11.12,11.12,0,0,0,11.12-11.12h0a11.11,11.11,0,0,0,11.12,11.12h0A11.12,11.12,0,0,0,1551.14,393.38Z"/><path class="cls-1" d="M1573.39,393.37h0a11.11,11.11,0,0,0-11.12-11.11v0a11.12,11.12,0,0,0,11.12-11.12h0a11.11,11.11,0,0,0,11.12,11.12v0A11.11,11.11,0,0,0,1573.39,393.37Z"/><path class="cls-1" d="M1573.39,415.63h0a11.12,11.12,0,0,0-11.12-11.12v0a11.12,11.12,0,0,0,11.12-11.12h0a11.11,11.11,0,0,0,11.12,11.12v0A11.11,11.11,0,0,0,1573.39,415.63Z"/><path class="cls-1" d="M1484.39,348.87h0a11.12,11.12,0,0,0-11.12-11.12h0a11.12,11.12,0,0,0,11.12-11.12h0a11.11,11.11,0,0,0,11.12,11.12h0A11.12,11.12,0,0,0,1484.39,348.87Z"/><path class="cls-1" d="M1506.64,348.87h0a11.12,11.12,0,0,0-11.12-11.12h0a11.12,11.12,0,0,0,11.12-11.12h0a11.11,11.11,0,0,0,11.12,11.12h0A11.12,11.12,0,0,0,1506.64,348.87Z"/><path class="cls-1" d="M1528.89,348.87h0a11.12,11.12,0,0,0-11.12-11.12h0a11.12,11.12,0,0,0,11.12-11.12h0A11.11,11.11,0,0,0,1540,337.74h0A11.12,11.12,0,0,0,1528.89,348.87Z"/><path class="cls-1" d="M1551.14,348.87h0A11.12,11.12,0,0,0,1540,337.75h0a11.12,11.12,0,0,0,11.12-11.12h0a11.11,11.11,0,0,0,11.12,11.12h0A11.12,11.12,0,0,0,1551.14,348.87Z"/><path class="cls-1" d="M1573.39,348.87h0a11.12,11.12,0,0,0-11.12-11.12h0a11.12,11.12,0,0,0,11.12-11.12h0a11.11,11.11,0,0,0,11.12,11.12h0A11.12,11.12,0,0,0,1573.39,348.87Z"/><path class="cls-1" d="M1484.39,304.37h0a11.12,11.12,0,0,0-11.12-11.12h0a11.12,11.12,0,0,0,11.12-11.12h0a11.11,11.11,0,0,0,11.12,11.12h0A11.12,11.12,0,0,0,1484.39,304.37Z"/><path class="cls-1" d="M1484.39,282.12h0A11.12,11.12,0,0,0,1473.26,271h0a11.12,11.12,0,0,0,11.12-11.12h0A11.11,11.11,0,0,0,1495.51,271h0A11.12,11.12,0,0,0,1484.39,282.12Z"/><path class="cls-1" d="M1484.39,259.87h0a11.12,11.12,0,0,0-11.12-11.12h0a11.12,11.12,0,0,0,11.12-11.12h0a11.11,11.11,0,0,0,11.12,11.12h0A11.12,11.12,0,0,0,1484.39,259.87Z"/><path class="cls-1" d="M1506.64,259.87h0a11.12,11.12,0,0,0-11.12-11.12h0a11.12,11.12,0,0,0,11.12-11.12h0a11.11,11.11,0,0,0,11.12,11.12h0A11.12,11.12,0,0,0,1506.64,259.87Z"/><path class="cls-1" d="M1528.89,259.87h0a11.12,11.12,0,0,0-11.12-11.12h0a11.12,11.12,0,0,0,11.12-11.12h0A11.11,11.11,0,0,0,1540,248.74h0A11.12,11.12,0,0,0,1528.89,259.87Z"/><path class="cls-1" d="M1528.89,237.62h0a11.12,11.12,0,0,0-11.12-11.12h0a11.12,11.12,0,0,0,11.12-11.12h0A11.11,11.11,0,0,0,1540,226.49h0A11.12,11.12,0,0,0,1528.89,237.62Z"/><path class="cls-1" d="M1528.89,215.37h0a11.12,11.12,0,0,0-11.12-11.12h0a11.12,11.12,0,0,0,11.12-11.12h0A11.11,11.11,0,0,0,1540,204.24h0A11.12,11.12,0,0,0,1528.89,215.37Z"/><path class="cls-1" d="M1506.64,215.37h0a11.12,11.12,0,0,0-11.12-11.12h0a11.12,11.12,0,0,0,11.12-11.12h0a11.11,11.11,0,0,0,11.12,11.12h0A11.12,11.12,0,0,0,1506.64,215.37Z"/><path class="cls-1" d="M1484.39,215.37h0a11.12,11.12,0,0,0-11.12-11.12h0a11.12,11.12,0,0,0,11.12-11.12h0a11.11,11.11,0,0,0,11.12,11.12h0A11.12,11.12,0,0,0,1484.39,215.37Z"/><path class="cls-1" d="M1462.14,215.37h0A11.12,11.12,0,0,0,1451,204.25h0a11.12,11.12,0,0,0,11.12-11.12h0a11.11,11.11,0,0,0,11.12,11.12h0A11.12,11.12,0,0,0,1462.14,215.37Z"/><path class="cls-1" d="M1439.89,215.37h0a11.12,11.12,0,0,0-11.12-11.12h0a11.12,11.12,0,0,0,11.12-11.12h0A11.11,11.11,0,0,0,1451,204.24h0A11.12,11.12,0,0,0,1439.89,215.37Z"/><path class="cls-1" d="M1439.89,193.12h0A11.12,11.12,0,0,0,1428.76,182h0a11.12,11.12,0,0,0,11.12-11.12h0A11.11,11.11,0,0,0,1451,182h0A11.12,11.12,0,0,0,1439.89,193.12Z"/><path class="cls-1" d="M1439.89,170.87h0a11.12,11.12,0,0,0-11.12-11.12h0a11.12,11.12,0,0,0,11.12-11.12h0A11.11,11.11,0,0,0,1451,159.74h0A11.12,11.12,0,0,0,1439.89,170.87Z"/><path class="cls-1" d="M1439.89,148.62h0a11.12,11.12,0,0,0-11.12-11.12h0a11.12,11.12,0,0,0,11.12-11.12h0A11.11,11.11,0,0,0,1451,137.49h0A11.12,11.12,0,0,0,1439.89,148.62Z"/><path class="cls-1" d="M1506.64,304.37h0a11.12,11.12,0,0,0-11.12-11.12h0a11.12,11.12,0,0,0,11.12-11.12h0a11.11,11.11,0,0,0,11.12,11.12h0A11.12,11.12,0,0,0,1506.64,304.37Z"/><path class="cls-1" d="M1528.89,304.37h0a11.12,11.12,0,0,0-11.12-11.12h0a11.12,11.12,0,0,0,11.12-11.12h0A11.11,11.11,0,0,0,1540,293.24h0A11.12,11.12,0,0,0,1528.89,304.37Z"/><path class="cls-1" d="M1551.14,304.37h0A11.12,11.12,0,0,0,1540,293.25h0a11.12,11.12,0,0,0,11.12-11.12h0a11.11,11.11,0,0,0,11.12,11.12h0A11.12,11.12,0,0,0,1551.14,304.37Z"/><path class="cls-1" d="M1573.39,304.37h0a11.12,11.12,0,0,0-11.12-11.12h0a11.12,11.12,0,0,0,11.12-11.12h0a11.11,11.11,0,0,0,11.12,11.12h0A11.12,11.12,0,0,0,1573.39,304.37Z"/><path class="cls-1" d="M1573.39,326.62h0a11.12,11.12,0,0,0-11.12-11.12h0a11.12,11.12,0,0,0,11.12-11.12h0a11.11,11.11,0,0,0,11.12,11.12h0A11.12,11.12,0,0,0,1573.39,326.62Z"/><path class="cls-1" d="M1395.39,437.88h0a11.12,11.12,0,0,0-11.12-11.12h0a11.12,11.12,0,0,0,11.12-11.12h0a11.12,11.12,0,0,0,11.12,11.12h0A11.11,11.11,0,0,0,1395.39,437.88Z"/><path class="cls-1" d="M1395.39,415.63h0a11.12,11.12,0,0,0-11.12-11.13h0a11.11,11.11,0,0,0,11.12-11.11h0a11.1,11.1,0,0,0,11.12,11.11v0A11.11,11.11,0,0,0,1395.39,415.63Z"/><path class="cls-1" d="M1395.39,393.37h0a11.12,11.12,0,0,0-11.12-11.12h0a11.12,11.12,0,0,0,11.12-11.12h0a11.11,11.11,0,0,0,11.12,11.12h0A11.12,11.12,0,0,0,1395.39,393.37Z"/><path class="cls-1" d="M1395.39,371.12h0A11.12,11.12,0,0,0,1384.26,360h0a11.12,11.12,0,0,0,11.12-11.12h0A11.11,11.11,0,0,0,1406.51,360h0A11.12,11.12,0,0,0,1395.39,371.12Z"/><path class="cls-1" d="M1395.39,348.87h0a11.12,11.12,0,0,0-11.12-11.12h0a11.12,11.12,0,0,0,11.12-11.12h0a11.11,11.11,0,0,0,11.12,11.12h0A11.12,11.12,0,0,0,1395.39,348.87Z"/><path class="cls-1" d="M1395.39,326.62h0a11.12,11.12,0,0,0-11.12-11.12h0a11.12,11.12,0,0,0,11.12-11.12h0a11.11,11.11,0,0,0,11.12,11.12h0A11.12,11.12,0,0,0,1395.39,326.62Z"/><path class="cls-1" d="M1395.39,304.37h0a11.12,11.12,0,0,0-11.12-11.12h0a11.12,11.12,0,0,0,11.12-11.12h0a11.11,11.11,0,0,0,11.12,11.12h0A11.12,11.12,0,0,0,1395.39,304.37Z"/><path class="cls-1" d="M1395.39,282.12h0A11.12,11.12,0,0,0,1384.26,271h0a11.12,11.12,0,0,0,11.12-11.12h0A11.11,11.11,0,0,0,1406.51,271h0A11.12,11.12,0,0,0,1395.39,282.12Z"/><path class="cls-1" d="M1395.39,259.87h0a11.12,11.12,0,0,0-11.12-11.12h0a11.12,11.12,0,0,0,11.12-11.12h0a11.11,11.11,0,0,0,11.12,11.12h0A11.12,11.12,0,0,0,1395.39,259.87Z"/><path class="cls-1" d="M1395.39,237.62h0a11.12,11.12,0,0,0-11.12-11.12h0a11.12,11.12,0,0,0,11.12-11.12h0a11.11,11.11,0,0,0,11.12,11.12h0A11.12,11.12,0,0,0,1395.39,237.62Z"/><path class="cls-1" d="M1395.39,215.37h0a11.12,11.12,0,0,0-11.12-11.12h0a11.12,11.12,0,0,0,11.12-11.12h0a11.11,11.11,0,0,0,11.12,11.12h0A11.12,11.12,0,0,0,1395.39,215.37Z"/><path class="cls-1" d="M1395.39,193.12h0A11.12,11.12,0,0,0,1384.26,182h0a11.12,11.12,0,0,0,11.12-11.12h0A11.11,11.11,0,0,0,1406.51,182h0A11.12,11.12,0,0,0,1395.39,193.12Z"/><path class="cls-1" d="M1373.14,193.12h0A11.12,11.12,0,0,0,1362,182h0a11.12,11.12,0,0,0,11.12-11.12h0A11.11,11.11,0,0,0,1384.26,182h0A11.12,11.12,0,0,0,1373.14,193.12Z"/><path class="cls-1" d="M1350.89,193.12h0A11.12,11.12,0,0,0,1339.76,182h0a11.12,11.12,0,0,0,11.12-11.12h0A11.11,11.11,0,0,0,1362,182h0A11.12,11.12,0,0,0,1350.89,193.12Z"/><path class="cls-1" d="M1328.64,193.12h0A11.12,11.12,0,0,0,1317.51,182h0a11.12,11.12,0,0,0,11.12-11.12h0A11.11,11.11,0,0,0,1339.76,182h0A11.12,11.12,0,0,0,1328.64,193.12Z"/><path class="cls-1" d="M1306.39,193.12h0A11.12,11.12,0,0,0,1295.26,182h0a11.12,11.12,0,0,0,11.12-11.12h0A11.11,11.11,0,0,0,1317.51,182h0A11.12,11.12,0,0,0,1306.39,193.12Z"/><path class="cls-1" d="M1350.89,237.62h0a11.12,11.12,0,0,0-11.12-11.12h0a11.12,11.12,0,0,0,11.12-11.12h0A11.11,11.11,0,0,0,1362,226.49h0A11.12,11.12,0,0,0,1350.89,237.62Z"/><path class="cls-1" d="M1350.89,259.87h0a11.12,11.12,0,0,0-11.12-11.12h0a11.12,11.12,0,0,0,11.12-11.12h0A11.11,11.11,0,0,0,1362,248.74h0A11.12,11.12,0,0,0,1350.89,259.87Z"/><path class="cls-1" d="M1328.64,237.62h0a11.12,11.12,0,0,0-11.12-11.12h0a11.12,11.12,0,0,0,11.12-11.12h0a11.11,11.11,0,0,0,11.12,11.12h0A11.12,11.12,0,0,0,1328.64,237.62Z"/><path class="cls-1" d="M1306.39,237.62h0a11.12,11.12,0,0,0-11.12-11.12h0a11.12,11.12,0,0,0,11.12-11.12h0a11.11,11.11,0,0,0,11.12,11.12h0A11.12,11.12,0,0,0,1306.39,237.62Z"/><path class="cls-1" d="M1350.89,282.12h0A11.12,11.12,0,0,0,1339.76,271h0a11.12,11.12,0,0,0,11.12-11.12h0A11.11,11.11,0,0,0,1362,271h0A11.12,11.12,0,0,0,1350.89,282.12Z"/><path class="cls-1" d="M1328.64,282.12h0A11.12,11.12,0,0,0,1317.51,271h0a11.12,11.12,0,0,0,11.12-11.12h0A11.11,11.11,0,0,0,1339.76,271h0A11.12,11.12,0,0,0,1328.64,282.12Z"/><path class="cls-1" d="M1306.39,282.12h0A11.12,11.12,0,0,0,1295.26,271h0a11.12,11.12,0,0,0,11.12-11.12h0A11.11,11.11,0,0,0,1317.51,271h0A11.12,11.12,0,0,0,1306.39,282.12Z"/><path class="cls-1" d="M1306.39,215.37h0a11.12,11.12,0,0,0-11.12-11.12h0a11.12,11.12,0,0,0,11.12-11.12h0a11.11,11.11,0,0,0,11.12,11.12h0A11.12,11.12,0,0,0,1306.39,215.37Z"/><path class="cls-1" d="M1350.89,326.62h0a11.12,11.12,0,0,0-11.12-11.12h0a11.12,11.12,0,0,0,11.12-11.12h0A11.11,11.11,0,0,0,1362,315.49h0A11.12,11.12,0,0,0,1350.89,326.62Z"/><path class="cls-1" d="M1350.89,348.87h0a11.12,11.12,0,0,0-11.12-11.12h0a11.12,11.12,0,0,0,11.12-11.12h0A11.11,11.11,0,0,0,1362,337.74h0A11.12,11.12,0,0,0,1350.89,348.87Z"/><path class="cls-1" d="M1328.64,326.62h0a11.12,11.12,0,0,0-11.12-11.12h0a11.12,11.12,0,0,0,11.12-11.12h0a11.11,11.11,0,0,0,11.12,11.12h0A11.12,11.12,0,0,0,1328.64,326.62Z"/><path class="cls-1" d="M1306.39,326.62h0a11.12,11.12,0,0,0-11.12-11.12h0a11.12,11.12,0,0,0,11.12-11.12h0a11.11,11.11,0,0,0,11.12,11.12h0A11.12,11.12,0,0,0,1306.39,326.62Z"/><path class="cls-1" d="M1350.89,371.12h0A11.12,11.12,0,0,0,1339.76,360h0a11.12,11.12,0,0,0,11.12-11.12h0A11.11,11.11,0,0,0,1362,360h0A11.12,11.12,0,0,0,1350.89,371.12Z"/><path class="cls-1" d="M1328.64,371.12h0A11.12,11.12,0,0,0,1317.51,360h0a11.12,11.12,0,0,0,11.12-11.12h0A11.11,11.11,0,0,0,1339.76,360h0A11.12,11.12,0,0,0,1328.64,371.12Z"/><path class="cls-1" d="M1306.39,371.12h0A11.12,11.12,0,0,0,1295.26,360h0a11.12,11.12,0,0,0,11.12-11.12h0A11.11,11.11,0,0,0,1317.51,360h0A11.12,11.12,0,0,0,1306.39,371.12Z"/><path class="cls-1" d="M1350.89,460.13h0A11.12,11.12,0,0,0,1339.76,449h0a11.12,11.12,0,0,0,11.12-11.12h0A11.12,11.12,0,0,0,1362,449h0A11.11,11.11,0,0,0,1350.89,460.13Z"/><path class="cls-1" d="M1328.64,460.13h0A11.12,11.12,0,0,0,1317.51,449h0a11.12,11.12,0,0,0,11.12-11.12h0A11.12,11.12,0,0,0,1339.76,449h0A11.11,11.11,0,0,0,1328.64,460.13Z"/><path class="cls-1" d="M1306.39,460.13h0A11.12,11.12,0,0,0,1295.26,449h0a11.12,11.12,0,0,0,11.12-11.12h0A11.12,11.12,0,0,0,1317.51,449h0A11.11,11.11,0,0,0,1306.39,460.13Z"/><path class="cls-1" d="M1306.39,304.37h0a11.12,11.12,0,0,0-11.12-11.12h0a11.12,11.12,0,0,0,11.12-11.12h0a11.11,11.11,0,0,0,11.12,11.12h0A11.12,11.12,0,0,0,1306.39,304.37Z"/><path class="cls-1" d="M1350.89,415.63h0a11.12,11.12,0,0,0-11.12-11.12h0a11.12,11.12,0,0,0,11.12-11.13h0A11.11,11.11,0,0,0,1362,404.49v0A11.11,11.11,0,0,0,1350.89,415.63Z"/><path class="cls-1" d="M1350.89,437.88h0a11.12,11.12,0,0,0-11.12-11.12h0a11.12,11.12,0,0,0,11.12-11.12h0A11.12,11.12,0,0,0,1362,426.75h0A11.11,11.11,0,0,0,1350.89,437.88Z"/><path class="cls-1" d="M1328.64,415.63h0a11.12,11.12,0,0,0-11.12-11.12v0a11.12,11.12,0,0,0,11.12-11.12h0a11.11,11.11,0,0,0,11.12,11.12v0A11.11,11.11,0,0,0,1328.64,415.63Z"/><path class="cls-1" d="M1306.39,415.63h0a11.12,11.12,0,0,0-11.12-11.12h0a11.12,11.12,0,0,0,11.12-11.13h0a11.11,11.11,0,0,0,11.12,11.12v0A11.11,11.11,0,0,0,1306.39,415.63Z"/><path class="cls-1" d="M1306.39,393.37h0a11.12,11.12,0,0,0-11.12-11.12h0a11.12,11.12,0,0,0,11.12-11.12h0a11.11,11.11,0,0,0,11.12,11.12h0A11.12,11.12,0,0,0,1306.39,393.37Z"/><path class="cls-1" d="M1350.89,504.63h0a11.12,11.12,0,0,0-11.12-11.12h0a11.12,11.12,0,0,0,11.12-11.12h0A11.12,11.12,0,0,0,1362,493.5h0A11.11,11.11,0,0,0,1350.89,504.63Z"/><path class="cls-1" d="M1350.89,526.88h0a11.12,11.12,0,0,0-11.12-11.12h0a11.12,11.12,0,0,0,11.12-11.12h0A11.12,11.12,0,0,0,1362,515.75h0A11.11,11.11,0,0,0,1350.89,526.88Z"/><path class="cls-1" d="M1328.64,504.63h0a11.12,11.12,0,0,0-11.12-11.12h0a11.12,11.12,0,0,0,11.12-11.12h0a11.12,11.12,0,0,0,11.12,11.12h0A11.11,11.11,0,0,0,1328.64,504.63Z"/><path class="cls-1" d="M1306.39,504.63h0a11.12,11.12,0,0,0-11.12-11.12h0a11.12,11.12,0,0,0,11.12-11.12h0a11.12,11.12,0,0,0,11.12,11.12h0A11.11,11.11,0,0,0,1306.39,504.63Z"/><path class="cls-1" d="M1350.89,549.13h0A11.12,11.12,0,0,0,1339.76,538h0a11.12,11.12,0,0,0,11.12-11.12h0A11.12,11.12,0,0,0,1362,538h0A11.11,11.11,0,0,0,1350.89,549.13Z"/><path class="cls-1" d="M1328.64,549.13h0A11.12,11.12,0,0,0,1317.51,538h0a11.12,11.12,0,0,0,11.12-11.12h0A11.12,11.12,0,0,0,1339.76,538h0A11.11,11.11,0,0,0,1328.64,549.13Z"/><path class="cls-1" d="M1306.39,549.13h0A11.12,11.12,0,0,0,1295.26,538h0a11.12,11.12,0,0,0,11.12-11.12h0A11.12,11.12,0,0,0,1317.51,538h0A11.11,11.11,0,0,0,1306.39,549.13Z"/><path class="cls-1" d="M1306.39,482.38h0a11.12,11.12,0,0,0-11.12-11.12h0a11.12,11.12,0,0,0,11.12-11.12h0a11.12,11.12,0,0,0,11.12,11.12h0A11.11,11.11,0,0,0,1306.39,482.38Z"/><path class="cls-1" d="M882.12,593.63h0A11.11,11.11,0,0,0,871,582.51h0a11.12,11.12,0,0,0,11.12-11.12h0a11.12,11.12,0,0,0,11.12,11.12h0A11.12,11.12,0,0,0,882.12,593.63Z"/><path class="cls-1" d="M904.37,593.63h0a11.11,11.11,0,0,0-11.12-11.12h0a11.12,11.12,0,0,0,11.12-11.12h0a11.12,11.12,0,0,0,11.12,11.12h0A11.12,11.12,0,0,0,904.37,593.63Z"/><path class="cls-1" d="M926.62,593.63h0a11.11,11.11,0,0,0-11.12-11.12h0a11.12,11.12,0,0,0,11.12-11.12h0a11.12,11.12,0,0,0,11.12,11.12h0A11.12,11.12,0,0,0,926.62,593.63Z"/><path class="cls-1" d="M948.87,593.63h0a11.11,11.11,0,0,0-11.12-11.12h0a11.12,11.12,0,0,0,11.12-11.12h0A11.12,11.12,0,0,0,960,582.5h0A11.12,11.12,0,0,0,948.87,593.63Z"/><path class="cls-1" d="M971.12,593.63h0A11.11,11.11,0,0,0,960,582.51h0a11.12,11.12,0,0,0,11.12-11.12h0a11.12,11.12,0,0,0,11.12,11.12h0A11.12,11.12,0,0,0,971.12,593.63Z"/><path class="cls-1" d="M882.12,571.38h0A11.11,11.11,0,0,0,871,560.26h0a11.12,11.12,0,0,0,11.12-11.12h0a11.12,11.12,0,0,0,11.12,11.12h0A11.12,11.12,0,0,0,882.12,571.38Z"/><path class="cls-1" d="M882.12,549.13h0A11.11,11.11,0,0,0,871,538h0a11.12,11.12,0,0,0,11.12-11.12h0A11.12,11.12,0,0,0,893.24,538h0A11.12,11.12,0,0,0,882.12,549.13Z"/><path class="cls-1" d="M882.12,526.88h0A11.11,11.11,0,0,0,871,515.76h0a11.12,11.12,0,0,0,11.12-11.12h0a11.12,11.12,0,0,0,11.12,11.12h0A11.12,11.12,0,0,0,882.12,526.88Z"/><path class="cls-1" d="M882.12,504.63h0A11.11,11.11,0,0,0,871,493.51h0a11.12,11.12,0,0,0,11.12-11.12h0a11.12,11.12,0,0,0,11.12,11.12h0A11.12,11.12,0,0,0,882.12,504.63Z"/><path class="cls-1" d="M882.12,482.38h0A11.11,11.11,0,0,0,871,471.26h0a11.12,11.12,0,0,0,11.12-11.12h0a11.12,11.12,0,0,0,11.12,11.12h0A11.12,11.12,0,0,0,882.12,482.38Z"/><path class="cls-1" d="M882.12,460.13h0A11.11,11.11,0,0,0,871,449h0a11.12,11.12,0,0,0,11.12-11.12h0A11.12,11.12,0,0,0,893.24,449h0A11.12,11.12,0,0,0,882.12,460.13Z"/><path class="cls-1" d="M882.12,437.88h0A11.11,11.11,0,0,0,871,426.76h0a11.12,11.12,0,0,0,11.12-11.12h0a11.12,11.12,0,0,0,11.12,11.12h0A11.12,11.12,0,0,0,882.12,437.88Z"/><path class="cls-1" d="M882.12,415.63h0A11.11,11.11,0,0,0,871,404.51h0a11.12,11.12,0,0,0,11.12-11.12h0a11.12,11.12,0,0,0,11.12,11.12h0A11.12,11.12,0,0,0,882.12,415.63Z"/><path class="cls-1" d="M882.12,393.38h0A11.11,11.11,0,0,0,871,382.26h0a11.12,11.12,0,0,0,11.12-11.12h0a11.12,11.12,0,0,0,11.12,11.12h0A11.12,11.12,0,0,0,882.12,393.38Z"/><path class="cls-1" d="M882.12,371.13h0A11.11,11.11,0,0,0,871,360v0a11.11,11.11,0,0,0,11.12-11.12h0A11.12,11.12,0,0,0,893.24,360v0A11.12,11.12,0,0,0,882.12,371.13Z"/><path class="cls-1" d="M882.12,348.87h0A11.12,11.12,0,0,0,871,337.75h0a11.11,11.11,0,0,0,11.12-11.12h0a11.12,11.12,0,0,0,11.12,11.12h0A11.12,11.12,0,0,0,882.12,348.87Z"/><path class="cls-1" d="M882.12,326.62h0A11.12,11.12,0,0,0,871,315.5h0a11.11,11.11,0,0,0,11.12-11.12h0a11.12,11.12,0,0,0,11.12,11.12h0A11.12,11.12,0,0,0,882.12,326.62Z"/><path class="cls-1" d="M882.12,304.37h0A11.12,11.12,0,0,0,871,293.25h0a11.11,11.11,0,0,0,11.12-11.12h0a11.12,11.12,0,0,0,11.12,11.12h0A11.12,11.12,0,0,0,882.12,304.37Z"/><path class="cls-1" d="M882.12,282.12h0A11.12,11.12,0,0,0,871,271h0a11.11,11.11,0,0,0,11.12-11.12h0A11.12,11.12,0,0,0,893.24,271h0A11.12,11.12,0,0,0,882.12,282.12Z"/><path class="cls-1" d="M882.12,259.87h0A11.12,11.12,0,0,0,871,248.75h0a11.11,11.11,0,0,0,11.12-11.12h0a11.12,11.12,0,0,0,11.12,11.12h0A11.12,11.12,0,0,0,882.12,259.87Z"/><path class="cls-1" d="M882.12,237.62h0A11.12,11.12,0,0,0,871,226.5h0a11.11,11.11,0,0,0,11.12-11.12h0a11.12,11.12,0,0,0,11.12,11.12h0A11.12,11.12,0,0,0,882.12,237.62Z"/><path class="cls-1" d="M882.12,215.37h0A11.12,11.12,0,0,0,871,204.25h0a11.11,11.11,0,0,0,11.12-11.12h0a11.12,11.12,0,0,0,11.12,11.12h0A11.12,11.12,0,0,0,882.12,215.37Z"/><path class="cls-1" d="M882.12,193.12h0A11.12,11.12,0,0,0,871,182h0a11.11,11.11,0,0,0,11.12-11.12h0A11.12,11.12,0,0,0,893.24,182h0A11.12,11.12,0,0,0,882.12,193.12Z"/><path class="cls-1" d="M882.12,170.87h0A11.12,11.12,0,0,0,871,159.75h0a11.11,11.11,0,0,0,11.12-11.12h0a11.12,11.12,0,0,0,11.12,11.12h0A11.12,11.12,0,0,0,882.12,170.87Z"/><path class="cls-1" d="M882.12,148.62h0A11.12,11.12,0,0,0,871,137.5h0a11.11,11.11,0,0,0,11.12-11.12h0a11.12,11.12,0,0,0,11.12,11.12h0A11.12,11.12,0,0,0,882.12,148.62Z"/><path class="cls-1" d="M904.37,148.62h0a11.12,11.12,0,0,0-11.12-11.12h0a11.11,11.11,0,0,0,11.12-11.12h0a11.12,11.12,0,0,0,11.12,11.12h0A11.12,11.12,0,0,0,904.37,148.62Z"/><path class="cls-1" d="M926.62,148.62h0a11.12,11.12,0,0,0-11.12-11.12h0a11.11,11.11,0,0,0,11.12-11.12h0a11.12,11.12,0,0,0,11.12,11.12h0A11.12,11.12,0,0,0,926.62,148.62Z"/><path class="cls-1" d="M948.87,148.62h0a11.12,11.12,0,0,0-11.12-11.12h0a11.11,11.11,0,0,0,11.12-11.12h0A11.12,11.12,0,0,0,960,137.49h0A11.12,11.12,0,0,0,948.87,148.62Z"/><path class="cls-1" d="M971.12,148.62h0A11.12,11.12,0,0,0,960,137.5h0a11.11,11.11,0,0,0,11.12-11.12h0a11.12,11.12,0,0,0,11.12,11.12h0A11.12,11.12,0,0,0,971.12,148.62Z"/><path class="cls-1" d="M971.12,170.87h0A11.12,11.12,0,0,0,960,159.75h0a11.11,11.11,0,0,0,11.12-11.12h0a11.12,11.12,0,0,0,11.12,11.12h0A11.12,11.12,0,0,0,971.12,170.87Z"/><path class="cls-1" d="M971.12,193.12h0A11.12,11.12,0,0,0,960,182h0a11.11,11.11,0,0,0,11.12-11.12h0A11.12,11.12,0,0,0,982.24,182h0A11.12,11.12,0,0,0,971.12,193.12Z"/><path class="cls-1" d="M948.87,193.12h0A11.12,11.12,0,0,0,937.74,182h0a11.11,11.11,0,0,0,11.12-11.12h0A11.12,11.12,0,0,0,960,182h0A11.12,11.12,0,0,0,948.87,193.12Z"/><path class="cls-1" d="M926.62,193.12h0A11.12,11.12,0,0,0,915.49,182h0a11.11,11.11,0,0,0,11.12-11.12h0A11.12,11.12,0,0,0,937.74,182h0A11.12,11.12,0,0,0,926.62,193.12Z"/><path class="cls-1" d="M926.62,215.37h0a11.12,11.12,0,0,0-11.12-11.12h0a11.11,11.11,0,0,0,11.12-11.12h0a11.12,11.12,0,0,0,11.12,11.12h0A11.12,11.12,0,0,0,926.62,215.37Z"/><path class="cls-1" d="M926.62,237.62h0a11.12,11.12,0,0,0-11.12-11.12h0a11.11,11.11,0,0,0,11.12-11.12h0a11.12,11.12,0,0,0,11.12,11.12h0A11.12,11.12,0,0,0,926.62,237.62Z"/><path class="cls-1" d="M926.62,282.12h0A11.12,11.12,0,0,0,915.49,271h0a11.11,11.11,0,0,0,11.12-11.12h0A11.12,11.12,0,0,0,937.74,271h0A11.12,11.12,0,0,0,926.62,282.12Z"/><path class="cls-1" d="M926.62,304.37h0a11.12,11.12,0,0,0-11.12-11.12h0a11.11,11.11,0,0,0,11.12-11.12h0a11.12,11.12,0,0,0,11.12,11.12h0A11.12,11.12,0,0,0,926.62,304.37Z"/><path class="cls-1" d="M926.62,326.62h0a11.12,11.12,0,0,0-11.12-11.12h0a11.11,11.11,0,0,0,11.12-11.12h0a11.12,11.12,0,0,0,11.12,11.12h0A11.12,11.12,0,0,0,926.62,326.62Z"/><path class="cls-1" d="M926.62,348.87h0a11.12,11.12,0,0,0-11.12-11.12h0a11.11,11.11,0,0,0,11.12-11.12h0a11.12,11.12,0,0,0,11.12,11.12h0A11.12,11.12,0,0,0,926.62,348.87Z"/><path class="cls-1" d="M926.62,371.12h0A11.12,11.12,0,0,0,915.49,360h0a11.11,11.11,0,0,0,11.12-11.12h0A11.12,11.12,0,0,0,937.74,360h0A11.12,11.12,0,0,0,926.62,371.12Z"/><path class="cls-1" d="M948.87,371.12h0A11.12,11.12,0,0,0,937.74,360h0a11.11,11.11,0,0,0,11.12-11.12h0A11.12,11.12,0,0,0,960,360h0A11.12,11.12,0,0,0,948.87,371.12Z"/><path class="cls-1" d="M971.12,371.12h0A11.12,11.12,0,0,0,960,360h0a11.11,11.11,0,0,0,11.12-11.12h0A11.12,11.12,0,0,0,982.24,360h0A11.12,11.12,0,0,0,971.12,371.12Z"/><path class="cls-1" d="M971.12,393.37h0A11.12,11.12,0,0,0,960,382.25h0a11.11,11.11,0,0,0,11.12-11.12h0a11.12,11.12,0,0,0,11.12,11.12h0A11.12,11.12,0,0,0,971.12,393.37Z"/><path class="cls-1" d="M971.12,415.62h0A11.12,11.12,0,0,0,960,404.5h0a11.11,11.11,0,0,0,11.12-11.12h0a11.12,11.12,0,0,0,11.12,11.12h0A11.12,11.12,0,0,0,971.12,415.62Z"/><path class="cls-1" d="M948.87,415.62h0a11.12,11.12,0,0,0-11.12-11.12h0a11.11,11.11,0,0,0,11.12-11.12h0A11.12,11.12,0,0,0,960,404.49h0A11.12,11.12,0,0,0,948.87,415.62Z"/><path class="cls-1" d="M926.62,415.62h0a11.12,11.12,0,0,0-11.12-11.12h0a11.11,11.11,0,0,0,11.12-11.12h0a11.12,11.12,0,0,0,11.12,11.12h0A11.12,11.12,0,0,0,926.62,415.62Z"/><path class="cls-1" d="M926.62,437.87h0a11.12,11.12,0,0,0-11.12-11.12h0a11.11,11.11,0,0,0,11.12-11.12h0a11.12,11.12,0,0,0,11.12,11.12h0A11.12,11.12,0,0,0,926.62,437.87Z"/><path class="cls-1" d="M926.62,460.12h0A11.12,11.12,0,0,0,915.49,449h0a11.11,11.11,0,0,0,11.12-11.12h0A11.12,11.12,0,0,0,937.74,449h0A11.12,11.12,0,0,0,926.62,460.12Z"/><path class="cls-1" d="M948.87,460.12h0A11.12,11.12,0,0,0,937.74,449h0a11.11,11.11,0,0,0,11.12-11.12h0A11.12,11.12,0,0,0,960,449h0A11.12,11.12,0,0,0,948.87,460.12Z"/><path class="cls-1" d="M971.12,460.12h0A11.12,11.12,0,0,0,960,449h0a11.11,11.11,0,0,0,11.12-11.12h0A11.12,11.12,0,0,0,982.24,449h0A11.12,11.12,0,0,0,971.12,460.12Z"/><path class="cls-1" d="M971.12,482.37h0A11.12,11.12,0,0,0,960,471.25h0a11.11,11.11,0,0,0,11.12-11.12h0a11.12,11.12,0,0,0,11.12,11.12h0A11.12,11.12,0,0,0,971.12,482.37Z"/><path class="cls-1" d="M971.12,504.62h0A11.12,11.12,0,0,0,960,493.5h0a11.11,11.11,0,0,0,11.12-11.12h0a11.12,11.12,0,0,0,11.12,11.12h0A11.12,11.12,0,0,0,971.12,504.62Z"/><path class="cls-1" d="M948.87,504.62h0a11.12,11.12,0,0,0-11.12-11.12h0a11.11,11.11,0,0,0,11.12-11.12h0A11.12,11.12,0,0,0,960,493.49h0A11.12,11.12,0,0,0,948.87,504.62Z"/><path class="cls-1" d="M926.62,504.62h0a11.12,11.12,0,0,0-11.12-11.12h0a11.11,11.11,0,0,0,11.12-11.12h0a11.12,11.12,0,0,0,11.12,11.12h0A11.12,11.12,0,0,0,926.62,504.62Z"/><path class="cls-1" d="M926.62,526.88h0a11.11,11.11,0,0,0-11.12-11.12h0a11.12,11.12,0,0,0,11.12-11.12h0a11.12,11.12,0,0,0,11.12,11.12h0A11.12,11.12,0,0,0,926.62,526.88Z"/><path class="cls-1" d="M926.62,549.13h0A11.11,11.11,0,0,0,915.49,538h0a11.12,11.12,0,0,0,11.12-11.12h0A11.12,11.12,0,0,0,937.74,538h0A11.12,11.12,0,0,0,926.62,549.13Z"/><path class="cls-1" d="M948.87,549.13h0A11.11,11.11,0,0,0,937.74,538h0a11.12,11.12,0,0,0,11.12-11.12h0A11.12,11.12,0,0,0,960,538h0A11.12,11.12,0,0,0,948.87,549.13Z"/><path class="cls-1" d="M971.12,549.13h0A11.11,11.11,0,0,0,960,538h0a11.12,11.12,0,0,0,11.12-11.12h0A11.12,11.12,0,0,0,982.24,538h0A11.12,11.12,0,0,0,971.12,549.13Z"/><path class="cls-1" d="M971.12,571.37h0A11.12,11.12,0,0,0,960,560.25h0a11.11,11.11,0,0,0,11.12-11.12h0a11.12,11.12,0,0,0,11.12,11.12h0A11.12,11.12,0,0,0,971.12,571.37Z"/><path class="cls-1" d="M948.87,237.62h0a11.12,11.12,0,0,0-11.12-11.12h0a11.11,11.11,0,0,0,11.12-11.12h0A11.12,11.12,0,0,0,960,226.49h0A11.12,11.12,0,0,0,948.87,237.62Z"/><path class="cls-1" d="M971.12,237.62h0A11.12,11.12,0,0,0,960,226.5h0a11.11,11.11,0,0,0,11.12-11.12h0a11.12,11.12,0,0,0,11.12,11.12h0A11.12,11.12,0,0,0,971.12,237.62Z"/><path class="cls-1" d="M993.37,237.62h0a11.12,11.12,0,0,0-11.12-11.12h0a11.11,11.11,0,0,0,11.12-11.12h0a11.12,11.12,0,0,0,11.12,11.12h0A11.12,11.12,0,0,0,993.37,237.62Z"/><path class="cls-1" d="M1015.62,237.62h0a11.12,11.12,0,0,0-11.12-11.12h0a11.11,11.11,0,0,0,11.12-11.12h0a11.12,11.12,0,0,0,11.12,11.12h0A11.12,11.12,0,0,0,1015.62,237.62Z"/><path class="cls-1" d="M1015.62,259.87h0a11.12,11.12,0,0,0-11.12-11.12h0a11.11,11.11,0,0,0,11.12-11.12h0a11.12,11.12,0,0,0,11.12,11.12h0A11.12,11.12,0,0,0,1015.62,259.87Z"/><path class="cls-1" d="M1015.62,282.13h0A11.11,11.11,0,0,0,1004.49,271h0a11.12,11.12,0,0,0,11.12-11.12h0A11.12,11.12,0,0,0,1026.74,271h0A11.12,11.12,0,0,0,1015.62,282.13Z"/><path class="cls-1" d="M993.37,282.13h0A11.11,11.11,0,0,0,982.24,271h0a11.12,11.12,0,0,0,11.12-11.12h0A11.12,11.12,0,0,0,1004.49,271h0A11.12,11.12,0,0,0,993.37,282.13Z"/><path class="cls-1" d="M971.12,282.13h0A11.11,11.11,0,0,0,960,271h0a11.12,11.12,0,0,0,11.12-11.12h0A11.12,11.12,0,0,0,982.24,271h0A11.12,11.12,0,0,0,971.12,282.13Z"/><path class="cls-1" d="M971.12,304.37h0A11.12,11.12,0,0,0,960,293.25h0a11.11,11.11,0,0,0,11.12-11.12h0a11.12,11.12,0,0,0,11.12,11.12h0A11.12,11.12,0,0,0,971.12,304.37Z"/><path class="cls-1" d="M971.12,326.62h0A11.12,11.12,0,0,0,960,315.5h0a11.11,11.11,0,0,0,11.12-11.12h0a11.12,11.12,0,0,0,11.12,11.12h0A11.12,11.12,0,0,0,971.12,326.62Z"/><path class="cls-1" d="M993.37,326.62h0a11.12,11.12,0,0,0-11.12-11.12h0a11.11,11.11,0,0,0,11.12-11.12h0a11.12,11.12,0,0,0,11.12,11.12h0A11.12,11.12,0,0,0,993.37,326.62Z"/><path class="cls-1" d="M1015.62,326.62h0a11.12,11.12,0,0,0-11.12-11.12h0a11.11,11.11,0,0,0,11.12-11.12h0a11.12,11.12,0,0,0,11.12,11.12h0A11.12,11.12,0,0,0,1015.62,326.62Z"/><path class="cls-1" d="M1037.87,326.62h0a11.12,11.12,0,0,0-11.12-11.12h0a11.11,11.11,0,0,0,11.12-11.12h0A11.12,11.12,0,0,0,1049,315.49h0A11.12,11.12,0,0,0,1037.87,326.62Z"/><path class="cls-1" d="M1060.12,326.62h0A11.12,11.12,0,0,0,1049,315.5h0a11.11,11.11,0,0,0,11.12-11.12h0a11.12,11.12,0,0,0,11.12,11.12h0A11.12,11.12,0,0,0,1060.12,326.62Z"/><path class="cls-1" d="M1060.12,348.88h0A11.11,11.11,0,0,0,1049,337.76v0a11.11,11.11,0,0,0,11.12-11.11h0a11.12,11.12,0,0,0,11.12,11.12h0A11.12,11.12,0,0,0,1060.12,348.88Z"/><path class="cls-1" d="M1060.12,371.13h0A11.11,11.11,0,0,0,1049,360h0a11.12,11.12,0,0,0,11.12-11.12h0A11.12,11.12,0,0,0,1071.24,360h0A11.12,11.12,0,0,0,1060.12,371.13Z"/><path class="cls-1" d="M1037.87,371.13h0A11.11,11.11,0,0,0,1026.74,360h0a11.12,11.12,0,0,0,11.12-11.12h0A11.12,11.12,0,0,0,1049,360h0A11.12,11.12,0,0,0,1037.87,371.13Z"/><path class="cls-1" d="M1015.62,371.13h0A11.11,11.11,0,0,0,1004.49,360h0a11.12,11.12,0,0,0,11.12-11.12h0A11.12,11.12,0,0,0,1026.74,360h0A11.12,11.12,0,0,0,1015.62,371.13Z"/><path class="cls-1" d="M1015.62,393.38h0a11.11,11.11,0,0,0-11.12-11.12h0a11.12,11.12,0,0,0,11.12-11.12h0a11.12,11.12,0,0,0,11.12,11.12h0A11.12,11.12,0,0,0,1015.62,393.38Z"/><path class="cls-1" d="M1015.62,415.62h0a11.12,11.12,0,0,0-11.12-11.12h0a11.11,11.11,0,0,0,11.12-11.12h0a11.12,11.12,0,0,0,11.12,11.12h0A11.12,11.12,0,0,0,1015.62,415.62Z"/><path class="cls-1" d="M1037.87,415.62h0a11.12,11.12,0,0,0-11.12-11.12h0a11.11,11.11,0,0,0,11.12-11.12h0A11.12,11.12,0,0,0,1049,404.49h0A11.12,11.12,0,0,0,1037.87,415.62Z"/><path class="cls-1" d="M1060.12,415.62h0A11.12,11.12,0,0,0,1049,404.5h0a11.11,11.11,0,0,0,11.12-11.12h0a11.12,11.12,0,0,0,11.12,11.12h0A11.12,11.12,0,0,0,1060.12,415.62Z"/><path class="cls-1" d="M1082.37,415.62h0a11.12,11.12,0,0,0-11.12-11.12h0a11.11,11.11,0,0,0,11.12-11.12h0a11.12,11.12,0,0,0,11.12,11.12h0A11.12,11.12,0,0,0,1082.37,415.62Z"/><path class="cls-1" d="M1104.62,415.62h0a11.12,11.12,0,0,0-11.12-11.12h0a11.11,11.11,0,0,0,11.12-11.12h0a11.12,11.12,0,0,0,11.12,11.12h0A11.12,11.12,0,0,0,1104.62,415.62Z"/><path class="cls-1" d="M1104.62,437.87h0a11.12,11.12,0,0,0-11.12-11.12h0a11.11,11.11,0,0,0,11.12-11.12h0a11.12,11.12,0,0,0,11.12,11.12h0A11.12,11.12,0,0,0,1104.62,437.87Z"/><path class="cls-1" d="M1104.62,460.13h0A11.11,11.11,0,0,0,1093.49,449h0a11.12,11.12,0,0,0,11.12-11.12h0A11.12,11.12,0,0,0,1115.74,449h0A11.12,11.12,0,0,0,1104.62,460.13Z"/><path class="cls-1" d="M1082.37,460.13h0A11.11,11.11,0,0,0,1071.24,449h0a11.12,11.12,0,0,0,11.12-11.12h0A11.12,11.12,0,0,0,1093.49,449h0A11.12,11.12,0,0,0,1082.37,460.13Z"/><path class="cls-1" d="M1060.12,460.13h0A11.11,11.11,0,0,0,1049,449h0a11.12,11.12,0,0,0,11.12-11.12h0A11.12,11.12,0,0,0,1071.24,449h0A11.12,11.12,0,0,0,1060.12,460.13Z"/><path class="cls-1" d="M1060.12,482.37h0A11.12,11.12,0,0,0,1049,471.25h0a11.11,11.11,0,0,0,11.12-11.12h0a11.12,11.12,0,0,0,11.12,11.12h0A11.12,11.12,0,0,0,1060.12,482.37Z"/><path class="cls-1" d="M1060.12,504.62h0A11.12,11.12,0,0,0,1049,493.5h0a11.11,11.11,0,0,0,11.12-11.12h0a11.12,11.12,0,0,0,11.12,11.12h0A11.12,11.12,0,0,0,1060.12,504.62Z"/><path class="cls-1" d="M1082.37,504.62h0a11.12,11.12,0,0,0-11.12-11.12h0a11.11,11.11,0,0,0,11.12-11.12h0a11.12,11.12,0,0,0,11.12,11.12h0A11.12,11.12,0,0,0,1082.37,504.62Z"/><path class="cls-1" d="M1104.62,504.62h0a11.12,11.12,0,0,0-11.12-11.12h0a11.11,11.11,0,0,0,11.12-11.12h0a11.12,11.12,0,0,0,11.12,11.12h0A11.12,11.12,0,0,0,1104.62,504.62Z"/><path class="cls-1" d="M1126.87,504.62h0a11.12,11.12,0,0,0-11.12-11.12h0a11.11,11.11,0,0,0,11.12-11.12h0A11.12,11.12,0,0,0,1138,493.49h0A11.12,11.12,0,0,0,1126.87,504.62Z"/><path class="cls-1" d="M1149.12,504.62h0A11.12,11.12,0,0,0,1138,493.5h0a11.11,11.11,0,0,0,11.12-11.12h0a11.12,11.12,0,0,0,11.12,11.12h0A11.12,11.12,0,0,0,1149.12,504.62Z"/><path class="cls-1" d="M1149.12,526.88h0A11.11,11.11,0,0,0,1138,515.76h0a11.12,11.12,0,0,0,11.12-11.12h0a11.12,11.12,0,0,0,11.12,11.12h0A11.12,11.12,0,0,0,1149.12,526.88Z"/><path class="cls-1" d="M1149.12,549.13h0A11.11,11.11,0,0,0,1138,538h0a11.12,11.12,0,0,0,11.12-11.12h0A11.12,11.12,0,0,0,1160.24,538h0A11.12,11.12,0,0,0,1149.12,549.13Z"/><path class="cls-1" d="M1126.87,549.13h0A11.11,11.11,0,0,0,1115.74,538h0a11.12,11.12,0,0,0,11.12-11.12h0A11.12,11.12,0,0,0,1138,538h0A11.12,11.12,0,0,0,1126.87,549.13Z"/><path class="cls-1" d="M1104.62,549.13h0A11.11,11.11,0,0,0,1093.49,538h0a11.12,11.12,0,0,0,11.12-11.12h0A11.12,11.12,0,0,0,1115.74,538h0A11.12,11.12,0,0,0,1104.62,549.13Z"/><path class="cls-1" d="M1104.62,571.37h0a11.12,11.12,0,0,0-11.12-11.12h0a11.11,11.11,0,0,0,11.12-11.12h0a11.12,11.12,0,0,0,11.12,11.12h0A11.12,11.12,0,0,0,1104.62,571.37Z"/><path class="cls-1" d="M1193.61,593.63h0a11.12,11.12,0,0,1,11.12-11.12h0a11.12,11.12,0,0,1-11.12-11.12h0a11.12,11.12,0,0,1-11.12,11.12h0A11.11,11.11,0,0,1,1193.61,593.63Z"/><path class="cls-1" d="M1171.36,593.63h0a11.12,11.12,0,0,1,11.12-11.12h0a11.12,11.12,0,0,1-11.12-11.12h0a11.12,11.12,0,0,1-11.12,11.12h0A11.11,11.11,0,0,1,1171.36,593.63Z"/><path class="cls-1" d="M1149.11,593.63h0a11.12,11.12,0,0,1,11.12-11.12h0a11.12,11.12,0,0,1-11.12-11.12h0A11.12,11.12,0,0,1,1138,582.5h0A11.11,11.11,0,0,1,1149.11,593.63Z"/><path class="cls-1" d="M1126.86,593.63h0A11.12,11.12,0,0,1,1138,582.51h0a11.12,11.12,0,0,1-11.12-11.12h0a11.12,11.12,0,0,1-11.12,11.12h0A11.11,11.11,0,0,1,1126.86,593.63Z"/><path class="cls-1" d="M1104.61,593.63h0a11.12,11.12,0,0,1,11.12-11.12h0a11.12,11.12,0,0,1-11.12-11.12h0a11.12,11.12,0,0,1-11.12,11.12h0A11.11,11.11,0,0,1,1104.61,593.63Z"/><path class="cls-1" d="M1193.61,571.38h0a11.12,11.12,0,0,1,11.12-11.12h0a11.12,11.12,0,0,1-11.12-11.12h0a11.12,11.12,0,0,1-11.12,11.12h0A11.11,11.11,0,0,1,1193.61,571.38Z"/><path class="cls-1" d="M1193.61,549.13h0A11.12,11.12,0,0,1,1204.74,538h0a11.12,11.12,0,0,1-11.12-11.12h0A11.12,11.12,0,0,1,1182.49,538h0A11.11,11.11,0,0,1,1193.61,549.13Z"/><path class="cls-1" d="M1193.61,526.88h0a11.12,11.12,0,0,1,11.12-11.12h0a11.12,11.12,0,0,1-11.12-11.12h0a11.12,11.12,0,0,1-11.12,11.12h0A11.11,11.11,0,0,1,1193.61,526.88Z"/><path class="cls-1" d="M1193.61,504.63h0a11.12,11.12,0,0,1,11.12-11.12h0a11.12,11.12,0,0,1-11.12-11.12h0a11.12,11.12,0,0,1-11.12,11.12h0A11.11,11.11,0,0,1,1193.61,504.63Z"/><path class="cls-1" d="M1193.61,482.38h0a11.12,11.12,0,0,1,11.12-11.12h0a11.12,11.12,0,0,1-11.12-11.12h0a11.12,11.12,0,0,1-11.12,11.12h0A11.11,11.11,0,0,1,1193.61,482.38Z"/><path class="cls-1" d="M1193.61,460.13h0A11.12,11.12,0,0,1,1204.74,449h0a11.12,11.12,0,0,1-11.12-11.12h0A11.12,11.12,0,0,1,1182.49,449h0A11.11,11.11,0,0,1,1193.61,460.13Z"/><path class="cls-1" d="M1193.61,437.88h0a11.12,11.12,0,0,1,11.12-11.12h0a11.12,11.12,0,0,1-11.12-11.12h0a11.12,11.12,0,0,1-11.12,11.12h0A11.11,11.11,0,0,1,1193.61,437.88Z"/><path class="cls-1" d="M1193.61,415.63h0a11.12,11.12,0,0,1,11.12-11.12h0a11.12,11.12,0,0,1-11.12-11.12h0a11.12,11.12,0,0,1-11.12,11.12h0A11.11,11.11,0,0,1,1193.61,415.63Z"/><path class="cls-1" d="M1193.61,393.38h0a11.12,11.12,0,0,1,11.12-11.12h0a11.12,11.12,0,0,1-11.12-11.12h0a11.12,11.12,0,0,1-11.12,11.12h0A11.11,11.11,0,0,1,1193.61,393.38Z"/><path class="cls-1" d="M1193.61,371.13h0A11.12,11.12,0,0,1,1204.74,360h0a11.12,11.12,0,0,1-11.12-11.12h0A11.12,11.12,0,0,1,1182.49,360h0A11.11,11.11,0,0,1,1193.61,371.13Z"/><path class="cls-1" d="M1193.61,348.88h0a11.12,11.12,0,0,1,11.12-11.12v0a11.11,11.11,0,0,1-11.12-11.11h0a11.12,11.12,0,0,1-11.12,11.12h0A11.11,11.11,0,0,1,1193.61,348.88Z"/><path class="cls-1" d="M1193.61,326.63h0a11.12,11.12,0,0,1,11.12-11.12v0a11.12,11.12,0,0,1-11.12-11.12h0a11.11,11.11,0,0,1-11.12,11.12v0A11.11,11.11,0,0,1,1193.61,326.63Z"/><path class="cls-1" d="M1193.61,304.37h0a11.11,11.11,0,0,1,11.12-11.11v0a11.12,11.12,0,0,1-11.12-11.12h0a11.11,11.11,0,0,1-11.12,11.12h0A11.12,11.12,0,0,1,1193.61,304.37Z"/><path class="cls-1" d="M1193.61,282.12h0A11.12,11.12,0,0,1,1204.74,271h0a11.12,11.12,0,0,1-11.12-11.12h0A11.11,11.11,0,0,1,1182.49,271h0A11.12,11.12,0,0,1,1193.61,282.12Z"/><path class="cls-1" d="M1193.61,259.87h0a11.12,11.12,0,0,1,11.12-11.12h0a11.12,11.12,0,0,1-11.12-11.12h0a11.11,11.11,0,0,1-11.12,11.12h0A11.12,11.12,0,0,1,1193.61,259.87Z"/><path class="cls-1" d="M1193.61,237.62h0a11.12,11.12,0,0,1,11.12-11.12h0a11.12,11.12,0,0,1-11.12-11.12h0a11.11,11.11,0,0,1-11.12,11.12h0A11.12,11.12,0,0,1,1193.61,237.62Z"/><path class="cls-1" d="M1193.61,215.37h0a11.12,11.12,0,0,1,11.12-11.12h0a11.12,11.12,0,0,1-11.12-11.12h0a11.11,11.11,0,0,1-11.12,11.12h0A11.12,11.12,0,0,1,1193.61,215.37Z"/><path class="cls-1" d="M1193.61,193.12h0A11.12,11.12,0,0,1,1204.74,182h0a11.12,11.12,0,0,1-11.12-11.12h0A11.11,11.11,0,0,1,1182.49,182h0A11.12,11.12,0,0,1,1193.61,193.12Z"/><path class="cls-1" d="M1193.61,170.87h0a11.12,11.12,0,0,1,11.12-11.12h0a11.12,11.12,0,0,1-11.12-11.12h0a11.11,11.11,0,0,1-11.12,11.12h0A11.12,11.12,0,0,1,1193.61,170.87Z"/><path class="cls-1" d="M1193.61,148.62h0a11.12,11.12,0,0,1,11.12-11.12h0a11.12,11.12,0,0,1-11.12-11.12h0a11.11,11.11,0,0,1-11.12,11.12h0A11.12,11.12,0,0,1,1193.61,148.62Z"/><path class="cls-1" d="M1171.36,148.62h0a11.12,11.12,0,0,1,11.12-11.12h0a11.12,11.12,0,0,1-11.12-11.12h0a11.11,11.11,0,0,1-11.12,11.12h0A11.12,11.12,0,0,1,1171.36,148.62Z"/><path class="cls-1" d="M1149.11,148.62h0a11.12,11.12,0,0,1,11.12-11.12h0a11.12,11.12,0,0,1-11.12-11.12h0A11.11,11.11,0,0,1,1138,137.49h0A11.12,11.12,0,0,1,1149.11,148.62Z"/><path class="cls-1" d="M1126.86,148.62h0A11.12,11.12,0,0,1,1138,137.5h0a11.12,11.12,0,0,1-11.12-11.12h0a11.11,11.11,0,0,1-11.12,11.12h0A11.12,11.12,0,0,1,1126.86,148.62Z"/><path class="cls-1" d="M1104.61,148.62h0a11.12,11.12,0,0,1,11.12-11.12h0a11.12,11.12,0,0,1-11.12-11.12h0a11.11,11.11,0,0,1-11.12,11.12h0A11.12,11.12,0,0,1,1104.61,148.62Z"/><path class="cls-1" d="M1104.61,170.87h0a11.12,11.12,0,0,1,11.12-11.12h0a11.12,11.12,0,0,1-11.12-11.12h0a11.11,11.11,0,0,1-11.12,11.12h0A11.12,11.12,0,0,1,1104.61,170.87Z"/><path class="cls-1" d="M1104.61,193.12h0A11.12,11.12,0,0,1,1115.74,182h0a11.12,11.12,0,0,1-11.12-11.12h0A11.11,11.11,0,0,1,1093.49,182h0A11.12,11.12,0,0,1,1104.61,193.12Z"/><path class="cls-1" d="M1126.86,193.12h0A11.12,11.12,0,0,1,1138,182h0a11.12,11.12,0,0,1-11.12-11.12h0A11.11,11.11,0,0,1,1115.74,182h0A11.12,11.12,0,0,1,1126.86,193.12Z"/><path class="cls-1" d="M1149.11,193.12h0A11.12,11.12,0,0,1,1160.24,182h0a11.12,11.12,0,0,1-11.12-11.12h0A11.11,11.11,0,0,1,1138,182h0A11.12,11.12,0,0,1,1149.11,193.12Z"/><path class="cls-1" d="M1149.11,215.37h0a11.12,11.12,0,0,1,11.12-11.12h0a11.12,11.12,0,0,1-11.12-11.12h0A11.11,11.11,0,0,1,1138,204.24h0A11.12,11.12,0,0,1,1149.11,215.37Z"/><path class="cls-1" d="M1149.11,237.62h0a11.12,11.12,0,0,1,11.12-11.12h0a11.12,11.12,0,0,1-11.12-11.12h0A11.11,11.11,0,0,1,1138,226.49h0A11.12,11.12,0,0,1,1149.11,237.62Z"/><path class="cls-1" d="M1126.86,237.62h0A11.12,11.12,0,0,1,1138,226.5h0a11.12,11.12,0,0,1-11.12-11.12h0a11.11,11.11,0,0,1-11.12,11.12h0A11.12,11.12,0,0,1,1126.86,237.62Z"/><path class="cls-1" d="M1104.61,237.62h0a11.12,11.12,0,0,1,11.12-11.12h0a11.12,11.12,0,0,1-11.12-11.12h0a11.11,11.11,0,0,1-11.12,11.12h0A11.12,11.12,0,0,1,1104.61,237.62Z"/><path class="cls-1" d="M1104.61,259.87h0a11.12,11.12,0,0,1,11.12-11.12h0a11.12,11.12,0,0,1-11.12-11.12h0a11.11,11.11,0,0,1-11.12,11.12h0A11.12,11.12,0,0,1,1104.61,259.87Z"/><path class="cls-1" d="M1104.61,282.13h0A11.12,11.12,0,0,1,1115.74,271h0a11.12,11.12,0,0,1-11.12-11.12h0A11.12,11.12,0,0,1,1093.49,271h0A11.11,11.11,0,0,1,1104.61,282.13Z"/><path class="cls-1" d="M1126.86,282.13h0A11.12,11.12,0,0,1,1138,271h0a11.12,11.12,0,0,1-11.12-11.12h0A11.12,11.12,0,0,1,1115.74,271h0A11.11,11.11,0,0,1,1126.86,282.13Z"/><path class="cls-1" d="M1149.11,282.13h0A11.12,11.12,0,0,1,1160.24,271h0a11.12,11.12,0,0,1-11.12-11.12h0A11.12,11.12,0,0,1,1138,271h0A11.11,11.11,0,0,1,1149.11,282.13Z"/><path class="cls-1" d="M1149.11,304.37h0a11.12,11.12,0,0,1,11.12-11.12h0a11.12,11.12,0,0,1-11.12-11.12h0A11.11,11.11,0,0,1,1138,293.24h0A11.12,11.12,0,0,1,1149.11,304.37Z"/><path class="cls-1" d="M1149.11,326.62h0a11.12,11.12,0,0,1,11.12-11.12h0a11.12,11.12,0,0,1-11.12-11.12h0A11.11,11.11,0,0,1,1138,315.49h0A11.12,11.12,0,0,1,1149.11,326.62Z"/><path class="cls-1" d="M1126.86,326.62h0A11.12,11.12,0,0,1,1138,315.5h0a11.12,11.12,0,0,1-11.12-11.12h0a11.11,11.11,0,0,1-11.12,11.12h0A11.12,11.12,0,0,1,1126.86,326.62Z"/><path class="cls-1" d="M1104.61,326.62h0a11.12,11.12,0,0,1,11.12-11.12h0a11.12,11.12,0,0,1-11.12-11.12h0a11.11,11.11,0,0,1-11.12,11.12h0A11.12,11.12,0,0,1,1104.61,326.62Z"/><path class="cls-1" d="M1104.61,348.87h0a11.12,11.12,0,0,1,11.12-11.12h0a11.12,11.12,0,0,1-11.12-11.12h0a11.11,11.11,0,0,1-11.12,11.12h0A11.12,11.12,0,0,1,1104.61,348.87Z"/><path class="cls-1" d="M1104.61,371.12h0A11.12,11.12,0,0,1,1115.74,360h0a11.12,11.12,0,0,1-11.12-11.12h0A11.12,11.12,0,0,1,1093.49,360h0A11.12,11.12,0,0,1,1104.61,371.12Z"/><path class="cls-1" d="M1126.86,371.12h0A11.12,11.12,0,0,1,1138,360h0a11.12,11.12,0,0,1-11.12-11.12h0A11.12,11.12,0,0,1,1115.74,360h0A11.12,11.12,0,0,1,1126.86,371.12Z"/><path class="cls-1" d="M1149.11,371.12h0A11.12,11.12,0,0,1,1160.24,360h0a11.12,11.12,0,0,1-11.12-11.12h0A11.12,11.12,0,0,1,1138,360h0A11.12,11.12,0,0,1,1149.11,371.12Z"/><path class="cls-1" d="M1149.11,393.37h0a11.12,11.12,0,0,1,11.12-11.12h0a11.12,11.12,0,0,1-11.12-11.12h0A11.11,11.11,0,0,1,1138,382.24h0A11.12,11.12,0,0,1,1149.11,393.37Z"/><path class="cls-1" d="M1149.11,415.63h0a11.12,11.12,0,0,1,11.12-11.12h0a11.12,11.12,0,0,1-11.12-11.12h0A11.12,11.12,0,0,1,1138,404.5h0A11.11,11.11,0,0,1,1149.11,415.63Z"/><path class="cls-1" d="M1149.11,437.88h0a11.12,11.12,0,0,1,11.12-11.12h0a11.12,11.12,0,0,1-11.12-11.12h0A11.12,11.12,0,0,1,1138,426.75h0A11.11,11.11,0,0,1,1149.11,437.88Z"/><path class="cls-1" d="M1149.11,460.13h0A11.12,11.12,0,0,1,1160.24,449h0a11.12,11.12,0,0,1-11.12-11.12h0A11.12,11.12,0,0,1,1138,449h0A11.12,11.12,0,0,1,1149.11,460.13Z"/><path class="cls-1" d="M637.87,148.62h0a11.12,11.12,0,0,0-11.12-11.12h0a11.11,11.11,0,0,0,11.12-11.12h0A11.12,11.12,0,0,0,649,137.49h0A11.12,11.12,0,0,0,637.87,148.62Z"/><path class="cls-1" d="M637.87,170.87h0a11.12,11.12,0,0,0-11.12-11.12h0a11.11,11.11,0,0,0,11.12-11.12h0A11.12,11.12,0,0,0,649,159.74h0A11.12,11.12,0,0,0,637.87,170.87Z"/><path class="cls-1" d="M637.87,193.12h0A11.12,11.12,0,0,0,626.74,182h0a11.11,11.11,0,0,0,11.12-11.12h0A11.12,11.12,0,0,0,649,182h0A11.12,11.12,0,0,0,637.87,193.12Z"/><path class="cls-1" d="M637.87,215.37h0a11.12,11.12,0,0,0-11.12-11.12h0a11.11,11.11,0,0,0,11.12-11.12h0A11.12,11.12,0,0,0,649,204.24h0A11.12,11.12,0,0,0,637.87,215.37Z"/><path class="cls-1" d="M615.62,215.37h0a11.12,11.12,0,0,0-11.12-11.12h0a11.11,11.11,0,0,0,11.12-11.12h0a11.12,11.12,0,0,0,11.12,11.12h0A11.12,11.12,0,0,0,615.62,215.37Z"/><path class="cls-1" d="M593.37,215.37h0a11.12,11.12,0,0,0-11.12-11.12h0a11.11,11.11,0,0,0,11.12-11.12h0a11.12,11.12,0,0,0,11.12,11.12h0A11.12,11.12,0,0,0,593.37,215.37Z"/><path class="cls-1" d="M571.12,215.37h0A11.12,11.12,0,0,0,560,204.25h0a11.11,11.11,0,0,0,11.12-11.12h0a11.12,11.12,0,0,0,11.12,11.12h0A11.12,11.12,0,0,0,571.12,215.37Z"/><path class="cls-1" d="M548.87,215.37h0a11.12,11.12,0,0,0-11.12-11.12h0a11.11,11.11,0,0,0,11.12-11.12h0A11.12,11.12,0,0,0,560,204.24h0A11.12,11.12,0,0,0,548.87,215.37Z"/><path class="cls-1" d="M548.87,237.62h0a11.12,11.12,0,0,0-11.12-11.12h0a11.11,11.11,0,0,0,11.12-11.12h0A11.12,11.12,0,0,0,560,226.49h0A11.12,11.12,0,0,0,548.87,237.62Z"/><path class="cls-1" d="M548.87,259.87h0a11.12,11.12,0,0,0-11.12-11.12h0a11.11,11.11,0,0,0,11.12-11.12h0A11.12,11.12,0,0,0,560,248.74h0A11.12,11.12,0,0,0,548.87,259.87Z"/><path class="cls-1" d="M571.12,259.87h0A11.12,11.12,0,0,0,560,248.75h0a11.11,11.11,0,0,0,11.12-11.12h0a11.12,11.12,0,0,0,11.12,11.12h0A11.12,11.12,0,0,0,571.12,259.87Z"/><path class="cls-1" d="M593.37,259.87h0a11.12,11.12,0,0,0-11.12-11.12h0a11.11,11.11,0,0,0,11.12-11.12h0a11.12,11.12,0,0,0,11.12,11.12h0A11.12,11.12,0,0,0,593.37,259.87Z"/><path class="cls-1" d="M593.37,282.12h0A11.12,11.12,0,0,0,582.24,271h0a11.11,11.11,0,0,0,11.12-11.12h0A11.12,11.12,0,0,0,604.49,271h0A11.12,11.12,0,0,0,593.37,282.12Z"/><path class="cls-1" d="M593.37,304.37h0a11.12,11.12,0,0,0-11.12-11.12h0a11.11,11.11,0,0,0,11.12-11.12h0a11.12,11.12,0,0,0,11.12,11.12h0A11.12,11.12,0,0,0,593.37,304.37Z"/><path class="cls-1" d="M571.12,304.37h0A11.12,11.12,0,0,0,560,293.25h0a11.11,11.11,0,0,0,11.12-11.12h0a11.12,11.12,0,0,0,11.12,11.12h0A11.12,11.12,0,0,0,571.12,304.37Z"/><path class="cls-1" d="M548.87,304.37h0a11.12,11.12,0,0,0-11.12-11.12h0a11.11,11.11,0,0,0,11.12-11.12h0A11.12,11.12,0,0,0,560,293.24h0A11.12,11.12,0,0,0,548.87,304.37Z"/><path class="cls-1" d="M526.62,304.37h0a11.12,11.12,0,0,0-11.12-11.12h0a11.11,11.11,0,0,0,11.12-11.12h0a11.12,11.12,0,0,0,11.12,11.12h0A11.12,11.12,0,0,0,526.62,304.37Z"/><path class="cls-1" d="M504.37,304.37h0a11.12,11.12,0,0,0-11.12-11.12h0a11.11,11.11,0,0,0,11.12-11.12h0a11.12,11.12,0,0,0,11.12,11.12h0A11.12,11.12,0,0,0,504.37,304.37Z"/><path class="cls-1" d="M504.37,326.62h0a11.12,11.12,0,0,0-11.12-11.12h0a11.11,11.11,0,0,0,11.12-11.12h0a11.12,11.12,0,0,0,11.12,11.12h0A11.12,11.12,0,0,0,504.37,326.62Z"/><path class="cls-1" d="M504.37,348.87h0a11.12,11.12,0,0,0-11.12-11.12h0a11.11,11.11,0,0,0,11.12-11.12h0a11.12,11.12,0,0,0,11.12,11.12h0A11.12,11.12,0,0,0,504.37,348.87Z"/><path class="cls-1" d="M526.62,348.87h0a11.12,11.12,0,0,0-11.12-11.12h0a11.11,11.11,0,0,0,11.12-11.12h0a11.12,11.12,0,0,0,11.12,11.12h0A11.12,11.12,0,0,0,526.62,348.87Z"/><path class="cls-1" d="M548.87,348.87h0a11.12,11.12,0,0,0-11.12-11.12h0a11.11,11.11,0,0,0,11.12-11.12h0A11.12,11.12,0,0,0,560,337.74h0A11.12,11.12,0,0,0,548.87,348.87Z"/><path class="cls-1" d="M548.87,371.13h0A11.11,11.11,0,0,0,537.74,360v0a11.11,11.11,0,0,0,11.12-11.12h0A11.12,11.12,0,0,0,560,360v0A11.12,11.12,0,0,0,548.87,371.13Z"/><path class="cls-1" d="M548.87,393.38h0a11.11,11.11,0,0,0-11.12-11.12h0a11.12,11.12,0,0,0,11.12-11.12h0A11.12,11.12,0,0,0,560,382.25h0A11.12,11.12,0,0,0,548.87,393.38Z"/><path class="cls-1" d="M526.62,393.38h0a11.11,11.11,0,0,0-11.12-11.12h0a11.12,11.12,0,0,0,11.12-11.12h0a11.12,11.12,0,0,0,11.12,11.12h0A11.12,11.12,0,0,0,526.62,393.38Z"/><path class="cls-1" d="M504.37,393.38h0a11.11,11.11,0,0,0-11.12-11.12h0a11.12,11.12,0,0,0,11.12-11.12h0a11.12,11.12,0,0,0,11.12,11.12h0A11.12,11.12,0,0,0,504.37,393.38Z"/><path class="cls-1" d="M504.37,415.63h0a11.11,11.11,0,0,0-11.12-11.12h0a11.12,11.12,0,0,0,11.12-11.12h0a11.12,11.12,0,0,0,11.12,11.12h0A11.12,11.12,0,0,0,504.37,415.63Z"/><path class="cls-1" d="M504.37,437.88h0a11.11,11.11,0,0,0-11.12-11.12h0a11.12,11.12,0,0,0,11.12-11.12h0a11.12,11.12,0,0,0,11.12,11.12h0A11.12,11.12,0,0,0,504.37,437.88Z"/><path class="cls-1" d="M526.62,437.88h0a11.11,11.11,0,0,0-11.12-11.12h0a11.12,11.12,0,0,0,11.12-11.12h0a11.12,11.12,0,0,0,11.12,11.12h0A11.12,11.12,0,0,0,526.62,437.88Z"/><path class="cls-1" d="M548.87,437.88h0a11.11,11.11,0,0,0-11.12-11.12h0a11.12,11.12,0,0,0,11.12-11.12h0A11.12,11.12,0,0,0,560,426.75h0A11.12,11.12,0,0,0,548.87,437.88Z"/><path class="cls-1" d="M571.12,437.88h0A11.11,11.11,0,0,0,560,426.76h0a11.12,11.12,0,0,0,11.12-11.12h0a11.12,11.12,0,0,0,11.12,11.12h0A11.12,11.12,0,0,0,571.12,437.88Z"/><path class="cls-1" d="M593.37,437.88h0a11.11,11.11,0,0,0-11.12-11.12h0a11.12,11.12,0,0,0,11.12-11.12h0a11.12,11.12,0,0,0,11.12,11.12h0A11.12,11.12,0,0,0,593.37,437.88Z"/><path class="cls-1" d="M593.37,460.13h0A11.11,11.11,0,0,0,582.24,449h0a11.12,11.12,0,0,0,11.12-11.12h0A11.12,11.12,0,0,0,604.49,449h0A11.12,11.12,0,0,0,593.37,460.13Z"/><path class="cls-1" d="M593.37,482.38h0a11.11,11.11,0,0,0-11.12-11.12h0a11.12,11.12,0,0,0,11.12-11.12h0a11.12,11.12,0,0,0,11.12,11.12h0A11.12,11.12,0,0,0,593.37,482.38Z"/><path class="cls-1" d="M571.12,482.38h0A11.11,11.11,0,0,0,560,471.26h0a11.12,11.12,0,0,0,11.12-11.12h0a11.12,11.12,0,0,0,11.12,11.12h0A11.12,11.12,0,0,0,571.12,482.38Z"/><path class="cls-1" d="M548.87,482.38h0a11.11,11.11,0,0,0-11.12-11.12h0a11.12,11.12,0,0,0,11.12-11.12h0A11.12,11.12,0,0,0,560,471.25h0A11.12,11.12,0,0,0,548.87,482.38Z"/><path class="cls-1" d="M548.87,504.63h0a11.11,11.11,0,0,0-11.12-11.12h0a11.12,11.12,0,0,0,11.12-11.12h0A11.12,11.12,0,0,0,560,493.5h0A11.12,11.12,0,0,0,548.87,504.63Z"/><path class="cls-1" d="M548.87,526.88h0a11.11,11.11,0,0,0-11.12-11.12h0a11.12,11.12,0,0,0,11.12-11.12h0A11.12,11.12,0,0,0,560,515.75h0A11.12,11.12,0,0,0,548.87,526.88Z"/><path class="cls-1" d="M571.12,526.88h0A11.11,11.11,0,0,0,560,515.76h0a11.12,11.12,0,0,0,11.12-11.12h0a11.12,11.12,0,0,0,11.12,11.12h0A11.12,11.12,0,0,0,571.12,526.88Z"/><path class="cls-1" d="M593.37,526.88h0a11.11,11.11,0,0,0-11.12-11.12h0a11.12,11.12,0,0,0,11.12-11.12h0a11.12,11.12,0,0,0,11.12,11.12h0A11.12,11.12,0,0,0,593.37,526.88Z"/><path class="cls-1" d="M615.62,526.88h0a11.11,11.11,0,0,0-11.12-11.12h0a11.12,11.12,0,0,0,11.12-11.12h0a11.12,11.12,0,0,0,11.12,11.12h0A11.12,11.12,0,0,0,615.62,526.88Z"/><path class="cls-1" d="M637.87,526.88h0a11.11,11.11,0,0,0-11.12-11.12h0a11.12,11.12,0,0,0,11.12-11.12h0A11.12,11.12,0,0,0,649,515.75h0A11.12,11.12,0,0,0,637.87,526.88Z"/><path class="cls-1" d="M637.87,549.13h0A11.11,11.11,0,0,0,626.74,538h0a11.12,11.12,0,0,0,11.12-11.12h0A11.12,11.12,0,0,0,649,538h0A11.12,11.12,0,0,0,637.87,549.13Z"/><path class="cls-1" d="M637.87,571.38h0a11.11,11.11,0,0,0-11.12-11.12h0a11.12,11.12,0,0,0,11.12-11.12h0A11.12,11.12,0,0,0,649,560.25h0A11.12,11.12,0,0,0,637.87,571.38Z"/><path class="cls-1" d="M637.87,593.63h0a11.11,11.11,0,0,0-11.12-11.12h0a11.12,11.12,0,0,0,11.12-11.12h0A11.12,11.12,0,0,0,649,582.5h0A11.12,11.12,0,0,0,637.87,593.63Z"/><path class="cls-1" d="M660.12,593.63h0A11.11,11.11,0,0,0,649,582.51h0a11.12,11.12,0,0,0,11.12-11.12h0a11.12,11.12,0,0,0,11.12,11.12h0A11.12,11.12,0,0,0,660.12,593.63Z"/><path class="cls-1" d="M682.37,593.63h0a11.11,11.11,0,0,0-11.12-11.12h0a11.12,11.12,0,0,0,11.12-11.12h0a11.12,11.12,0,0,0,11.12,11.12h0A11.12,11.12,0,0,0,682.37,593.63Z"/><path class="cls-1" d="M682.37,571.38h0a11.11,11.11,0,0,0-11.12-11.12h0a11.12,11.12,0,0,0,11.12-11.12h0a11.12,11.12,0,0,0,11.12,11.12h0A11.12,11.12,0,0,0,682.37,571.38Z"/><path class="cls-1" d="M682.37,549.13h0A11.11,11.11,0,0,0,671.24,538h0a11.12,11.12,0,0,0,11.12-11.12h0A11.12,11.12,0,0,0,693.49,538h0A11.12,11.12,0,0,0,682.37,549.13Z"/><path class="cls-1" d="M682.37,526.88h0a11.11,11.11,0,0,0-11.12-11.12h0a11.12,11.12,0,0,0,11.12-11.12h0a11.12,11.12,0,0,0,11.12,11.12h0A11.12,11.12,0,0,0,682.37,526.88Z"/><path class="cls-1" d="M704.62,526.88h0a11.11,11.11,0,0,0-11.12-11.12h0a11.12,11.12,0,0,0,11.12-11.12h0a11.12,11.12,0,0,0,11.12,11.12h0A11.12,11.12,0,0,0,704.62,526.88Z"/><path class="cls-1" d="M726.87,526.88h0a11.11,11.11,0,0,0-11.12-11.12h0a11.12,11.12,0,0,0,11.12-11.12h0A11.12,11.12,0,0,0,738,515.75h0A11.12,11.12,0,0,0,726.87,526.88Z"/><path class="cls-1" d="M749.12,526.88h0A11.11,11.11,0,0,0,738,515.76h0a11.12,11.12,0,0,0,11.12-11.12h0a11.12,11.12,0,0,0,11.12,11.12h0A11.12,11.12,0,0,0,749.12,526.88Z"/><path class="cls-1" d="M771.37,526.88h0a11.11,11.11,0,0,0-11.12-11.12h0a11.12,11.12,0,0,0,11.12-11.12h0a11.12,11.12,0,0,0,11.12,11.12h0A11.12,11.12,0,0,0,771.37,526.88Z"/><path class="cls-1" d="M771.37,504.63h0a11.11,11.11,0,0,0-11.12-11.12h0a11.12,11.12,0,0,0,11.12-11.12h0a11.12,11.12,0,0,0,11.12,11.12h0A11.12,11.12,0,0,0,771.37,504.63Z"/><path class="cls-1" d="M771.37,482.38h0a11.11,11.11,0,0,0-11.12-11.12h0a11.12,11.12,0,0,0,11.12-11.12h0a11.12,11.12,0,0,0,11.12,11.12h0A11.12,11.12,0,0,0,771.37,482.38Z"/><path class="cls-1" d="M749.12,482.38h0A11.11,11.11,0,0,0,738,471.26h0a11.12,11.12,0,0,0,11.12-11.12h0a11.12,11.12,0,0,0,11.12,11.12h0A11.12,11.12,0,0,0,749.12,482.38Z"/><path class="cls-1" d="M726.87,482.38h0a11.11,11.11,0,0,0-11.12-11.12h0a11.12,11.12,0,0,0,11.12-11.12h0A11.12,11.12,0,0,0,738,471.25h0A11.12,11.12,0,0,0,726.87,482.38Z"/><path class="cls-1" d="M726.87,460.13h0A11.11,11.11,0,0,0,715.74,449h0a11.12,11.12,0,0,0,11.12-11.12h0A11.12,11.12,0,0,0,738,449h0A11.12,11.12,0,0,0,726.87,460.13Z"/><path class="cls-1" d="M726.87,437.88h0a11.11,11.11,0,0,0-11.12-11.12h0a11.12,11.12,0,0,0,11.12-11.12h0A11.12,11.12,0,0,0,738,426.75h0A11.12,11.12,0,0,0,726.87,437.88Z"/><path class="cls-1" d="M749.12,437.88h0A11.11,11.11,0,0,0,738,426.76h0a11.12,11.12,0,0,0,11.12-11.12h0a11.12,11.12,0,0,0,11.12,11.12h0A11.12,11.12,0,0,0,749.12,437.88Z"/><path class="cls-1" d="M771.37,437.88h0a11.11,11.11,0,0,0-11.12-11.12h0a11.12,11.12,0,0,0,11.12-11.12h0a11.12,11.12,0,0,0,11.12,11.12h0A11.12,11.12,0,0,0,771.37,437.88Z"/><path class="cls-1" d="M793.62,437.88h0a11.11,11.11,0,0,0-11.12-11.12h0a11.12,11.12,0,0,0,11.12-11.12h0a11.12,11.12,0,0,0,11.12,11.12h0A11.12,11.12,0,0,0,793.62,437.88Z"/><path class="cls-1" d="M815.87,437.88h0a11.11,11.11,0,0,0-11.12-11.12h0a11.12,11.12,0,0,0,11.12-11.12h0A11.12,11.12,0,0,0,827,426.75h0A11.12,11.12,0,0,0,815.87,437.88Z"/><path class="cls-1" d="M815.87,415.63h0a11.11,11.11,0,0,0-11.12-11.12h0a11.12,11.12,0,0,0,11.12-11.12h0A11.12,11.12,0,0,0,827,404.5h0A11.12,11.12,0,0,0,815.87,415.63Z"/><path class="cls-1" d="M815.87,393.38h0a11.11,11.11,0,0,0-11.12-11.12h0a11.12,11.12,0,0,0,11.12-11.12h0A11.12,11.12,0,0,0,827,382.25h0A11.12,11.12,0,0,0,815.87,393.38Z"/><path class="cls-1" d="M793.62,393.38h0a11.11,11.11,0,0,0-11.12-11.12h0a11.12,11.12,0,0,0,11.12-11.12h0a11.12,11.12,0,0,0,11.12,11.12h0A11.12,11.12,0,0,0,793.62,393.38Z"/><path class="cls-1" d="M771.37,393.38h0a11.11,11.11,0,0,0-11.12-11.12h0a11.12,11.12,0,0,0,11.12-11.12h0a11.12,11.12,0,0,0,11.12,11.12h0A11.12,11.12,0,0,0,771.37,393.38Z"/><path class="cls-1" d="M771.37,371.13h0A11.11,11.11,0,0,0,760.24,360v0a11.11,11.11,0,0,0,11.12-11.12h0A11.12,11.12,0,0,0,782.49,360v0A11.12,11.12,0,0,0,771.37,371.13Z"/><path class="cls-1" d="M771.37,348.87h0a11.12,11.12,0,0,0-11.12-11.12h0a11.11,11.11,0,0,0,11.12-11.12h0a11.12,11.12,0,0,0,11.12,11.12h0A11.12,11.12,0,0,0,771.37,348.87Z"/><path class="cls-1" d="M793.62,348.87h0a11.12,11.12,0,0,0-11.12-11.12h0a11.11,11.11,0,0,0,11.12-11.12h0a11.12,11.12,0,0,0,11.12,11.12h0A11.12,11.12,0,0,0,793.62,348.87Z"/><path class="cls-1" d="M815.87,348.87h0a11.12,11.12,0,0,0-11.12-11.12h0a11.11,11.11,0,0,0,11.12-11.12h0A11.12,11.12,0,0,0,827,337.74h0A11.12,11.12,0,0,0,815.87,348.87Z"/><path class="cls-1" d="M815.87,326.62h0a11.12,11.12,0,0,0-11.12-11.12h0a11.11,11.11,0,0,0,11.12-11.12h0A11.12,11.12,0,0,0,827,315.49h0A11.12,11.12,0,0,0,815.87,326.62Z"/><path class="cls-1" d="M815.87,304.37h0a11.12,11.12,0,0,0-11.12-11.12h0a11.11,11.11,0,0,0,11.12-11.12h0A11.12,11.12,0,0,0,827,293.24h0A11.12,11.12,0,0,0,815.87,304.37Z"/><path class="cls-1" d="M793.62,304.37h0a11.12,11.12,0,0,0-11.12-11.12h0a11.11,11.11,0,0,0,11.12-11.12h0a11.12,11.12,0,0,0,11.12,11.12h0A11.12,11.12,0,0,0,793.62,304.37Z"/><path class="cls-1" d="M771.37,304.37h0a11.12,11.12,0,0,0-11.12-11.12h0a11.11,11.11,0,0,0,11.12-11.12h0a11.12,11.12,0,0,0,11.12,11.12h0A11.12,11.12,0,0,0,771.37,304.37Z"/><path class="cls-1" d="M749.12,304.37h0A11.12,11.12,0,0,0,738,293.25h0a11.11,11.11,0,0,0,11.12-11.12h0a11.12,11.12,0,0,0,11.12,11.12h0A11.12,11.12,0,0,0,749.12,304.37Z"/><path class="cls-1" d="M726.87,304.37h0a11.12,11.12,0,0,0-11.12-11.12h0a11.11,11.11,0,0,0,11.12-11.12h0A11.12,11.12,0,0,0,738,293.24h0A11.12,11.12,0,0,0,726.87,304.37Z"/><path class="cls-1" d="M726.87,282.12h0A11.12,11.12,0,0,0,715.74,271h0a11.11,11.11,0,0,0,11.12-11.12h0A11.12,11.12,0,0,0,738,271h0A11.12,11.12,0,0,0,726.87,282.12Z"/><path class="cls-1" d="M726.87,259.87h0a11.12,11.12,0,0,0-11.12-11.12h0a11.11,11.11,0,0,0,11.12-11.12h0A11.12,11.12,0,0,0,738,248.74h0A11.12,11.12,0,0,0,726.87,259.87Z"/><path class="cls-1" d="M749.12,259.87h0A11.12,11.12,0,0,0,738,248.75h0a11.11,11.11,0,0,0,11.12-11.12h0a11.12,11.12,0,0,0,11.12,11.12h0A11.12,11.12,0,0,0,749.12,259.87Z"/><path class="cls-1" d="M771.37,259.87h0a11.12,11.12,0,0,0-11.12-11.12h0a11.11,11.11,0,0,0,11.12-11.12h0a11.12,11.12,0,0,0,11.12,11.12h0A11.12,11.12,0,0,0,771.37,259.87Z"/><path class="cls-1" d="M771.37,237.62h0a11.12,11.12,0,0,0-11.12-11.12h0a11.11,11.11,0,0,0,11.12-11.12h0a11.12,11.12,0,0,0,11.12,11.12h0A11.12,11.12,0,0,0,771.37,237.62Z"/><path class="cls-1" d="M771.37,215.37h0a11.12,11.12,0,0,0-11.12-11.12h0a11.11,11.11,0,0,0,11.12-11.12h0a11.12,11.12,0,0,0,11.12,11.12h0A11.12,11.12,0,0,0,771.37,215.37Z"/><path class="cls-1" d="M749.12,215.37h0A11.12,11.12,0,0,0,738,204.25h0a11.11,11.11,0,0,0,11.12-11.12h0a11.12,11.12,0,0,0,11.12,11.12h0A11.12,11.12,0,0,0,749.12,215.37Z"/><path class="cls-1" d="M726.87,215.37h0a11.12,11.12,0,0,0-11.12-11.12h0a11.11,11.11,0,0,0,11.12-11.12h0A11.12,11.12,0,0,0,738,204.24h0A11.12,11.12,0,0,0,726.87,215.37Z"/><path class="cls-1" d="M660.12,148.62h0A11.12,11.12,0,0,0,649,137.5h0a11.11,11.11,0,0,0,11.12-11.12h0a11.12,11.12,0,0,0,11.12,11.12h0A11.12,11.12,0,0,0,660.12,148.62Z"/><path class="cls-1" d="M682.37,148.62h0a11.12,11.12,0,0,0-11.12-11.12h0a11.11,11.11,0,0,0,11.12-11.12h0a11.12,11.12,0,0,0,11.12,11.12h0A11.12,11.12,0,0,0,682.37,148.62Z"/><path class="cls-1" d="M682.37,170.87h0a11.12,11.12,0,0,0-11.12-11.12h0a11.11,11.11,0,0,0,11.12-11.12h0a11.12,11.12,0,0,0,11.12,11.12h0A11.12,11.12,0,0,0,682.37,170.87Z"/><path class="cls-1" d="M682.37,193.12h0A11.12,11.12,0,0,0,671.24,182h0a11.11,11.11,0,0,0,11.12-11.12h0A11.12,11.12,0,0,0,693.49,182h0A11.12,11.12,0,0,0,682.37,193.12Z"/><path class="cls-1" d="M682.37,215.37h0a11.12,11.12,0,0,0-11.12-11.12h0a11.11,11.11,0,0,0,11.12-11.12h0a11.12,11.12,0,0,0,11.12,11.12h0A11.12,11.12,0,0,0,682.37,215.37Z"/><path class="cls-1" d="M682.37,237.62h0a11.12,11.12,0,0,0-11.12-11.12h0a11.11,11.11,0,0,0,11.12-11.12h0a11.12,11.12,0,0,0,11.12,11.12h0A11.12,11.12,0,0,0,682.37,237.62Z"/><path class="cls-1" d="M682.37,259.87h0a11.12,11.12,0,0,0-11.12-11.12h0a11.11,11.11,0,0,0,11.12-11.12h0a11.12,11.12,0,0,0,11.12,11.12h0A11.12,11.12,0,0,0,682.37,259.87Z"/><path class="cls-1" d="M682.37,282.12h0A11.12,11.12,0,0,0,671.24,271h0a11.11,11.11,0,0,0,11.12-11.12h0A11.12,11.12,0,0,0,693.49,271h0A11.12,11.12,0,0,0,682.37,282.12Z"/><path class="cls-1" d="M682.37,304.37h0a11.12,11.12,0,0,0-11.12-11.12h0a11.11,11.11,0,0,0,11.12-11.12h0a11.12,11.12,0,0,0,11.12,11.12h0A11.12,11.12,0,0,0,682.37,304.37Z"/><path class="cls-1" d="M682.37,326.62h0a11.12,11.12,0,0,0-11.12-11.12h0a11.11,11.11,0,0,0,11.12-11.12h0a11.12,11.12,0,0,0,11.12,11.12h0A11.12,11.12,0,0,0,682.37,326.62Z"/><path class="cls-1" d="M682.37,348.87h0a11.12,11.12,0,0,0-11.12-11.12h0a11.11,11.11,0,0,0,11.12-11.12h0a11.12,11.12,0,0,0,11.12,11.12h0A11.12,11.12,0,0,0,682.37,348.87Z"/><path class="cls-1" d="M704.62,348.87h0a11.12,11.12,0,0,0-11.12-11.12h0a11.11,11.11,0,0,0,11.12-11.12h0a11.12,11.12,0,0,0,11.12,11.12h0A11.12,11.12,0,0,0,704.62,348.87Z"/><path class="cls-1" d="M726.87,348.87h0a11.12,11.12,0,0,0-11.12-11.12h0a11.11,11.11,0,0,0,11.12-11.12h0A11.12,11.12,0,0,0,738,337.74h0A11.12,11.12,0,0,0,726.87,348.87Z"/><path class="cls-1" d="M726.87,371.13h0A11.11,11.11,0,0,0,715.74,360v0a11.11,11.11,0,0,0,11.12-11.12h0A11.12,11.12,0,0,0,738,360v0A11.12,11.12,0,0,0,726.87,371.13Z"/><path class="cls-1" d="M726.87,393.38h0a11.11,11.11,0,0,0-11.12-11.12h0a11.12,11.12,0,0,0,11.12-11.12h0A11.12,11.12,0,0,0,738,382.25h0A11.12,11.12,0,0,0,726.87,393.38Z"/><path class="cls-1" d="M704.62,393.38h0a11.11,11.11,0,0,0-11.12-11.12h0a11.12,11.12,0,0,0,11.12-11.12h0a11.12,11.12,0,0,0,11.12,11.12h0A11.12,11.12,0,0,0,704.62,393.38Z"/><path class="cls-1" d="M682.37,393.38h0a11.11,11.11,0,0,0-11.12-11.12h0a11.12,11.12,0,0,0,11.12-11.12h0a11.12,11.12,0,0,0,11.12,11.12h0A11.12,11.12,0,0,0,682.37,393.38Z"/><path class="cls-1" d="M682.37,415.63h0a11.11,11.11,0,0,0-11.12-11.12h0a11.12,11.12,0,0,0,11.12-11.12h0a11.12,11.12,0,0,0,11.12,11.12h0A11.12,11.12,0,0,0,682.37,415.63Z"/><path class="cls-1" d="M682.37,437.88h0a11.11,11.11,0,0,0-11.12-11.12h0a11.12,11.12,0,0,0,11.12-11.12h0a11.12,11.12,0,0,0,11.12,11.12h0A11.12,11.12,0,0,0,682.37,437.88Z"/><path class="cls-1" d="M682.37,460.13h0A11.11,11.11,0,0,0,671.24,449h0a11.12,11.12,0,0,0,11.12-11.12h0A11.12,11.12,0,0,0,693.49,449h0A11.12,11.12,0,0,0,682.37,460.13Z"/><path class="cls-1" d="M682.37,482.38h0a11.11,11.11,0,0,0-11.12-11.12h0a11.12,11.12,0,0,0,11.12-11.12h0a11.12,11.12,0,0,0,11.12,11.12h0A11.12,11.12,0,0,0,682.37,482.38Z"/><path class="cls-1" d="M660.12,482.38h0A11.11,11.11,0,0,0,649,471.26h0a11.12,11.12,0,0,0,11.12-11.12h0a11.12,11.12,0,0,0,11.12,11.12h0A11.12,11.12,0,0,0,660.12,482.38Z"/><path class="cls-1" d="M637.87,482.38h0a11.11,11.11,0,0,0-11.12-11.12h0a11.12,11.12,0,0,0,11.12-11.12h0A11.12,11.12,0,0,0,649,471.25h0A11.12,11.12,0,0,0,637.87,482.38Z"/><path class="cls-1" d="M637.87,460.13h0A11.11,11.11,0,0,0,626.74,449h0a11.12,11.12,0,0,0,11.12-11.12h0A11.12,11.12,0,0,0,649,449h0A11.12,11.12,0,0,0,637.87,460.13Z"/><path class="cls-1" d="M637.87,437.88h0a11.11,11.11,0,0,0-11.12-11.12h0a11.12,11.12,0,0,0,11.12-11.12h0A11.12,11.12,0,0,0,649,426.75h0A11.12,11.12,0,0,0,637.87,437.88Z"/><path class="cls-1" d="M637.87,415.63h0a11.11,11.11,0,0,0-11.12-11.12h0a11.12,11.12,0,0,0,11.12-11.12h0A11.12,11.12,0,0,0,649,404.5h0A11.12,11.12,0,0,0,637.87,415.63Z"/><path class="cls-1" d="M637.87,393.38h0a11.11,11.11,0,0,0-11.12-11.12h0a11.12,11.12,0,0,0,11.12-11.12h0A11.12,11.12,0,0,0,649,382.25h0A11.12,11.12,0,0,0,637.87,393.38Z"/><path class="cls-1" d="M615.62,393.38h0a11.11,11.11,0,0,0-11.12-11.12h0a11.12,11.12,0,0,0,11.12-11.12h0a11.12,11.12,0,0,0,11.12,11.12h0A11.12,11.12,0,0,0,615.62,393.38Z"/><path class="cls-1" d="M593.37,393.38h0a11.11,11.11,0,0,0-11.12-11.12h0a11.12,11.12,0,0,0,11.12-11.12h0a11.12,11.12,0,0,0,11.12,11.12h0A11.12,11.12,0,0,0,593.37,393.38Z"/><path class="cls-1" d="M593.37,371.13h0A11.11,11.11,0,0,0,582.24,360v0a11.11,11.11,0,0,0,11.12-11.12h0A11.12,11.12,0,0,0,604.49,360v0A11.12,11.12,0,0,0,593.37,371.13Z"/><path class="cls-1" d="M593.37,348.87h0a11.12,11.12,0,0,0-11.12-11.12h0a11.11,11.11,0,0,0,11.12-11.12h0a11.12,11.12,0,0,0,11.12,11.12h0A11.12,11.12,0,0,0,593.37,348.87Z"/><path class="cls-1" d="M615.62,348.87h0a11.12,11.12,0,0,0-11.12-11.12h0a11.11,11.11,0,0,0,11.12-11.12h0a11.12,11.12,0,0,0,11.12,11.12h0A11.12,11.12,0,0,0,615.62,348.87Z"/><path class="cls-1" d="M637.87,348.87h0a11.1,11.1,0,0,0-11.12-11.11v0a11.11,11.11,0,0,0,11.12-11.12h0A11.12,11.12,0,0,0,649,337.74h0A11.12,11.12,0,0,0,637.87,348.87Z"/><path class="cls-1" d="M637.87,326.62h0a11.12,11.12,0,0,0-11.12-11.12h0a11.11,11.11,0,0,0,11.12-11.12h0A11.12,11.12,0,0,0,649,315.49h0A11.12,11.12,0,0,0,637.87,326.62Z"/><path class="cls-1" d="M637.87,304.37h0a11.12,11.12,0,0,0-11.12-11.12h0a11.11,11.11,0,0,0,11.12-11.12h0A11.12,11.12,0,0,0,649,293.24h0A11.12,11.12,0,0,0,637.87,304.37Z"/><path class="cls-1" d="M637.87,282.12h0A11.12,11.12,0,0,0,626.74,271h0a11.11,11.11,0,0,0,11.12-11.12h0A11.12,11.12,0,0,0,649,271h0A11.12,11.12,0,0,0,637.87,282.12Z"/><path class="cls-1" d="M637.87,259.87h0a11.12,11.12,0,0,0-11.12-11.12h0a11.11,11.11,0,0,0,11.12-11.12h0A11.12,11.12,0,0,0,649,248.74h0A11.12,11.12,0,0,0,637.87,259.87Z"/></svg>