<svg id="Lines" xmlns="http://www.w3.org/2000/svg" viewBox="0 0 1700 720"><defs><style>.cls-1{fill:#231f20;}</style></defs><path class="cls-1" d="M126.62,593.63h0l-11.12-11.12h0l11.12-11.12h0l11.12,11.12h0Z"/><path class="cls-1" d="M126.62,571.38h0l-11.12-11.12h0l11.12-11.12h0l11.12,11.12h0Z"/><path class="cls-1" d="M126.62,549.13h0L115.49,538h0l11.12-11.12h0L137.74,538h0Z"/><path class="cls-1" d="M126.62,526.88h0l-11.12-11.12h0l11.12-11.12h0l11.12,11.12h0Z"/><path class="cls-1" d="M126.62,504.63h0l-11.12-11.12h0l11.12-11.12h0l11.12,11.12h0Z"/><path class="cls-1" d="M126.62,482.38h0l-11.12-11.12h0l11.12-11.12h0l11.12,11.12h0Z"/><path class="cls-1" d="M126.62,460.13h0L115.49,449h0l11.12-11.12h0L137.74,449h0Z"/><path class="cls-1" d="M126.62,437.88h0l-11.12-11.12h0l11.12-11.12h0l11.12,11.12h0Z"/><path class="cls-1" d="M126.62,415.63h0l-11.12-11.12h0l11.12-11.12h0l11.12,11.12h0Z"/><path class="cls-1" d="M126.62,393.38h0l-11.12-11.12h0l11.12-11.12h0l11.12,11.12h0Z"/><path class="cls-1" d="M126.62,371.13h0L115.49,360v0l11.12-11.12h0L137.74,360v0Z"/><path class="cls-1" d="M126.62,348.87h0l-11.12-11.12h0l11.12-11.12h0l11.12,11.12h0Z"/><path class="cls-1" d="M126.62,326.62h0L115.49,315.5h0l11.12-11.12h0l11.12,11.12h0Z"/><path class="cls-1" d="M126.62,304.37h0l-11.12-11.12h0l11.12-11.12h0l11.12,11.12h0Z"/><path class="cls-1" d="M126.62,282.12h0L115.49,271h0l11.12-11.12h0L137.74,271h0Z"/><path class="cls-1" d="M126.62,259.87h0l-11.12-11.12h0l11.12-11.12h0l11.12,11.12h0Z"/><path class="cls-1" d="M126.62,237.62h0L115.49,226.5h0l11.12-11.12h0l11.12,11.12h0Z"/><path class="cls-1" d="M126.62,215.37h0l-11.12-11.12h0l11.12-11.12h0l11.12,11.12h0Z"/><path class="cls-1" d="M126.62,193.12h0L115.49,182h0l11.12-11.12h0L137.74,182h0Z"/><path class="cls-1" d="M126.62,170.87h0l-11.12-11.12h0l11.12-11.12h0l11.12,11.12h0Z"/><path class="cls-1" d="M126.62,148.62h0L115.49,137.5h0l11.12-11.12h0l11.12,11.12h0Z"/><path class="cls-1" d="M148.87,148.62h0L137.74,137.5h0l11.12-11.12h0L160,137.49h0Z"/><path class="cls-1" d="M171.12,148.62h0L160,137.5h0l11.12-11.12h0l11.12,11.12h0Z"/><path class="cls-1" d="M193.37,148.62h0L182.24,137.5h0l11.12-11.12h0l11.12,11.12h0Z"/><path class="cls-1" d="M215.62,148.62h0L204.49,137.5h0l11.12-11.12h0l11.12,11.12h0Z"/><path class="cls-1" d="M237.87,148.62h0L226.74,137.5h0l11.12-11.12h0L249,137.49h0Z"/><path class="cls-1" d="M260.12,148.62h0L249,137.5h0l11.12-11.12h0l11.12,11.12h0Z"/><path class="cls-1" d="M282.37,148.62h0L271.24,137.5h0l11.12-11.12h0l11.12,11.12h0Z"/><path class="cls-1" d="M304.62,148.62h0L293.49,137.5h0l11.12-11.12h0l11.12,11.12h0Z"/><path class="cls-1" d="M326.87,148.62h0L315.74,137.5h0l11.12-11.12h0L338,137.49h0Z"/><path class="cls-1" d="M349.12,148.62h0L338,137.5h0l11.12-11.12h0l11.12,11.12h0Z"/><path class="cls-1" d="M349.12,170.87h0L338,159.75h0l11.12-11.12h0l11.12,11.12h0Z"/><path class="cls-1" d="M349.12,193.12h0L338,182h0l11.12-11.12h0L360.24,182h0Z"/><path class="cls-1" d="M371.37,193.12h0L360.24,182h0l11.12-11.12h0L382.49,182h0Z"/><path class="cls-1" d="M393.62,193.12h0L382.49,182h0l11.12-11.12h0L404.74,182h0Z"/><path class="cls-1" d="M393.62,215.37h0l-11.12-11.12h0l11.12-11.12h0l11.12,11.12h0Z"/><path class="cls-1" d="M349.12,237.62h0L338,226.5h0l11.12-11.12h0l11.12,11.12h0Z"/><path class="cls-1" d="M349.12,259.87h0L338,248.75h0l11.12-11.12h0l11.12,11.12h0Z"/><path class="cls-1" d="M371.37,237.62h0L360.24,226.5h0l11.12-11.12h0l11.12,11.12h0Z"/><path class="cls-1" d="M393.62,237.62h0L382.49,226.5h0l11.12-11.12h0l11.12,11.12h0Z"/><path class="cls-1" d="M349.12,348.87h0L338,337.75h0l11.12-11.12h0l11.12,11.12h0Z"/><path class="cls-1" d="M349.12,371.13h0L338,360v0l11.12-11.12h0L360.24,360v0Z"/><path class="cls-1" d="M371.37,371.13h0L360.24,360v0l11.12-11.12h0L382.49,360v0Z"/><path class="cls-1" d="M393.62,371.13h0L382.49,360v0l11.12-11.12h0L404.74,360h0Z"/><path class="cls-1" d="M393.62,393.38h0l-11.12-11.12h0l11.12-11.12h0l11.12,11.12h0Z"/><path class="cls-1" d="M349.12,415.63h0L338,404.51h0l11.12-11.12h0l11.12,11.12h0Z"/><path class="cls-1" d="M349.12,437.88h0L338,426.76h0l11.12-11.12h0l11.12,11.12h0Z"/><path class="cls-1" d="M349.12,460.13h0L338,449h0l11.12-11.12h0L360.24,449h0Z"/><path class="cls-1" d="M326.87,460.13h0L315.74,449h0l11.12-11.12h0L338,449h0Z"/><path class="cls-1" d="M304.62,460.13h0L293.49,449h0l11.12-11.12h0L315.74,449h0Z"/><path class="cls-1" d="M304.62,437.88h0l-11.12-11.12h0l11.12-11.12h0l11.12,11.12h0Z"/><path class="cls-1" d="M304.62,415.63h0l-11.12-11.12h0l11.12-11.12h0l11.12,11.12h0Z"/><path class="cls-1" d="M304.62,393.38h0l-11.12-11.12h0l11.12-11.12h0l11.12,11.12h0Z"/><path class="cls-1" d="M304.62,371.13h0L293.49,360v0l11.12-11.12h0L315.74,360v0Z"/><path class="cls-1" d="M304.62,348.87h0l-11.12-11.12h0l11.12-11.12h0l11.12,11.12h0Z"/><path class="cls-1" d="M304.62,326.62h0L293.49,315.5h0l11.12-11.12h0l11.12,11.12h0Z"/><path class="cls-1" d="M304.62,304.37h0l-11.12-11.12h0l11.12-11.12h0l11.12,11.12h0Z"/><path class="cls-1" d="M304.62,282.12h0L293.49,271h0l11.12-11.12h0L315.74,271h0Z"/><path class="cls-1" d="M304.62,259.87h0l-11.12-11.12h0l11.12-11.12h0l11.12,11.12h0Z"/><path class="cls-1" d="M304.62,237.62h0L293.49,226.5h0l11.12-11.12h0l11.12,11.12h0Z"/><path class="cls-1" d="M304.62,215.37h0l-11.12-11.12h0l11.12-11.12h0l11.12,11.12h0Z"/><path class="cls-1" d="M304.62,193.12h0L293.49,182h0l11.12-11.12h0L315.74,182h0Z"/><path class="cls-1" d="M260.12,460.13h0L249,449h0l11.12-11.12h0L271.24,449h0Z"/><path class="cls-1" d="M260.12,482.38h0L249,471.26h0l11.12-11.12h0l11.12,11.12h0Z"/><path class="cls-1" d="M260.12,504.63h0L249,493.51h0l11.12-11.12h0l11.12,11.12h0Z"/><path class="cls-1" d="M260.12,526.88h0L249,515.76h0l11.12-11.12h0l11.12,11.12h0Z"/><path class="cls-1" d="M260.12,549.13h0L249,538h0l11.12-11.12h0L271.24,538h0Z"/><path class="cls-1" d="M260.12,571.38h0L249,560.26h0l11.12-11.12h0l11.12,11.12h0Z"/><path class="cls-1" d="M260.12,593.63h0L249,582.51h0l11.12-11.12h0l11.12,11.12h0Z"/><path class="cls-1" d="M260.12,437.88h0L249,426.76h0l11.12-11.12h0l11.12,11.12h0Z"/><path class="cls-1" d="M260.12,415.63h0L249,404.51h0l11.12-11.12h0l11.12,11.12h0Z"/><path class="cls-1" d="M260.12,393.38h0L249,382.26h0l11.12-11.12h0l11.12,11.12h0Z"/><path class="cls-1" d="M260.12,371.13h0L249,360v0l11.12-11.12h0L271.24,360h0Z"/><path class="cls-1" d="M260.12,348.87h0L249,337.76v0l11.12-11.12h0l11.12,11.12h0Z"/><path class="cls-1" d="M260.12,326.62h0L249,315.5h0l11.12-11.12h0l11.12,11.12h0Z"/><path class="cls-1" d="M260.12,304.37h0L249,293.25h0l11.12-11.12h0l11.12,11.12h0Z"/><path class="cls-1" d="M260.12,282.12h0L249,271h0l11.12-11.12h0L271.24,271h0Z"/><path class="cls-1" d="M260.12,259.87h0L249,248.75h0l11.12-11.12h0l11.12,11.12h0Z"/><path class="cls-1" d="M260.12,237.62h0L249,226.5h0l11.12-11.12h0l11.12,11.12h0Z"/><path class="cls-1" d="M260.12,215.37h0L249,204.25h0l11.12-11.12h0l11.12,11.12h0Z"/><path class="cls-1" d="M260.12,193.12h0L249,182h0l11.12-11.12h0L271.24,182h0Z"/><path class="cls-1" d="M237.87,193.12h0L226.74,182h0l11.12-11.12h0L249,182h0Z"/><path class="cls-1" d="M215.62,193.12h0L204.49,182h0l11.12-11.12h0L226.74,182h0Z"/><path class="cls-1" d="M193.37,193.12h0L182.24,182h0l11.12-11.12h0L204.49,182h0Z"/><path class="cls-1" d="M171.12,193.12h0L160,182h0l11.12-11.12h0L182.24,182h0Z"/><path class="cls-1" d="M215.62,237.62h0L204.49,226.5h0l11.12-11.12h0l11.12,11.12h0Z"/><path class="cls-1" d="M215.62,259.87h0l-11.12-11.12h0l11.12-11.12h0l11.12,11.12h0Z"/><path class="cls-1" d="M193.37,237.62h0L182.24,226.5h0l11.12-11.12h0l11.12,11.12h0Z"/><path class="cls-1" d="M171.12,237.62h0L160,226.5h0l11.12-11.12h0l11.12,11.12h0Z"/><path class="cls-1" d="M215.62,282.12h0L204.49,271h0l11.12-11.12h0L226.74,271h0Z"/><path class="cls-1" d="M193.37,282.12h0L182.24,271h0l11.12-11.12h0L204.49,271h0Z"/><path class="cls-1" d="M171.12,282.12h0L160,271h0l11.12-11.12h0L182.24,271h0Z"/><path class="cls-1" d="M171.12,215.37h0L160,204.25h0l11.12-11.12h0l11.12,11.12h0Z"/><path class="cls-1" d="M215.62,326.62h0L204.49,315.5h0l11.12-11.12h0l11.12,11.12h0Z"/><path class="cls-1" d="M215.62,348.87h0l-11.12-11.12h0l11.12-11.12h0l11.12,11.12h0Z"/><path class="cls-1" d="M193.37,326.62h0L182.24,315.5h0l11.12-11.12h0l11.12,11.12h0Z"/><path class="cls-1" d="M171.12,326.62h0L160,315.5h0l11.12-11.12h0l11.12,11.12h0Z"/><path class="cls-1" d="M215.62,371.13h0L204.49,360v0l11.12-11.12h0L226.74,360v0Z"/><path class="cls-1" d="M193.37,371.13h0L182.24,360v0l11.12-11.12h0L204.49,360v0Z"/><path class="cls-1" d="M171.12,371.13h0L160,360v0l11.12-11.12h0L182.24,360v0Z"/><path class="cls-1" d="M215.62,460.13h0L204.49,449h0l11.12-11.12h0L226.74,449h0Z"/><path class="cls-1" d="M193.37,460.13h0L182.24,449h0l11.12-11.12h0L204.49,449h0Z"/><path class="cls-1" d="M171.12,460.13h0L160,449h0l11.12-11.12h0L182.24,449h0Z"/><path class="cls-1" d="M171.12,304.37h0L160,293.25h0l11.12-11.12h0l11.12,11.12h0Z"/><path class="cls-1" d="M215.62,415.63h0l-11.12-11.12h0l11.12-11.12h0l11.12,11.12h0Z"/><path class="cls-1" d="M215.62,437.88h0l-11.12-11.12h0l11.12-11.12h0l11.12,11.12h0Z"/><path class="cls-1" d="M193.37,415.63h0l-11.12-11.12h0l11.12-11.12h0l11.12,11.12h0Z"/><path class="cls-1" d="M171.12,415.63h0L160,404.51h0l11.12-11.12h0l11.12,11.12h0Z"/><path class="cls-1" d="M171.12,393.38h0L160,382.26h0l11.12-11.12h0l11.12,11.12h0Z"/><path class="cls-1" d="M215.62,504.63h0l-11.12-11.12h0l11.12-11.12h0l11.12,11.12h0Z"/><path class="cls-1" d="M215.62,526.88h0l-11.12-11.12h0l11.12-11.12h0l11.12,11.12h0Z"/><path class="cls-1" d="M193.37,504.63h0l-11.12-11.12h0l11.12-11.12h0l11.12,11.12h0Z"/><path class="cls-1" d="M171.12,504.63h0L160,493.51h0l11.12-11.12h0l11.12,11.12h0Z"/><path class="cls-1" d="M193.37,593.63h0l-11.12-11.12h0l11.12-11.12h0l11.12,11.12h0Z"/><path class="cls-1" d="M215.62,593.63h0l-11.12-11.12h0l11.12-11.12h0l11.12,11.12h0Z"/><path class="cls-1" d="M237.87,593.63h0l-11.12-11.12h0l11.12-11.12h0L249,582.5h0Z"/><path class="cls-1" d="M171.12,593.63h0L160,582.51h0l11.12-11.12h0l11.12,11.12h0Z"/><path class="cls-1" d="M148.87,593.63h0l-11.12-11.12h0l11.12-11.12h0L160,582.5h0Z"/><path class="cls-1" d="M215.62,549.13h0L204.49,538h0l11.12-11.12h0L226.74,538h0Z"/><path class="cls-1" d="M193.37,549.13h0L182.24,538h0l11.12-11.12h0L204.49,538h0Z"/><path class="cls-1" d="M171.12,549.13h0L160,538h0l11.12-11.12h0L182.24,538h0Z"/><path class="cls-1" d="M171.12,482.38h0L160,471.26h0l11.12-11.12h0l11.12,11.12h0Z"/><path class="cls-1" d="M371.37,415.63h0l-11.12-11.12h0l11.12-11.12h0l11.12,11.12h0Z"/><path class="cls-1" d="M393.62,415.63h0l-11.12-11.12h0l11.12-11.12h0l11.12,11.12h0Z"/><path class="cls-1" d="M349.12,282.12h0L338,271h0l11.12-11.12h0L360.24,271h0Z"/><path class="cls-1" d="M371.37,282.12h0L360.24,271h0l11.12-11.12h0L382.49,271h0Z"/><path class="cls-1" d="M393.62,282.12h0L382.49,271h0l11.12-11.12h0L404.74,271h0Z"/><path class="cls-1" d="M349.12,326.62h0L338,315.5h0l11.12-11.12h0l11.12,11.12h0Z"/><path class="cls-1" d="M371.37,326.62h0L360.24,315.5h0l11.12-11.12h0l11.12,11.12h0Z"/><path class="cls-1" d="M393.62,326.62h0L382.49,315.5h0l11.12-11.12h0l11.12,11.12h0Z"/><path class="cls-1" d="M415.87,282.12h0L404.74,271h0l11.12-11.12h0L427,271h0Z"/><path class="cls-1" d="M415.87,326.62h0L404.74,315.5h0l11.12-11.12h0L427,315.49h0Z"/><path class="cls-1" d="M438.12,282.12h0L427,271h0l11.12-11.12h0L449.24,271h0Z"/><path class="cls-1" d="M438.12,304.37h0L427,293.25h0l11.12-11.12h0l11.12,11.12h0Z"/><path class="cls-1" d="M438.12,326.62h0L427,315.5h0l11.12-11.12h0l11.12,11.12h0Z"/><path class="cls-1" d="M1261.89,593.63h0l-11.12-11.12h0l11.12-11.12h0L1273,582.5h0Z"/><path class="cls-1" d="M1284.14,593.63h0L1273,582.51h0l11.12-11.12h0l11.12,11.12h0Z"/><path class="cls-1" d="M1306.39,593.63h0l-11.12-11.12h0l11.12-11.12h0l11.12,11.12h0Z"/><path class="cls-1" d="M1328.64,593.63h0l-11.12-11.12h0l11.12-11.12h0l11.12,11.12h0Z"/><path class="cls-1" d="M1350.89,593.63h0l-11.12-11.12h0l11.12-11.12h0L1362,582.5h0Z"/><path class="cls-1" d="M1261.89,571.38h0l-11.12-11.12h0l11.12-11.12h0L1273,560.25h0Z"/><path class="cls-1" d="M1261.89,549.13h0L1250.76,538h0l11.12-11.12h0L1273,538h0Z"/><path class="cls-1" d="M1261.89,526.88h0l-11.12-11.12h0l11.12-11.12h0L1273,515.75h0Z"/><path class="cls-1" d="M1261.89,504.63h0l-11.12-11.12h0l11.12-11.12h0L1273,493.5h0Z"/><path class="cls-1" d="M1261.89,482.38h0l-11.12-11.12h0l11.12-11.12h0L1273,471.25h0Z"/><path class="cls-1" d="M1261.89,460.13h0L1250.76,449h0l11.12-11.12h0L1273,449h0Z"/><path class="cls-1" d="M1261.89,437.88h0l-11.12-11.12h0l11.12-11.12h0L1273,426.75h0Z"/><path class="cls-1" d="M1261.89,415.63h0l-11.12-11.12v0l11.12-11.12h0L1273,404.49v0Z"/><path class="cls-1" d="M1261.89,393.37h0l-11.12-11.11v0l11.12-11.12h0L1273,382.24h0Z"/><path class="cls-1" d="M1261.89,371.12h0L1250.76,360h0l11.12-11.12h0L1273,360h0Z"/><path class="cls-1" d="M1261.89,348.87h0l-11.12-11.12h0l11.12-11.12h0L1273,337.74h0Z"/><path class="cls-1" d="M1261.89,326.62h0l-11.12-11.12h0l11.12-11.12h0L1273,315.49h0Z"/><path class="cls-1" d="M1261.89,304.37h0l-11.12-11.12h0l11.12-11.12h0L1273,293.24h0Z"/><path class="cls-1" d="M1261.89,282.12h0L1250.76,271h0l11.12-11.12h0L1273,271h0Z"/><path class="cls-1" d="M1261.89,259.87h0l-11.12-11.12h0l11.12-11.12h0L1273,248.74h0Z"/><path class="cls-1" d="M1261.89,237.62h0l-11.12-11.12h0l11.12-11.12h0L1273,226.49h0Z"/><path class="cls-1" d="M1261.89,215.37h0l-11.12-11.12h0l11.12-11.12h0L1273,204.24h0Z"/><path class="cls-1" d="M1261.89,193.12h0L1250.76,182h0l11.12-11.12h0L1273,182h0Z"/><path class="cls-1" d="M1261.89,170.87h0l-11.12-11.12h0l11.12-11.12h0L1273,159.74h0Z"/><path class="cls-1" d="M1261.89,148.62h0l-11.12-11.12h0l11.12-11.12h0L1273,137.49h0Z"/><path class="cls-1" d="M1284.14,148.62h0L1273,137.5h0l11.12-11.12h0l11.12,11.12h0Z"/><path class="cls-1" d="M1306.39,148.62h0l-11.12-11.12h0l11.12-11.12h0l11.12,11.12h0Z"/><path class="cls-1" d="M1328.64,148.62h0l-11.12-11.12h0l11.12-11.12h0l11.12,11.12h0Z"/><path class="cls-1" d="M1350.89,148.62h0l-11.12-11.12h0l11.12-11.12h0L1362,137.49h0Z"/><path class="cls-1" d="M1373.14,148.62h0L1362,137.5h0l11.12-11.12h0l11.12,11.12h0Z"/><path class="cls-1" d="M1395.39,148.62h0l-11.12-11.12h0l11.12-11.12h0l11.12,11.12h0Z"/><path class="cls-1" d="M1417.64,148.62h0l-11.12-11.12h0l11.12-11.12h0l11.12,11.12h0Z"/><path class="cls-1" d="M1395.39,460.13h0L1384.26,449h0l11.12-11.12h0L1406.51,449h0Z"/><path class="cls-1" d="M1395.39,482.38h0l-11.12-11.12h0l11.12-11.12h0l11.12,11.12h0Z"/><path class="cls-1" d="M1395.39,504.63h0l-11.12-11.12h0l11.12-11.12h0l11.12,11.12h0Z"/><path class="cls-1" d="M1395.39,526.88h0l-11.12-11.12h0l11.12-11.12h0l11.12,11.12h0Z"/><path class="cls-1" d="M1395.39,549.13h0L1384.26,538h0l11.12-11.12h0L1406.51,538h0Z"/><path class="cls-1" d="M1395.39,571.38h0l-11.12-11.12h0l11.12-11.12h0l11.12,11.12h0Z"/><path class="cls-1" d="M1395.39,593.63h0l-11.12-11.12h0l11.12-11.12h0l11.12,11.12h0Z"/><path class="cls-1" d="M1417.64,593.63h0l-11.12-11.12h0l11.12-11.12h0l11.12,11.12h0Z"/><path class="cls-1" d="M1439.89,593.63h0l-11.12-11.12h0l11.12-11.12h0L1451,582.5h0Z"/><path class="cls-1" d="M1439.89,571.38h0l-11.12-11.12h0l11.12-11.12h0L1451,560.25h0Z"/><path class="cls-1" d="M1439.89,549.13h0L1428.76,538h0l11.12-11.12h0L1451,538h0Z"/><path class="cls-1" d="M1439.89,526.88h0l-11.12-11.12h0l11.12-11.12h0L1451,515.75h0Z"/><path class="cls-1" d="M1462.14,526.88h0L1451,515.76h0l11.12-11.12h0l11.12,11.12h0Z"/><path class="cls-1" d="M1484.39,526.88h0l-11.12-11.12h0l11.12-11.12h0l11.12,11.12h0Z"/><path class="cls-1" d="M1506.64,526.88h0l-11.12-11.12h0l11.12-11.12h0l11.12,11.12h0Z"/><path class="cls-1" d="M1528.89,526.88h0l-11.12-11.12h0l11.12-11.12h0L1540,515.75h0Z"/><path class="cls-1" d="M1528.89,504.63h0l-11.12-11.12h0l11.12-11.12h0L1540,493.5h0Z"/><path class="cls-1" d="M1528.89,482.38h0l-11.12-11.12h0l11.12-11.12h0L1540,471.25h0Z"/><path class="cls-1" d="M1506.64,482.38h0l-11.12-11.12h0l11.12-11.12h0l11.12,11.12h0Z"/><path class="cls-1" d="M1484.39,482.38h0l-11.12-11.12h0l11.12-11.12h0l11.12,11.12h0Z"/><path class="cls-1" d="M1484.39,460.13h0L1473.26,449h0l11.12-11.12h0L1495.51,449h0Z"/><path class="cls-1" d="M1484.39,437.88h0l-11.12-11.12h0l11.12-11.12h0l11.12,11.12h0Z"/><path class="cls-1" d="M1506.64,437.88h0l-11.12-11.12h0l11.12-11.12h0l11.12,11.12h0Z"/><path class="cls-1" d="M1528.89,437.88h0l-11.12-11.12h0l11.12-11.12h0L1540,426.75h0Z"/><path class="cls-1" d="M1551.14,437.88h0L1540,426.76h0l11.12-11.12h0l11.12,11.12h0Z"/><path class="cls-1" d="M1573.39,437.88h0l-11.12-11.12h0l11.12-11.12h0l11.12,11.12h0Z"/><path class="cls-1" d="M1484.39,393.37h0l-11.12-11.12h0l11.12-11.12h0l11.12,11.12h0Z"/><path class="cls-1" d="M1484.39,371.12h0L1473.26,360h0l11.12-11.12h0L1495.51,360h0Z"/><path class="cls-1" d="M1506.64,393.37h0l-11.12-11.12h0l11.12-11.12h0l11.12,11.12v0Z"/><path class="cls-1" d="M1528.89,393.37h0l-11.12-11.12h0l11.12-11.12h0L1540,382.24v0Z"/><path class="cls-1" d="M1551.14,393.38h0L1540,382.26v0l11.12-11.12h0l11.12,11.12h0Z"/><path class="cls-1" d="M1573.39,393.37h0l-11.12-11.11v0l11.12-11.12h0l11.12,11.12v0Z"/><path class="cls-1" d="M1573.39,415.63h0l-11.12-11.12h0l11.12-11.12h0l11.12,11.11v0Z"/><path class="cls-1" d="M1484.39,348.87h0l-11.12-11.12h0l11.12-11.12h0l11.12,11.12h0Z"/><path class="cls-1" d="M1506.64,348.87h0l-11.12-11.12h0l11.12-11.12h0l11.12,11.12h0Z"/><path class="cls-1" d="M1528.89,348.87h0l-11.12-11.12h0l11.12-11.12h0L1540,337.74h0Z"/><path class="cls-1" d="M1551.14,348.87h0L1540,337.75h0l11.12-11.12h0l11.12,11.12h0Z"/><path class="cls-1" d="M1573.39,348.87h0l-11.12-11.12h0l11.12-11.12h0l11.12,11.12h0Z"/><path class="cls-1" d="M1484.39,304.37h0l-11.12-11.12h0l11.12-11.12h0l11.12,11.12h0Z"/><path class="cls-1" d="M1484.39,282.12h0L1473.26,271h0l11.12-11.12h0L1495.51,271h0Z"/><path class="cls-1" d="M1484.39,259.87h0l-11.12-11.12h0l11.12-11.12h0l11.12,11.12h0Z"/><path class="cls-1" d="M1506.64,259.87h0l-11.12-11.12h0l11.12-11.12h0l11.12,11.12h0Z"/><path class="cls-1" d="M1528.89,259.87h0l-11.12-11.12h0l11.12-11.12h0L1540,248.74h0Z"/><path class="cls-1" d="M1528.89,237.62h0l-11.12-11.12h0l11.12-11.12h0L1540,226.49h0Z"/><path class="cls-1" d="M1528.89,215.37h0l-11.12-11.12h0l11.12-11.12h0L1540,204.24h0Z"/><path class="cls-1" d="M1506.64,215.37h0l-11.12-11.12h0l11.12-11.12h0l11.12,11.12h0Z"/><path class="cls-1" d="M1484.39,215.37h0l-11.12-11.12h0l11.12-11.12h0l11.12,11.12h0Z"/><path class="cls-1" d="M1462.14,215.37h0L1451,204.25h0l11.12-11.12h0l11.12,11.12h0Z"/><path class="cls-1" d="M1439.89,215.37h0l-11.12-11.12h0l11.12-11.12h0L1451,204.24h0Z"/><path class="cls-1" d="M1439.89,193.12h0L1428.76,182h0l11.12-11.12h0L1451,182h0Z"/><path class="cls-1" d="M1439.89,170.87h0l-11.12-11.12h0l11.12-11.12h0L1451,159.74h0Z"/><path class="cls-1" d="M1439.89,148.62h0l-11.12-11.12h0l11.12-11.12h0L1451,137.49h0Z"/><path class="cls-1" d="M1506.64,304.37h0l-11.12-11.12h0l11.12-11.12h0l11.12,11.12h0Z"/><path class="cls-1" d="M1528.89,304.37h0l-11.12-11.12h0l11.12-11.12h0L1540,293.24h0Z"/><path class="cls-1" d="M1551.14,304.37h0L1540,293.25h0l11.12-11.12h0l11.12,11.12h0Z"/><path class="cls-1" d="M1573.39,304.37h0l-11.12-11.12h0l11.12-11.12h0l11.12,11.12h0Z"/><path class="cls-1" d="M1573.39,326.62h0l-11.12-11.12h0l11.12-11.12h0l11.12,11.12h0Z"/><path class="cls-1" d="M1395.39,437.88h0l-11.12-11.12h0l11.12-11.12h0l11.12,11.12h0Z"/><path class="cls-1" d="M1395.39,415.63h0l-11.12-11.13h0l11.12-11.11h0l11.12,11.12h0Z"/><path class="cls-1" d="M1395.39,393.37h0l-11.12-11.12h0l11.12-11.12h0l11.12,11.12h0Z"/><path class="cls-1" d="M1395.39,371.12h0L1384.26,360h0l11.12-11.12h0L1406.51,360h0Z"/><path class="cls-1" d="M1395.39,348.87h0l-11.12-11.12h0l11.12-11.12h0l11.12,11.12h0Z"/><path class="cls-1" d="M1395.39,326.62h0l-11.12-11.12h0l11.12-11.12h0l11.12,11.12h0Z"/><path class="cls-1" d="M1395.39,304.37h0l-11.12-11.12h0l11.12-11.12h0l11.12,11.12h0Z"/><path class="cls-1" d="M1395.39,282.12h0L1384.26,271h0l11.12-11.12h0L1406.51,271h0Z"/><path class="cls-1" d="M1395.39,259.87h0l-11.12-11.12h0l11.12-11.12h0l11.12,11.12h0Z"/><path class="cls-1" d="M1395.39,237.62h0l-11.12-11.12h0l11.12-11.12h0l11.12,11.12h0Z"/><path class="cls-1" d="M1395.39,215.37h0l-11.12-11.12h0l11.12-11.12h0l11.12,11.12h0Z"/><path class="cls-1" d="M1395.39,193.12h0L1384.26,182h0l11.12-11.12h0L1406.51,182h0Z"/><path class="cls-1" d="M1373.14,193.12h0L1362,182h0l11.12-11.12h0L1384.26,182h0Z"/><path class="cls-1" d="M1350.89,193.12h0L1339.76,182h0l11.12-11.12h0L1362,182h0Z"/><path class="cls-1" d="M1328.64,193.12h0L1317.51,182h0l11.12-11.12h0L1339.76,182h0Z"/><path class="cls-1" d="M1306.39,193.12h0L1295.26,182h0l11.12-11.12h0L1317.51,182h0Z"/><path class="cls-1" d="M1350.89,237.62h0l-11.12-11.12h0l11.12-11.12h0L1362,226.49h0Z"/><path class="cls-1" d="M1350.89,259.87h0l-11.12-11.12h0l11.12-11.12h0L1362,248.74h0Z"/><path class="cls-1" d="M1328.64,237.62h0l-11.12-11.12h0l11.12-11.12h0l11.12,11.12h0Z"/><path class="cls-1" d="M1306.39,237.62h0l-11.12-11.12h0l11.12-11.12h0l11.12,11.12h0Z"/><path class="cls-1" d="M1350.89,282.12h0L1339.76,271h0l11.12-11.12h0L1362,271h0Z"/><path class="cls-1" d="M1328.64,282.12h0L1317.51,271h0l11.12-11.12h0L1339.76,271h0Z"/><path class="cls-1" d="M1306.39,282.12h0L1295.26,271h0l11.12-11.12h0L1317.51,271h0Z"/><path class="cls-1" d="M1306.39,215.37h0l-11.12-11.12h0l11.12-11.12h0l11.12,11.12h0Z"/><path class="cls-1" d="M1350.89,326.62h0l-11.12-11.12h0l11.12-11.12h0L1362,315.49h0Z"/><path class="cls-1" d="M1350.89,348.87h0l-11.12-11.12h0l11.12-11.12h0L1362,337.74h0Z"/><path class="cls-1" d="M1328.64,326.62h0l-11.12-11.12h0l11.12-11.12h0l11.12,11.12h0Z"/><path class="cls-1" d="M1306.39,326.62h0l-11.12-11.12h0l11.12-11.12h0l11.12,11.12h0Z"/><path class="cls-1" d="M1350.89,371.12h0L1339.76,360h0l11.12-11.12h0L1362,360h0Z"/><path class="cls-1" d="M1328.64,371.12h0L1317.51,360h0l11.12-11.12h0L1339.76,360h0Z"/><path class="cls-1" d="M1306.39,371.12h0L1295.26,360h0l11.12-11.12h0L1317.51,360h0Z"/><path class="cls-1" d="M1350.89,460.13h0L1339.76,449h0l11.12-11.12h0L1362,449h0Z"/><path class="cls-1" d="M1328.64,460.13h0L1317.51,449h0l11.12-11.12h0L1339.76,449h0Z"/><path class="cls-1" d="M1306.39,460.13h0L1295.26,449h0l11.12-11.12h0L1317.51,449h0Z"/><path class="cls-1" d="M1306.39,304.37h0l-11.12-11.12h0l11.12-11.12h0l11.12,11.12h0Z"/><path class="cls-1" d="M1350.89,415.63h0l-11.12-11.12h0l11.12-11.13h0L1362,404.49v0Z"/><path class="cls-1" d="M1350.89,437.88h0l-11.12-11.12h0l11.12-11.12h0L1362,426.75h0Z"/><path class="cls-1" d="M1328.64,415.63h0l-11.12-11.12v0l11.12-11.12h0l11.12,11.12v0Z"/><path class="cls-1" d="M1306.39,415.63h0l-11.12-11.12v0l11.12-11.11h0l11.12,11.11v0Z"/><path class="cls-1" d="M1306.39,393.37h0l-11.12-11.12h0l11.12-11.12h0l11.12,11.12h0Z"/><path class="cls-1" d="M1350.89,504.63h0l-11.12-11.12h0l11.12-11.12h0L1362,493.5h0Z"/><path class="cls-1" d="M1350.89,526.88h0l-11.12-11.12h0l11.12-11.12h0L1362,515.75h0Z"/><path class="cls-1" d="M1328.64,504.63h0l-11.12-11.12h0l11.12-11.12h0l11.12,11.12h0Z"/><path class="cls-1" d="M1306.39,504.63h0l-11.12-11.12h0l11.12-11.12h0l11.12,11.12h0Z"/><path class="cls-1" d="M1350.89,549.13h0L1339.76,538h0l11.12-11.12h0L1362,538h0Z"/><path class="cls-1" d="M1328.64,549.13h0L1317.51,538h0l11.12-11.12h0L1339.76,538h0Z"/><path class="cls-1" d="M1306.39,549.13h0L1295.26,538h0l11.12-11.12h0L1317.51,538h0Z"/><path class="cls-1" d="M1306.39,482.38h0l-11.12-11.12h0l11.12-11.12h0l11.12,11.12h0Z"/><path class="cls-1" d="M882.12,593.63h0L871,582.51h0l11.12-11.12h0l11.12,11.12h0Z"/><path class="cls-1" d="M904.37,593.63h0l-11.12-11.12h0l11.12-11.12h0l11.12,11.12h0Z"/><path class="cls-1" d="M926.62,593.63h0l-11.12-11.12h0l11.12-11.12h0l11.12,11.12h0Z"/><path class="cls-1" d="M948.87,593.63h0l-11.12-11.12h0l11.12-11.12h0L960,582.5h0Z"/><path class="cls-1" d="M971.12,593.63h0L960,582.51h0l11.12-11.12h0l11.12,11.12h0Z"/><path class="cls-1" d="M882.12,571.38h0L871,560.26h0l11.12-11.12h0l11.12,11.12h0Z"/><path class="cls-1" d="M882.12,549.13h0L871,538h0l11.12-11.12h0L893.24,538h0Z"/><path class="cls-1" d="M882.12,526.88h0L871,515.76h0l11.12-11.12h0l11.12,11.12h0Z"/><path class="cls-1" d="M882.12,504.63h0L871,493.51h0l11.12-11.12h0l11.12,11.12h0Z"/><path class="cls-1" d="M882.12,482.38h0L871,471.26h0l11.12-11.12h0l11.12,11.12h0Z"/><path class="cls-1" d="M882.12,460.13h0L871,449h0l11.12-11.12h0L893.24,449h0Z"/><path class="cls-1" d="M882.12,437.88h0L871,426.76h0l11.12-11.12h0l11.12,11.12h0Z"/><path class="cls-1" d="M882.12,415.63h0L871,404.51h0l11.12-11.12h0l11.12,11.12h0Z"/><path class="cls-1" d="M882.12,393.38h0L871,382.26h0l11.12-11.12h0l11.12,11.12h0Z"/><path class="cls-1" d="M882.12,371.13h0L871,360v0l11.12-11.12h0L893.24,360v0Z"/><path class="cls-1" d="M882.12,348.87h0L871,337.75h0l11.12-11.12h0l11.12,11.12h0Z"/><path class="cls-1" d="M882.12,326.62h0L871,315.5h0l11.12-11.12h0l11.12,11.12h0Z"/><path class="cls-1" d="M882.12,304.37h0L871,293.25h0l11.12-11.12h0l11.12,11.12h0Z"/><path class="cls-1" d="M882.12,282.12h0L871,271h0l11.12-11.12h0L893.24,271h0Z"/><path class="cls-1" d="M882.12,259.87h0L871,248.75h0l11.12-11.12h0l11.12,11.12h0Z"/><path class="cls-1" d="M882.12,237.62h0L871,226.5h0l11.12-11.12h0l11.12,11.12h0Z"/><path class="cls-1" d="M882.12,215.37h0L871,204.25h0l11.12-11.12h0l11.12,11.12h0Z"/><path class="cls-1" d="M882.12,193.12h0L871,182h0l11.12-11.12h0L893.24,182h0Z"/><path class="cls-1" d="M882.12,170.87h0L871,159.75h0l11.12-11.12h0l11.12,11.12h0Z"/><path class="cls-1" d="M882.12,148.62h0L871,137.5h0l11.12-11.12h0l11.12,11.12h0Z"/><path class="cls-1" d="M904.37,148.62h0L893.24,137.5h0l11.12-11.12h0l11.12,11.12h0Z"/><path class="cls-1" d="M926.62,148.62h0L915.49,137.5h0l11.12-11.12h0l11.12,11.12h0Z"/><path class="cls-1" d="M948.87,148.62h0L937.74,137.5h0l11.12-11.12h0L960,137.49h0Z"/><path class="cls-1" d="M971.12,148.62h0L960,137.5h0l11.12-11.12h0l11.12,11.12h0Z"/><path class="cls-1" d="M971.12,170.87h0L960,159.75h0l11.12-11.12h0l11.12,11.12h0Z"/><path class="cls-1" d="M971.12,193.12h0L960,182h0l11.12-11.12h0L982.24,182h0Z"/><path class="cls-1" d="M948.87,193.12h0L937.74,182h0l11.12-11.12h0L960,182h0Z"/><path class="cls-1" d="M926.62,193.12h0L915.49,182h0l11.12-11.12h0L937.74,182h0Z"/><path class="cls-1" d="M926.62,215.37h0l-11.12-11.12h0l11.12-11.12h0l11.12,11.12h0Z"/><path class="cls-1" d="M926.62,237.62h0L915.49,226.5h0l11.12-11.12h0l11.12,11.12h0Z"/><path class="cls-1" d="M926.62,282.12h0L915.49,271h0l11.12-11.12h0L937.74,271h0Z"/><path class="cls-1" d="M926.62,304.37h0l-11.12-11.12h0l11.12-11.12h0l11.12,11.12h0Z"/><path class="cls-1" d="M926.62,326.62h0L915.49,315.5h0l11.12-11.12h0l11.12,11.12h0Z"/><path class="cls-1" d="M926.62,348.87h0l-11.12-11.12h0l11.12-11.12h0l11.12,11.12h0Z"/><path class="cls-1" d="M926.62,371.12h0L915.49,360h0l11.12-11.12h0L937.74,360h0Z"/><path class="cls-1" d="M948.87,371.12h0L937.74,360h0l11.12-11.12h0L960,360h0Z"/><path class="cls-1" d="M971.12,371.12h0L960,360h0l11.12-11.12h0L982.24,360h0Z"/><path class="cls-1" d="M971.12,393.37h0L960,382.25h0l11.12-11.12h0l11.12,11.12h0Z"/><path class="cls-1" d="M971.12,415.62h0L960,404.5h0l11.12-11.12h0l11.12,11.12h0Z"/><path class="cls-1" d="M948.87,415.62h0L937.74,404.5h0l11.12-11.12h0L960,404.49h0Z"/><path class="cls-1" d="M926.62,415.62h0L915.49,404.5h0l11.12-11.12h0l11.12,11.12h0Z"/><path class="cls-1" d="M926.62,437.87h0l-11.12-11.12h0l11.12-11.12h0l11.12,11.12h0Z"/><path class="cls-1" d="M926.62,460.12h0L915.49,449h0l11.12-11.12h0L937.74,449h0Z"/><path class="cls-1" d="M948.87,460.12h0L937.74,449h0l11.12-11.12h0L960,449h0Z"/><path class="cls-1" d="M971.12,460.12h0L960,449h0l11.12-11.12h0L982.24,449h0Z"/><path class="cls-1" d="M971.12,482.37h0L960,471.25h0l11.12-11.12h0l11.12,11.12h0Z"/><path class="cls-1" d="M971.12,504.62h0L960,493.5h0l11.12-11.12h0l11.12,11.12h0Z"/><path class="cls-1" d="M948.87,504.62h0L937.74,493.5h0l11.12-11.12h0L960,493.49h0Z"/><path class="cls-1" d="M926.62,504.62h0L915.49,493.5h0l11.12-11.12h0l11.12,11.12h0Z"/><path class="cls-1" d="M926.62,526.88h0l-11.12-11.12h0l11.12-11.12h0l11.12,11.12h0Z"/><path class="cls-1" d="M926.62,549.13h0L915.49,538h0l11.12-11.12h0L937.74,538h0Z"/><path class="cls-1" d="M948.87,549.13h0L937.74,538h0l11.12-11.12h0L960,538h0Z"/><path class="cls-1" d="M971.12,549.13h0L960,538h0l11.12-11.12h0L982.24,538h0Z"/><path class="cls-1" d="M971.12,571.37h0L960,560.25h0l11.12-11.12h0l11.12,11.12h0Z"/><path class="cls-1" d="M948.87,237.62h0L937.74,226.5h0l11.12-11.12h0L960,226.49h0Z"/><path class="cls-1" d="M971.12,237.62h0L960,226.5h0l11.12-11.12h0l11.12,11.12h0Z"/><path class="cls-1" d="M993.37,237.62h0L982.24,226.5h0l11.12-11.12h0l11.12,11.12h0Z"/><path class="cls-1" d="M1015.62,237.62h0l-11.12-11.12h0l11.12-11.12h0l11.12,11.12h0Z"/><path class="cls-1" d="M1015.62,259.87h0l-11.12-11.12h0l11.12-11.12h0l11.12,11.12h0Z"/><path class="cls-1" d="M1015.62,282.13h0L1004.49,271h0l11.12-11.12h0L1026.74,271h0Z"/><path class="cls-1" d="M993.37,282.13h0L982.24,271h0l11.12-11.12h0L1004.49,271h0Z"/><path class="cls-1" d="M971.12,282.13h0L960,271h0l11.12-11.12h0L982.24,271h0Z"/><path class="cls-1" d="M971.12,304.37h0L960,293.25h0l11.12-11.12h0l11.12,11.12h0Z"/><path class="cls-1" d="M971.12,326.62h0L960,315.5h0l11.12-11.12h0l11.12,11.12h0Z"/><path class="cls-1" d="M993.37,326.62h0L982.24,315.5h0l11.12-11.12h0l11.12,11.12h0Z"/><path class="cls-1" d="M1015.62,326.62h0l-11.12-11.12h0l11.12-11.12h0l11.12,11.12h0Z"/><path class="cls-1" d="M1037.87,326.62h0l-11.12-11.12h0l11.12-11.12h0L1049,315.49h0Z"/><path class="cls-1" d="M1060.12,326.62h0L1049,315.5h0l11.12-11.12h0l11.12,11.12h0Z"/><path class="cls-1" d="M1060.12,348.88h0L1049,337.76v0l11.12-11.11h0l11.12,11.12h0Z"/><path class="cls-1" d="M1060.12,371.13h0L1049,360h0l11.12-11.12h0L1071.24,360h0Z"/><path class="cls-1" d="M1037.87,371.13h0L1026.74,360h0l11.12-11.12h0L1049,360h0Z"/><path class="cls-1" d="M1015.62,371.13h0L1004.49,360h0l11.12-11.12h0L1026.74,360h0Z"/><path class="cls-1" d="M1015.62,393.38h0l-11.12-11.12h0l11.12-11.12h0l11.12,11.12h0Z"/><path class="cls-1" d="M1015.62,415.62h0l-11.12-11.12h0l11.12-11.12h0l11.12,11.12h0Z"/><path class="cls-1" d="M1037.87,415.62h0l-11.12-11.12h0l11.12-11.12h0L1049,404.49h0Z"/><path class="cls-1" d="M1060.12,415.62h0L1049,404.5h0l11.12-11.12h0l11.12,11.12h0Z"/><path class="cls-1" d="M1082.37,415.62h0l-11.12-11.12h0l11.12-11.12h0l11.12,11.12h0Z"/><path class="cls-1" d="M1104.62,415.62h0l-11.12-11.12h0l11.12-11.12h0l11.12,11.12h0Z"/><path class="cls-1" d="M1104.62,437.87h0l-11.12-11.12h0l11.12-11.12h0l11.12,11.12h0Z"/><path class="cls-1" d="M1104.62,460.13h0L1093.49,449h0l11.12-11.12h0L1115.74,449h0Z"/><path class="cls-1" d="M1082.37,460.13h0L1071.24,449h0l11.12-11.12h0L1093.49,449h0Z"/><path class="cls-1" d="M1060.12,460.13h0L1049,449h0l11.12-11.12h0L1071.24,449h0Z"/><path class="cls-1" d="M1060.12,482.37h0L1049,471.25h0l11.12-11.12h0l11.12,11.12h0Z"/><path class="cls-1" d="M1060.12,504.62h0L1049,493.5h0l11.12-11.12h0l11.12,11.12h0Z"/><path class="cls-1" d="M1082.37,504.62h0l-11.12-11.12h0l11.12-11.12h0l11.12,11.12h0Z"/><path class="cls-1" d="M1104.62,504.62h0l-11.12-11.12h0l11.12-11.12h0l11.12,11.12h0Z"/><path class="cls-1" d="M1126.87,504.62h0l-11.12-11.12h0l11.12-11.12h0L1138,493.49h0Z"/><path class="cls-1" d="M1149.12,504.62h0L1138,493.5h0l11.12-11.12h0l11.12,11.12h0Z"/><path class="cls-1" d="M1149.12,526.88h0L1138,515.76h0l11.12-11.12h0l11.12,11.12h0Z"/><path class="cls-1" d="M1149.12,549.13h0L1138,538h0l11.12-11.12h0L1160.24,538h0Z"/><path class="cls-1" d="M1126.87,549.13h0L1115.74,538h0l11.12-11.12h0L1138,538h0Z"/><path class="cls-1" d="M1104.62,549.13h0L1093.49,538h0l11.12-11.12h0L1115.74,538h0Z"/><path class="cls-1" d="M1104.62,571.37h0l-11.12-11.12h0l11.12-11.12h0l11.12,11.12h0Z"/><path class="cls-1" d="M1193.61,593.63h0l11.12-11.12h0l-11.12-11.12h0l-11.12,11.12h0Z"/><path class="cls-1" d="M1171.36,593.63h0l11.12-11.12h0l-11.12-11.12h0l-11.12,11.12h0Z"/><path class="cls-1" d="M1149.11,593.63h0l11.12-11.12h0l-11.12-11.12h0L1138,582.5h0Z"/><path class="cls-1" d="M1126.86,593.63h0L1138,582.51h0l-11.12-11.12h0l-11.12,11.12h0Z"/><path class="cls-1" d="M1104.61,593.63h0l11.12-11.12h0l-11.12-11.12h0l-11.12,11.12h0Z"/><path class="cls-1" d="M1193.61,571.38h0l11.12-11.12h0l-11.12-11.12h0l-11.12,11.12h0Z"/><path class="cls-1" d="M1193.61,549.13h0L1204.74,538h0l-11.12-11.12h0L1182.49,538h0Z"/><path class="cls-1" d="M1193.61,526.88h0l11.12-11.12h0l-11.12-11.12h0l-11.12,11.12h0Z"/><path class="cls-1" d="M1193.61,504.63h0l11.12-11.12h0l-11.12-11.12h0l-11.12,11.12h0Z"/><path class="cls-1" d="M1193.61,482.38h0l11.12-11.12h0l-11.12-11.12h0l-11.12,11.12h0Z"/><path class="cls-1" d="M1193.61,460.13h0L1204.74,449h0l-11.12-11.12h0L1182.49,449h0Z"/><path class="cls-1" d="M1193.61,437.88h0l11.12-11.12h0l-11.12-11.12h0l-11.12,11.12h0Z"/><path class="cls-1" d="M1193.61,415.63h0l11.12-11.12h0l-11.12-11.12h0l-11.12,11.12h0Z"/><path class="cls-1" d="M1193.61,393.38h0l11.12-11.12h0l-11.12-11.12h0l-11.12,11.12h0Z"/><path class="cls-1" d="M1193.61,371.13h0L1204.74,360h0l-11.12-11.12h0L1182.49,360h0Z"/><path class="cls-1" d="M1193.61,348.88h0l11.12-11.12v0l-11.12-11.11h0l-11.12,11.12h0Z"/><path class="cls-1" d="M1193.61,326.63h0l11.12-11.12v0l-11.12-11.12h0l-11.12,11.12v0Z"/><path class="cls-1" d="M1193.61,304.37h0l11.12-11.11v0l-11.12-11.12h0l-11.12,11.12h0Z"/><path class="cls-1" d="M1193.61,282.12h0L1204.74,271h0l-11.12-11.12h0L1182.49,271h0Z"/><path class="cls-1" d="M1193.61,259.87h0l11.12-11.12h0l-11.12-11.12h0l-11.12,11.12h0Z"/><path class="cls-1" d="M1193.61,237.62h0l11.12-11.12h0l-11.12-11.12h0l-11.12,11.12h0Z"/><path class="cls-1" d="M1193.61,215.37h0l11.12-11.12h0l-11.12-11.12h0l-11.12,11.12h0Z"/><path class="cls-1" d="M1193.61,193.12h0L1204.74,182h0l-11.12-11.12h0L1182.49,182h0Z"/><path class="cls-1" d="M1193.61,170.87h0l11.12-11.12h0l-11.12-11.12h0l-11.12,11.12h0Z"/><path class="cls-1" d="M1193.61,148.62h0l11.12-11.12h0l-11.12-11.12h0l-11.12,11.12h0Z"/><path class="cls-1" d="M1171.36,148.62h0l11.12-11.12h0l-11.12-11.12h0l-11.12,11.12h0Z"/><path class="cls-1" d="M1149.11,148.62h0l11.12-11.12h0l-11.12-11.12h0L1138,137.49h0Z"/><path class="cls-1" d="M1126.86,148.62h0L1138,137.5h0l-11.12-11.12h0l-11.12,11.12h0Z"/><path class="cls-1" d="M1104.61,148.62h0l11.12-11.12h0l-11.12-11.12h0l-11.12,11.12h0Z"/><path class="cls-1" d="M1104.61,170.87h0l11.12-11.12h0l-11.12-11.12h0l-11.12,11.12h0Z"/><path class="cls-1" d="M1104.61,193.12h0L1115.74,182h0l-11.12-11.12h0L1093.49,182h0Z"/><path class="cls-1" d="M1126.86,193.12h0L1138,182h0l-11.12-11.12h0L1115.74,182h0Z"/><path class="cls-1" d="M1149.11,193.12h0L1160.24,182h0l-11.12-11.12h0L1138,182h0Z"/><path class="cls-1" d="M1149.11,215.37h0l11.12-11.12h0l-11.12-11.12h0L1138,204.24h0Z"/><path class="cls-1" d="M1149.11,237.62h0l11.12-11.12h0l-11.12-11.12h0L1138,226.49h0Z"/><path class="cls-1" d="M1126.86,237.62h0L1138,226.5h0l-11.12-11.12h0l-11.12,11.12h0Z"/><path class="cls-1" d="M1104.61,237.62h0l11.12-11.12h0l-11.12-11.12h0l-11.12,11.12h0Z"/><path class="cls-1" d="M1104.61,259.87h0l11.12-11.12h0l-11.12-11.12h0l-11.12,11.12h0Z"/><path class="cls-1" d="M1104.61,282.13h0L1115.74,271h0l-11.12-11.12h0L1093.49,271h0Z"/><path class="cls-1" d="M1126.86,282.13h0L1138,271h0l-11.12-11.12h0L1115.74,271h0Z"/><path class="cls-1" d="M1149.11,282.13h0L1160.24,271h0l-11.12-11.12h0L1138,271h0Z"/><path class="cls-1" d="M1149.11,304.37h0l11.12-11.12h0l-11.12-11.12h0L1138,293.24h0Z"/><path class="cls-1" d="M1149.11,326.62h0l11.12-11.12h0l-11.12-11.12h0L1138,315.49h0Z"/><path class="cls-1" d="M1126.86,326.62h0L1138,315.5h0l-11.12-11.12h0l-11.12,11.12h0Z"/><path class="cls-1" d="M1104.61,326.62h0l11.12-11.12h0l-11.12-11.12h0l-11.12,11.12h0Z"/><path class="cls-1" d="M1104.61,348.87h0l11.12-11.12h0l-11.12-11.12h0l-11.12,11.12h0Z"/><path class="cls-1" d="M1104.61,371.12h0L1115.74,360h0l-11.12-11.12h0L1093.49,360h0Z"/><path class="cls-1" d="M1126.86,371.12h0L1138,360h0l-11.12-11.12h0L1115.74,360h0Z"/><path class="cls-1" d="M1149.11,371.12h0L1160.24,360h0l-11.12-11.12h0L1138,360h0Z"/><path class="cls-1" d="M1149.11,393.37h0l11.12-11.12h0l-11.12-11.12h0L1138,382.24h0Z"/><path class="cls-1" d="M1149.11,415.63h0l11.12-11.12h0l-11.12-11.12h0L1138,404.5h0Z"/><path class="cls-1" d="M1149.11,437.88h0l11.12-11.12h0l-11.12-11.12h0L1138,426.75h0Z"/><path class="cls-1" d="M1149.11,460.13h0L1160.24,449h0l-11.12-11.12h0L1138,449h0Z"/><path class="cls-1" d="M637.87,148.62h0L626.74,137.5h0l11.12-11.12h0L649,137.49h0Z"/><path class="cls-1" d="M637.87,170.87h0l-11.12-11.12h0l11.12-11.12h0L649,159.74h0Z"/><path class="cls-1" d="M637.87,193.12h0L626.74,182h0l11.12-11.12h0L649,182h0Z"/><path class="cls-1" d="M637.87,215.37h0l-11.12-11.12h0l11.12-11.12h0L649,204.24h0Z"/><path class="cls-1" d="M615.62,215.37h0l-11.12-11.12h0l11.12-11.12h0l11.12,11.12h0Z"/><path class="cls-1" d="M593.37,215.37h0l-11.12-11.12h0l11.12-11.12h0l11.12,11.12h0Z"/><path class="cls-1" d="M571.12,215.37h0L560,204.25h0l11.12-11.12h0l11.12,11.12h0Z"/><path class="cls-1" d="M548.87,215.37h0l-11.12-11.12h0l11.12-11.12h0L560,204.24h0Z"/><path class="cls-1" d="M548.87,237.62h0L537.74,226.5h0l11.12-11.12h0L560,226.49h0Z"/><path class="cls-1" d="M548.87,259.87h0l-11.12-11.12h0l11.12-11.12h0L560,248.74h0Z"/><path class="cls-1" d="M571.12,259.87h0L560,248.75h0l11.12-11.12h0l11.12,11.12h0Z"/><path class="cls-1" d="M593.37,259.87h0l-11.12-11.12h0l11.12-11.12h0l11.12,11.12h0Z"/><path class="cls-1" d="M593.37,282.12h0L582.24,271h0l11.12-11.12h0L604.49,271h0Z"/><path class="cls-1" d="M593.37,304.37h0l-11.12-11.12h0l11.12-11.12h0l11.12,11.12h0Z"/><path class="cls-1" d="M571.12,304.37h0L560,293.25h0l11.12-11.12h0l11.12,11.12h0Z"/><path class="cls-1" d="M548.87,304.37h0l-11.12-11.12h0l11.12-11.12h0L560,293.24h0Z"/><path class="cls-1" d="M526.62,304.37h0l-11.12-11.12h0l11.12-11.12h0l11.12,11.12h0Z"/><path class="cls-1" d="M504.37,304.37h0l-11.12-11.12h0l11.12-11.12h0l11.12,11.12h0Z"/><path class="cls-1" d="M504.37,326.62h0L493.24,315.5h0l11.12-11.12h0l11.12,11.12h0Z"/><path class="cls-1" d="M504.37,348.87h0l-11.12-11.12h0l11.12-11.12h0l11.12,11.12h0Z"/><path class="cls-1" d="M526.62,348.87h0l-11.12-11.12h0l11.12-11.12h0l11.12,11.12h0Z"/><path class="cls-1" d="M548.87,348.87h0l-11.12-11.12h0l11.12-11.12h0L560,337.74h0Z"/><path class="cls-1" d="M548.87,371.13h0L537.74,360v0l11.12-11.12h0L560,360v0Z"/><path class="cls-1" d="M548.87,393.38h0l-11.12-11.12h0l11.12-11.12h0L560,382.25h0Z"/><path class="cls-1" d="M526.62,393.38h0l-11.12-11.12h0l11.12-11.12h0l11.12,11.12h0Z"/><path class="cls-1" d="M504.37,393.38h0l-11.12-11.12h0l11.12-11.12h0l11.12,11.12h0Z"/><path class="cls-1" d="M504.37,415.63h0l-11.12-11.12h0l11.12-11.12h0l11.12,11.12h0Z"/><path class="cls-1" d="M504.37,437.88h0l-11.12-11.12h0l11.12-11.12h0l11.12,11.12h0Z"/><path class="cls-1" d="M526.62,437.88h0l-11.12-11.12h0l11.12-11.12h0l11.12,11.12h0Z"/><path class="cls-1" d="M548.87,437.88h0l-11.12-11.12h0l11.12-11.12h0L560,426.75h0Z"/><path class="cls-1" d="M571.12,437.88h0L560,426.76h0l11.12-11.12h0l11.12,11.12h0Z"/><path class="cls-1" d="M593.37,437.88h0l-11.12-11.12h0l11.12-11.12h0l11.12,11.12h0Z"/><path class="cls-1" d="M593.37,460.13h0L582.24,449h0l11.12-11.12h0L604.49,449h0Z"/><path class="cls-1" d="M593.37,482.38h0l-11.12-11.12h0l11.12-11.12h0l11.12,11.12h0Z"/><path class="cls-1" d="M571.12,482.38h0L560,471.26h0l11.12-11.12h0l11.12,11.12h0Z"/><path class="cls-1" d="M548.87,482.38h0l-11.12-11.12h0l11.12-11.12h0L560,471.25h0Z"/><path class="cls-1" d="M548.87,504.63h0l-11.12-11.12h0l11.12-11.12h0L560,493.5h0Z"/><path class="cls-1" d="M548.87,526.88h0l-11.12-11.12h0l11.12-11.12h0L560,515.75h0Z"/><path class="cls-1" d="M571.12,526.88h0L560,515.76h0l11.12-11.12h0l11.12,11.12h0Z"/><path class="cls-1" d="M593.37,526.88h0l-11.12-11.12h0l11.12-11.12h0l11.12,11.12h0Z"/><path class="cls-1" d="M615.62,526.88h0l-11.12-11.12h0l11.12-11.12h0l11.12,11.12h0Z"/><path class="cls-1" d="M637.87,526.88h0l-11.12-11.12h0l11.12-11.12h0L649,515.75h0Z"/><path class="cls-1" d="M637.87,549.13h0L626.74,538h0l11.12-11.12h0L649,538h0Z"/><path class="cls-1" d="M637.87,571.38h0l-11.12-11.12h0l11.12-11.12h0L649,560.25h0Z"/><path class="cls-1" d="M637.87,593.63h0l-11.12-11.12h0l11.12-11.12h0L649,582.5h0Z"/><path class="cls-1" d="M660.12,593.63h0L649,582.51h0l11.12-11.12h0l11.12,11.12h0Z"/><path class="cls-1" d="M682.37,593.63h0l-11.12-11.12h0l11.12-11.12h0l11.12,11.12h0Z"/><path class="cls-1" d="M682.37,571.38h0l-11.12-11.12h0l11.12-11.12h0l11.12,11.12h0Z"/><path class="cls-1" d="M682.37,549.13h0L671.24,538h0l11.12-11.12h0L693.49,538h0Z"/><path class="cls-1" d="M682.37,526.88h0l-11.12-11.12h0l11.12-11.12h0l11.12,11.12h0Z"/><path class="cls-1" d="M704.62,526.88h0l-11.12-11.12h0l11.12-11.12h0l11.12,11.12h0Z"/><path class="cls-1" d="M726.87,526.88h0l-11.12-11.12h0l11.12-11.12h0L738,515.75h0Z"/><path class="cls-1" d="M749.12,526.88h0L738,515.76h0l11.12-11.12h0l11.12,11.12h0Z"/><path class="cls-1" d="M771.37,526.88h0l-11.12-11.12h0l11.12-11.12h0l11.12,11.12h0Z"/><path class="cls-1" d="M771.37,504.63h0l-11.12-11.12h0l11.12-11.12h0l11.12,11.12h0Z"/><path class="cls-1" d="M771.37,482.38h0l-11.12-11.12h0l11.12-11.12h0l11.12,11.12h0Z"/><path class="cls-1" d="M749.12,482.38h0L738,471.26h0l11.12-11.12h0l11.12,11.12h0Z"/><path class="cls-1" d="M726.87,482.38h0l-11.12-11.12h0l11.12-11.12h0L738,471.25h0Z"/><path class="cls-1" d="M726.87,460.13h0L715.74,449h0l11.12-11.12h0L738,449h0Z"/><path class="cls-1" d="M726.87,437.88h0l-11.12-11.12h0l11.12-11.12h0L738,426.75h0Z"/><path class="cls-1" d="M749.12,437.88h0L738,426.76h0l11.12-11.12h0l11.12,11.12h0Z"/><path class="cls-1" d="M771.37,437.88h0l-11.12-11.12h0l11.12-11.12h0l11.12,11.12h0Z"/><path class="cls-1" d="M793.62,437.88h0l-11.12-11.12h0l11.12-11.12h0l11.12,11.12h0Z"/><path class="cls-1" d="M815.87,437.88h0l-11.12-11.12h0l11.12-11.12h0L827,426.75h0Z"/><path class="cls-1" d="M815.87,415.63h0l-11.12-11.12h0l11.12-11.12h0L827,404.5h0Z"/><path class="cls-1" d="M815.87,393.38h0l-11.12-11.12h0l11.12-11.12h0L827,382.25h0Z"/><path class="cls-1" d="M793.62,393.38h0l-11.12-11.12h0l11.12-11.12h0l11.12,11.12h0Z"/><path class="cls-1" d="M771.37,393.38h0l-11.12-11.12h0l11.12-11.12h0l11.12,11.12h0Z"/><path class="cls-1" d="M771.37,371.13h0L760.24,360v0l11.12-11.12h0L782.49,360v0Z"/><path class="cls-1" d="M771.37,348.87h0l-11.12-11.12h0l11.12-11.12h0l11.12,11.12h0Z"/><path class="cls-1" d="M793.62,348.87h0l-11.12-11.12h0l11.12-11.12h0l11.12,11.12h0Z"/><path class="cls-1" d="M815.87,348.87h0l-11.12-11.12h0l11.12-11.12h0L827,337.74h0Z"/><path class="cls-1" d="M815.87,326.62h0L804.74,315.5h0l11.12-11.12h0L827,315.49h0Z"/><path class="cls-1" d="M815.87,304.37h0l-11.12-11.12h0l11.12-11.12h0L827,293.24h0Z"/><path class="cls-1" d="M793.62,304.37h0l-11.12-11.12h0l11.12-11.12h0l11.12,11.12h0Z"/><path class="cls-1" d="M771.37,304.37h0l-11.12-11.12h0l11.12-11.12h0l11.12,11.12h0Z"/><path class="cls-1" d="M749.12,304.37h0L738,293.25h0l11.12-11.12h0l11.12,11.12h0Z"/><path class="cls-1" d="M726.87,304.37h0l-11.12-11.12h0l11.12-11.12h0L738,293.24h0Z"/><path class="cls-1" d="M726.87,282.12h0L715.74,271h0l11.12-11.12h0L738,271h0Z"/><path class="cls-1" d="M726.87,259.87h0l-11.12-11.12h0l11.12-11.12h0L738,248.74h0Z"/><path class="cls-1" d="M749.12,259.87h0L738,248.75h0l11.12-11.12h0l11.12,11.12h0Z"/><path class="cls-1" d="M771.37,259.87h0l-11.12-11.12h0l11.12-11.12h0l11.12,11.12h0Z"/><path class="cls-1" d="M771.37,237.62h0L760.24,226.5h0l11.12-11.12h0l11.12,11.12h0Z"/><path class="cls-1" d="M771.37,215.37h0l-11.12-11.12h0l11.12-11.12h0l11.12,11.12h0Z"/><path class="cls-1" d="M749.12,215.37h0L738,204.25h0l11.12-11.12h0l11.12,11.12h0Z"/><path class="cls-1" d="M726.87,215.37h0l-11.12-11.12h0l11.12-11.12h0L738,204.24h0Z"/><path class="cls-1" d="M660.12,148.62h0L649,137.5h0l11.12-11.12h0l11.12,11.12h0Z"/><path class="cls-1" d="M682.37,148.62h0L671.24,137.5h0l11.12-11.12h0l11.12,11.12h0Z"/><path class="cls-1" d="M682.37,170.87h0l-11.12-11.12h0l11.12-11.12h0l11.12,11.12h0Z"/><path class="cls-1" d="M682.37,193.12h0L671.24,182h0l11.12-11.12h0L693.49,182h0Z"/><path class="cls-1" d="M682.37,215.37h0l-11.12-11.12h0l11.12-11.12h0l11.12,11.12h0Z"/><path class="cls-1" d="M682.37,237.62h0L671.24,226.5h0l11.12-11.12h0l11.12,11.12h0Z"/><path class="cls-1" d="M682.37,259.87h0l-11.12-11.12h0l11.12-11.12h0l11.12,11.12h0Z"/><path class="cls-1" d="M682.37,282.12h0L671.24,271h0l11.12-11.12h0L693.49,271h0Z"/><path class="cls-1" d="M682.37,304.37h0l-11.12-11.12h0l11.12-11.12h0l11.12,11.12h0Z"/><path class="cls-1" d="M682.37,326.62h0L671.24,315.5h0l11.12-11.12h0l11.12,11.12h0Z"/><path class="cls-1" d="M682.37,348.87h0l-11.12-11.12h0l11.12-11.12h0l11.12,11.12h0Z"/><path class="cls-1" d="M704.62,348.87h0l-11.12-11.12h0l11.12-11.12h0l11.12,11.12h0Z"/><path class="cls-1" d="M726.87,348.87h0l-11.12-11.12h0l11.12-11.12h0L738,337.74h0Z"/><path class="cls-1" d="M726.87,371.13h0L715.74,360v0l11.12-11.12h0L738,360v0Z"/><path class="cls-1" d="M726.87,393.38h0l-11.12-11.12h0l11.12-11.12h0L738,382.25h0Z"/><path class="cls-1" d="M704.62,393.38h0l-11.12-11.12h0l11.12-11.12h0l11.12,11.12h0Z"/><path class="cls-1" d="M682.37,393.38h0l-11.12-11.12h0l11.12-11.12h0l11.12,11.12h0Z"/><path class="cls-1" d="M682.37,415.63h0l-11.12-11.12h0l11.12-11.12h0l11.12,11.12h0Z"/><path class="cls-1" d="M682.37,437.88h0l-11.12-11.12h0l11.12-11.12h0l11.12,11.12h0Z"/><path class="cls-1" d="M682.37,460.13h0L671.24,449h0l11.12-11.12h0L693.49,449h0Z"/><path class="cls-1" d="M682.37,482.38h0l-11.12-11.12h0l11.12-11.12h0l11.12,11.12h0Z"/><path class="cls-1" d="M660.12,482.38h0L649,471.26h0l11.12-11.12h0l11.12,11.12h0Z"/><path class="cls-1" d="M637.87,482.38h0l-11.12-11.12h0l11.12-11.12h0L649,471.25h0Z"/><path class="cls-1" d="M637.87,460.13h0L626.74,449h0l11.12-11.12h0L649,449h0Z"/><path class="cls-1" d="M637.87,437.88h0l-11.12-11.12h0l11.12-11.12h0L649,426.75h0Z"/><path class="cls-1" d="M637.87,415.63h0l-11.12-11.12h0l11.12-11.12h0L649,404.5h0Z"/><path class="cls-1" d="M637.87,393.38h0l-11.12-11.12h0l11.12-11.12h0L649,382.25h0Z"/><path class="cls-1" d="M615.62,393.38h0l-11.12-11.12h0l11.12-11.12h0l11.12,11.12h0Z"/><path class="cls-1" d="M593.37,393.38h0l-11.12-11.12v0l11.12-11.11h0l11.12,11.12h0Z"/><path class="cls-1" d="M593.37,371.13h0L582.24,360v0l11.12-11.12h0L604.49,360v0Z"/><path class="cls-1" d="M593.37,348.87h0l-11.12-11.12h0l11.12-11.12h0l11.12,11.12h0Z"/><path class="cls-1" d="M615.62,348.87h0l-11.12-11.12h0l11.12-11.12h0l11.12,11.12h0Z"/><path class="cls-1" d="M637.87,348.87h0l-11.12-11.11v0l11.12-11.12h0L649,337.74h0Z"/><path class="cls-1" d="M637.87,326.62h0L626.74,315.5h0l11.12-11.12h0L649,315.49h0Z"/><path class="cls-1" d="M637.87,304.37h0l-11.12-11.12h0l11.12-11.12h0L649,293.24h0Z"/><path class="cls-1" d="M637.87,282.12h0L626.74,271h0l11.12-11.12h0L649,271h0Z"/><path class="cls-1" d="M637.87,259.87h0l-11.12-11.12h0l11.12-11.12h0L649,248.74h0Z"/></svg>