<svg id="Lines" xmlns="http://www.w3.org/2000/svg" viewBox="0 0 1700 720"><defs><style>.cls-1{fill:#231f20;}</style></defs><rect class="cls-1" x="123.84" y="576.94" width="5.56" height="13.91" rx="2.78"/><rect class="cls-1" x="123.84" y="554.69" width="5.56" height="13.91" rx="2.78"/><rect class="cls-1" x="123.84" y="532.44" width="5.56" height="13.91" rx="2.78"/><rect class="cls-1" x="123.84" y="510.19" width="5.56" height="13.91" rx="2.78"/><rect class="cls-1" x="123.84" y="487.94" width="5.56" height="13.91" rx="2.78"/><rect class="cls-1" x="123.84" y="465.69" width="5.56" height="13.91" rx="2.78"/><rect class="cls-1" x="123.84" y="443.44" width="5.56" height="13.91" rx="2.78"/><rect class="cls-1" x="123.84" y="421.19" width="5.56" height="13.91" rx="2.78"/><rect class="cls-1" x="123.84" y="398.94" width="5.56" height="13.91" rx="2.78"/><rect class="cls-1" x="123.84" y="376.69" width="5.56" height="13.91" rx="2.78"/><rect class="cls-1" x="123.84" y="354.44" width="5.56" height="13.91" rx="2.78"/><rect class="cls-1" x="123.84" y="332.19" width="5.56" height="13.91" rx="2.78"/><rect class="cls-1" x="123.84" y="309.94" width="5.56" height="13.91" rx="2.78"/><rect class="cls-1" x="123.84" y="287.69" width="5.56" height="13.91" rx="2.78"/><rect class="cls-1" x="123.84" y="265.44" width="5.56" height="13.91" rx="2.78"/><rect class="cls-1" x="123.84" y="243.19" width="5.56" height="13.91" rx="2.78"/><rect class="cls-1" x="123.84" y="220.94" width="5.56" height="13.91" rx="2.78"/><rect class="cls-1" x="123.84" y="198.69" width="5.56" height="13.91" rx="2.78"/><rect class="cls-1" x="123.84" y="176.44" width="5.56" height="13.91" rx="2.78"/><rect class="cls-1" x="123.84" y="154.19" width="5.56" height="13.91" rx="2.78"/><rect class="cls-1" x="123.84" y="131.94" width="5.56" height="13.91" rx="2.78"/><rect class="cls-1" x="146.09" y="131.94" width="5.56" height="13.91" rx="2.78"/><rect class="cls-1" x="168.34" y="131.94" width="5.56" height="13.91" rx="2.78"/><rect class="cls-1" x="190.59" y="131.94" width="5.56" height="13.91" rx="2.78"/><rect class="cls-1" x="212.84" y="131.94" width="5.56" height="13.91" rx="2.78"/><rect class="cls-1" x="235.09" y="131.94" width="5.56" height="13.91" rx="2.78"/><rect class="cls-1" x="257.34" y="131.94" width="5.56" height="13.91" rx="2.78"/><rect class="cls-1" x="279.59" y="131.94" width="5.56" height="13.91" rx="2.78"/><rect class="cls-1" x="301.84" y="131.94" width="5.56" height="13.91" rx="2.78"/><rect class="cls-1" x="324.09" y="131.94" width="5.56" height="13.91" rx="2.78"/><rect class="cls-1" x="346.34" y="131.94" width="5.56" height="13.91" rx="2.78"/><rect class="cls-1" x="346.34" y="154.19" width="5.56" height="13.91" rx="2.78"/><rect class="cls-1" x="346.34" y="176.44" width="5.56" height="13.91" rx="2.78"/><rect class="cls-1" x="368.59" y="176.44" width="5.56" height="13.91" rx="2.78"/><rect class="cls-1" x="390.84" y="176.44" width="5.56" height="13.91" rx="2.78"/><rect class="cls-1" x="390.84" y="198.69" width="5.56" height="13.91" rx="2.78"/><rect class="cls-1" x="346.34" y="220.94" width="5.56" height="13.91" rx="2.78"/><rect class="cls-1" x="346.34" y="243.19" width="5.56" height="13.91" rx="2.78"/><rect class="cls-1" x="368.59" y="220.94" width="5.56" height="13.91" rx="2.78"/><rect class="cls-1" x="390.84" y="220.94" width="5.56" height="13.91" rx="2.78"/><rect class="cls-1" x="346.34" y="332.19" width="5.56" height="13.91" rx="2.78"/><rect class="cls-1" x="346.34" y="354.44" width="5.56" height="13.91" rx="2.78"/><rect class="cls-1" x="368.59" y="354.44" width="5.56" height="13.91" rx="2.78"/><rect class="cls-1" x="390.84" y="354.44" width="5.56" height="13.91" rx="2.78"/><rect class="cls-1" x="390.84" y="376.69" width="5.56" height="13.91" rx="2.78"/><rect class="cls-1" x="346.34" y="398.94" width="5.56" height="13.91" rx="2.78"/><rect class="cls-1" x="346.34" y="421.19" width="5.56" height="13.91" rx="2.78"/><rect class="cls-1" x="346.34" y="443.44" width="5.56" height="13.91" rx="2.78"/><rect class="cls-1" x="324.09" y="443.44" width="5.56" height="13.91" rx="2.78"/><rect class="cls-1" x="301.84" y="443.44" width="5.56" height="13.91" rx="2.78"/><rect class="cls-1" x="301.84" y="421.19" width="5.56" height="13.91" rx="2.78"/><rect class="cls-1" x="301.84" y="398.94" width="5.56" height="13.91" rx="2.78"/><rect class="cls-1" x="301.84" y="376.69" width="5.56" height="13.91" rx="2.78"/><rect class="cls-1" x="301.84" y="354.44" width="5.56" height="13.91" rx="2.78"/><rect class="cls-1" x="301.84" y="332.19" width="5.56" height="13.91" rx="2.78"/><rect class="cls-1" x="301.84" y="309.94" width="5.56" height="13.91" rx="2.78"/><rect class="cls-1" x="301.84" y="287.69" width="5.56" height="13.91" rx="2.78"/><rect class="cls-1" x="301.84" y="265.44" width="5.56" height="13.91" rx="2.78"/><rect class="cls-1" x="301.84" y="243.19" width="5.56" height="13.91" rx="2.78"/><rect class="cls-1" x="301.84" y="220.94" width="5.56" height="13.91" rx="2.78"/><rect class="cls-1" x="301.84" y="198.69" width="5.56" height="13.91" rx="2.78"/><rect class="cls-1" x="301.84" y="176.44" width="5.56" height="13.91" rx="2.78"/><rect class="cls-1" x="257.34" y="443.44" width="5.56" height="13.91" rx="2.78"/><rect class="cls-1" x="257.34" y="465.69" width="5.56" height="13.91" rx="2.78"/><rect class="cls-1" x="257.34" y="487.94" width="5.56" height="13.91" rx="2.78"/><rect class="cls-1" x="257.34" y="510.19" width="5.56" height="13.91" rx="2.78"/><rect class="cls-1" x="257.34" y="532.44" width="5.56" height="13.91" rx="2.78"/><rect class="cls-1" x="257.34" y="554.69" width="5.56" height="13.91" rx="2.78"/><rect class="cls-1" x="257.34" y="576.94" width="5.56" height="13.91" rx="2.78"/><rect class="cls-1" x="257.34" y="421.19" width="5.56" height="13.91" rx="2.78"/><rect class="cls-1" x="257.34" y="398.94" width="5.56" height="13.91" rx="2.78"/><rect class="cls-1" x="257.34" y="376.69" width="5.56" height="13.91" rx="2.78"/><rect class="cls-1" x="257.34" y="354.44" width="5.56" height="13.91" rx="2.78"/><rect class="cls-1" x="257.34" y="332.19" width="5.56" height="13.91" rx="2.78"/><rect class="cls-1" x="257.34" y="309.94" width="5.56" height="13.91" rx="2.78"/><rect class="cls-1" x="257.34" y="287.69" width="5.56" height="13.91" rx="2.78"/><rect class="cls-1" x="257.34" y="265.44" width="5.56" height="13.91" rx="2.78"/><rect class="cls-1" x="257.34" y="243.19" width="5.56" height="13.91" rx="2.78"/><rect class="cls-1" x="257.34" y="220.94" width="5.56" height="13.91" rx="2.78"/><rect class="cls-1" x="257.34" y="198.69" width="5.56" height="13.91" rx="2.78"/><rect class="cls-1" x="257.34" y="176.44" width="5.56" height="13.91" rx="2.78"/><rect class="cls-1" x="235.09" y="176.44" width="5.56" height="13.91" rx="2.78"/><rect class="cls-1" x="212.84" y="176.44" width="5.56" height="13.91" rx="2.78"/><rect class="cls-1" x="190.59" y="176.44" width="5.56" height="13.91" rx="2.78"/><rect class="cls-1" x="168.34" y="176.44" width="5.56" height="13.91" rx="2.78"/><rect class="cls-1" x="212.84" y="220.94" width="5.56" height="13.91" rx="2.78"/><rect class="cls-1" x="212.84" y="243.19" width="5.56" height="13.91" rx="2.78"/><rect class="cls-1" x="190.59" y="220.94" width="5.56" height="13.91" rx="2.78"/><rect class="cls-1" x="168.34" y="220.94" width="5.56" height="13.91" rx="2.78"/><rect class="cls-1" x="212.84" y="265.44" width="5.56" height="13.91" rx="2.78"/><rect class="cls-1" x="190.59" y="265.44" width="5.56" height="13.91" rx="2.78"/><rect class="cls-1" x="168.34" y="265.44" width="5.56" height="13.91" rx="2.78"/><rect class="cls-1" x="168.34" y="198.69" width="5.56" height="13.91" rx="2.78"/><rect class="cls-1" x="212.84" y="309.94" width="5.56" height="13.91" rx="2.78"/><rect class="cls-1" x="212.84" y="332.19" width="5.56" height="13.91" rx="2.78"/><rect class="cls-1" x="190.59" y="309.94" width="5.56" height="13.91" rx="2.78"/><rect class="cls-1" x="168.34" y="309.94" width="5.56" height="13.91" rx="2.78"/><rect class="cls-1" x="212.84" y="354.44" width="5.56" height="13.91" rx="2.78"/><rect class="cls-1" x="190.59" y="354.44" width="5.56" height="13.91" rx="2.78"/><rect class="cls-1" x="168.34" y="354.44" width="5.56" height="13.91" rx="2.78"/><rect class="cls-1" x="212.84" y="443.44" width="5.56" height="13.91" rx="2.78"/><rect class="cls-1" x="190.59" y="443.44" width="5.56" height="13.91" rx="2.78"/><rect class="cls-1" x="168.34" y="443.44" width="5.56" height="13.91" rx="2.78"/><rect class="cls-1" x="168.34" y="287.69" width="5.56" height="13.91" rx="2.78"/><rect class="cls-1" x="212.84" y="398.94" width="5.56" height="13.91" rx="2.78"/><rect class="cls-1" x="212.84" y="421.19" width="5.56" height="13.91" rx="2.78"/><rect class="cls-1" x="190.59" y="398.94" width="5.56" height="13.91" rx="2.78"/><rect class="cls-1" x="168.34" y="398.94" width="5.56" height="13.91" rx="2.78"/><rect class="cls-1" x="168.34" y="376.69" width="5.56" height="13.91" rx="2.78"/><rect class="cls-1" x="212.84" y="487.94" width="5.56" height="13.91" rx="2.78"/><rect class="cls-1" x="212.84" y="510.19" width="5.56" height="13.91" rx="2.78"/><rect class="cls-1" x="190.59" y="487.94" width="5.56" height="13.91" rx="2.78"/><rect class="cls-1" x="168.34" y="487.94" width="5.56" height="13.91" rx="2.78"/><rect class="cls-1" x="190.59" y="576.94" width="5.56" height="13.91" rx="2.78"/><rect class="cls-1" x="212.84" y="576.94" width="5.56" height="13.91" rx="2.78"/><rect class="cls-1" x="235.09" y="576.94" width="5.56" height="13.91" rx="2.78"/><rect class="cls-1" x="168.34" y="576.94" width="5.56" height="13.91" rx="2.78"/><rect class="cls-1" x="146.09" y="576.94" width="5.56" height="13.91" rx="2.78"/><rect class="cls-1" x="212.84" y="532.44" width="5.56" height="13.91" rx="2.78"/><rect class="cls-1" x="190.59" y="532.44" width="5.56" height="13.91" rx="2.78"/><rect class="cls-1" x="168.34" y="532.44" width="5.56" height="13.91" rx="2.78"/><rect class="cls-1" x="168.34" y="465.69" width="5.56" height="13.91" rx="2.78"/><rect class="cls-1" x="368.59" y="398.94" width="5.56" height="13.91" rx="2.78"/><rect class="cls-1" x="390.84" y="398.94" width="5.56" height="13.91" rx="2.78"/><rect class="cls-1" x="346.34" y="265.44" width="5.56" height="13.91" rx="2.78"/><rect class="cls-1" x="368.59" y="265.44" width="5.56" height="13.91" rx="2.78"/><rect class="cls-1" x="390.84" y="265.44" width="5.56" height="13.91" rx="2.78"/><rect class="cls-1" x="346.34" y="309.94" width="5.56" height="13.91" rx="2.78"/><rect class="cls-1" x="368.59" y="309.94" width="5.56" height="13.91" rx="2.78"/><rect class="cls-1" x="390.84" y="309.94" width="5.56" height="13.91" rx="2.78"/><rect class="cls-1" x="413.09" y="265.44" width="5.56" height="13.91" rx="2.78"/><rect class="cls-1" x="413.09" y="309.94" width="5.56" height="13.91" rx="2.78"/><rect class="cls-1" x="435.34" y="265.44" width="5.56" height="13.91" rx="2.78"/><rect class="cls-1" x="435.34" y="287.69" width="5.56" height="13.91" rx="2.78"/><rect class="cls-1" x="435.34" y="309.94" width="5.56" height="13.91" rx="2.78"/><rect class="cls-1" x="1259.1" y="576.94" width="5.56" height="13.91" rx="2.78"/><rect class="cls-1" x="1281.35" y="576.94" width="5.56" height="13.91" rx="2.78"/><rect class="cls-1" x="1303.6" y="576.94" width="5.56" height="13.91" rx="2.78"/><rect class="cls-1" x="1325.85" y="576.94" width="5.56" height="13.91" rx="2.78"/><rect class="cls-1" x="1348.1" y="576.94" width="5.56" height="13.91" rx="2.78"/><rect class="cls-1" x="1259.1" y="554.69" width="5.56" height="13.91" rx="2.78"/><rect class="cls-1" x="1259.1" y="532.44" width="5.56" height="13.91" rx="2.78"/><rect class="cls-1" x="1259.1" y="510.19" width="5.56" height="13.91" rx="2.78"/><rect class="cls-1" x="1259.1" y="487.94" width="5.56" height="13.91" rx="2.78"/><rect class="cls-1" x="1259.1" y="465.69" width="5.56" height="13.91" rx="2.78"/><rect class="cls-1" x="1259.1" y="443.44" width="5.56" height="13.91" rx="2.78"/><rect class="cls-1" x="1259.1" y="421.19" width="5.56" height="13.91" rx="2.78"/><rect class="cls-1" x="1259.1" y="398.94" width="5.56" height="13.91" rx="2.78"/><rect class="cls-1" x="1259.1" y="376.69" width="5.56" height="13.91" rx="2.78"/><rect class="cls-1" x="1259.1" y="354.44" width="5.56" height="13.91" rx="2.78"/><rect class="cls-1" x="1259.1" y="332.19" width="5.56" height="13.91" rx="2.78"/><rect class="cls-1" x="1259.1" y="309.94" width="5.56" height="13.91" rx="2.78"/><rect class="cls-1" x="1259.1" y="287.69" width="5.56" height="13.91" rx="2.78"/><rect class="cls-1" x="1259.1" y="265.44" width="5.56" height="13.91" rx="2.78"/><rect class="cls-1" x="1259.1" y="243.19" width="5.56" height="13.91" rx="2.78"/><rect class="cls-1" x="1259.1" y="220.94" width="5.56" height="13.91" rx="2.78"/><rect class="cls-1" x="1259.1" y="198.69" width="5.56" height="13.91" rx="2.78"/><rect class="cls-1" x="1259.1" y="176.44" width="5.56" height="13.91" rx="2.78"/><rect class="cls-1" x="1259.1" y="154.19" width="5.56" height="13.91" rx="2.78"/><rect class="cls-1" x="1259.1" y="131.94" width="5.56" height="13.91" rx="2.78"/><rect class="cls-1" x="1281.35" y="131.94" width="5.56" height="13.91" rx="2.78"/><rect class="cls-1" x="1303.6" y="131.94" width="5.56" height="13.91" rx="2.78"/><rect class="cls-1" x="1325.85" y="131.94" width="5.56" height="13.91" rx="2.78"/><rect class="cls-1" x="1348.1" y="131.94" width="5.56" height="13.91" rx="2.78"/><rect class="cls-1" x="1370.35" y="131.94" width="5.56" height="13.91" rx="2.78"/><rect class="cls-1" x="1392.6" y="131.94" width="5.56" height="13.91" rx="2.78"/><rect class="cls-1" x="1414.85" y="131.94" width="5.56" height="13.91" rx="2.78"/><rect class="cls-1" x="1392.6" y="443.44" width="5.56" height="13.91" rx="2.78"/><rect class="cls-1" x="1392.6" y="465.69" width="5.56" height="13.91" rx="2.78"/><rect class="cls-1" x="1392.6" y="487.94" width="5.56" height="13.91" rx="2.78"/><rect class="cls-1" x="1392.6" y="510.19" width="5.56" height="13.91" rx="2.78"/><rect class="cls-1" x="1392.6" y="532.44" width="5.56" height="13.91" rx="2.78"/><rect class="cls-1" x="1392.6" y="554.69" width="5.56" height="13.91" rx="2.78"/><rect class="cls-1" x="1392.6" y="576.94" width="5.56" height="13.91" rx="2.78"/><rect class="cls-1" x="1414.85" y="576.94" width="5.56" height="13.91" rx="2.78"/><rect class="cls-1" x="1437.1" y="576.94" width="5.56" height="13.91" rx="2.78"/><rect class="cls-1" x="1437.1" y="554.69" width="5.56" height="13.91" rx="2.78"/><rect class="cls-1" x="1437.1" y="532.44" width="5.56" height="13.91" rx="2.78"/><rect class="cls-1" x="1437.1" y="510.19" width="5.56" height="13.91" rx="2.78"/><rect class="cls-1" x="1459.35" y="510.19" width="5.56" height="13.91" rx="2.78"/><rect class="cls-1" x="1481.6" y="510.19" width="5.56" height="13.91" rx="2.78"/><rect class="cls-1" x="1503.85" y="510.19" width="5.56" height="13.91" rx="2.78"/><rect class="cls-1" x="1526.1" y="510.19" width="5.56" height="13.91" rx="2.78"/><rect class="cls-1" x="1526.1" y="487.94" width="5.56" height="13.91" rx="2.78"/><rect class="cls-1" x="1526.1" y="465.69" width="5.56" height="13.91" rx="2.78"/><rect class="cls-1" x="1503.85" y="465.69" width="5.56" height="13.91" rx="2.78"/><rect class="cls-1" x="1481.6" y="465.69" width="5.56" height="13.91" rx="2.78"/><rect class="cls-1" x="1481.6" y="443.44" width="5.56" height="13.91" rx="2.78"/><rect class="cls-1" x="1481.6" y="421.19" width="5.56" height="13.91" rx="2.78"/><rect class="cls-1" x="1503.85" y="421.19" width="5.56" height="13.91" rx="2.78"/><rect class="cls-1" x="1526.1" y="421.19" width="5.56" height="13.91" rx="2.78"/><rect class="cls-1" x="1548.35" y="421.19" width="5.56" height="13.91" rx="2.78"/><rect class="cls-1" x="1570.6" y="421.19" width="5.56" height="13.91" rx="2.78"/><rect class="cls-1" x="1481.6" y="376.69" width="5.56" height="13.91" rx="2.78"/><rect class="cls-1" x="1481.6" y="354.44" width="5.56" height="13.91" rx="2.78"/><rect class="cls-1" x="1503.85" y="376.69" width="5.56" height="13.91" rx="2.78"/><rect class="cls-1" x="1526.1" y="376.69" width="5.56" height="13.91" rx="2.78"/><rect class="cls-1" x="1548.35" y="376.69" width="5.56" height="13.91" rx="2.78"/><rect class="cls-1" x="1570.6" y="376.69" width="5.56" height="13.91" rx="2.78"/><rect class="cls-1" x="1570.6" y="398.94" width="5.56" height="13.91" rx="2.78"/><rect class="cls-1" x="1481.6" y="332.19" width="5.56" height="13.91" rx="2.78"/><rect class="cls-1" x="1503.85" y="332.19" width="5.56" height="13.91" rx="2.78"/><rect class="cls-1" x="1526.1" y="332.19" width="5.56" height="13.91" rx="2.78"/><rect class="cls-1" x="1548.35" y="332.19" width="5.56" height="13.91" rx="2.78"/><rect class="cls-1" x="1570.6" y="332.19" width="5.56" height="13.91" rx="2.78"/><rect class="cls-1" x="1481.6" y="287.69" width="5.56" height="13.91" rx="2.78"/><rect class="cls-1" x="1481.6" y="265.44" width="5.56" height="13.91" rx="2.78"/><rect class="cls-1" x="1481.6" y="243.19" width="5.56" height="13.91" rx="2.78"/><rect class="cls-1" x="1503.85" y="243.19" width="5.56" height="13.91" rx="2.78"/><rect class="cls-1" x="1526.1" y="243.19" width="5.56" height="13.91" rx="2.78"/><rect class="cls-1" x="1526.1" y="220.94" width="5.56" height="13.91" rx="2.78"/><rect class="cls-1" x="1526.1" y="198.69" width="5.56" height="13.91" rx="2.78"/><rect class="cls-1" x="1503.85" y="198.69" width="5.56" height="13.91" rx="2.78"/><rect class="cls-1" x="1481.6" y="198.69" width="5.56" height="13.91" rx="2.78"/><rect class="cls-1" x="1459.35" y="198.69" width="5.56" height="13.91" rx="2.78"/><rect class="cls-1" x="1437.1" y="198.69" width="5.56" height="13.91" rx="2.78"/><rect class="cls-1" x="1437.1" y="176.44" width="5.56" height="13.91" rx="2.78"/><rect class="cls-1" x="1437.1" y="154.19" width="5.56" height="13.91" rx="2.78"/><rect class="cls-1" x="1437.1" y="131.94" width="5.56" height="13.91" rx="2.78"/><rect class="cls-1" x="1503.85" y="287.69" width="5.56" height="13.91" rx="2.78"/><rect class="cls-1" x="1526.1" y="287.69" width="5.56" height="13.91" rx="2.78"/><rect class="cls-1" x="1548.35" y="287.69" width="5.56" height="13.91" rx="2.78"/><rect class="cls-1" x="1570.6" y="287.69" width="5.56" height="13.91" rx="2.78"/><rect class="cls-1" x="1570.6" y="309.94" width="5.56" height="13.91" rx="2.78"/><rect class="cls-1" x="1392.6" y="421.19" width="5.56" height="13.91" rx="2.78"/><rect class="cls-1" x="1392.6" y="398.94" width="5.56" height="13.91" rx="2.78"/><rect class="cls-1" x="1392.6" y="376.69" width="5.56" height="13.91" rx="2.78"/><rect class="cls-1" x="1392.6" y="354.44" width="5.56" height="13.91" rx="2.78"/><rect class="cls-1" x="1392.6" y="332.19" width="5.56" height="13.91" rx="2.78"/><rect class="cls-1" x="1392.6" y="309.94" width="5.56" height="13.91" rx="2.78"/><rect class="cls-1" x="1392.6" y="287.69" width="5.56" height="13.91" rx="2.78"/><rect class="cls-1" x="1392.6" y="265.44" width="5.56" height="13.91" rx="2.78"/><rect class="cls-1" x="1392.6" y="243.19" width="5.56" height="13.91" rx="2.78"/><rect class="cls-1" x="1392.6" y="220.94" width="5.56" height="13.91" rx="2.78"/><rect class="cls-1" x="1392.6" y="198.69" width="5.56" height="13.91" rx="2.78"/><rect class="cls-1" x="1392.6" y="176.44" width="5.56" height="13.91" rx="2.78"/><rect class="cls-1" x="1370.35" y="176.44" width="5.56" height="13.91" rx="2.78"/><rect class="cls-1" x="1348.1" y="176.44" width="5.56" height="13.91" rx="2.78"/><rect class="cls-1" x="1325.85" y="176.44" width="5.56" height="13.91" rx="2.78"/><rect class="cls-1" x="1303.6" y="176.44" width="5.56" height="13.91" rx="2.78"/><rect class="cls-1" x="1348.1" y="220.94" width="5.56" height="13.91" rx="2.78"/><rect class="cls-1" x="1348.1" y="243.19" width="5.56" height="13.91" rx="2.78"/><rect class="cls-1" x="1325.85" y="220.94" width="5.56" height="13.91" rx="2.78"/><rect class="cls-1" x="1303.6" y="220.94" width="5.56" height="13.91" rx="2.78"/><rect class="cls-1" x="1348.1" y="265.44" width="5.56" height="13.91" rx="2.78"/><rect class="cls-1" x="1325.85" y="265.44" width="5.56" height="13.91" rx="2.78"/><rect class="cls-1" x="1303.6" y="265.44" width="5.56" height="13.91" rx="2.78"/><rect class="cls-1" x="1303.6" y="198.69" width="5.56" height="13.91" rx="2.78"/><rect class="cls-1" x="1348.1" y="309.94" width="5.56" height="13.91" rx="2.78"/><rect class="cls-1" x="1348.1" y="332.19" width="5.56" height="13.91" rx="2.78"/><rect class="cls-1" x="1325.85" y="309.94" width="5.56" height="13.91" rx="2.78"/><rect class="cls-1" x="1303.6" y="309.94" width="5.56" height="13.91" rx="2.78"/><rect class="cls-1" x="1348.1" y="354.44" width="5.56" height="13.91" rx="2.78"/><rect class="cls-1" x="1325.85" y="354.44" width="5.56" height="13.91" rx="2.78"/><rect class="cls-1" x="1303.6" y="354.44" width="5.56" height="13.91" rx="2.78"/><rect class="cls-1" x="1348.1" y="443.44" width="5.56" height="13.91" rx="2.78"/><rect class="cls-1" x="1325.85" y="443.44" width="5.56" height="13.91" rx="2.78"/><rect class="cls-1" x="1303.6" y="443.44" width="5.56" height="13.91" rx="2.78"/><rect class="cls-1" x="1303.6" y="287.69" width="5.56" height="13.91" rx="2.78"/><rect class="cls-1" x="1348.1" y="398.94" width="5.56" height="13.91" rx="2.78"/><rect class="cls-1" x="1348.1" y="421.19" width="5.56" height="13.91" rx="2.78"/><rect class="cls-1" x="1325.85" y="398.94" width="5.56" height="13.91" rx="2.78"/><rect class="cls-1" x="1303.6" y="398.94" width="5.56" height="13.91" rx="2.78"/><rect class="cls-1" x="1303.6" y="376.69" width="5.56" height="13.91" rx="2.78"/><rect class="cls-1" x="1348.1" y="487.94" width="5.56" height="13.91" rx="2.78"/><rect class="cls-1" x="1348.1" y="510.19" width="5.56" height="13.91" rx="2.78"/><rect class="cls-1" x="1325.85" y="487.94" width="5.56" height="13.91" rx="2.78"/><rect class="cls-1" x="1303.6" y="487.94" width="5.56" height="13.91" rx="2.78"/><rect class="cls-1" x="1348.1" y="532.44" width="5.56" height="13.91" rx="2.78"/><rect class="cls-1" x="1325.85" y="532.44" width="5.56" height="13.91" rx="2.78"/><rect class="cls-1" x="1303.6" y="532.44" width="5.56" height="13.91" rx="2.78"/><rect class="cls-1" x="1303.6" y="465.69" width="5.56" height="13.91" rx="2.78"/><rect class="cls-1" x="879.34" y="576.94" width="5.56" height="13.91" rx="2.78"/><rect class="cls-1" x="901.59" y="576.94" width="5.56" height="13.91" rx="2.78"/><rect class="cls-1" x="923.84" y="576.94" width="5.56" height="13.91" rx="2.78"/><rect class="cls-1" x="946.09" y="576.94" width="5.56" height="13.91" rx="2.78"/><rect class="cls-1" x="968.34" y="576.94" width="5.56" height="13.91" rx="2.78"/><rect class="cls-1" x="879.34" y="554.69" width="5.56" height="13.91" rx="2.78"/><rect class="cls-1" x="879.34" y="532.44" width="5.56" height="13.91" rx="2.78"/><rect class="cls-1" x="879.34" y="510.19" width="5.56" height="13.91" rx="2.78"/><rect class="cls-1" x="879.34" y="487.94" width="5.56" height="13.91" rx="2.78"/><rect class="cls-1" x="879.34" y="465.69" width="5.56" height="13.91" rx="2.78"/><rect class="cls-1" x="879.34" y="443.44" width="5.56" height="13.91" rx="2.78"/><rect class="cls-1" x="879.34" y="421.19" width="5.56" height="13.91" rx="2.78"/><rect class="cls-1" x="879.34" y="398.94" width="5.56" height="13.91" rx="2.78"/><rect class="cls-1" x="879.34" y="376.69" width="5.56" height="13.91" rx="2.78"/><rect class="cls-1" x="879.34" y="354.44" width="5.56" height="13.91" rx="2.78"/><rect class="cls-1" x="879.34" y="332.19" width="5.56" height="13.91" rx="2.78"/><rect class="cls-1" x="879.34" y="309.94" width="5.56" height="13.91" rx="2.78"/><rect class="cls-1" x="879.34" y="287.69" width="5.56" height="13.91" rx="2.78"/><rect class="cls-1" x="879.34" y="265.44" width="5.56" height="13.91" rx="2.78"/><rect class="cls-1" x="879.34" y="243.19" width="5.56" height="13.91" rx="2.78"/><rect class="cls-1" x="879.34" y="220.94" width="5.56" height="13.91" rx="2.78"/><rect class="cls-1" x="879.34" y="198.69" width="5.56" height="13.91" rx="2.78"/><rect class="cls-1" x="879.34" y="176.44" width="5.56" height="13.91" rx="2.78"/><rect class="cls-1" x="879.34" y="154.19" width="5.56" height="13.91" rx="2.78"/><rect class="cls-1" x="879.34" y="131.94" width="5.56" height="13.91" rx="2.78"/><rect class="cls-1" x="901.59" y="131.94" width="5.56" height="13.91" rx="2.78"/><rect class="cls-1" x="923.84" y="131.94" width="5.56" height="13.91" rx="2.78"/><rect class="cls-1" x="946.09" y="131.94" width="5.56" height="13.91" rx="2.78"/><rect class="cls-1" x="968.34" y="131.94" width="5.56" height="13.91" rx="2.78"/><rect class="cls-1" x="968.34" y="154.19" width="5.56" height="13.91" rx="2.78"/><rect class="cls-1" x="968.34" y="176.44" width="5.56" height="13.91" rx="2.78"/><rect class="cls-1" x="946.09" y="176.44" width="5.56" height="13.91" rx="2.78"/><rect class="cls-1" x="923.84" y="176.44" width="5.56" height="13.91" rx="2.78"/><rect class="cls-1" x="923.84" y="198.69" width="5.56" height="13.91" rx="2.78"/><rect class="cls-1" x="923.84" y="220.94" width="5.56" height="13.91" rx="2.78"/><rect class="cls-1" x="923.84" y="265.44" width="5.56" height="13.91" rx="2.78"/><rect class="cls-1" x="923.84" y="287.69" width="5.56" height="13.91" rx="2.78"/><rect class="cls-1" x="923.84" y="309.94" width="5.56" height="13.91" rx="2.78"/><rect class="cls-1" x="923.84" y="332.19" width="5.56" height="13.91" rx="2.78"/><rect class="cls-1" x="923.84" y="354.44" width="5.56" height="13.91" rx="2.78"/><rect class="cls-1" x="946.09" y="354.44" width="5.56" height="13.91" rx="2.78"/><rect class="cls-1" x="968.34" y="354.44" width="5.56" height="13.91" rx="2.78"/><rect class="cls-1" x="968.34" y="376.69" width="5.56" height="13.91" rx="2.78"/><rect class="cls-1" x="968.34" y="398.94" width="5.56" height="13.91" rx="2.78"/><rect class="cls-1" x="946.09" y="398.94" width="5.56" height="13.91" rx="2.78"/><rect class="cls-1" x="923.84" y="398.94" width="5.56" height="13.91" rx="2.78"/><rect class="cls-1" x="923.84" y="421.19" width="5.56" height="13.91" rx="2.78"/><rect class="cls-1" x="923.84" y="443.44" width="5.56" height="13.91" rx="2.78"/><rect class="cls-1" x="946.09" y="443.44" width="5.56" height="13.91" rx="2.78"/><rect class="cls-1" x="968.34" y="443.44" width="5.56" height="13.91" rx="2.78"/><rect class="cls-1" x="968.34" y="465.69" width="5.56" height="13.91" rx="2.78"/><rect class="cls-1" x="968.34" y="487.94" width="5.56" height="13.91" rx="2.78"/><rect class="cls-1" x="946.09" y="487.94" width="5.56" height="13.91" rx="2.78"/><rect class="cls-1" x="923.84" y="487.94" width="5.56" height="13.91" rx="2.78"/><rect class="cls-1" x="923.84" y="510.19" width="5.56" height="13.91" rx="2.78"/><rect class="cls-1" x="923.84" y="532.44" width="5.56" height="13.91" rx="2.78"/><rect class="cls-1" x="946.09" y="532.44" width="5.56" height="13.91" rx="2.78"/><rect class="cls-1" x="968.34" y="532.44" width="5.56" height="13.91" rx="2.78"/><rect class="cls-1" x="968.34" y="554.69" width="5.56" height="13.91" rx="2.78"/><rect class="cls-1" x="946.09" y="220.94" width="5.56" height="13.91" rx="2.78"/><rect class="cls-1" x="968.34" y="220.94" width="5.56" height="13.91" rx="2.78"/><rect class="cls-1" x="990.59" y="220.94" width="5.56" height="13.91" rx="2.78"/><rect class="cls-1" x="1012.84" y="220.94" width="5.56" height="13.91" rx="2.78"/><rect class="cls-1" x="1012.84" y="243.19" width="5.56" height="13.91" rx="2.78"/><rect class="cls-1" x="1012.84" y="265.44" width="5.56" height="13.91" rx="2.78"/><rect class="cls-1" x="990.59" y="265.44" width="5.56" height="13.91" rx="2.78"/><rect class="cls-1" x="968.34" y="265.44" width="5.56" height="13.91" rx="2.78"/><rect class="cls-1" x="968.34" y="287.69" width="5.56" height="13.91" rx="2.78"/><rect class="cls-1" x="968.34" y="309.94" width="5.56" height="13.91" rx="2.78"/><rect class="cls-1" x="990.59" y="309.94" width="5.56" height="13.91" rx="2.78"/><rect class="cls-1" x="1012.84" y="309.94" width="5.56" height="13.91" rx="2.78"/><rect class="cls-1" x="1035.09" y="309.94" width="5.56" height="13.91" rx="2.78"/><rect class="cls-1" x="1057.34" y="309.94" width="5.56" height="13.91" rx="2.78"/><rect class="cls-1" x="1057.34" y="332.19" width="5.56" height="13.91" rx="2.78"/><rect class="cls-1" x="1057.34" y="354.44" width="5.56" height="13.91" rx="2.78"/><rect class="cls-1" x="1035.09" y="354.44" width="5.56" height="13.91" rx="2.78"/><rect class="cls-1" x="1012.84" y="354.44" width="5.56" height="13.91" rx="2.78"/><rect class="cls-1" x="1012.84" y="376.69" width="5.56" height="13.91" rx="2.78"/><rect class="cls-1" x="1012.84" y="398.94" width="5.56" height="13.91" rx="2.78"/><rect class="cls-1" x="1035.09" y="398.94" width="5.56" height="13.91" rx="2.78"/><rect class="cls-1" x="1057.34" y="398.94" width="5.56" height="13.91" rx="2.78"/><rect class="cls-1" x="1079.59" y="398.94" width="5.56" height="13.91" rx="2.78"/><rect class="cls-1" x="1101.84" y="398.94" width="5.56" height="13.91" rx="2.78"/><rect class="cls-1" x="1101.84" y="421.19" width="5.56" height="13.91" rx="2.78"/><rect class="cls-1" x="1101.84" y="443.44" width="5.56" height="13.91" rx="2.78"/><rect class="cls-1" x="1079.59" y="443.44" width="5.56" height="13.91" rx="2.78"/><rect class="cls-1" x="1057.34" y="443.44" width="5.56" height="13.91" rx="2.78"/><rect class="cls-1" x="1057.34" y="465.69" width="5.56" height="13.91" rx="2.78"/><rect class="cls-1" x="1057.34" y="487.94" width="5.56" height="13.91" rx="2.78"/><rect class="cls-1" x="1079.59" y="487.94" width="5.56" height="13.91" rx="2.78"/><rect class="cls-1" x="1101.84" y="487.94" width="5.56" height="13.91" rx="2.78"/><rect class="cls-1" x="1124.09" y="487.94" width="5.56" height="13.91" rx="2.78"/><rect class="cls-1" x="1146.34" y="487.94" width="5.56" height="13.91" rx="2.78"/><rect class="cls-1" x="1146.34" y="510.19" width="5.56" height="13.91" rx="2.78"/><rect class="cls-1" x="1146.34" y="532.44" width="5.56" height="13.91" rx="2.78"/><rect class="cls-1" x="1124.09" y="532.44" width="5.56" height="13.91" rx="2.78"/><rect class="cls-1" x="1101.84" y="532.44" width="5.56" height="13.91" rx="2.78"/><rect class="cls-1" x="1101.84" y="554.69" width="5.56" height="13.91" rx="2.78"/><rect class="cls-1" x="1190.84" y="576.94" width="5.56" height="13.91" rx="2.78" transform="matrix(-1, 0, 0, -1, 2387.24, 1167.78)"/><rect class="cls-1" x="1168.59" y="576.94" width="5.56" height="13.91" rx="2.78" transform="translate(2342.74 1167.78) rotate(-180)"/><rect class="cls-1" x="1146.34" y="576.94" width="5.56" height="13.91" rx="2.78" transform="translate(2298.24 1167.78) rotate(-180)"/><rect class="cls-1" x="1124.09" y="576.94" width="5.56" height="13.91" rx="2.78" transform="translate(2253.74 1167.78) rotate(-180)"/><rect class="cls-1" x="1101.84" y="576.94" width="5.56" height="13.91" rx="2.78" transform="translate(2209.24 1167.78) rotate(-180)"/><rect class="cls-1" x="1190.84" y="554.69" width="5.56" height="13.91" rx="2.78" transform="translate(2387.24 1123.28) rotate(-180)"/><rect class="cls-1" x="1190.84" y="532.44" width="5.56" height="13.91" rx="2.78" transform="translate(2387.24 1078.78) rotate(-180)"/><rect class="cls-1" x="1190.84" y="510.19" width="5.56" height="13.91" rx="2.78" transform="translate(2387.24 1034.28) rotate(-180)"/><rect class="cls-1" x="1190.84" y="487.94" width="5.56" height="13.91" rx="2.78" transform="translate(2387.24 989.78) rotate(-180)"/><rect class="cls-1" x="1190.84" y="465.69" width="5.56" height="13.91" rx="2.78" transform="translate(2387.24 945.28) rotate(-180)"/><rect class="cls-1" x="1190.84" y="443.44" width="5.56" height="13.91" rx="2.78" transform="translate(2387.24 900.78) rotate(-180)"/><rect class="cls-1" x="1190.84" y="421.19" width="5.56" height="13.91" rx="2.78" transform="translate(2387.24 856.28) rotate(-180)"/><rect class="cls-1" x="1190.84" y="398.94" width="5.56" height="13.91" rx="2.78" transform="translate(2387.24 811.78) rotate(-180)"/><rect class="cls-1" x="1190.84" y="376.69" width="5.56" height="13.91" rx="2.78" transform="translate(2387.24 767.28) rotate(-180)"/><rect class="cls-1" x="1190.84" y="354.44" width="5.56" height="13.91" rx="2.78" transform="translate(2387.24 722.78) rotate(-180)"/><rect class="cls-1" x="1190.84" y="332.19" width="5.56" height="13.91" rx="2.78" transform="translate(2387.24 678.28) rotate(-180)"/><rect class="cls-1" x="1190.84" y="309.94" width="5.56" height="13.91" rx="2.78" transform="translate(2387.24 633.78) rotate(180)"/><rect class="cls-1" x="1190.84" y="287.69" width="5.56" height="13.91" rx="2.78" transform="translate(2387.24 589.28) rotate(180)"/><rect class="cls-1" x="1190.84" y="265.44" width="5.56" height="13.91" rx="2.78" transform="translate(2387.24 544.78) rotate(180)"/><rect class="cls-1" x="1190.84" y="243.19" width="5.56" height="13.91" rx="2.78" transform="translate(2387.24 500.28) rotate(180)"/><rect class="cls-1" x="1190.84" y="220.94" width="5.56" height="13.91" rx="2.78" transform="translate(2387.24 455.78) rotate(-180)"/><rect class="cls-1" x="1190.84" y="198.69" width="5.56" height="13.91" rx="2.78" transform="translate(2387.24 411.28) rotate(180)"/><rect class="cls-1" x="1190.84" y="176.44" width="5.56" height="13.91" rx="2.78" transform="translate(2387.24 366.78) rotate(180)"/><rect class="cls-1" x="1190.84" y="154.19" width="5.56" height="13.91" rx="2.78" transform="translate(2387.24 322.28) rotate(180)"/><rect class="cls-1" x="1190.84" y="131.94" width="5.56" height="13.91" rx="2.78" transform="translate(2387.24 277.78) rotate(180)"/><rect class="cls-1" x="1168.59" y="131.94" width="5.56" height="13.91" rx="2.78" transform="translate(2342.74 277.78) rotate(180)"/><rect class="cls-1" x="1146.34" y="131.94" width="5.56" height="13.91" rx="2.78" transform="translate(2298.24 277.78) rotate(-180)"/><rect class="cls-1" x="1124.09" y="131.94" width="5.56" height="13.91" rx="2.78" transform="translate(2253.74 277.78) rotate(180)"/><rect class="cls-1" x="1101.84" y="131.94" width="5.56" height="13.91" rx="2.78" transform="translate(2209.24 277.78) rotate(180)"/><rect class="cls-1" x="1101.84" y="154.19" width="5.56" height="13.91" rx="2.78" transform="translate(2209.24 322.28) rotate(180)"/><rect class="cls-1" x="1101.84" y="176.44" width="5.56" height="13.91" rx="2.78" transform="translate(2209.24 366.78) rotate(180)"/><rect class="cls-1" x="1124.09" y="176.44" width="5.56" height="13.91" rx="2.78" transform="translate(2253.74 366.78) rotate(180)"/><rect class="cls-1" x="1146.34" y="176.44" width="5.56" height="13.91" rx="2.78" transform="translate(2298.24 366.78) rotate(180)"/><rect class="cls-1" x="1146.34" y="198.69" width="5.56" height="13.91" rx="2.78" transform="translate(2298.24 411.28) rotate(180)"/><rect class="cls-1" x="1146.34" y="220.94" width="5.56" height="13.91" rx="2.78" transform="translate(2298.24 455.78) rotate(180)"/><rect class="cls-1" x="1124.09" y="220.94" width="5.56" height="13.91" rx="2.78" transform="translate(2253.74 455.78) rotate(-180)"/><rect class="cls-1" x="1101.84" y="220.94" width="5.56" height="13.91" rx="2.78" transform="translate(2209.24 455.78) rotate(-180)"/><rect class="cls-1" x="1101.84" y="243.19" width="5.56" height="13.91" rx="2.78" transform="translate(2209.24 500.28) rotate(180)"/><rect class="cls-1" x="1101.84" y="265.44" width="5.56" height="13.91" rx="2.78" transform="translate(2209.24 544.78) rotate(-180)"/><rect class="cls-1" x="1124.09" y="265.44" width="5.56" height="13.91" rx="2.78" transform="translate(2253.74 544.78) rotate(-180)"/><rect class="cls-1" x="1146.34" y="265.44" width="5.56" height="13.91" rx="2.78" transform="translate(2298.24 544.78) rotate(180)"/><rect class="cls-1" x="1146.34" y="287.69" width="5.56" height="13.91" rx="2.78" transform="translate(2298.24 589.28) rotate(180)"/><rect class="cls-1" x="1146.34" y="309.94" width="5.56" height="13.91" rx="2.78" transform="translate(2298.24 633.78) rotate(-180)"/><rect class="cls-1" x="1124.09" y="309.94" width="5.56" height="13.91" rx="2.78" transform="translate(2253.74 633.78) rotate(-180)"/><rect class="cls-1" x="1101.84" y="309.94" width="5.56" height="13.91" rx="2.78" transform="translate(2209.24 633.78) rotate(-180)"/><rect class="cls-1" x="1101.84" y="332.19" width="5.56" height="13.91" rx="2.78" transform="translate(2209.24 678.28) rotate(-180)"/><rect class="cls-1" x="1101.84" y="354.44" width="5.56" height="13.91" rx="2.78" transform="translate(2209.24 722.78) rotate(-180)"/><rect class="cls-1" x="1124.09" y="354.44" width="5.56" height="13.91" rx="2.78" transform="translate(2253.74 722.78) rotate(-180)"/><rect class="cls-1" x="1146.34" y="354.44" width="5.56" height="13.91" rx="2.78" transform="translate(2298.24 722.78) rotate(180)"/><rect class="cls-1" x="1146.34" y="376.69" width="5.56" height="13.91" rx="2.78" transform="translate(2298.24 767.28) rotate(180)"/><rect class="cls-1" x="1146.34" y="398.94" width="5.56" height="13.91" rx="2.78" transform="translate(2298.24 811.78) rotate(180)"/><rect class="cls-1" x="1146.34" y="421.19" width="5.56" height="13.91" rx="2.78" transform="translate(2298.24 856.28) rotate(180)"/><rect class="cls-1" x="1146.34" y="443.44" width="5.56" height="13.91" rx="2.78" transform="translate(2298.24 900.79) rotate(-180)"/><rect class="cls-1" x="635.09" y="131.94" width="5.56" height="13.91" rx="2.78"/><rect class="cls-1" x="635.09" y="154.19" width="5.56" height="13.91" rx="2.78"/><rect class="cls-1" x="635.09" y="176.44" width="5.56" height="13.91" rx="2.78"/><rect class="cls-1" x="635.09" y="198.69" width="5.56" height="13.91" rx="2.78"/><rect class="cls-1" x="612.84" y="198.69" width="5.56" height="13.91" rx="2.78"/><rect class="cls-1" x="590.59" y="198.69" width="5.56" height="13.91" rx="2.78"/><rect class="cls-1" x="568.34" y="198.69" width="5.56" height="13.91" rx="2.78"/><rect class="cls-1" x="546.09" y="198.69" width="5.56" height="13.91" rx="2.78"/><rect class="cls-1" x="546.09" y="220.94" width="5.56" height="13.91" rx="2.78"/><rect class="cls-1" x="546.09" y="243.19" width="5.56" height="13.91" rx="2.78"/><rect class="cls-1" x="568.34" y="243.19" width="5.56" height="13.91" rx="2.78"/><rect class="cls-1" x="590.59" y="243.19" width="5.56" height="13.91" rx="2.78"/><rect class="cls-1" x="590.59" y="265.44" width="5.56" height="13.91" rx="2.78"/><rect class="cls-1" x="590.59" y="287.69" width="5.56" height="13.91" rx="2.78"/><rect class="cls-1" x="568.34" y="287.69" width="5.56" height="13.91" rx="2.78"/><rect class="cls-1" x="546.09" y="287.69" width="5.56" height="13.91" rx="2.78"/><rect class="cls-1" x="523.84" y="287.69" width="5.56" height="13.91" rx="2.78"/><rect class="cls-1" x="501.59" y="287.69" width="5.56" height="13.91" rx="2.78"/><rect class="cls-1" x="501.59" y="309.94" width="5.56" height="13.91" rx="2.78"/><rect class="cls-1" x="501.59" y="332.19" width="5.56" height="13.91" rx="2.78"/><rect class="cls-1" x="523.84" y="332.19" width="5.56" height="13.91" rx="2.78"/><rect class="cls-1" x="546.09" y="332.19" width="5.56" height="13.91" rx="2.78"/><rect class="cls-1" x="546.09" y="354.44" width="5.56" height="13.91" rx="2.78"/><rect class="cls-1" x="546.09" y="376.69" width="5.56" height="13.91" rx="2.78"/><rect class="cls-1" x="523.84" y="376.69" width="5.56" height="13.91" rx="2.78"/><rect class="cls-1" x="501.59" y="376.69" width="5.56" height="13.91" rx="2.78"/><rect class="cls-1" x="501.59" y="398.94" width="5.56" height="13.91" rx="2.78"/><rect class="cls-1" x="501.59" y="421.19" width="5.56" height="13.91" rx="2.78"/><rect class="cls-1" x="523.84" y="421.19" width="5.56" height="13.91" rx="2.78"/><rect class="cls-1" x="546.09" y="421.19" width="5.56" height="13.91" rx="2.78"/><rect class="cls-1" x="568.34" y="421.19" width="5.56" height="13.91" rx="2.78"/><rect class="cls-1" x="590.59" y="421.19" width="5.56" height="13.91" rx="2.78"/><rect class="cls-1" x="590.59" y="443.44" width="5.56" height="13.91" rx="2.78"/><rect class="cls-1" x="590.59" y="465.69" width="5.56" height="13.91" rx="2.78"/><rect class="cls-1" x="568.34" y="465.69" width="5.56" height="13.91" rx="2.78"/><rect class="cls-1" x="546.09" y="465.69" width="5.56" height="13.91" rx="2.78"/><rect class="cls-1" x="546.09" y="487.94" width="5.56" height="13.91" rx="2.78"/><rect class="cls-1" x="546.09" y="510.19" width="5.56" height="13.91" rx="2.78"/><rect class="cls-1" x="568.34" y="510.19" width="5.56" height="13.91" rx="2.78"/><rect class="cls-1" x="590.59" y="510.19" width="5.56" height="13.91" rx="2.78"/><rect class="cls-1" x="612.84" y="510.19" width="5.56" height="13.91" rx="2.78"/><rect class="cls-1" x="635.09" y="510.19" width="5.56" height="13.91" rx="2.78"/><rect class="cls-1" x="635.09" y="532.44" width="5.56" height="13.91" rx="2.78"/><rect class="cls-1" x="635.09" y="554.69" width="5.56" height="13.91" rx="2.78"/><rect class="cls-1" x="635.09" y="576.94" width="5.56" height="13.91" rx="2.78"/><rect class="cls-1" x="657.34" y="576.94" width="5.56" height="13.91" rx="2.78"/><rect class="cls-1" x="679.59" y="576.94" width="5.56" height="13.91" rx="2.78"/><rect class="cls-1" x="679.59" y="554.69" width="5.56" height="13.91" rx="2.78"/><rect class="cls-1" x="679.59" y="532.44" width="5.56" height="13.91" rx="2.78"/><rect class="cls-1" x="679.59" y="510.19" width="5.56" height="13.91" rx="2.78"/><rect class="cls-1" x="701.84" y="510.19" width="5.56" height="13.91" rx="2.78"/><rect class="cls-1" x="724.09" y="510.19" width="5.56" height="13.91" rx="2.78"/><rect class="cls-1" x="746.34" y="510.19" width="5.56" height="13.91" rx="2.78"/><rect class="cls-1" x="768.59" y="510.19" width="5.56" height="13.91" rx="2.78"/><rect class="cls-1" x="768.59" y="487.94" width="5.56" height="13.91" rx="2.78"/><rect class="cls-1" x="768.59" y="465.69" width="5.56" height="13.91" rx="2.78"/><rect class="cls-1" x="746.34" y="465.69" width="5.56" height="13.91" rx="2.78"/><rect class="cls-1" x="724.09" y="465.69" width="5.56" height="13.91" rx="2.78"/><rect class="cls-1" x="724.09" y="443.44" width="5.56" height="13.91" rx="2.78"/><rect class="cls-1" x="724.09" y="421.19" width="5.56" height="13.91" rx="2.78"/><rect class="cls-1" x="746.34" y="421.19" width="5.56" height="13.91" rx="2.78"/><rect class="cls-1" x="768.59" y="421.19" width="5.56" height="13.91" rx="2.78"/><rect class="cls-1" x="790.84" y="421.19" width="5.56" height="13.91" rx="2.78"/><rect class="cls-1" x="813.09" y="421.19" width="5.56" height="13.91" rx="2.78"/><rect class="cls-1" x="813.09" y="398.94" width="5.56" height="13.91" rx="2.78"/><rect class="cls-1" x="813.09" y="376.69" width="5.56" height="13.91" rx="2.78"/><rect class="cls-1" x="790.84" y="376.69" width="5.56" height="13.91" rx="2.78"/><rect class="cls-1" x="768.59" y="376.69" width="5.56" height="13.91" rx="2.78"/><rect class="cls-1" x="768.59" y="354.44" width="5.56" height="13.91" rx="2.78"/><rect class="cls-1" x="768.59" y="332.19" width="5.56" height="13.91" rx="2.78"/><rect class="cls-1" x="790.84" y="332.19" width="5.56" height="13.91" rx="2.78"/><rect class="cls-1" x="813.09" y="332.19" width="5.56" height="13.91" rx="2.78"/><rect class="cls-1" x="813.09" y="309.94" width="5.56" height="13.91" rx="2.78"/><rect class="cls-1" x="813.09" y="287.69" width="5.56" height="13.91" rx="2.78"/><rect class="cls-1" x="790.84" y="287.69" width="5.56" height="13.91" rx="2.78"/><rect class="cls-1" x="768.59" y="287.69" width="5.56" height="13.91" rx="2.78"/><rect class="cls-1" x="746.34" y="287.69" width="5.56" height="13.91" rx="2.78"/><rect class="cls-1" x="724.09" y="287.69" width="5.56" height="13.91" rx="2.78"/><rect class="cls-1" x="724.09" y="265.44" width="5.56" height="13.91" rx="2.78"/><rect class="cls-1" x="724.09" y="243.19" width="5.56" height="13.91" rx="2.78"/><rect class="cls-1" x="746.34" y="243.19" width="5.56" height="13.91" rx="2.78"/><rect class="cls-1" x="768.59" y="243.19" width="5.56" height="13.91" rx="2.78"/><rect class="cls-1" x="768.59" y="220.94" width="5.56" height="13.91" rx="2.78"/><rect class="cls-1" x="768.59" y="198.69" width="5.56" height="13.91" rx="2.78"/><rect class="cls-1" x="746.34" y="198.69" width="5.56" height="13.91" rx="2.78"/><rect class="cls-1" x="724.09" y="198.69" width="5.56" height="13.91" rx="2.78"/><rect class="cls-1" x="657.34" y="131.94" width="5.56" height="13.91" rx="2.78"/><rect class="cls-1" x="679.59" y="131.94" width="5.56" height="13.91" rx="2.78"/><rect class="cls-1" x="679.59" y="154.19" width="5.56" height="13.91" rx="2.78"/><rect class="cls-1" x="679.59" y="176.44" width="5.56" height="13.91" rx="2.78"/><rect class="cls-1" x="679.59" y="198.69" width="5.56" height="13.91" rx="2.78"/><rect class="cls-1" x="679.59" y="220.94" width="5.56" height="13.91" rx="2.78"/><rect class="cls-1" x="679.59" y="243.19" width="5.56" height="13.91" rx="2.78"/><rect class="cls-1" x="679.59" y="265.44" width="5.56" height="13.91" rx="2.78"/><rect class="cls-1" x="679.59" y="287.69" width="5.56" height="13.91" rx="2.78"/><rect class="cls-1" x="679.59" y="309.94" width="5.56" height="13.91" rx="2.78"/><rect class="cls-1" x="679.59" y="332.19" width="5.56" height="13.91" rx="2.78"/><rect class="cls-1" x="701.84" y="332.19" width="5.56" height="13.91" rx="2.78"/><rect class="cls-1" x="724.09" y="332.19" width="5.56" height="13.91" rx="2.78"/><rect class="cls-1" x="724.09" y="354.44" width="5.56" height="13.91" rx="2.78"/><rect class="cls-1" x="724.09" y="376.69" width="5.56" height="13.91" rx="2.78"/><rect class="cls-1" x="701.84" y="376.69" width="5.56" height="13.91" rx="2.78"/><rect class="cls-1" x="679.59" y="376.69" width="5.56" height="13.91" rx="2.78"/><rect class="cls-1" x="679.59" y="398.94" width="5.56" height="13.91" rx="2.78"/><rect class="cls-1" x="679.59" y="421.19" width="5.56" height="13.91" rx="2.78"/><rect class="cls-1" x="679.59" y="443.44" width="5.56" height="13.91" rx="2.78"/><rect class="cls-1" x="679.59" y="465.69" width="5.56" height="13.91" rx="2.78"/><rect class="cls-1" x="657.34" y="465.69" width="5.56" height="13.91" rx="2.78"/><rect class="cls-1" x="635.09" y="465.69" width="5.56" height="13.91" rx="2.78"/><rect class="cls-1" x="635.09" y="443.44" width="5.56" height="13.91" rx="2.78"/><rect class="cls-1" x="635.09" y="421.19" width="5.56" height="13.91" rx="2.78"/><rect class="cls-1" x="635.09" y="398.94" width="5.56" height="13.91" rx="2.78"/><rect class="cls-1" x="635.09" y="376.69" width="5.56" height="13.91" rx="2.78"/><rect class="cls-1" x="612.84" y="376.69" width="5.56" height="13.91" rx="2.78"/><rect class="cls-1" x="590.59" y="376.69" width="5.56" height="13.91" rx="2.78"/><rect class="cls-1" x="590.59" y="354.44" width="5.56" height="13.91" rx="2.78"/><rect class="cls-1" x="590.59" y="332.19" width="5.56" height="13.91" rx="2.78"/><rect class="cls-1" x="612.84" y="332.19" width="5.56" height="13.91" rx="2.78"/><rect class="cls-1" x="635.09" y="332.19" width="5.56" height="13.91" rx="2.78"/><rect class="cls-1" x="635.09" y="309.94" width="5.56" height="13.91" rx="2.78"/><rect class="cls-1" x="635.09" y="287.69" width="5.56" height="13.91" rx="2.78"/><rect class="cls-1" x="635.09" y="265.44" width="5.56" height="13.91" rx="2.78"/><rect class="cls-1" x="635.09" y="243.19" width="5.56" height="13.91" rx="2.78"/></svg>