<svg id="Lines" xmlns="http://www.w3.org/2000/svg" viewBox="0 0 1700 720"><defs><style>.cls-1{fill:#231f20;}</style></defs><rect class="cls-1" x="124.78" y="576.94" width="3.67" height="13.91" rx="1.84" transform="translate(449.96 81.48) rotate(45)"/><rect class="cls-1" x="124.78" y="554.69" width="3.67" height="13.91" rx="1.84" transform="translate(434.23 74.97) rotate(45)"/><rect class="cls-1" x="124.78" y="532.44" width="3.67" height="13.91" rx="1.84" transform="translate(418.49 68.45) rotate(45)"/><rect class="cls-1" x="124.78" y="510.19" width="3.67" height="13.91" rx="1.84" transform="translate(402.76 61.93) rotate(45)"/><rect class="cls-1" x="124.78" y="487.94" width="3.67" height="13.91" rx="1.84" transform="translate(387.03 55.42) rotate(45)"/><rect class="cls-1" x="124.78" y="465.69" width="3.67" height="13.91" rx="1.84" transform="translate(371.29 48.9) rotate(45)"/><rect class="cls-1" x="124.78" y="443.44" width="3.67" height="13.91" rx="1.84" transform="translate(355.56 42.38) rotate(45)"/><rect class="cls-1" x="124.78" y="421.19" width="3.67" height="13.91" rx="1.84" transform="translate(339.83 35.87) rotate(45)"/><rect class="cls-1" x="124.78" y="398.94" width="3.67" height="13.91" rx="1.84" transform="translate(324.09 29.35) rotate(45)"/><rect class="cls-1" x="124.78" y="376.69" width="3.67" height="13.91" rx="1.84" transform="translate(308.36 22.83) rotate(45)"/><rect class="cls-1" x="124.78" y="354.44" width="3.67" height="13.91" rx="1.84" transform="translate(292.63 16.32) rotate(45)"/><rect class="cls-1" x="124.78" y="332.19" width="3.67" height="13.91" rx="1.84" transform="translate(276.89 9.8) rotate(45)"/><rect class="cls-1" x="124.78" y="309.94" width="3.67" height="13.91" rx="1.84" transform="translate(261.16 3.28) rotate(45)"/><rect class="cls-1" x="124.78" y="287.69" width="3.67" height="13.91" rx="1.84" transform="translate(245.43 -3.24) rotate(45)"/><rect class="cls-1" x="124.78" y="265.44" width="3.67" height="13.91" rx="1.84" transform="translate(229.7 -9.75) rotate(45)"/><rect class="cls-1" x="124.78" y="243.19" width="3.67" height="13.91" rx="1.84" transform="translate(213.96 -16.27) rotate(45)"/><rect class="cls-1" x="124.78" y="220.94" width="3.67" height="13.91" rx="1.84" transform="translate(198.23 -22.79) rotate(45)"/><rect class="cls-1" x="124.78" y="198.69" width="3.67" height="13.91" rx="1.84" transform="translate(182.5 -29.3) rotate(45)"/><rect class="cls-1" x="124.78" y="176.44" width="3.67" height="13.91" rx="1.84" transform="translate(166.76 -35.82) rotate(45)"/><rect class="cls-1" x="124.78" y="154.19" width="3.67" height="13.91" rx="1.84" transform="translate(151.03 -42.34) rotate(45)"/><rect class="cls-1" x="124.78" y="131.94" width="3.67" height="13.91" rx="1.84" transform="translate(135.3 -48.85) rotate(45)"/><rect class="cls-1" x="147.03" y="131.94" width="3.67" height="13.91" rx="1.84" transform="translate(141.81 -64.59) rotate(45)"/><rect class="cls-1" x="169.28" y="131.94" width="3.67" height="13.91" rx="1.84" transform="translate(148.33 -80.32) rotate(45)"/><rect class="cls-1" x="191.53" y="131.94" width="3.67" height="13.91" rx="1.84" transform="translate(154.85 -96.05) rotate(45)"/><rect class="cls-1" x="213.78" y="131.94" width="3.67" height="13.91" rx="1.84" transform="translate(161.36 -111.79) rotate(45)"/><rect class="cls-1" x="236.03" y="131.94" width="3.67" height="13.91" rx="1.84" transform="translate(167.88 -127.52) rotate(45)"/><rect class="cls-1" x="258.28" y="131.94" width="3.67" height="13.91" rx="1.84" transform="translate(174.4 -143.25) rotate(45)"/><rect class="cls-1" x="280.53" y="131.94" width="3.67" height="13.91" rx="1.84" transform="translate(180.91 -158.99) rotate(45)"/><rect class="cls-1" x="302.78" y="131.94" width="3.67" height="13.91" rx="1.84" transform="translate(187.43 -174.72) rotate(45)"/><rect class="cls-1" x="325.03" y="131.94" width="3.67" height="13.91" rx="1.84" transform="translate(193.95 -190.45) rotate(45)"/><rect class="cls-1" x="347.28" y="131.94" width="3.67" height="13.91" rx="1.84" transform="translate(200.47 -206.18) rotate(45)"/><rect class="cls-1" x="347.28" y="154.19" width="3.67" height="13.91" rx="1.84" transform="translate(216.2 -199.67) rotate(45)"/><rect class="cls-1" x="347.28" y="176.44" width="3.67" height="13.91" rx="1.84" transform="translate(231.93 -193.15) rotate(45)"/><rect class="cls-1" x="369.53" y="176.44" width="3.67" height="13.91" rx="1.84" transform="translate(238.45 -208.88) rotate(45)"/><rect class="cls-1" x="391.78" y="176.44" width="3.67" height="13.91" rx="1.84" transform="translate(244.97 -224.62) rotate(45)"/><rect class="cls-1" x="391.78" y="198.69" width="3.67" height="13.91" rx="1.84" transform="translate(260.7 -218.1) rotate(45)"/><rect class="cls-1" x="347.28" y="220.94" width="3.67" height="13.91" rx="1.84" transform="translate(263.4 -180.12) rotate(45)"/><rect class="cls-1" x="347.28" y="243.19" width="3.67" height="13.91" rx="1.84" transform="translate(279.13 -173.6) rotate(45)"/><rect class="cls-1" x="369.53" y="220.94" width="3.67" height="13.91" rx="1.84" transform="translate(269.92 -195.85) rotate(45)"/><rect class="cls-1" x="391.78" y="220.94" width="3.67" height="13.91" rx="1.84" transform="translate(276.43 -211.58) rotate(45)"/><rect class="cls-1" x="347.28" y="332.19" width="3.67" height="13.91" rx="1.84" transform="translate(342.06 -147.53) rotate(45)"/><rect class="cls-1" x="347.28" y="354.44" width="3.67" height="13.91" rx="1.84" transform="translate(357.8 -141.02) rotate(45)"/><rect class="cls-1" x="369.53" y="354.44" width="3.67" height="13.91" rx="1.84" transform="translate(364.31 -156.75) rotate(45)"/><rect class="cls-1" x="391.78" y="354.44" width="3.67" height="13.91" rx="1.84" transform="translate(370.83 -172.48) rotate(45)"/><rect class="cls-1" x="391.78" y="376.69" width="3.67" height="13.91" rx="1.84" transform="translate(386.56 -165.97) rotate(45)"/><rect class="cls-1" x="347.28" y="398.94" width="3.67" height="13.91" rx="1.84" transform="translate(389.26 -127.98) rotate(45)"/><rect class="cls-1" x="347.28" y="421.19" width="3.67" height="13.91" rx="1.84" transform="translate(405 -121.47) rotate(45)"/><rect class="cls-1" x="347.28" y="443.44" width="3.67" height="13.91" rx="1.84" transform="translate(420.73 -114.95) rotate(45)"/><rect class="cls-1" x="325.03" y="443.44" width="3.67" height="13.91" rx="1.84" transform="translate(414.21 -99.22) rotate(45)"/><rect class="cls-1" x="302.78" y="443.44" width="3.67" height="13.91" rx="1.84" transform="translate(407.69 -83.48) rotate(45)"/><rect class="cls-1" x="302.78" y="421.19" width="3.67" height="13.91" rx="1.84" transform="translate(391.96 -90) rotate(45)"/><rect class="cls-1" x="302.78" y="398.94" width="3.67" height="13.91" rx="1.84" transform="translate(376.23 -96.52) rotate(45)"/><rect class="cls-1" x="302.78" y="376.69" width="3.67" height="13.91" rx="1.84" transform="translate(360.5 -103.03) rotate(45)"/><rect class="cls-1" x="302.78" y="354.44" width="3.67" height="13.91" rx="1.84" transform="translate(344.76 -109.55) rotate(45)"/><rect class="cls-1" x="302.78" y="332.19" width="3.67" height="13.91" rx="1.84" transform="translate(329.03 -116.07) rotate(45)"/><rect class="cls-1" x="302.78" y="309.94" width="3.67" height="13.91" rx="1.84" transform="translate(313.3 -122.58) rotate(45)"/><rect class="cls-1" x="302.78" y="287.69" width="3.67" height="13.91" rx="1.84" transform="translate(297.56 -129.1) rotate(45)"/><rect class="cls-1" x="302.78" y="265.44" width="3.67" height="13.91" rx="1.84" transform="translate(281.83 -135.62) rotate(45)"/><rect class="cls-1" x="302.78" y="243.19" width="3.67" height="13.91" rx="1.84" transform="translate(266.1 -142.13) rotate(45)"/><rect class="cls-1" x="302.78" y="220.94" width="3.67" height="13.91" rx="1.84" transform="translate(250.36 -148.65) rotate(45)"/><rect class="cls-1" x="302.78" y="198.69" width="3.67" height="13.91" rx="1.84" transform="translate(234.63 -155.17) rotate(45)"/><rect class="cls-1" x="302.78" y="176.44" width="3.67" height="13.91" rx="1.84" transform="translate(218.9 -161.68) rotate(45)"/><rect class="cls-1" x="258.28" y="443.44" width="3.67" height="13.91" rx="1.84" transform="translate(394.66 -52.02) rotate(45)"/><rect class="cls-1" x="258.28" y="465.69" width="3.67" height="13.91" rx="1.84" transform="translate(410.39 -45.5) rotate(45)"/><rect class="cls-1" x="258.28" y="487.94" width="3.67" height="13.91" rx="1.84" transform="translate(426.13 -38.98) rotate(45)"/><rect class="cls-1" x="258.28" y="510.19" width="3.67" height="13.91" rx="1.84" transform="translate(441.86 -32.47) rotate(45)"/><rect class="cls-1" x="258.28" y="532.44" width="3.67" height="13.91" rx="1.84" transform="translate(457.59 -25.95) rotate(45)"/><rect class="cls-1" x="258.28" y="554.69" width="3.67" height="13.91" rx="1.84" transform="translate(473.33 -19.43) rotate(45)"/><rect class="cls-1" x="258.28" y="576.94" width="3.67" height="13.91" rx="1.84" transform="translate(489.06 -12.92) rotate(45)"/><rect class="cls-1" x="258.28" y="421.19" width="3.67" height="13.91" rx="1.84" transform="translate(378.93 -58.53) rotate(45)"/><rect class="cls-1" x="258.28" y="398.94" width="3.67" height="13.91" rx="1.84" transform="translate(363.2 -65.05) rotate(45)"/><rect class="cls-1" x="258.28" y="376.69" width="3.67" height="13.91" rx="1.84" transform="translate(347.46 -71.57) rotate(45)"/><rect class="cls-1" x="258.28" y="354.44" width="3.67" height="13.91" rx="1.84" transform="translate(331.73 -78.08) rotate(45)"/><rect class="cls-1" x="258.28" y="332.19" width="3.67" height="13.91" rx="1.84" transform="translate(316 -84.6) rotate(45)"/><rect class="cls-1" x="258.28" y="309.94" width="3.67" height="13.91" rx="1.84" transform="translate(300.26 -91.12) rotate(45)"/><rect class="cls-1" x="258.28" y="287.69" width="3.67" height="13.91" rx="1.84" transform="translate(284.53 -97.63) rotate(45)"/><rect class="cls-1" x="258.28" y="265.44" width="3.67" height="13.91" rx="1.84" transform="translate(268.8 -104.15) rotate(45)"/><rect class="cls-1" x="258.28" y="243.19" width="3.67" height="13.91" rx="1.84" transform="translate(253.06 -110.67) rotate(45)"/><rect class="cls-1" x="258.28" y="220.94" width="3.67" height="13.91" rx="1.84" transform="translate(237.33 -117.18) rotate(45)"/><rect class="cls-1" x="258.28" y="198.69" width="3.67" height="13.91" rx="1.84" transform="translate(221.6 -123.7) rotate(45)"/><rect class="cls-1" x="258.28" y="176.44" width="3.67" height="13.91" rx="1.84" transform="translate(205.86 -130.22) rotate(45)"/><rect class="cls-1" x="236.03" y="176.44" width="3.67" height="13.91" rx="1.84" transform="translate(199.35 -114.49) rotate(45)"/><rect class="cls-1" x="213.78" y="176.44" width="3.67" height="13.91" rx="1.84" transform="translate(192.83 -98.75) rotate(45)"/><rect class="cls-1" x="191.53" y="176.44" width="3.67" height="13.91" rx="1.84" transform="translate(186.31 -83.02) rotate(45)"/><rect class="cls-1" x="169.28" y="176.44" width="3.67" height="13.91" rx="1.84" transform="translate(179.8 -67.29) rotate(45)"/><rect class="cls-1" x="213.78" y="220.94" width="3.67" height="13.91" rx="1.84" transform="translate(224.3 -85.72) rotate(45)"/><rect class="cls-1" x="213.78" y="243.19" width="3.67" height="13.91" rx="1.84" transform="translate(240.03 -79.2) rotate(45)"/><rect class="cls-1" x="191.53" y="220.94" width="3.67" height="13.91" rx="1.84" transform="translate(217.78 -69.99) rotate(45)"/><rect class="cls-1" x="169.28" y="220.94" width="3.67" height="13.91" rx="1.84" transform="translate(211.26 -54.25) rotate(45)"/><rect class="cls-1" x="213.78" y="265.44" width="3.67" height="13.91" rx="1.84" transform="translate(255.76 -72.68) rotate(45)"/><rect class="cls-1" x="191.53" y="265.44" width="3.67" height="13.91" rx="1.84" transform="translate(249.25 -56.95) rotate(45)"/><rect class="cls-1" x="169.28" y="265.44" width="3.67" height="13.91" rx="1.84" transform="translate(242.73 -41.22) rotate(45)"/><rect class="cls-1" x="169.28" y="198.69" width="3.67" height="13.91" rx="1.84" transform="translate(195.53 -60.77) rotate(45)"/><rect class="cls-1" x="213.78" y="309.94" width="3.67" height="13.91" rx="1.84" transform="translate(287.23 -59.65) rotate(45)"/><rect class="cls-1" x="213.78" y="332.19" width="3.67" height="13.91" rx="1.84" transform="translate(302.96 -53.13) rotate(45)"/><rect class="cls-1" x="191.53" y="309.94" width="3.67" height="13.91" rx="1.84" transform="translate(280.71 -43.92) rotate(45)"/><rect class="cls-1" x="169.28" y="309.94" width="3.67" height="13.91" rx="1.84" transform="translate(274.2 -28.18) rotate(45)"/><rect class="cls-1" x="213.78" y="354.44" width="3.67" height="13.91" rx="1.84" transform="translate(318.7 -46.62) rotate(45)"/><rect class="cls-1" x="191.53" y="354.44" width="3.67" height="13.91" rx="1.84" transform="translate(312.18 -30.88) rotate(45)"/><rect class="cls-1" x="169.28" y="354.44" width="3.67" height="13.91" rx="1.84" transform="translate(305.66 -15.15) rotate(45)"/><rect class="cls-1" x="213.78" y="443.44" width="3.67" height="13.91" rx="1.84" transform="translate(381.63 -20.55) rotate(45)"/><rect class="cls-1" x="191.53" y="443.44" width="3.67" height="13.91" rx="1.84" transform="translate(375.11 -4.82) rotate(45)"/><rect class="cls-1" x="169.28" y="443.44" width="3.67" height="13.91" rx="1.84" transform="translate(368.59 10.92) rotate(45)"/><rect class="cls-1" x="169.28" y="287.69" width="3.67" height="13.91" rx="1.84" transform="translate(258.46 -34.7) rotate(45)"/><rect class="cls-1" x="213.78" y="398.94" width="3.67" height="13.91" rx="1.84" transform="translate(350.16 -33.58) rotate(45)"/><rect class="cls-1" x="213.78" y="421.19" width="3.67" height="13.91" rx="1.84" transform="translate(365.9 -27.07) rotate(45)"/><rect class="cls-1" x="191.53" y="398.94" width="3.67" height="13.91" rx="1.84" transform="translate(343.64 -17.85) rotate(45)"/><rect class="cls-1" x="169.28" y="398.94" width="3.67" height="13.91" rx="1.84" transform="translate(337.13 -2.12) rotate(45)"/><rect class="cls-1" x="169.28" y="376.69" width="3.67" height="13.91" rx="1.84" transform="translate(321.4 -8.63) rotate(45)"/><rect class="cls-1" x="213.78" y="487.94" width="3.67" height="13.91" rx="1.84" transform="translate(413.09 -7.52) rotate(45)"/><rect class="cls-1" x="213.78" y="510.19" width="3.67" height="13.91" rx="1.84" transform="translate(428.83 -1) rotate(45)"/><rect class="cls-1" x="191.53" y="487.94" width="3.67" height="13.91" rx="1.84" transform="translate(406.58 8.22) rotate(45)"/><rect class="cls-1" x="169.28" y="487.94" width="3.67" height="13.91" rx="1.84" transform="translate(400.06 23.95) rotate(45)"/><rect class="cls-1" x="191.53" y="576.94" width="3.67" height="13.91" rx="1.84" transform="translate(469.51 34.28) rotate(45)"/><rect class="cls-1" x="213.78" y="576.94" width="3.67" height="13.91" rx="1.84" transform="translate(476.03 18.55) rotate(45)"/><rect class="cls-1" x="236.03" y="576.94" width="3.67" height="13.91" rx="1.84" transform="translate(482.54 2.82) rotate(45)"/><rect class="cls-1" x="169.28" y="576.94" width="3.67" height="13.91" rx="1.84" transform="translate(462.99 50.02) rotate(45)"/><rect class="cls-1" x="147.03" y="576.94" width="3.67" height="13.91" rx="1.84" transform="translate(456.48 65.75) rotate(45)"/><rect class="cls-1" x="213.78" y="532.44" width="3.67" height="13.91" rx="1.84" transform="translate(444.56 5.52) rotate(45)"/><rect class="cls-1" x="191.53" y="532.44" width="3.67" height="13.91" rx="1.84" transform="translate(438.04 21.25) rotate(45)"/><rect class="cls-1" x="169.28" y="532.44" width="3.67" height="13.91" rx="1.84" transform="translate(431.53 36.98) rotate(45)"/><rect class="cls-1" x="169.28" y="465.69" width="3.67" height="13.91" rx="1.84" transform="translate(384.33 17.43) rotate(45)"/><rect class="cls-1" x="369.53" y="398.94" width="3.67" height="13.91" rx="1.84" transform="translate(395.78 -143.72) rotate(45)"/><rect class="cls-1" x="391.78" y="398.94" width="3.67" height="13.91" rx="1.84" transform="translate(402.3 -159.45) rotate(45)"/><rect class="cls-1" x="347.28" y="265.44" width="3.67" height="13.91" rx="1.84" transform="translate(294.86 -167.08) rotate(45)"/><rect class="cls-1" x="369.53" y="265.44" width="3.67" height="13.91" rx="1.84" transform="translate(301.38 -182.82) rotate(45)"/><rect class="cls-1" x="391.78" y="265.44" width="3.67" height="13.91" rx="1.84" transform="translate(307.9 -198.55) rotate(45)"/><rect class="cls-1" x="347.28" y="309.94" width="3.67" height="13.91" rx="1.84" transform="translate(326.33 -154.05) rotate(45)"/><rect class="cls-1" x="369.53" y="309.94" width="3.67" height="13.91" rx="1.84" transform="translate(332.85 -169.78) rotate(45)"/><rect class="cls-1" x="391.78" y="309.94" width="3.67" height="13.91" rx="1.84" transform="translate(339.36 -185.52) rotate(45)"/><rect class="cls-1" x="414.03" y="265.44" width="3.67" height="13.91" rx="1.84" transform="translate(314.41 -214.28) rotate(45)"/><rect class="cls-1" x="414.03" y="309.94" width="3.67" height="13.91" rx="1.84" transform="translate(345.88 -201.25) rotate(45)"/><rect class="cls-1" x="436.28" y="265.44" width="3.67" height="13.91" rx="1.84" transform="translate(320.93 -230.02) rotate(45)"/><rect class="cls-1" x="436.28" y="287.69" width="3.67" height="13.91" rx="1.84" transform="translate(336.66 -223.5) rotate(45)"/><rect class="cls-1" x="436.28" y="309.94" width="3.67" height="13.91" rx="1.84" transform="translate(352.4 -216.98) rotate(45)"/><rect class="cls-1" x="1260.04" y="576.94" width="3.67" height="13.91" rx="1.84" transform="translate(782.47 -721.27) rotate(45)"/><rect class="cls-1" x="1282.29" y="576.94" width="3.67" height="13.91" rx="1.84" transform="translate(788.98 -737) rotate(45)"/><rect class="cls-1" x="1304.54" y="576.94" width="3.67" height="13.91" rx="1.84" transform="translate(795.5 -752.73) rotate(45)"/><rect class="cls-1" x="1326.79" y="576.94" width="3.67" height="13.91" rx="1.84" transform="translate(802.02 -768.47) rotate(45)"/><rect class="cls-1" x="1349.04" y="576.94" width="3.67" height="13.91" rx="1.84" transform="translate(808.54 -784.2) rotate(45)"/><rect class="cls-1" x="1260.04" y="554.69" width="3.67" height="13.91" rx="1.84" transform="translate(766.74 -727.78) rotate(45)"/><rect class="cls-1" x="1260.04" y="532.44" width="3.67" height="13.91" rx="1.84" transform="translate(751 -734.3) rotate(45)"/><rect class="cls-1" x="1260.04" y="510.19" width="3.67" height="13.91" rx="1.84" transform="translate(735.27 -740.82) rotate(45)"/><rect class="cls-1" x="1260.04" y="487.94" width="3.67" height="13.91" rx="1.84" transform="translate(719.54 -747.33) rotate(45)"/><rect class="cls-1" x="1260.04" y="465.69" width="3.67" height="13.91" rx="1.84" transform="translate(703.81 -753.85) rotate(45)"/><rect class="cls-1" x="1260.04" y="443.44" width="3.67" height="13.91" rx="1.84" transform="translate(688.07 -760.37) rotate(45)"/><rect class="cls-1" x="1260.04" y="421.19" width="3.67" height="13.91" rx="1.84" transform="translate(672.34 -766.88) rotate(45)"/><rect class="cls-1" x="1260.04" y="398.94" width="3.67" height="13.91" rx="1.84" transform="translate(656.6 -773.4) rotate(45)"/><rect class="cls-1" x="1260.04" y="376.69" width="3.67" height="13.91" rx="1.84" transform="translate(640.87 -779.92) rotate(45)"/><rect class="cls-1" x="1260.04" y="354.44" width="3.67" height="13.91" rx="1.84" transform="translate(625.14 -786.44) rotate(45)"/><rect class="cls-1" x="1260.04" y="332.19" width="3.67" height="13.91" rx="1.84" transform="translate(609.4 -792.95) rotate(45)"/><rect class="cls-1" x="1260.04" y="309.94" width="3.67" height="13.91" rx="1.84" transform="translate(593.67 -799.47) rotate(45)"/><rect class="cls-1" x="1260.04" y="287.69" width="3.67" height="13.91" rx="1.84" transform="translate(577.94 -805.98) rotate(45)"/><rect class="cls-1" x="1260.04" y="265.44" width="3.67" height="13.91" rx="1.84" transform="translate(562.21 -812.5) rotate(45)"/><rect class="cls-1" x="1260.04" y="243.19" width="3.67" height="13.91" rx="1.84" transform="translate(546.47 -819.02) rotate(45)"/><rect class="cls-1" x="1260.04" y="220.94" width="3.67" height="13.91" rx="1.84" transform="translate(530.74 -825.54) rotate(45)"/><rect class="cls-1" x="1260.04" y="198.69" width="3.67" height="13.91" rx="1.84" transform="translate(515.01 -832.05) rotate(45)"/><rect class="cls-1" x="1260.04" y="176.44" width="3.67" height="13.91" rx="1.84" transform="translate(499.27 -838.57) rotate(45)"/><rect class="cls-1" x="1260.04" y="154.19" width="3.67" height="13.91" rx="1.84" transform="translate(483.54 -845.09) rotate(45)"/><rect class="cls-1" x="1260.04" y="131.94" width="3.67" height="13.91" rx="1.84" transform="translate(467.81 -851.6) rotate(45)"/><rect class="cls-1" x="1282.29" y="131.94" width="3.67" height="13.91" rx="1.84" transform="translate(474.32 -867.34) rotate(45)"/><rect class="cls-1" x="1304.54" y="131.94" width="3.67" height="13.91" rx="1.84" transform="translate(480.84 -883.07) rotate(45)"/><rect class="cls-1" x="1326.79" y="131.94" width="3.67" height="13.91" rx="1.84" transform="translate(487.36 -898.8) rotate(45)"/><rect class="cls-1" x="1349.04" y="131.94" width="3.67" height="13.91" rx="1.84" transform="translate(493.87 -914.54) rotate(45)"/><rect class="cls-1" x="1371.29" y="131.94" width="3.67" height="13.91" rx="1.84" transform="translate(500.39 -930.27) rotate(45)"/><rect class="cls-1" x="1393.54" y="131.94" width="3.67" height="13.91" rx="1.84" transform="translate(506.91 -946) rotate(45)"/><rect class="cls-1" x="1415.79" y="131.94" width="3.67" height="13.91" rx="1.84" transform="translate(513.43 -961.74) rotate(45)"/><rect class="cls-1" x="1393.54" y="443.44" width="3.67" height="13.91" rx="1.84" transform="translate(727.17 -854.77) rotate(45)"/><rect class="cls-1" x="1393.54" y="465.69" width="3.67" height="13.91" rx="1.84" transform="translate(742.9 -848.25) rotate(45)"/><rect class="cls-1" x="1393.54" y="487.94" width="3.67" height="13.91" rx="1.84" transform="translate(758.64 -841.73) rotate(45)"/><rect class="cls-1" x="1393.54" y="510.19" width="3.67" height="13.91" rx="1.84" transform="translate(774.37 -835.22) rotate(45)"/><rect class="cls-1" x="1393.54" y="532.44" width="3.67" height="13.91" rx="1.84" transform="translate(790.1 -828.7) rotate(45)"/><rect class="cls-1" x="1393.54" y="554.69" width="3.67" height="13.91" rx="1.84" transform="translate(805.84 -822.18) rotate(45)"/><rect class="cls-1" x="1393.54" y="576.94" width="3.67" height="13.91" rx="1.84" transform="translate(821.57 -815.66) rotate(45)"/><rect class="cls-1" x="1415.79" y="576.94" width="3.67" height="13.91" rx="1.84" transform="translate(828.09 -831.4) rotate(45)"/><rect class="cls-1" x="1438.04" y="576.94" width="3.67" height="13.91" rx="1.84" transform="translate(834.61 -847.13) rotate(45)"/><rect class="cls-1" x="1438.04" y="554.69" width="3.67" height="13.91" rx="1.84" transform="translate(818.87 -853.65) rotate(45)"/><rect class="cls-1" x="1438.04" y="532.44" width="3.67" height="13.91" rx="1.84" transform="translate(803.14 -860.16) rotate(45)"/><rect class="cls-1" x="1438.04" y="510.19" width="3.67" height="13.91" rx="1.84" transform="translate(787.41 -866.68) rotate(45)"/><rect class="cls-1" x="1460.29" y="510.19" width="3.67" height="13.91" rx="1.84" transform="translate(793.92 -882.42) rotate(45)"/><rect class="cls-1" x="1482.54" y="510.19" width="3.67" height="13.91" rx="1.84" transform="translate(800.44 -898.15) rotate(45)"/><rect class="cls-1" x="1504.79" y="510.19" width="3.67" height="13.91" rx="1.84" transform="translate(806.96 -913.88) rotate(45)"/><rect class="cls-1" x="1527.04" y="510.19" width="3.67" height="13.91" rx="1.84" transform="translate(813.47 -929.62) rotate(45)"/><rect class="cls-1" x="1527.04" y="487.94" width="3.67" height="13.91" rx="1.84" transform="translate(797.74 -936.13) rotate(45)"/><rect class="cls-1" x="1527.04" y="465.69" width="3.67" height="13.91" rx="1.84" transform="translate(782.01 -942.65) rotate(45)"/><rect class="cls-1" x="1504.79" y="465.69" width="3.67" height="13.91" rx="1.84" transform="translate(775.49 -926.91) rotate(45)"/><rect class="cls-1" x="1482.54" y="465.69" width="3.67" height="13.91" rx="1.84" transform="translate(768.97 -911.18) rotate(45)"/><rect class="cls-1" x="1482.54" y="443.44" width="3.67" height="13.91" rx="1.84" transform="translate(753.24 -917.7) rotate(45)"/><rect class="cls-1" x="1482.54" y="421.19" width="3.67" height="13.91" rx="1.84" transform="translate(737.51 -924.22) rotate(45)"/><rect class="cls-1" x="1504.79" y="421.19" width="3.67" height="13.91" rx="1.84" transform="translate(744.02 -939.95) rotate(45)"/><rect class="cls-1" x="1527.04" y="421.19" width="3.67" height="13.91" rx="1.84" transform="translate(750.54 -955.68) rotate(45)"/><rect class="cls-1" x="1549.29" y="421.19" width="3.67" height="13.91" rx="1.84" transform="translate(757.05 -971.41) rotate(45)"/><rect class="cls-1" x="1571.54" y="421.19" width="3.67" height="13.91" rx="1.84" transform="translate(763.57 -987.15) rotate(45)"/><rect class="cls-1" x="1482.54" y="376.69" width="3.67" height="13.91" rx="1.84" transform="translate(706.04 -937.25) rotate(45)"/><rect class="cls-1" x="1482.54" y="354.44" width="3.67" height="13.91" rx="1.84" transform="translate(690.31 -943.77) rotate(45)"/><rect class="cls-1" x="1504.79" y="376.69" width="3.67" height="13.91" rx="1.84" transform="translate(712.56 -952.98) rotate(45)"/><rect class="cls-1" x="1527.04" y="376.69" width="3.67" height="13.91" rx="1.84" transform="translate(719.07 -968.72) rotate(45)"/><rect class="cls-1" x="1549.29" y="376.69" width="3.67" height="13.91" rx="1.84" transform="translate(725.59 -984.45) rotate(45)"/><rect class="cls-1" x="1571.54" y="376.69" width="3.67" height="13.91" rx="1.84" transform="translate(732.11 -1000.18) rotate(45)"/><rect class="cls-1" x="1571.54" y="398.94" width="3.67" height="13.91" rx="1.84" transform="translate(747.84 -993.67) rotate(45)"/><rect class="cls-1" x="1482.54" y="332.19" width="3.67" height="13.91" rx="1.84" transform="translate(674.57 -950.28) rotate(45)"/><rect class="cls-1" x="1504.79" y="332.19" width="3.67" height="13.91" rx="1.84" transform="translate(681.09 -966.02) rotate(45)"/><rect class="cls-1" x="1527.04" y="332.19" width="3.67" height="13.91" rx="1.84" transform="translate(687.61 -981.75) rotate(45)"/><rect class="cls-1" x="1549.29" y="332.19" width="3.67" height="13.91" rx="1.84" transform="translate(694.12 -997.48) rotate(45)"/><rect class="cls-1" x="1571.54" y="332.19" width="3.67" height="13.91" rx="1.84" transform="translate(700.64 -1013.22) rotate(45)"/><rect class="cls-1" x="1482.54" y="287.69" width="3.67" height="13.91" rx="1.84" transform="translate(643.1 -963.32) rotate(45)"/><rect class="cls-1" x="1482.54" y="265.44" width="3.67" height="13.91" rx="1.84" transform="translate(627.37 -969.83) rotate(45)"/><rect class="cls-1" x="1482.54" y="243.19" width="3.67" height="13.91" rx="1.84" transform="translate(611.64 -976.35) rotate(45)"/><rect class="cls-1" x="1504.79" y="243.19" width="3.67" height="13.91" rx="1.84" transform="translate(618.16 -992.09) rotate(45)"/><rect class="cls-1" x="1527.04" y="243.19" width="3.67" height="13.91" rx="1.84" transform="translate(624.68 -1007.82) rotate(45)"/><rect class="cls-1" x="1527.04" y="220.94" width="3.67" height="13.91" rx="1.84" transform="translate(608.94 -1014.34) rotate(45)"/><rect class="cls-1" x="1527.04" y="198.69" width="3.67" height="13.91" rx="1.84" transform="translate(593.21 -1020.85) rotate(45)"/><rect class="cls-1" x="1504.79" y="198.69" width="3.67" height="13.91" rx="1.84" transform="translate(586.69 -1005.12) rotate(45)"/><rect class="cls-1" x="1482.54" y="198.69" width="3.67" height="13.91" rx="1.84" transform="translate(580.18 -989.39) rotate(45)"/><rect class="cls-1" x="1460.29" y="198.69" width="3.67" height="13.91" rx="1.84" transform="translate(573.66 -973.65) rotate(45)"/><rect class="cls-1" x="1438.04" y="198.69" width="3.67" height="13.91" rx="1.84" transform="translate(567.14 -957.92) rotate(45)"/><rect class="cls-1" x="1438.04" y="176.44" width="3.67" height="13.91" rx="1.84" transform="translate(551.41 -964.44) rotate(45)"/><rect class="cls-1" x="1438.04" y="154.19" width="3.67" height="13.91" rx="1.84" transform="translate(535.67 -970.95) rotate(45)"/><rect class="cls-1" x="1438.04" y="131.94" width="3.67" height="13.91" rx="1.84" transform="translate(519.94 -977.47) rotate(45)"/><rect class="cls-1" x="1504.79" y="287.69" width="3.67" height="13.91" rx="1.84" transform="translate(649.62 -979.05) rotate(45)"/><rect class="cls-1" x="1527.04" y="287.69" width="3.67" height="13.91" rx="1.84" transform="translate(656.14 -994.78) rotate(45)"/><rect class="cls-1" x="1549.29" y="287.69" width="3.67" height="13.91" rx="1.84" transform="translate(662.66 -1010.52) rotate(45)"/><rect class="cls-1" x="1571.54" y="287.69" width="3.67" height="13.91" rx="1.84" transform="translate(669.17 -1026.25) rotate(45)"/><rect class="cls-1" x="1571.54" y="309.94" width="3.67" height="13.91" rx="1.84" transform="translate(684.91 -1019.73) rotate(45)"/><rect class="cls-1" x="1393.54" y="421.19" width="3.67" height="13.91" rx="1.84" transform="translate(711.44 -861.28) rotate(45)"/><rect class="cls-1" x="1393.54" y="398.94" width="3.67" height="13.91" rx="1.84" transform="translate(695.7 -867.8) rotate(45)"/><rect class="cls-1" x="1393.54" y="376.69" width="3.67" height="13.91" rx="1.84" transform="translate(679.97 -874.32) rotate(45)"/><rect class="cls-1" x="1393.54" y="354.44" width="3.67" height="13.91" rx="1.84" transform="translate(664.24 -880.83) rotate(45)"/><rect class="cls-1" x="1393.54" y="332.19" width="3.67" height="13.91" rx="1.84" transform="translate(648.51 -887.35) rotate(45)"/><rect class="cls-1" x="1393.54" y="309.94" width="3.67" height="13.91" rx="1.84" transform="translate(632.77 -893.87) rotate(45)"/><rect class="cls-1" x="1393.54" y="287.69" width="3.67" height="13.91" rx="1.84" transform="translate(617.04 -900.38) rotate(45)"/><rect class="cls-1" x="1393.54" y="265.44" width="3.67" height="13.91" rx="1.84" transform="translate(601.31 -906.9) rotate(45)"/><rect class="cls-1" x="1393.54" y="243.19" width="3.67" height="13.91" rx="1.84" transform="translate(585.58 -913.42) rotate(45)"/><rect class="cls-1" x="1393.54" y="220.94" width="3.67" height="13.91" rx="1.84" transform="translate(569.84 -919.93) rotate(45)"/><rect class="cls-1" x="1393.54" y="198.69" width="3.67" height="13.91" rx="1.84" transform="translate(554.11 -926.45) rotate(45)"/><rect class="cls-1" x="1393.54" y="176.44" width="3.67" height="13.91" rx="1.84" transform="translate(538.37 -932.97) rotate(45)"/><rect class="cls-1" x="1371.29" y="176.44" width="3.67" height="13.91" rx="1.84" transform="translate(531.86 -917.24) rotate(45)"/><rect class="cls-1" x="1349.04" y="176.44" width="3.67" height="13.91" rx="1.84" transform="translate(525.34 -901.5) rotate(45)"/><rect class="cls-1" x="1326.79" y="176.44" width="3.67" height="13.91" rx="1.84" transform="translate(518.82 -885.77) rotate(45)"/><rect class="cls-1" x="1304.54" y="176.44" width="3.67" height="13.91" rx="1.84" transform="translate(512.31 -870.04) rotate(45)"/><rect class="cls-1" x="1349.04" y="220.94" width="3.67" height="13.91" rx="1.84" transform="translate(556.81 -888.47) rotate(45)"/><rect class="cls-1" x="1349.04" y="243.19" width="3.67" height="13.91" rx="1.84" transform="translate(572.54 -881.95) rotate(45)"/><rect class="cls-1" x="1326.79" y="220.94" width="3.67" height="13.91" rx="1.84" transform="translate(550.29 -872.74) rotate(45)"/><rect class="cls-1" x="1304.54" y="220.94" width="3.67" height="13.91" rx="1.84" transform="translate(543.77 -857) rotate(45)"/><rect class="cls-1" x="1349.04" y="265.44" width="3.67" height="13.91" rx="1.84" transform="translate(588.27 -875.43) rotate(45)"/><rect class="cls-1" x="1326.79" y="265.44" width="3.67" height="13.91" rx="1.84" transform="translate(581.76 -859.7) rotate(45)"/><rect class="cls-1" x="1304.54" y="265.44" width="3.67" height="13.91" rx="1.84" transform="translate(575.24 -843.97) rotate(45)"/><rect class="cls-1" x="1304.54" y="198.69" width="3.67" height="13.91" rx="1.84" transform="translate(528.04 -863.52) rotate(45)"/><rect class="cls-1" x="1349.04" y="309.94" width="3.67" height="13.91" rx="1.84" transform="translate(619.74 -862.4) rotate(45)"/><rect class="cls-1" x="1349.04" y="332.19" width="3.67" height="13.91" rx="1.84" transform="translate(635.47 -855.88) rotate(45)"/><rect class="cls-1" x="1326.79" y="309.94" width="3.67" height="13.91" rx="1.84" transform="translate(613.22 -846.67) rotate(45)"/><rect class="cls-1" x="1304.54" y="309.94" width="3.67" height="13.91" rx="1.84" transform="translate(606.7 -830.93) rotate(45)"/><rect class="cls-1" x="1349.04" y="354.44" width="3.67" height="13.91" rx="1.84" transform="translate(651.21 -849.37) rotate(45)"/><rect class="cls-1" x="1326.79" y="354.44" width="3.67" height="13.91" rx="1.84" transform="translate(644.69 -833.64) rotate(45)"/><rect class="cls-1" x="1304.54" y="354.44" width="3.67" height="13.91" rx="1.84" transform="translate(638.17 -817.9) rotate(45)"/><rect class="cls-1" x="1349.04" y="443.44" width="3.67" height="13.91" rx="1.84" transform="translate(714.14 -823.3) rotate(45)"/><rect class="cls-1" x="1326.79" y="443.44" width="3.67" height="13.91" rx="1.84" transform="translate(707.62 -807.57) rotate(45)"/><rect class="cls-1" x="1304.54" y="443.44" width="3.67" height="13.91" rx="1.84" transform="translate(701.1 -791.83) rotate(45)"/><rect class="cls-1" x="1304.54" y="287.69" width="3.67" height="13.91" rx="1.84" transform="translate(590.97 -837.45) rotate(45)"/><rect class="cls-1" x="1349.04" y="398.94" width="3.67" height="13.91" rx="1.84" transform="translate(682.67 -836.33) rotate(45)"/><rect class="cls-1" x="1349.04" y="421.19" width="3.67" height="13.91" rx="1.84" transform="translate(698.41 -829.82) rotate(45)"/><rect class="cls-1" x="1326.79" y="398.94" width="3.67" height="13.91" rx="1.84" transform="translate(676.15 -820.6) rotate(45)"/><rect class="cls-1" x="1304.54" y="398.94" width="3.67" height="13.91" rx="1.84" transform="translate(669.64 -804.87) rotate(45)"/><rect class="cls-1" x="1304.54" y="376.69" width="3.67" height="13.91" rx="1.84" transform="translate(653.9 -811.38) rotate(45)"/><rect class="cls-1" x="1349.04" y="487.94" width="3.67" height="13.91" rx="1.84" transform="translate(745.61 -810.27) rotate(45)"/><rect class="cls-1" x="1349.04" y="510.19" width="3.67" height="13.91" rx="1.84" transform="translate(761.33 -803.75) rotate(45)"/><rect class="cls-1" x="1326.79" y="487.94" width="3.67" height="13.91" rx="1.84" transform="translate(739.08 -794.53) rotate(45)"/><rect class="cls-1" x="1304.54" y="487.94" width="3.67" height="13.91" rx="1.84" transform="translate(732.57 -778.8) rotate(45)"/><rect class="cls-1" x="1349.04" y="532.44" width="3.67" height="13.91" rx="1.84" transform="translate(777.07 -797.23) rotate(45)"/><rect class="cls-1" x="1326.79" y="532.44" width="3.67" height="13.91" rx="1.84" transform="translate(770.55 -781.5) rotate(45)"/><rect class="cls-1" x="1304.54" y="532.44" width="3.67" height="13.91" rx="1.84" transform="translate(764.04 -765.77) rotate(45)"/><rect class="cls-1" x="1304.54" y="465.69" width="3.67" height="13.91" rx="1.84" transform="translate(716.84 -785.32) rotate(45)"/><rect class="cls-1" x="880.28" y="576.94" width="3.67" height="13.91" rx="1.84" transform="translate(671.24 -452.74) rotate(45)"/><rect class="cls-1" x="902.53" y="576.94" width="3.67" height="13.91" rx="1.84" transform="translate(677.76 -468.47) rotate(45)"/><rect class="cls-1" x="924.78" y="576.94" width="3.67" height="13.91" rx="1.84" transform="translate(684.27 -484.2) rotate(45)"/><rect class="cls-1" x="947.03" y="576.94" width="3.67" height="13.91" rx="1.84" transform="translate(690.79 -499.94) rotate(45)"/><rect class="cls-1" x="969.28" y="576.94" width="3.67" height="13.91" rx="1.84" transform="translate(697.31 -515.67) rotate(45)"/><rect class="cls-1" x="880.28" y="554.69" width="3.67" height="13.91" rx="1.84" transform="translate(655.51 -459.25) rotate(45)"/><rect class="cls-1" x="880.28" y="532.44" width="3.67" height="13.91" rx="1.84" transform="translate(639.78 -465.77) rotate(45)"/><rect class="cls-1" x="880.28" y="510.19" width="3.67" height="13.91" rx="1.84" transform="translate(624.04 -472.29) rotate(45)"/><rect class="cls-1" x="880.28" y="487.94" width="3.67" height="13.91" rx="1.84" transform="translate(608.31 -478.8) rotate(45)"/><rect class="cls-1" x="880.28" y="465.69" width="3.67" height="13.91" rx="1.84" transform="translate(592.57 -485.32) rotate(45)"/><rect class="cls-1" x="880.28" y="443.44" width="3.67" height="13.91" rx="1.84" transform="translate(576.84 -491.84) rotate(45)"/><rect class="cls-1" x="880.28" y="421.19" width="3.67" height="13.91" rx="1.84" transform="translate(561.11 -498.35) rotate(45)"/><rect class="cls-1" x="880.28" y="398.94" width="3.67" height="13.91" rx="1.84" transform="translate(545.38 -504.87) rotate(45)"/><rect class="cls-1" x="880.28" y="376.69" width="3.67" height="13.91" rx="1.84" transform="translate(529.64 -511.39) rotate(45)"/><rect class="cls-1" x="880.28" y="354.44" width="3.67" height="13.91" rx="1.84" transform="translate(513.91 -517.9) rotate(45)"/><rect class="cls-1" x="880.28" y="332.19" width="3.67" height="13.91" rx="1.84" transform="translate(498.18 -524.42) rotate(45)"/><rect class="cls-1" x="880.28" y="309.94" width="3.67" height="13.91" rx="1.84" transform="translate(482.44 -530.94) rotate(45)"/><rect class="cls-1" x="880.28" y="287.69" width="3.67" height="13.91" rx="1.84" transform="translate(466.71 -537.45) rotate(45)"/><rect class="cls-1" x="880.28" y="265.44" width="3.67" height="13.91" rx="1.84" transform="translate(450.98 -543.97) rotate(45)"/><rect class="cls-1" x="880.28" y="243.19" width="3.67" height="13.91" rx="1.84" transform="translate(435.24 -550.49) rotate(45)"/><rect class="cls-1" x="880.28" y="220.94" width="3.67" height="13.91" rx="1.84" transform="translate(419.51 -557.01) rotate(45)"/><rect class="cls-1" x="880.28" y="198.69" width="3.67" height="13.91" rx="1.84" transform="translate(403.78 -563.52) rotate(45)"/><rect class="cls-1" x="880.28" y="176.44" width="3.67" height="13.91" rx="1.84" transform="translate(388.04 -570.04) rotate(45)"/><rect class="cls-1" x="880.28" y="154.19" width="3.67" height="13.91" rx="1.84" transform="translate(372.31 -576.56) rotate(45)"/><rect class="cls-1" x="880.28" y="131.94" width="3.67" height="13.91" rx="1.84" transform="translate(356.58 -583.07) rotate(45)"/><rect class="cls-1" x="902.53" y="131.94" width="3.67" height="13.91" rx="1.84" transform="translate(363.09 -598.81) rotate(45)"/><rect class="cls-1" x="924.78" y="131.94" width="3.67" height="13.91" rx="1.84" transform="translate(369.61 -614.54) rotate(45)"/><rect class="cls-1" x="947.03" y="131.94" width="3.67" height="13.91" rx="1.84" transform="translate(376.13 -630.27) rotate(45)"/><rect class="cls-1" x="969.28" y="131.94" width="3.67" height="13.91" rx="1.84" transform="translate(382.65 -646.01) rotate(45)"/><rect class="cls-1" x="969.28" y="154.19" width="3.67" height="13.91" rx="1.84" transform="translate(398.38 -639.49) rotate(45)"/><rect class="cls-1" x="969.28" y="176.44" width="3.67" height="13.91" rx="1.84" transform="translate(414.11 -632.97) rotate(45)"/><rect class="cls-1" x="947.03" y="176.44" width="3.67" height="13.91" rx="1.84" transform="translate(407.59 -617.24) rotate(45)"/><rect class="cls-1" x="924.78" y="176.44" width="3.67" height="13.91" rx="1.84" transform="translate(401.08 -601.51) rotate(45)"/><rect class="cls-1" x="924.78" y="198.69" width="3.67" height="13.91" rx="1.84" transform="translate(416.81 -594.99) rotate(45)"/><rect class="cls-1" x="924.78" y="220.94" width="3.67" height="13.91" rx="1.84" transform="translate(432.55 -588.47) rotate(45)"/><rect class="cls-1" x="924.78" y="265.44" width="3.67" height="13.91" rx="1.84" transform="translate(464.01 -575.44) rotate(45)"/><rect class="cls-1" x="924.78" y="287.69" width="3.67" height="13.91" rx="1.84" transform="translate(479.74 -568.92) rotate(45)"/><rect class="cls-1" x="924.78" y="309.94" width="3.67" height="13.91" rx="1.84" transform="translate(495.47 -562.4) rotate(45)"/><rect class="cls-1" x="924.78" y="332.19" width="3.67" height="13.91" rx="1.84" transform="translate(511.21 -555.89) rotate(45)"/><rect class="cls-1" x="924.78" y="354.44" width="3.67" height="13.91" rx="1.84" transform="translate(526.94 -549.37) rotate(45)"/><rect class="cls-1" x="947.03" y="354.44" width="3.67" height="13.91" rx="1.84" transform="translate(533.46 -565.1) rotate(45)"/><rect class="cls-1" x="969.28" y="354.44" width="3.67" height="13.91" rx="1.84" transform="translate(539.97 -580.84) rotate(45)"/><rect class="cls-1" x="969.28" y="376.69" width="3.67" height="13.91" rx="1.84" transform="translate(555.71 -574.32) rotate(45)"/><rect class="cls-1" x="969.28" y="398.94" width="3.67" height="13.91" rx="1.84" transform="translate(571.44 -567.8) rotate(45)"/><rect class="cls-1" x="947.03" y="398.94" width="3.67" height="13.91" rx="1.84" transform="translate(564.92 -552.07) rotate(45)"/><rect class="cls-1" x="924.78" y="398.94" width="3.67" height="13.91" rx="1.84" transform="translate(558.41 -536.34) rotate(45)"/><rect class="cls-1" x="924.78" y="421.19" width="3.67" height="13.91" rx="1.84" transform="translate(574.14 -529.82) rotate(45)"/><rect class="cls-1" x="924.78" y="443.44" width="3.67" height="13.91" rx="1.84" transform="translate(589.87 -523.3) rotate(45)"/><rect class="cls-1" x="947.03" y="443.44" width="3.67" height="13.91" rx="1.84" transform="translate(596.39 -539.04) rotate(45)"/><rect class="cls-1" x="969.28" y="443.44" width="3.67" height="13.91" rx="1.84" transform="translate(602.91 -554.77) rotate(45)"/><rect class="cls-1" x="969.28" y="465.69" width="3.67" height="13.91" rx="1.84" transform="translate(618.64 -548.25) rotate(45)"/><rect class="cls-1" x="969.28" y="487.94" width="3.67" height="13.91" rx="1.84" transform="translate(634.38 -541.74) rotate(45)"/><rect class="cls-1" x="947.03" y="487.94" width="3.67" height="13.91" rx="1.84" transform="translate(627.86 -526) rotate(45)"/><rect class="cls-1" x="924.78" y="487.94" width="3.67" height="13.91" rx="1.84" transform="translate(621.34 -510.27) rotate(45)"/><rect class="cls-1" x="924.78" y="510.19" width="3.67" height="13.91" rx="1.84" transform="translate(637.07 -503.75) rotate(45)"/><rect class="cls-1" x="924.78" y="532.44" width="3.67" height="13.91" rx="1.84" transform="translate(652.81 -497.24) rotate(45)"/><rect class="cls-1" x="947.03" y="532.44" width="3.67" height="13.91" rx="1.84" transform="translate(659.32 -512.97) rotate(45)"/><rect class="cls-1" x="969.28" y="532.44" width="3.67" height="13.91" rx="1.84" transform="translate(665.84 -528.7) rotate(45)"/><rect class="cls-1" x="969.28" y="554.69" width="3.67" height="13.91" rx="1.84" transform="translate(681.57 -522.18) rotate(45)"/><rect class="cls-1" x="947.03" y="220.94" width="3.67" height="13.91" rx="1.84" transform="translate(439.06 -604.2) rotate(45)"/><rect class="cls-1" x="969.28" y="220.94" width="3.67" height="13.91" rx="1.84" transform="translate(445.58 -619.94) rotate(45)"/><rect class="cls-1" x="991.53" y="220.94" width="3.67" height="13.91" rx="1.84" transform="translate(452.1 -635.67) rotate(45)"/><rect class="cls-1" x="1013.78" y="220.94" width="3.67" height="13.91" rx="1.84" transform="translate(458.61 -651.4) rotate(45)"/><rect class="cls-1" x="1013.78" y="243.19" width="3.67" height="13.91" rx="1.84" transform="translate(474.35 -644.89) rotate(45)"/><rect class="cls-1" x="1013.78" y="265.44" width="3.67" height="13.91" rx="1.84" transform="translate(490.08 -638.37) rotate(45)"/><rect class="cls-1" x="991.53" y="265.44" width="3.67" height="13.91" rx="1.84" transform="translate(483.56 -622.64) rotate(45)"/><rect class="cls-1" x="969.28" y="265.44" width="3.67" height="13.91" rx="1.84" transform="translate(477.04 -606.9) rotate(45)"/><rect class="cls-1" x="969.28" y="287.69" width="3.67" height="13.91" rx="1.84" transform="translate(492.78 -600.39) rotate(45)"/><rect class="cls-1" x="969.28" y="309.94" width="3.67" height="13.91" rx="1.84" transform="translate(508.51 -593.87) rotate(45)"/><rect class="cls-1" x="991.53" y="309.94" width="3.67" height="13.91" rx="1.84" transform="translate(515.03 -609.6) rotate(45)"/><rect class="cls-1" x="1013.78" y="309.94" width="3.67" height="13.91" rx="1.84" transform="translate(521.54 -625.34) rotate(45)"/><rect class="cls-1" x="1036.03" y="309.94" width="3.67" height="13.91" rx="1.84" transform="translate(528.06 -641.07) rotate(45)"/><rect class="cls-1" x="1058.28" y="309.94" width="3.67" height="13.91" rx="1.84" transform="translate(534.58 -656.8) rotate(45)"/><rect class="cls-1" x="1058.28" y="332.19" width="3.67" height="13.91" rx="1.84" transform="translate(550.31 -650.29) rotate(45)"/><rect class="cls-1" x="1058.28" y="354.44" width="3.67" height="13.91" rx="1.84" transform="translate(566.04 -643.77) rotate(45)"/><rect class="cls-1" x="1036.03" y="354.44" width="3.67" height="13.91" rx="1.84" transform="translate(559.53 -628.04) rotate(45)"/><rect class="cls-1" x="1013.78" y="354.44" width="3.67" height="13.91" rx="1.84" transform="translate(553.01 -612.3) rotate(45)"/><rect class="cls-1" x="1013.78" y="376.69" width="3.67" height="13.91" rx="1.84" transform="translate(568.74 -605.79) rotate(45)"/><rect class="cls-1" x="1013.78" y="398.94" width="3.67" height="13.91" rx="1.84" transform="translate(584.48 -599.27) rotate(45)"/><rect class="cls-1" x="1036.03" y="398.94" width="3.67" height="13.91" rx="1.84" transform="translate(590.99 -615) rotate(45)"/><rect class="cls-1" x="1058.28" y="398.94" width="3.67" height="13.91" rx="1.84" transform="translate(597.51 -630.74) rotate(45)"/><rect class="cls-1" x="1080.53" y="398.94" width="3.67" height="13.91" rx="1.84" transform="translate(604.02 -646.47) rotate(45)"/><rect class="cls-1" x="1102.78" y="398.94" width="3.67" height="13.91" rx="1.84" transform="translate(610.54 -662.2) rotate(45)"/><rect class="cls-1" x="1102.78" y="421.19" width="3.67" height="13.91" rx="1.84" transform="translate(626.28 -655.68) rotate(45)"/><rect class="cls-1" x="1102.78" y="443.44" width="3.67" height="13.91" rx="1.84" transform="translate(642.01 -649.17) rotate(45)"/><rect class="cls-1" x="1080.53" y="443.44" width="3.67" height="13.91" rx="1.84" transform="translate(635.49 -633.43) rotate(45)"/><rect class="cls-1" x="1058.28" y="443.44" width="3.67" height="13.91" rx="1.84" transform="translate(628.98 -617.7) rotate(45)"/><rect class="cls-1" x="1058.28" y="465.69" width="3.67" height="13.91" rx="1.84" transform="translate(644.71 -611.18) rotate(45)"/><rect class="cls-1" x="1058.28" y="487.94" width="3.67" height="13.91" rx="1.84" transform="translate(660.44 -604.67) rotate(45)"/><rect class="cls-1" x="1080.53" y="487.94" width="3.67" height="13.91" rx="1.84" transform="translate(666.96 -620.4) rotate(45)"/><rect class="cls-1" x="1102.78" y="487.94" width="3.67" height="13.91" rx="1.84" transform="translate(673.48 -636.13) rotate(45)"/><rect class="cls-1" x="1125.03" y="487.94" width="3.67" height="13.91" rx="1.84" transform="translate(679.99 -651.87) rotate(45)"/><rect class="cls-1" x="1147.28" y="487.94" width="3.67" height="13.91" rx="1.84" transform="translate(686.51 -667.6) rotate(45)"/><rect class="cls-1" x="1147.28" y="510.19" width="3.67" height="13.91" rx="1.84" transform="translate(702.24 -661.08) rotate(45)"/><rect class="cls-1" x="1147.28" y="532.44" width="3.67" height="13.91" rx="1.84" transform="translate(717.98 -654.57) rotate(45)"/><rect class="cls-1" x="1125.03" y="532.44" width="3.67" height="13.91" rx="1.84" transform="translate(711.46 -638.83) rotate(45)"/><rect class="cls-1" x="1102.78" y="532.44" width="3.67" height="13.91" rx="1.84" transform="translate(704.94 -623.1) rotate(45)"/><rect class="cls-1" x="1102.78" y="554.69" width="3.67" height="13.91" rx="1.84" transform="translate(720.68 -616.58) rotate(45)"/><rect class="cls-1" x="1191.78" y="576.94" width="3.67" height="13.91" rx="1.84" transform="translate(1624.76 1840.78) rotate(-135)"/><rect class="cls-1" x="1169.53" y="576.94" width="3.67" height="13.91" rx="1.84" transform="translate(1586.78 1825.05) rotate(-135)"/><rect class="cls-1" x="1147.28" y="576.94" width="3.67" height="13.91" rx="1.84" transform="translate(1548.8 1809.31) rotate(-135)"/><rect class="cls-1" x="1125.03" y="576.94" width="3.67" height="13.91" rx="1.84" transform="translate(1510.81 1793.58) rotate(-135)"/><rect class="cls-1" x="1102.78" y="576.94" width="3.67" height="13.91" rx="1.84" transform="translate(1472.83 1777.85) rotate(-135)"/><rect class="cls-1" x="1191.78" y="554.69" width="3.67" height="13.91" rx="1.84" transform="translate(1640.5 1802.8) rotate(-135)"/><rect class="cls-1" x="1191.78" y="532.44" width="3.67" height="13.91" rx="1.84" transform="translate(1656.23 1764.81) rotate(-135)"/><rect class="cls-1" x="1191.78" y="510.19" width="3.67" height="13.91" rx="1.84" transform="translate(1671.96 1726.83) rotate(-135)"/><rect class="cls-1" x="1191.78" y="487.94" width="3.67" height="13.91" rx="1.84" transform="translate(1687.7 1688.85) rotate(-135)"/><rect class="cls-1" x="1191.78" y="465.69" width="3.67" height="13.91" rx="1.84" transform="translate(1703.43 1650.86) rotate(-135)"/><rect class="cls-1" x="1191.78" y="443.44" width="3.67" height="13.91" rx="1.84" transform="translate(1719.16 1612.88) rotate(-135)"/><rect class="cls-1" x="1191.78" y="421.19" width="3.67" height="13.91" rx="1.84" transform="translate(1734.9 1574.9) rotate(-135)"/><rect class="cls-1" x="1191.78" y="398.94" width="3.67" height="13.91" rx="1.84" transform="translate(1750.63 1536.92) rotate(-135)"/><rect class="cls-1" x="1191.78" y="376.69" width="3.67" height="13.91" rx="1.84" transform="translate(1766.36 1498.93) rotate(-135)"/><rect class="cls-1" x="1191.78" y="354.44" width="3.67" height="13.91" rx="1.84" transform="translate(1782.1 1460.95) rotate(-135)"/><rect class="cls-1" x="1191.78" y="332.19" width="3.67" height="13.91" rx="1.84" transform="translate(1797.83 1422.97) rotate(-135)"/><rect class="cls-1" x="1191.78" y="309.94" width="3.67" height="13.91" rx="1.84" transform="translate(1813.56 1384.98) rotate(-135)"/><rect class="cls-1" x="1191.78" y="287.69" width="3.67" height="13.91" rx="1.84" transform="translate(1829.29 1347) rotate(-135)"/><rect class="cls-1" x="1191.78" y="265.44" width="3.67" height="13.91" rx="1.84" transform="translate(1845.03 1309.02) rotate(-135)"/><rect class="cls-1" x="1191.78" y="243.19" width="3.67" height="13.91" rx="1.84" transform="translate(1860.76 1271.03) rotate(-135)"/><rect class="cls-1" x="1191.78" y="220.94" width="3.67" height="13.91" rx="1.84" transform="translate(1876.49 1233.05) rotate(-135)"/><rect class="cls-1" x="1191.78" y="198.69" width="3.67" height="13.91" rx="1.84" transform="translate(1892.23 1195.07) rotate(-135)"/><rect class="cls-1" x="1191.78" y="176.44" width="3.67" height="13.91" rx="1.84" transform="translate(1907.96 1157.08) rotate(-135)"/><rect class="cls-1" x="1191.78" y="154.19" width="3.67" height="13.91" rx="1.84" transform="translate(1923.69 1119.1) rotate(-135)"/><rect class="cls-1" x="1191.78" y="131.94" width="3.67" height="13.91" rx="1.84" transform="translate(1939.42 1081.12) rotate(-135)"/><rect class="cls-1" x="1169.53" y="131.94" width="3.67" height="13.91" rx="1.84" transform="translate(1901.44 1065.38) rotate(-135)"/><rect class="cls-1" x="1147.28" y="131.94" width="3.67" height="13.91" rx="1.84" transform="translate(1863.46 1049.65) rotate(-135)"/><rect class="cls-1" x="1125.03" y="131.94" width="3.67" height="13.91" rx="1.84" transform="translate(1825.48 1033.92) rotate(-135)"/><rect class="cls-1" x="1102.78" y="131.94" width="3.67" height="13.91" rx="1.84" transform="translate(1787.49 1018.19) rotate(-135)"/><rect class="cls-1" x="1102.78" y="154.19" width="3.67" height="13.91" rx="1.84" transform="translate(1771.76 1056.17) rotate(-135)"/><rect class="cls-1" x="1102.78" y="176.44" width="3.67" height="13.91" rx="1.84" transform="translate(1756.03 1094.15) rotate(-135)"/><rect class="cls-1" x="1125.03" y="176.44" width="3.67" height="13.91" rx="1.84" transform="translate(1794.01 1109.89) rotate(-135)"/><rect class="cls-1" x="1147.28" y="176.44" width="3.67" height="13.91" rx="1.84" transform="translate(1831.99 1125.62) rotate(-135)"/><rect class="cls-1" x="1147.28" y="198.69" width="3.67" height="13.91" rx="1.84" transform="translate(1816.26 1163.6) rotate(-135)"/><rect class="cls-1" x="1147.28" y="220.94" width="3.67" height="13.91" rx="1.84" transform="translate(1800.53 1201.58) rotate(-135)"/><rect class="cls-1" x="1125.03" y="220.94" width="3.67" height="13.91" rx="1.84" transform="translate(1762.54 1185.85) rotate(-135)"/><rect class="cls-1" x="1102.78" y="220.94" width="3.67" height="13.91" rx="1.84" transform="translate(1724.56 1170.12) rotate(-135)"/><rect class="cls-1" x="1102.78" y="243.19" width="3.67" height="13.91" rx="1.84" transform="translate(1708.83 1208.1) rotate(-135)"/><rect class="cls-1" x="1102.78" y="265.44" width="3.67" height="13.91" rx="1.84" transform="translate(1693.09 1246.08) rotate(-135)"/><rect class="cls-1" x="1125.03" y="265.44" width="3.67" height="13.91" rx="1.84" transform="translate(1731.08 1261.82) rotate(-135)"/><rect class="cls-1" x="1147.28" y="265.44" width="3.67" height="13.91" rx="1.84" transform="translate(1769.06 1277.55) rotate(-135)"/><rect class="cls-1" x="1147.28" y="287.69" width="3.67" height="13.91" rx="1.84" transform="translate(1753.33 1315.53) rotate(-135)"/><rect class="cls-1" x="1147.28" y="309.94" width="3.67" height="13.91" rx="1.84" transform="translate(1737.59 1353.52) rotate(-135)"/><rect class="cls-1" x="1125.03" y="309.94" width="3.67" height="13.91" rx="1.84" transform="translate(1699.61 1337.78) rotate(-135)"/><rect class="cls-1" x="1102.78" y="309.94" width="3.67" height="13.91" rx="1.84" transform="translate(1661.63 1322.05) rotate(-135)"/><rect class="cls-1" x="1102.78" y="332.19" width="3.67" height="13.91" rx="1.84" transform="translate(1645.9 1360.03) rotate(-135)"/><rect class="cls-1" x="1102.78" y="354.44" width="3.67" height="13.91" rx="1.84" transform="translate(1630.16 1398.01) rotate(-135)"/><rect class="cls-1" x="1125.03" y="354.44" width="3.67" height="13.91" rx="1.84" transform="translate(1668.14 1413.75) rotate(-135)"/><rect class="cls-1" x="1147.28" y="354.44" width="3.67" height="13.91" rx="1.84" transform="translate(1706.13 1429.48) rotate(-135)"/><rect class="cls-1" x="1147.28" y="376.69" width="3.67" height="13.91" rx="1.84" transform="translate(1690.4 1467.46) rotate(-135)"/><rect class="cls-1" x="1147.28" y="398.94" width="3.67" height="13.91" rx="1.84" transform="translate(1674.66 1505.45) rotate(-135)"/><rect class="cls-1" x="1147.28" y="421.19" width="3.67" height="13.91" rx="1.84" transform="translate(1658.93 1543.43) rotate(-135)"/><rect class="cls-1" x="1147.28" y="443.44" width="3.67" height="13.91" rx="1.84" transform="translate(1643.19 1581.42) rotate(-135)"/><rect class="cls-1" x="636.03" y="131.94" width="3.67" height="13.91" rx="1.84" transform="translate(285.04 -410.36) rotate(45)"/><rect class="cls-1" x="636.03" y="154.19" width="3.67" height="13.91" rx="1.84" transform="translate(300.77 -403.85) rotate(45)"/><rect class="cls-1" x="636.03" y="176.44" width="3.67" height="13.91" rx="1.84" transform="translate(316.5 -397.33) rotate(45)"/><rect class="cls-1" x="636.03" y="198.69" width="3.67" height="13.91" rx="1.84" transform="translate(332.24 -390.81) rotate(45)"/><rect class="cls-1" x="613.78" y="198.69" width="3.67" height="13.91" rx="1.84" transform="translate(325.72 -375.08) rotate(45)"/><rect class="cls-1" x="591.53" y="198.69" width="3.67" height="13.91" rx="1.84" transform="translate(319.2 -359.35) rotate(45)"/><rect class="cls-1" x="569.28" y="198.69" width="3.67" height="13.91" rx="1.84" transform="translate(312.69 -343.61) rotate(45)"/><rect class="cls-1" x="547.03" y="198.69" width="3.67" height="13.91" rx="1.84" transform="translate(306.17 -327.88) rotate(45)"/><rect class="cls-1" x="547.03" y="220.94" width="3.67" height="13.91" rx="1.84" transform="translate(321.9 -321.36) rotate(45)"/><rect class="cls-1" x="547.03" y="243.19" width="3.67" height="13.91" rx="1.84" transform="translate(337.64 -314.84) rotate(45)"/><rect class="cls-1" x="569.28" y="243.19" width="3.67" height="13.91" rx="1.84" transform="translate(344.15 -330.58) rotate(45)"/><rect class="cls-1" x="591.53" y="243.19" width="3.67" height="13.91" rx="1.84" transform="translate(350.67 -346.31) rotate(45)"/><rect class="cls-1" x="591.53" y="265.44" width="3.67" height="13.91" rx="1.84" transform="translate(366.4 -339.79) rotate(45)"/><rect class="cls-1" x="591.53" y="287.69" width="3.67" height="13.91" rx="1.84" transform="translate(382.14 -333.28) rotate(45)"/><rect class="cls-1" x="569.28" y="287.69" width="3.67" height="13.91" rx="1.84" transform="translate(375.62 -317.54) rotate(45)"/><rect class="cls-1" x="547.03" y="287.69" width="3.67" height="13.91" rx="1.84" transform="translate(369.1 -301.81) rotate(45)"/><rect class="cls-1" x="524.78" y="287.69" width="3.67" height="13.91" rx="1.84" transform="translate(362.59 -286.08) rotate(45)"/><rect class="cls-1" x="502.53" y="287.69" width="3.67" height="13.91" rx="1.84" transform="translate(356.07 -270.35) rotate(45)"/><rect class="cls-1" x="502.53" y="309.94" width="3.67" height="13.91" rx="1.84" transform="translate(371.8 -263.83) rotate(45)"/><rect class="cls-1" x="502.53" y="332.19" width="3.67" height="13.91" rx="1.84" transform="translate(387.53 -257.31) rotate(45)"/><rect class="cls-1" x="524.78" y="332.19" width="3.67" height="13.91" rx="1.84" transform="translate(394.05 -273.04) rotate(45)"/><rect class="cls-1" x="547.03" y="332.19" width="3.67" height="13.91" rx="1.84" transform="translate(400.57 -288.78) rotate(45)"/><rect class="cls-1" x="547.03" y="354.44" width="3.67" height="13.91" rx="1.84" transform="translate(416.3 -282.26) rotate(45)"/><rect class="cls-1" x="547.03" y="376.69" width="3.67" height="13.91" rx="1.84" transform="translate(432.04 -275.74) rotate(45)"/><rect class="cls-1" x="524.78" y="376.69" width="3.67" height="13.91" rx="1.84" transform="translate(425.52 -260.01) rotate(45)"/><rect class="cls-1" x="502.53" y="376.69" width="3.67" height="13.91" rx="1.84" transform="translate(419 -244.28) rotate(45)"/><rect class="cls-1" x="502.53" y="398.94" width="3.67" height="13.91" rx="1.84" transform="translate(434.73 -237.76) rotate(45)"/><rect class="cls-1" x="502.53" y="421.19" width="3.67" height="13.91" rx="1.84" transform="translate(450.47 -231.24) rotate(45)"/><rect class="cls-1" x="524.78" y="421.19" width="3.67" height="13.91" rx="1.84" transform="translate(456.99 -246.98) rotate(45)"/><rect class="cls-1" x="547.03" y="421.19" width="3.67" height="13.91" rx="1.84" transform="translate(463.5 -262.71) rotate(45)"/><rect class="cls-1" x="569.28" y="421.19" width="3.67" height="13.91" rx="1.84" transform="translate(470.02 -278.44) rotate(45)"/><rect class="cls-1" x="591.53" y="421.19" width="3.67" height="13.91" rx="1.84" transform="translate(476.54 -294.18) rotate(45)"/><rect class="cls-1" x="591.53" y="443.44" width="3.67" height="13.91" rx="1.84" transform="translate(492.27 -287.66) rotate(45)"/><rect class="cls-1" x="591.53" y="465.69" width="3.67" height="13.91" rx="1.84" transform="translate(508 -281.14) rotate(45)"/><rect class="cls-1" x="569.28" y="465.69" width="3.67" height="13.91" rx="1.84" transform="translate(501.49 -265.41) rotate(45)"/><rect class="cls-1" x="547.03" y="465.69" width="3.67" height="13.91" rx="1.84" transform="translate(494.97 -249.68) rotate(45)"/><rect class="cls-1" x="547.03" y="487.94" width="3.67" height="13.91" rx="1.84" transform="translate(510.7 -243.16) rotate(45)"/><rect class="cls-1" x="547.03" y="510.19" width="3.67" height="13.91" rx="1.84" transform="translate(526.43 -236.64) rotate(45)"/><rect class="cls-1" x="569.28" y="510.19" width="3.67" height="13.91" rx="1.84" transform="translate(532.95 -252.38) rotate(45)"/><rect class="cls-1" x="591.53" y="510.19" width="3.67" height="13.91" rx="1.84" transform="translate(539.47 -268.11) rotate(45)"/><rect class="cls-1" x="613.78" y="510.19" width="3.67" height="13.91" rx="1.84" transform="translate(545.99 -283.84) rotate(45)"/><rect class="cls-1" x="636.03" y="510.19" width="3.67" height="13.91" rx="1.84" transform="translate(552.5 -299.57) rotate(45)"/><rect class="cls-1" x="636.03" y="532.44" width="3.67" height="13.91" rx="1.84" transform="translate(568.23 -293.06) rotate(45)"/><rect class="cls-1" x="636.03" y="554.69" width="3.67" height="13.91" rx="1.84" transform="translate(583.97 -286.54) rotate(45)"/><rect class="cls-1" x="636.03" y="576.94" width="3.67" height="13.91" rx="1.84" transform="translate(599.7 -280.02) rotate(45)"/><rect class="cls-1" x="658.28" y="576.94" width="3.67" height="13.91" rx="1.84" transform="translate(606.22 -295.76) rotate(45)"/><rect class="cls-1" x="680.53" y="576.94" width="3.67" height="13.91" rx="1.84" transform="translate(612.73 -311.49) rotate(45)"/><rect class="cls-1" x="680.53" y="554.69" width="3.67" height="13.91" rx="1.84" transform="translate(597 -318.01) rotate(45)"/><rect class="cls-1" x="680.53" y="532.44" width="3.67" height="13.91" rx="1.84" transform="translate(581.27 -324.52) rotate(45)"/><rect class="cls-1" x="680.53" y="510.19" width="3.67" height="13.91" rx="1.84" transform="translate(565.54 -331.04) rotate(45)"/><rect class="cls-1" x="702.78" y="510.19" width="3.67" height="13.91" rx="1.84" transform="translate(572.05 -346.77) rotate(45)"/><rect class="cls-1" x="725.03" y="510.19" width="3.67" height="13.91" rx="1.84" transform="translate(578.57 -362.51) rotate(45)"/><rect class="cls-1" x="747.28" y="510.19" width="3.67" height="13.91" rx="1.84" transform="translate(585.08 -378.24) rotate(45)"/><rect class="cls-1" x="769.53" y="510.19" width="3.67" height="13.91" rx="1.84" transform="translate(591.6 -393.97) rotate(45)"/><rect class="cls-1" x="769.53" y="487.94" width="3.67" height="13.91" rx="1.84" transform="translate(575.87 -400.49) rotate(45)"/><rect class="cls-1" x="769.53" y="465.69" width="3.67" height="13.91" rx="1.84" transform="translate(560.13 -407.01) rotate(45)"/><rect class="cls-1" x="747.28" y="465.69" width="3.67" height="13.91" rx="1.84" transform="translate(553.62 -391.27) rotate(45)"/><rect class="cls-1" x="725.03" y="465.69" width="3.67" height="13.91" rx="1.84" transform="translate(547.1 -375.54) rotate(45)"/><rect class="cls-1" x="725.03" y="443.44" width="3.67" height="13.91" rx="1.84" transform="translate(531.37 -382.06) rotate(45)"/><rect class="cls-1" x="725.03" y="421.19" width="3.67" height="13.91" rx="1.84" transform="translate(515.64 -388.58) rotate(45)"/><rect class="cls-1" x="747.28" y="421.19" width="3.67" height="13.91" rx="1.84" transform="translate(522.15 -404.31) rotate(45)"/><rect class="cls-1" x="769.53" y="421.19" width="3.67" height="13.91" rx="1.84" transform="translate(528.67 -420.04) rotate(45)"/><rect class="cls-1" x="791.78" y="421.19" width="3.67" height="13.91" rx="1.84" transform="translate(535.19 -435.77) rotate(45)"/><rect class="cls-1" x="814.03" y="421.19" width="3.67" height="13.91" rx="1.84" transform="translate(541.7 -451.51) rotate(45)"/><rect class="cls-1" x="814.03" y="398.94" width="3.67" height="13.91" rx="1.84" transform="translate(525.97 -458.02) rotate(45)"/><rect class="cls-1" x="814.03" y="376.69" width="3.67" height="13.91" rx="1.84" transform="translate(510.24 -464.54) rotate(45)"/><rect class="cls-1" x="791.78" y="376.69" width="3.67" height="13.91" rx="1.84" transform="translate(503.72 -448.81) rotate(45)"/><rect class="cls-1" x="769.53" y="376.69" width="3.67" height="13.91" rx="1.84" transform="translate(497.2 -433.08) rotate(45)"/><rect class="cls-1" x="769.53" y="354.44" width="3.67" height="13.91" rx="1.84" transform="translate(481.47 -439.59) rotate(45)"/><rect class="cls-1" x="769.53" y="332.19" width="3.67" height="13.91" rx="1.84" transform="translate(465.74 -446.11) rotate(45)"/><rect class="cls-1" x="791.78" y="332.19" width="3.67" height="13.91" rx="1.84" transform="translate(472.26 -461.84) rotate(45)"/><rect class="cls-1" x="814.03" y="332.19" width="3.67" height="13.91" rx="1.84" transform="translate(478.77 -477.58) rotate(45)"/><rect class="cls-1" x="814.03" y="309.94" width="3.67" height="13.91" rx="1.84" transform="translate(463.04 -484.09) rotate(45)"/><rect class="cls-1" x="814.03" y="287.69" width="3.67" height="13.91" rx="1.84" transform="translate(447.31 -490.61) rotate(45)"/><rect class="cls-1" x="791.78" y="287.69" width="3.67" height="13.91" rx="1.84" transform="translate(440.79 -474.88) rotate(45)"/><rect class="cls-1" x="769.53" y="287.69" width="3.67" height="13.91" rx="1.84" transform="translate(434.27 -459.14) rotate(45)"/><rect class="cls-1" x="747.28" y="287.69" width="3.67" height="13.91" rx="1.84" transform="translate(427.75 -443.41) rotate(45)"/><rect class="cls-1" x="725.03" y="287.69" width="3.67" height="13.91" rx="1.84" transform="translate(421.24 -427.68) rotate(45)"/><rect class="cls-1" x="725.03" y="265.44" width="3.67" height="13.91" rx="1.84" transform="translate(405.5 -434.19) rotate(45)"/><rect class="cls-1" x="725.03" y="243.19" width="3.67" height="13.91" rx="1.84" transform="translate(389.77 -440.71) rotate(45)"/><rect class="cls-1" x="747.28" y="243.19" width="3.67" height="13.91" rx="1.84" transform="translate(396.29 -456.44) rotate(45)"/><rect class="cls-1" x="769.53" y="243.19" width="3.67" height="13.91" rx="1.84" transform="translate(402.81 -472.18) rotate(45)"/><rect class="cls-1" x="769.53" y="220.94" width="3.67" height="13.91" rx="1.84" transform="translate(387.07 -478.69) rotate(45)"/><rect class="cls-1" x="769.53" y="198.69" width="3.67" height="13.91" rx="1.84" transform="translate(371.34 -485.21) rotate(45)"/><rect class="cls-1" x="747.28" y="198.69" width="3.67" height="13.91" rx="1.84" transform="translate(364.82 -469.48) rotate(45)"/><rect class="cls-1" x="725.03" y="198.69" width="3.67" height="13.91" rx="1.84" transform="translate(358.31 -453.74) rotate(45)"/><rect class="cls-1" x="658.28" y="131.94" width="3.67" height="13.91" rx="1.84" transform="translate(291.56 -426.1) rotate(45)"/><rect class="cls-1" x="680.53" y="131.94" width="3.67" height="13.91" rx="1.84" transform="translate(298.07 -441.83) rotate(45)"/><rect class="cls-1" x="680.53" y="154.19" width="3.67" height="13.91" rx="1.84" transform="translate(313.8 -435.31) rotate(45)"/><rect class="cls-1" x="680.53" y="176.44" width="3.67" height="13.91" rx="1.84" transform="translate(329.54 -428.79) rotate(45)"/><rect class="cls-1" x="680.53" y="198.69" width="3.67" height="13.91" rx="1.84" transform="translate(345.27 -422.28) rotate(45)"/><rect class="cls-1" x="680.53" y="220.94" width="3.67" height="13.91" rx="1.84" transform="translate(361 -415.76) rotate(45)"/><rect class="cls-1" x="680.53" y="243.19" width="3.67" height="13.91" rx="1.84" transform="translate(376.74 -409.24) rotate(45)"/><rect class="cls-1" x="680.53" y="265.44" width="3.67" height="13.91" rx="1.84" transform="translate(392.47 -402.73) rotate(45)"/><rect class="cls-1" x="680.53" y="287.69" width="3.67" height="13.91" rx="1.84" transform="translate(408.2 -396.21) rotate(45)"/><rect class="cls-1" x="680.53" y="309.94" width="3.67" height="13.91" rx="1.84" transform="translate(423.94 -389.69) rotate(45)"/><rect class="cls-1" x="680.53" y="332.19" width="3.67" height="13.91" rx="1.84" transform="translate(439.67 -383.18) rotate(45)"/><rect class="cls-1" x="702.78" y="332.19" width="3.67" height="13.91" rx="1.84" transform="translate(446.19 -398.91) rotate(45)"/><rect class="cls-1" x="725.03" y="332.19" width="3.67" height="13.91" rx="1.84" transform="translate(452.7 -414.64) rotate(45)"/><rect class="cls-1" x="725.03" y="354.44" width="3.67" height="13.91" rx="1.84" transform="translate(468.44 -408.13) rotate(45)"/><rect class="cls-1" x="725.03" y="376.69" width="3.67" height="13.91" rx="1.84" transform="translate(484.17 -401.61) rotate(45)"/><rect class="cls-1" x="702.78" y="376.69" width="3.67" height="13.91" rx="1.84" transform="translate(477.65 -385.88) rotate(45)"/><rect class="cls-1" x="680.53" y="376.69" width="3.67" height="13.91" rx="1.84" transform="translate(471.14 -370.14) rotate(45)"/><rect class="cls-1" x="680.53" y="398.94" width="3.67" height="13.91" rx="1.84" transform="translate(486.87 -363.63) rotate(45)"/><rect class="cls-1" x="680.53" y="421.19" width="3.67" height="13.91" rx="1.84" transform="translate(502.6 -357.11) rotate(45)"/><rect class="cls-1" x="680.53" y="443.44" width="3.67" height="13.91" rx="1.84" transform="translate(518.34 -350.59) rotate(45)"/><rect class="cls-1" x="680.53" y="465.69" width="3.67" height="13.91" rx="1.84" transform="translate(534.07 -344.08) rotate(45)"/><rect class="cls-1" x="658.28" y="465.69" width="3.67" height="13.91" rx="1.84" transform="translate(527.55 -328.34) rotate(45)"/><rect class="cls-1" x="636.03" y="465.69" width="3.67" height="13.91" rx="1.84" transform="translate(521.04 -312.61) rotate(45)"/><rect class="cls-1" x="636.03" y="443.44" width="3.67" height="13.91" rx="1.84" transform="translate(505.3 -319.13) rotate(45)"/><rect class="cls-1" x="636.03" y="421.19" width="3.67" height="13.91" rx="1.84" transform="translate(489.57 -325.64) rotate(45)"/><rect class="cls-1" x="636.03" y="398.94" width="3.67" height="13.91" rx="1.84" transform="translate(473.83 -332.16) rotate(45)"/><rect class="cls-1" x="636.03" y="376.69" width="3.67" height="13.91" rx="1.84" transform="translate(458.1 -338.68) rotate(45)"/><rect class="cls-1" x="613.78" y="376.69" width="3.67" height="13.91" rx="1.84" transform="translate(451.59 -322.94) rotate(45)"/><rect class="cls-1" x="591.53" y="376.69" width="3.67" height="13.91" rx="1.84" transform="translate(445.07 -307.21) rotate(45)"/><rect class="cls-1" x="591.53" y="354.44" width="3.67" height="13.91" rx="1.84" transform="translate(429.34 -313.73) rotate(45)"/><rect class="cls-1" x="591.53" y="332.19" width="3.67" height="13.91" rx="1.84" transform="translate(413.6 -320.24) rotate(45)"/><rect class="cls-1" x="613.78" y="332.19" width="3.67" height="13.91" rx="1.84" transform="translate(420.12 -335.98) rotate(45)"/><rect class="cls-1" x="636.03" y="332.19" width="3.67" height="13.91" rx="1.84" transform="translate(426.64 -351.71) rotate(45)"/><rect class="cls-1" x="636.03" y="309.94" width="3.67" height="13.91" rx="1.84" transform="translate(410.9 -358.23) rotate(45)"/><rect class="cls-1" x="636.03" y="287.69" width="3.67" height="13.91" rx="1.84" transform="translate(395.17 -364.74) rotate(45)"/><rect class="cls-1" x="636.03" y="265.44" width="3.67" height="13.91" rx="1.84" transform="translate(379.44 -371.26) rotate(45)"/><rect class="cls-1" x="636.03" y="243.19" width="3.67" height="13.91" rx="1.84" transform="translate(363.7 -377.78) rotate(45)"/></svg>