<svg id="Lines" xmlns="http://www.w3.org/2000/svg" viewBox="0 0 1700 720"><defs><style>.cls-1{fill:#231f20;}</style></defs><polygon class="cls-1" points="271.25 593.63 271.25 170.88 160 170.88 160 237.63 204.5 237.63 204.5 259.88 160 259.88 160 326.63 204.5 326.63 204.5 348.88 160 348.88 160 415.63 204.5 415.63 204.5 437.88 160 437.88 160 504.63 204.5 504.63 204.5 526.88 160 526.88 160 549.13 226.75 549.13 226.75 482.38 182.25 482.38 182.25 460.13 226.75 460.13 226.75 393.38 182.25 393.38 182.25 371.13 226.75 371.13 226.75 304.38 182.25 304.38 182.25 282.13 226.75 282.13 226.75 215.38 182.25 215.38 182.25 193.13 249 193.13 249 571.38 137.75 571.38 137.75 148.63 338 148.63 338 193.13 382.5 193.13 382.5 215.38 338 215.38 338 282.13 427 282.13 427 304.38 338 304.38 338 371.13 382.5 371.13 382.5 393.38 338 393.38 338 437.88 315.75 437.88 315.75 170.88 293.5 170.88 293.5 460.13 360.25 460.13 360.25 415.63 404.75 415.63 404.75 348.88 360.25 348.88 360.25 326.63 449.25 326.63 449.25 259.88 360.25 259.88 360.25 237.63 404.75 237.63 404.75 170.88 360.25 170.88 360.25 126.38 115.5 126.38 115.5 593.63 271.25 593.63"/><polygon class="cls-1" points="1384.26 593.63 1451.01 593.63 1451.01 526.88 1540.01 526.88 1540.01 460.13 1495.51 460.13 1495.51 437.88 1584.51 437.88 1584.51 371.13 1495.51 371.13 1495.51 348.88 1584.51 348.88 1584.51 282.13 1495.51 282.13 1495.51 259.88 1540.01 259.88 1540.01 193.13 1451.01 193.13 1451.01 126.38 1250.76 126.38 1250.76 593.63 1362.01 593.63 1362.01 571.38 1273.01 571.38 1273.01 148.63 1428.76 148.63 1428.76 215.38 1517.76 215.38 1517.76 237.63 1473.26 237.63 1473.26 304.38 1562.26 304.38 1562.26 326.63 1473.26 326.63 1473.26 393.38 1562.26 393.38 1562.26 415.63 1473.26 415.63 1473.26 482.38 1517.76 482.38 1517.76 504.63 1428.76 504.63 1428.76 526.88 1428.76 549.13 1428.76 571.38 1406.51 571.38 1406.51 170.88 1295.26 170.88 1295.26 193.13 1295.26 237.63 1339.76 237.63 1339.76 259.88 1295.26 259.88 1295.26 326.63 1339.76 326.63 1339.76 348.88 1295.26 348.88 1295.26 415.63 1339.76 415.63 1339.76 437.88 1295.26 437.88 1295.26 504.63 1339.76 504.63 1339.76 526.88 1295.26 526.88 1295.26 549.13 1362.01 549.13 1362.01 482.38 1317.51 482.38 1317.51 460.13 1362.01 460.13 1362.01 393.38 1317.51 393.38 1317.51 371.13 1362.01 371.13 1362.01 304.38 1317.51 304.38 1317.51 282.13 1362.01 282.13 1362.01 215.38 1317.51 215.38 1317.51 193.13 1384.26 193.13 1384.26 593.63"/><polygon class="cls-1" points="1093.49 126.37 1093.49 193.12 1137.99 193.12 1137.99 215.37 1093.49 215.37 1093.49 282.12 1137.99 282.12 1137.99 304.37 1093.49 304.37 1093.49 371.12 1137.99 371.12 1137.99 460.13 1160.24 460.13 1160.24 348.87 1115.74 348.87 1115.74 326.62 1160.24 326.62 1160.24 259.87 1115.74 259.87 1115.74 237.62 1160.24 237.62 1160.24 170.87 1115.74 170.87 1115.74 148.62 1182.49 148.62 1182.49 571.37 1115.74 571.37 1115.74 549.12 1160.24 549.12 1160.24 482.37 1071.24 482.37 1071.24 460.12 1115.74 460.12 1115.74 393.37 1026.74 393.37 1026.74 371.12 1071.24 371.12 1071.24 304.37 982.24 304.37 982.24 282.12 1026.74 282.12 1026.74 215.37 937.74 215.37 937.74 193.12 982.24 193.12 982.24 126.37 870.99 126.37 870.99 593.62 982.24 593.62 982.24 526.87 937.74 526.87 937.74 504.62 982.24 504.62 982.24 437.87 937.74 437.87 937.74 415.62 982.24 415.62 982.24 348.87 937.74 348.87 937.74 259.87 915.49 259.87 915.49 371.12 959.99 371.12 959.99 393.37 915.49 393.37 915.49 460.12 959.99 460.12 959.99 482.37 915.49 482.37 915.49 549.12 959.99 549.12 959.99 571.37 893.24 571.37 893.24 148.62 959.99 148.62 959.99 170.87 915.49 170.87 915.49 237.62 1004.49 237.62 1004.49 259.87 959.99 259.87 959.99 326.62 1048.99 326.62 1048.99 348.87 1004.49 348.87 1004.49 415.62 1093.49 415.62 1093.49 437.87 1048.99 437.87 1048.99 504.62 1137.99 504.62 1137.99 526.87 1093.49 526.87 1093.49 593.62 1204.74 593.62 1204.74 126.37 1093.49 126.37"/><polygon class="cls-1" points="537.75 259.88 582.25 259.88 582.25 282.13 493.25 282.13 493.25 348.88 537.75 348.88 537.75 371.13 493.25 371.13 493.25 437.88 582.25 437.88 582.25 460.13 537.75 460.13 537.75 526.88 626.75 526.88 626.75 593.63 693.5 593.63 693.5 526.88 782.5 526.88 782.5 460.13 738 460.13 738 437.88 827 437.88 827 371.13 782.5 371.13 782.5 348.88 827 348.88 827 282.13 738 282.13 738 259.88 782.5 259.88 782.5 193.13 715.75 193.13 715.75 215.38 760.25 215.38 760.25 237.63 715.75 237.63 715.75 304.38 804.75 304.38 804.75 326.63 760.25 326.63 760.25 393.38 804.75 393.38 804.75 415.63 715.75 415.63 715.75 482.38 760.25 482.38 760.25 504.63 671.25 504.63 671.25 571.38 649 571.38 649 504.63 560 504.63 560 482.38 604.5 482.38 604.5 415.63 515.5 415.63 515.5 393.38 560 393.38 560 326.63 515.5 326.63 515.5 304.38 604.5 304.38 604.5 237.63 560 237.63 560 215.38 649 215.38 649 148.63 671.25 148.63 671.25 348.88 715.75 348.88 715.75 371.13 671.25 371.13 671.25 460.13 649 460.13 649 371.13 604.5 371.13 604.5 348.88 649 348.88 649 237.63 626.75 237.63 626.75 326.63 582.25 326.63 582.25 393.38 626.75 393.38 626.75 482.38 693.5 482.38 693.5 393.38 738 393.38 738 326.63 693.5 326.63 693.5 126.38 626.75 126.38 626.75 193.13 537.75 193.13 537.75 259.88"/></svg>