<svg xmlns="http://www.w3.org/2000/svg" viewBox="0 0 344.73 404.12"><defs><style>.cls-1{fill:#fff;}</style></defs><g id="Layer_2" data-name="Layer 2"><g id="Layer_10" data-name="Layer 10"><path d="M58.66,178.63c-1.41-.68-2.24-1-3-1.47-3.78-2.07-7.56-4.14-11.31-6.25q-5.25-3-10.45-6c-1.85-1.09-3.63-2.31-5.47-3.4-4.24-2.51-8.62-4.8-12.7-7.54-3.66-2.45-7-5.42-10.49-8.11a19.34,19.34,0,0,0-2.51-1.43c-1-4-4.2-7.94-1.58-12.9L0,130.08l1.93.2L1.32,126c3.8-1.73,5.58-5,7.11-8.39.15-.34.14-.86.39-1,3.83-2.66,5.29-7.08,8-10.57,3.72-4.82,7.92-9.27,11.77-14,1.87-2.31,3.36-4.92,5.07-7.35.77-1.09,1.63-2.12,2.49-3.14,2.26-2.68,4.55-5.32,6.79-8s4.23-6.05,7-8.26c1.95-1.57,2.45-2.61,2.08-5a144.61,144.61,0,0,1-1.52-15.13,44.62,44.62,0,0,1,.6-8.77c.34-2.32,3.78-4.91,6.17-5.36A18.34,18.34,0,0,0,61,29.49c5-2.21,9.94-4.59,15-6.63,4.75-1.91,9.7-3.32,14.43-5.27a30.67,30.67,0,0,0,7.21-4.27c2.69-2.13,4.91-4.83,7.54-7A20.65,20.65,0,0,1,110.75,3c1.8-.7,3.84-.49,4.79,1.64.79,1.76-.62,5.2-2.33,6.28a13.13,13.13,0,0,0-1.17,1l.27.81L124.2,10A13.49,13.49,0,0,0,123,8.45C120.68,6,122,2.07,125,.68c4.18-1.91,6.34.55,8.32,3.23,1.86,2.52,3.74,2.82,6.77,2.26a183.08,183.08,0,0,1,18.29-2.09c5-.42,10.11-.67,15.18-.72,4.91,0,9.82.3,14.73.4,4.73.1,9.47.07,14.21.16,1.18,0,2.35.35,3.53.5,7.43.93,15,1.35,22.26,2.93,7,1.52,13.81,4.23,20.71,6.41.83.27,1.7.42,2.53.7,5.94,2,8.55,5.52,9,12,.18,2.46.42,4.92.75,7.36.39,3,1,3.55,3.92,2.73,6.16-1.75,12.48-2.29,18.8-2.77,5.71-.42,11.33.41,17,1.31a40.48,40.48,0,0,1,13.25,4.19,45.86,45.86,0,0,1,10.13,7.52A39,39,0,0,1,334,61.45c1.46,4,2.94,8,4.39,12A53.9,53.9,0,0,1,341,81.27c.6,3.09.51,6.31.82,9.46.56,5.66,1.28,11.31,1.76,17,.29,3.39.19,6.81.39,10.21.15,2.54.82,5.08.71,7.6-.21,5.11-.82,10.19-1.2,15.29a4,4,0,0,0,.74,2.73c-.4.81-1.29,1.74-1.12,2.42.73,3-1.53,5.21-2,7.85-1.23,6.66-6.84,9.92-10.94,14.35a3.23,3.23,0,0,1-1.24.7c-7.16,2.59-14.05,6-21.85,6.53-2.59.18-5.1,1.34-7.69,1.72-6.57.94-13.16,1.69-20.18,2.58.22,2.64.33,5.11.65,7.56.75,5.68,1.68,11.34,2.38,17,.59,4.75,1.42,9.54,1.29,14.29-.18,6.33-1.83,12.36-7,16.78-2.47,2.12-4.76,4.49-7.39,6.38-1.88,1.35-4.2,2.09-6.34,3.09A190.12,190.12,0,0,1,236.65,255c-.64.18-1.52,1.35-1.4,1.86.17.75,1.19,1.9,1.77,1.85,4.54-.36,9-1,13.57-1.5q2.78-.35,5.53-.83c3.1-.54,6.19-1.13,9.29-1.72a18.79,18.79,0,0,0,2.78-.68c4.9-1.77,9.8-2.52,14.78-.32,2.3,1,4.1.35,5.89-1.4,1-.93,2.59-1.19,3.93-1.74,1.93-.8,3.88-1.55,5.79-2.39,5.54-2.42,11.29-3.54,17.28-2.45a3.71,3.71,0,0,1,2.23,2.41c1.58,6.87,2.91,13.79,4.43,20.67,1.34,6.06,2.87,12.07,4.21,18.13.88,4,1.54,8,2.34,12,.54,2.71,1.32,5.4,1.68,8.14.47,3.6.62,7.24.94,10.86.18,1.93-.94,3.11-2.56,3a38.06,38.06,0,0,1-9.72-1.5c-1.5-.5-2.55-2.68-3.53-4.27-1.62-2.62-3-5.4-4.53-8.06-4-6.81-7.94-13.63-12.06-20.35-1.41-2.29-3.31-4.27-4.89-6.46a14.08,14.08,0,0,1-1.19-2.54c-3.84-.1-4.53.77-5.52,4a9.45,9.45,0,0,1-3.77,4.78c-2.66,1.67-6.07,2.23-8.6,4-2.72,1.95-5.7,2.67-8.69,3.72-2.38.84-4.52,2.38-6.83,3.46s-4.74,1.92-7.06,3-4.22,2.29-6.38,3.32c-4.44,2.13-8.92,4.18-13.39,6.23s-9,4.25-13.65,6.06c-1.45.56-3.3.11-5,.05s-2.82-.92-3.76-2.57c-.84-1.47-2.66-2.36-3.93-3.62s-2.16-2.48-3.24-3.72c-3.83-4.43-7.69-8.84-11.49-13.29-.82-1-1.37-2.15-2.18-3.11-3.68-4.31-7.35-8.63-11.15-12.83-.85-.94-2.21-1.42-3.61-2.28-1.51,2-3.22,4-4.61,6.14-3.51,5.45-7,10.93-10.26,16.52-2.6,4.43-4.89,9.05-7.35,13.57a19.93,19.93,0,0,1-2.47,4c-4.56,4.94-6.66,11.37-10.34,16.83-2.62,3.89-5.62,7.59-7.78,11.72-1.78,3.4-4.77,6.23-5.19,10.31-3.59,2.45-4.65,7.55-9.33,8.93-.45.13-.77.92-1,1.46a14.18,14.18,0,0,0-1.21,10c.28,1.2-.26,2.66-.61,3.95-1,3.59-1.6,7.38-3.22,10.67a105.4,105.4,0,0,1-7.76,12.23A7,7,0,0,1,100.6,404c-1,.32-2.46-.37-3.65-.8-3-1.07-6-2.09-8.91-3.43-1.94-.91-3.54-2.55-5.46-3.52q-9.54-4.82-19.21-9.36c-3.32-1.56-6.84-2.71-10.14-4.31-4.41-2.14-8.64-4.64-13-6.78a66.09,66.09,0,0,0-8-3.1c-2.6-.89-3.31-2.31-1.86-4.52,1.23-1.85,2.68-3.55,3.94-5.38,2.65-3.85,6.7-4.22,10.84-4.7a36.75,36.75,0,0,1,12.54.51c2.34.53,5-.38,7.48-.46,2-.06,3.94.37,5.87.21,5.51-.47,11-1.07,16.48-1.76,1.4-.18,1.64-1.14.52-2.2-.81-.77-1.54-1.62-2.38-2.35-2.76-2.44-3-4.37-1.28-7.5.44-.79.18-1.95.3-2.94s0-2.62.52-2.91c3.21-1.71,3.38-5.07,4.49-7.84,2.14-5.3,4-10.71,6-16.09,1.13-3.13,2.13-6.3,3.29-9.41,1.55-4.18,3.25-8.29,4.79-12.47.87-2.35,1.48-4.79,2.33-7.14q1.77-4.95,3.73-9.83c.76-1.87.14-2.9-1.71-3.28-4.68-1-9.4-1.76-14-2.86a28,28,0,0,1-7.29-2.6c-3.32-1.87-7.14-2.78-10-5.62-2.49-2.48-5.86-4.19-7.93-6.92-3-3.93-5.26-8.43-4.73-13.74a5.86,5.86,0,0,0-.58-2.15,7.15,7.15,0,0,1-.49-1.33c-.25-3.79-.41-7.58-.7-11.36-.19-2.45-.58-4.89-.79-7.33a45.09,45.09,0,0,1-.31-6.35c.1-1.85.52-3.53-.42-5.43-.62-1.24,0-3-.14-4.57-.38-4.23-.9-8.44-1.26-12.67C59.08,185.89,58.88,182,58.66,178.63Zm203.93-34.52c-.31-3.76-.63-7.59-.94-11.42-.2-2.44.2-5.15-.73-7.27-1.78-4-.66-8.19-1.31-12.25-.92-5.76-.95-11.65-1.56-17.46-.46-4.48-1.18-8.93-1.9-13.38-.2-1.25-.48-3.22-1.26-3.54-3.42-1.4-5-5.6-9-5.91-.18,0-.4-.28-.5-.47-1.31-2.69-3.19-5.27-3.75-8.1C241,61,239.22,57.7,240.88,54c.73-1.62-.18-3.92.44-5.63,1.61-4.48,4.26-8.32,8.75-10.41a2.09,2.09,0,0,0,1.27-2.68c-.41-2.58-.66-5.19-1.28-7.72a4.09,4.09,0,0,0-2-2.55,87.3,87.3,0,0,0-9.92-3.41c-5.35-1.47-10.73-2.82-16.15-4-3-.62-6.11-.66-9.16-1.06-4-.51-8.08-1.15-12.13-1.66a35.67,35.67,0,0,0-4-.12c-2.45,0-4.91,0-7.36-.1-5-.31-10.05-1.17-15.06-1-7.94.2-15.87,1-23.8,1.58,0,.5,0,.75.05.79,4,2.35,8,4.82,12.18,7,3,1.53,5.8,3.11,7.54,6.09.84,1.45.18,4.29-1.19,4.46-1.85.23-4,.51-5.59-.21-4.69-2.15-9.23-4.67-13.71-7.26-3.87-2.24-7.56-4.8-11.38-7.12a11.88,11.88,0,0,0-3.06-1.1c-3.49-1-6.47,1.1-9.67,1.78s-6.57,1.65-9.83,2.54q-6.07,1.65-12.12,3.4c-3,.86-5.89,1.72-8.8,2.7a27.86,27.86,0,0,0-5.09,2.15A20.73,20.73,0,0,0,86,33.56c-3.05,2.94-6.6,5.35-8.86,9.15-.6,1-2.89,1.48-4.36,1.4a3.6,3.6,0,0,1-3.32-3.52c-.26-2.46-.62-2.59-2.78-1.11a8.79,8.79,0,0,1-1.75.75c-2.5.94-3.25,3.2-3.41,5.41a56.48,56.48,0,0,0,.31,8.71c.49,6,1.12,12.06,1.61,18.1.21,2.63.07,5.29.35,7.91.53,5,1.41,10,1.86,15,.5,5.65.38,11.33,1.26,17,.84,5.36,1,10.84,1.5,16.26.35,3.49-.08,7.59,1.63,10.28S75.74,143,78.71,145a19,19,0,0,0,3,2c1.65.68,3.42,1.52,5.13,1.48,1.88,0,3.71-1.13,5.62-1.51a15.56,15.56,0,0,1,14,3.95c2.35,2.09,4.54,4.53,8.3,3.63,1.32-.32,2.9.38,4.16,0,4.39-1.39,8.26,0,12,2,2.88,1.56,5.5,3.58,8.33,5.25,3,1.8,6.74,9.34,6.21,12.81-.22,1.46-.25,3-.35,4.44-.23,3.22.25,6.68-2,9.36-2.1,2.51-4.55,4.73-6.39,6.6,1.33-.41,3.35-1.18,5.44-1.68,6.23-1.5,12.49-2.9,18.74-4.34a60.2,60.2,0,0,1,6.26-1.44c5.67-.65,11.34-1.35,17-1.59,6.32-.28,12.68-.26,19,0,4.42.17,8.81.94,13.21,1.42,4.07.43,8.16.74,12.21,1.28,2,.27,4,1,6,1.43,5.1,1,10.24,2,15.33,3.1a37,37,0,0,1,4.63,1.73c2.6,1,5.29,1.73,7.8,2.88s4.81,2.67,7.45,4.16a7,7,0,0,0,.34-1.92c-1-6-2.06-12-3.18-18a2.45,2.45,0,0,0-1.17-1.65,14.34,14.34,0,0,1-6.82-4.95c-2.51-3.12-4.86-6.32-5.14-10.49-.13-1.89.08-3.8,0-5.69C253.53,152.34,256.67,147.5,262.59,144.11Zm-98.18,79.7-.1-.45c-.52.44-1,1.09-1.59,1.27-2.32.68-4.7,1.2-7.05,1.79-5.8,1.45-11.63,2.8-17.38,4.44a5.44,5.44,0,0,0-3.18,2.66c-2.06,4.81-3.93,9.72-5.6,14.68-1.52,4.52-2.61,9.19-4.06,13.74-.89,2.81-2.13,5.51-3.16,8.29-1.67,4.5-3.28,9-4.92,13.53-.78,2.15-1.58,4.29-2.34,6.45-.53,1.55-1,3.13-1.5,4.68-.25.73-.63,1.41-.88,2.14-1.47,4.26-2.88,8.54-4.37,12.79-1.81,5.16-3.65,10.31-5.56,15.44s-4,10.44-6,15.67a13.62,13.62,0,0,0-.49,2.49c3.12.42,6.15.31,8.77,1.29,3.4,1.26,6.5,3.36,9.68,5.18a2.78,2.78,0,0,0,4.13-1.13c2.39-4.35,4.81-8.69,7.38-12.94,4.45-7.35,9.11-14.57,13.49-21.95,1-1.64,1.15-3.74,1.73-5.72,1-.93,2.54-1.84,3.39-3.17,3.41-5.35,6.78-10.72,9.83-16.28,4.12-7.53,7.92-15.25,11.9-22.87,1-1.83.82-3.25-.79-4.66a28.17,28.17,0,0,1-4.12-4.27c-1.92-2.56-3.79-5.35-3.06-8.74.31-1.44,1.77-3.84,2.52-3.77a9.12,9.12,0,0,1,5.61,2.43c4.83,5.45,9.25,11.25,13.89,16.86,2,2.39,4.21,4.57,6.19,6.95,3,3.66,5.89,7.47,8.95,11.1,3.67,4.34,7.38,8.67,11.28,12.8,3,3.17,6.29,6.06,9.51,9a1.74,1.74,0,0,0,1.39,0c3.35-1.16,6.74-2.26,10-3.58,5.33-2.16,10.65-4.36,15.88-6.75,3.79-1.72,7.37-3.9,11.14-5.67,6.72-3.16,13.54-6.1,20.23-9.3a3.28,3.28,0,0,0,1.47-2.77c-.57-2.22-1.78-4.27-2.56-6.45-1.26-3.51-2-4-5.77-3.62-.87.1-1.74.25-2.59.42-5.28,1.08-10.59,2.05-15.83,3.29a85,85,0,0,0-9.45,3,2.46,2.46,0,0,0-1.06,1.94,9.3,9.3,0,0,0,.66,3.67c1,2.29-.48,3-2,3.75a17.35,17.35,0,0,1-2.1.45c-4.66,1.49-7.81-1.12-7.41-6a14.4,14.4,0,0,0-.37-4.72c-1-3.8-2.2-7.53-3.25-11.31-.53-1.95-.87-4-1.34-5.92-.68-2.86-1.45-5.7-2.11-8.57q-2.16-9.48-4.23-19a3.7,3.7,0,0,0-3-3,75.55,75.55,0,0,0-8.79-1.65c-4.24-.42-8.51-.64-12.78-.65-2.89,0-5.78.55-8.67.74-4.63.29-9.26.4-13.88.77A45.56,45.56,0,0,0,164.41,223.81ZM232,243.67a16.67,16.67,0,0,0,3.38-.34,111.6,111.6,0,0,0,10.92-3.76,130,130,0,0,0,13.25-6.63c2.67-1.54,4.82-4,7.42-5.63,4-2.56,4.77-8.92-.35-11.32-2-1-3.74-2.65-5.76-3.69a110.31,110.31,0,0,0-11.61-5.44A75.41,75.41,0,0,0,238.48,204c-4.75-1-9.15-3.28-14.28-3.25-5.56,0-11.12-1.1-16.71-1.41-7.11-.39-14.24-.71-21.36-.56a91.42,91.42,0,0,0-13.43,1.74c-8.3,1.42-16.57,3-24.85,4.52a2.41,2.41,0,0,0-.45.16c-4,1.55-8,3.36-12.06,4.57a61.3,61.3,0,0,1-9.58,2.08c-3.68.48-7.07,3.16-10.61,4.84-3.07,1.46-6.19,2.84-9.26,4.31a80.1,80.1,0,0,0-7.4,3.74,103.15,103.15,0,0,0-10.21,7c-2,1.64-3.58,3.91-5.32,5.93a21.6,21.6,0,0,1-1.55,2.08c-1.94,1.8-2.71,3.88-1.76,6.41s1.07,5.26,4.53,5.94a11.61,11.61,0,0,1,4.44,2.42A25.5,25.5,0,0,0,102,259.4c2.81.29,5.83-.82,8.5,1.12.38.28,2.19-.51,2.48-1.17a80,80,0,0,0,3-8.46c.94-3.12,1.73-6.28,2.51-9.45,1.12-4.58,2.42-9.14,3.11-13.78.23-1.55.43-2.77,1.66-3.54,4.91-3.06,10.4-4.46,16-5.58,1.75-.35,3.47-.87,5.18-1.38a59.19,59.19,0,0,1,5.86-1.83c6.07-1.14,12.16-2.13,18.25-3.11,4.41-.7,8.81-1.46,13.25-1.85a78.47,78.47,0,0,1,8.66.24c4.43.11,8.88-.07,13.27.37,5.28.52,10.51,1.58,15.77,2.35a7.58,7.58,0,0,1,6.33,5.4c1.13,3.36,1.64,6.92,2.48,10.39C229.45,233.85,230.67,238.57,232,243.67ZM315.06,164c5-.87,8.64-3.77,11.92-6.63a20,20,0,0,0,6.84-12.73c.24-1.84.25-3.72.54-5.56.42-2.6,1.43-5.17,1.43-7.75,0-5.88-.47-11.75-.78-17.63-.17-3.32-.29-6.66-.65-10-.56-5.09-1.26-10.17-2-15.24-.35-2.41-.83-4.8-1.39-7.17-.88-3.75-1.76-7.5-2.88-11.19-.45-1.48-1.81-2.7-2.24-4.18a26.66,26.66,0,0,0-7.6-12.15c-3.65-3.42-7.62-6.26-12.62-7.33-2.12-.45-4.31-.63-6.37-1.27a32.88,32.88,0,0,0-14.42-1,8.85,8.85,0,0,1-3,0,24.42,24.42,0,0,0-10.66,0c-3.23.74-6.49,1.38-9.72,2.09-2.22.49-4.45.95-6.64,1.56-1.77.49-3,1.4-2.9,3.64.07,1.86-.73,3.76-.62,5.62.37,6.24,2.53,11.16,10.55,9.78,6.73-1.15,13.51-2,20.28-2.89a50.58,50.58,0,0,1,9.95-.68,117.33,117.33,0,0,1,13.66,2.08,32,32,0,0,1,7.54,2.24c4.28,2,6.67,5.77,8.73,10,2.64,5.4,3.26,11.07,3.59,16.88a33.22,33.22,0,0,0,.39,5.67c.55,2.35,1.44,4.48.86,7.1-.45,2.07.15,4.39.34,6.6s.53,4.14.63,6.22c.12,2.51.12,5,0,7.55s.16,5-.65,7.24c-.9,2.43-2.78,4.52-4.35,6.67-.95,1.31-1.93,3.18-3.24,3.54a76.76,76.76,0,0,1-10.43,1.62c-3,.38-5.95.58-8.92,1-4.62.64-9.21,1.46-13.83,2.09-2.61.36-5.27.32-7.85.77-3.33.57-6.6,1.52-9.92,2.19-3,.6-4.8,2.21-5.06,5.3-.15,1.87-.15,3.75-.2,5.62-.07,3.62,3.77,6.91,7.37,6.41,2.91-.4,5.83-.73,8.74-1.05,5.57-.62,11.14-1.19,16.71-1.82,1.24-.14,2.46-.58,3.71-.65C305.26,166.29,310.53,166,315.06,164Zm-41.17-20.85c3.61-.22,6.57-.25,9.49-.63,5.64-.74,11.26-1.66,16.88-2.54,4.44-.69,8.42-2.07,9.3-7.28.32-1.89.2-3.88.62-5.74a29.17,29.17,0,0,0,.11-10.58c-.34-2.48-.22-5-.47-7.51-.53-5.28-.57-10.71-1.93-15.78-1.16-4.32-1.77-8.66-2.55-13-.48-2.66-1.79-5.81-4.22-6.18-5.88-.88-11.92-.83-17.91-1-1.67,0-3.35.68-5,1-3.2.55-6.42,1-9.62,1.55-1.34.23-1.7.94-1.52,2.4.83,6.69,1.47,13.4,2.22,20.1.82,7.34,1.72,14.68,2.51,22,.4,3.76.63,7.53,1,11.3.14,1.51.43,3,.57,4.52C273.53,138.22,273.69,140.62,273.89,143.17ZM54,82.75l-.81-.2a27.12,27.12,0,0,1-3.4,4.35,68.67,68.67,0,0,0-8.54,9.5c-1.78,2.23-3.71,4.34-5.58,6.51,0,.06-.14.08-.19.14-3,3.21-6.05,6.3-8.8,9.68-2.18,2.68-3.86,5.77-5.92,8.57-2.37,3.26-5,6.35-7.36,9.59-1.46,2-.58,7.36,1.42,8.85,3.79,2.83,7.5,5.83,11.52,8.29,6,3.65,12.11,6.95,18.26,10.27,3.65,2,7.47,3.65,11.17,5.56,2.62,1.35,4.69,4.2,8.67,2.35l-1.05,2.2,5,2.82C68,161.77,68,160.84,71.7,154c.87-1.61.3-1.86-1-2.55a27.32,27.32,0,0,1-4.19-3.24,11.51,11.51,0,0,0-1.27-1.06c-5.83-3.45-11.69-6.84-17.49-10.35a44,44,0,0,1-4.53-3.45c-2.05-1.66-4.12-3.31-6.06-5.09-1-.89-.88-4.14-.06-5,2-2,3.25-2.18,5.33-.56,1.91,1.49,3.36,1.41,4.27-.26,1.24-2.28,2.42-4.59,3.71-6.85s2.73-4.4,4-6.68a8.71,8.71,0,0,0,1.39-3.79c0-4-.19-8-.51-12C55,89.61,54.42,86.19,54,82.75Zm16.8,104.52a235.92,235.92,0,0,0,4,36.42c5.9-5,13.43-7.36,18.44-12.17,6.14-1.87,10.85-5.46,16.2-7.49s10.77-3.45,16.17-5.15l-.16-.62c-.46-.08-1-.33-1.36-.22-4.49,1.32-8.74-.56-12.94-1.34-3.1-.57-6.13-2.67-8.65-4.74-1.39-1.15-1.69-3.63-2.46-5.51-.2-.5-.33-1-.62-1.94-.67.6-1.31.94-1.6,1.47-1.14,2.17-3,2.87-5.3,2.93-1.9.06-3.88-.23-5.69.18-2.58.59-4.13-.78-5.77-2.21-1.23-1.06-2.43-2.17-3.2-2.86ZM100,175.43c6.15.06,12.07.3,18,.13,4.15-.12,6.17,1.83,5.33,5.83-.24,1.14-4.34,3.27-6.17,3.38a7.48,7.48,0,0,0-2.12.87c.64.58,1.27,1.66,1.91,1.67,4.21,0,8.49.64,12.5-1.42,4.5-2.32,6.22-4.92,5.59-9.85-.43-3.33-1.09-6.8-4.41-8.66a24.25,24.25,0,0,0-4.45-1.5,30.82,30.82,0,0,0-11.37-1.23c-1.61.09-3.22.41-4.83.62l.26.32-9.85,5.7C100.3,172.22,100.2,173.4,100,175.43Zm.17,181c-1.84,2.38-4,4-4,7,.07,5.36-.63,8.23,7,6.74,3-.59,4.41-1.42,4.2-4.51,0-.75.55-1.56.45-2.3-.18-1.25-.28-3-1.1-3.58A46.28,46.28,0,0,0,100.18,356.43Zm194.21-87.32-.06-.32c.3-.09.6-.2.91-.28,2.57-.74,4.2-2.62,3.43-4.43a6.38,6.38,0,0,0-2.78-2.78c-.7-.36-1.92.07-2.83.37-2.06.69-4.08,1.48-6.09,2.31-1.56.64-3.17,1.36-2.68,3.55a3.81,3.81,0,0,0,4.29,2.65C290.53,269.88,292.46,269.47,294.39,269.11ZM93.56,166.29a9,9,0,0,0-2.49-.83c-.63,0-1.75.45-1.87.91A87.06,87.06,0,0,0,87,176.06c-.24,1.5.05,3.48,2,3.82s2.57-1.37,2.84-3C92.39,173.42,93,170,93.56,166.29ZM104,158.84c-1.56-.93-2.79-2.15-4.21-2.43a37.72,37.72,0,0,0-7.45-.41c-.79,0-2.17.59-2.22,1a3.48,3.48,0,0,0,1,2.58C93.59,161.77,100.05,162.78,104,158.84ZM80.11,172.19c.91-3.62,1.71-6.62,2.38-9.64.1-.45-.39-1-.61-1.53-.44.31-1.17.54-1.27.93-.69,2.77-1.3,5.56-1.79,8.36C78.74,170.72,79.45,171.27,80.11,172.19ZM56.89,123.75l-3.37,5.79,3.72,2.7C57.12,129.25,57,126.87,56.89,123.75Z"/><path class="cls-1" d="M262.59,144.11c-5.92,3.39-9.06,8.23-8.69,15.11.1,1.89-.11,3.8,0,5.69.28,4.17,2.63,7.37,5.14,10.49a14.34,14.34,0,0,0,6.82,4.95,2.45,2.45,0,0,1,1.17,1.65c1.12,6,2.16,12,3.18,18a7,7,0,0,1-.34,1.92c-2.64-1.49-5-3-7.45-4.16s-5.2-1.92-7.8-2.88a37,37,0,0,0-4.63-1.73c-5.09-1.12-10.23-2.05-15.33-3.1-2-.42-4-1.16-6-1.43-4-.54-8.14-.85-12.21-1.28-4.4-.48-8.79-1.25-13.21-1.42-6.32-.24-12.68-.26-19,0-5.7.24-11.37.94-17,1.59a60.2,60.2,0,0,0-6.26,1.44c-6.25,1.44-12.51,2.84-18.74,4.34-2.09.5-4.11,1.27-5.44,1.68,1.84-1.87,4.29-4.09,6.39-6.6,2.23-2.68,1.75-6.14,2-9.36.1-1.48.13-3,.35-4.44.53-3.47-3.18-11-6.21-12.81-2.83-1.67-5.45-3.69-8.33-5.25-3.71-2-7.58-3.39-12-2-1.26.39-2.84-.31-4.16,0-3.76.9-6-1.54-8.3-3.63a15.56,15.56,0,0,0-14-3.95c-1.91.38-3.74,1.47-5.62,1.51-1.71,0-3.48-.8-5.13-1.48a19,19,0,0,1-3-2c-3-2-6.91-3.34-8.66-6.09s-1.28-6.79-1.63-10.28c-.54-5.42-.66-10.9-1.5-16.26-.88-5.66-.76-11.34-1.26-17-.45-5-1.33-10-1.86-15-.28-2.62-.14-5.28-.35-7.91-.49-6-1.12-12.07-1.61-18.1a56.48,56.48,0,0,1-.31-8.71c.16-2.21.91-4.47,3.41-5.41a8.79,8.79,0,0,0,1.75-.75c2.16-1.48,2.52-1.35,2.78,1.11a3.6,3.6,0,0,0,3.32,3.52c1.47.08,3.76-.39,4.36-1.4C79.41,38.91,83,36.5,86,33.56a20.73,20.73,0,0,1,3.83-3.13,27.86,27.86,0,0,1,5.09-2.15c2.91-1,5.85-1.84,8.8-2.7q6-1.74,12.12-3.4c3.26-.89,6.52-1.84,9.83-2.54s6.18-2.74,9.67-1.78a11.88,11.88,0,0,1,3.06,1.1c3.82,2.32,7.51,4.88,11.38,7.12,4.48,2.59,9,5.11,13.71,7.26,1.58.72,3.74.44,5.59.21,1.37-.17,2-3,1.19-4.46-1.74-3-4.56-4.56-7.54-6.09-4.15-2.13-8.14-4.6-12.18-6.95-.08,0,0-.29-.05-.79,7.93-.56,15.86-1.38,23.8-1.58,5-.13,10,.73,15.06,1,2.45.15,4.91.07,7.36.1a35.67,35.67,0,0,1,4,.12c4,.51,8.09,1.15,12.13,1.66,3,.4,6.16.44,9.16,1.06,5.42,1.14,10.8,2.49,16.15,4A87.3,87.3,0,0,1,248.1,25a4.09,4.09,0,0,1,2,2.55c.62,2.53.87,5.14,1.28,7.72A2.09,2.09,0,0,1,250.07,38c-4.49,2.09-7.14,5.93-8.75,10.41-.62,1.71.29,4-.44,5.63-1.66,3.68.09,7,.74,10.29.56,2.83,2.44,5.41,3.75,8.1.1.19.32.46.5.47,4.06.31,5.6,4.51,9,5.91.78.32,1.06,2.29,1.26,3.54.72,4.45,1.44,8.9,1.9,13.38.61,5.81.64,11.7,1.56,17.46.65,4.06-.47,8.21,1.31,12.25.93,2.12.53,4.83.73,7.27C262,136.52,262.28,140.35,262.59,144.11ZM135.26,92.27l.07,0c.42,1.36.48,3,1.34,4,3.71,4.23,7.11,9,13.19,10.11a27.89,27.89,0,0,0,6,.59c1.07,0,2.07-1.25,3.17-1.38,4-.46,6.36-3.7,9.38-5.64,2.11-1.34,3.18-4.8,4-7.53a42.1,42.1,0,0,0,1.26-9.06,40.48,40.48,0,0,0,.09-8.8c-.63-4.34-1.85-8.6-2.8-12.9A19.64,19.64,0,0,0,165.58,52a22.93,22.93,0,0,0-15.19-6.72c-1.63-.09-3.33,1-5,1.6-.37.12-.77.47-1.08.4-4.14-1-5.8,2.67-8.12,4.66-1.76,1.51-2.66,4.1-3.74,6.31a8.45,8.45,0,0,0-.4,3.09q-.26,3.74-.41,7.48c-.15,3.59-.82,7.28-.23,10.75C132.15,83.88,133.93,88,135.26,92.27ZM83.48,100l-1.12.6c1.75,2.18,3.59,4.28,5.22,6.54a20.83,20.83,0,0,0,10.54,8,13.39,13.39,0,0,0,11.24-1.4c3.23-2,6.35-3.94,8.64-7a15.59,15.59,0,0,0,2-3.83c1.15-3,2.72-6,3.1-9.09a60.54,60.54,0,0,0,.19-14.36,56.1,56.1,0,0,0-3.52-13c-1.5-4-4.32-6.85-8.11-9.24-4.5-2.83-8.54-5.25-14.08-3.23A23,23,0,0,0,86,62.73a34.11,34.11,0,0,0-5.52,15.35c-.44,3.58-1.06,7.36-.37,10.81C80.86,92.64,79.7,97,83.48,100Z"/><path class="cls-1" d="M164.41,223.81a45.56,45.56,0,0,1,5.69-1.16c4.62-.37,9.25-.48,13.88-.77,2.89-.19,5.78-.75,8.67-.74,4.27,0,8.54.23,12.78.65a75.55,75.55,0,0,1,8.79,1.65,3.7,3.7,0,0,1,3,3q2.08,9.51,4.23,19c.66,2.87,1.43,5.71,2.11,8.57.47,2,.81,4,1.34,5.92,1.05,3.78,2.28,7.51,3.25,11.31a14.4,14.4,0,0,1,.37,4.72c-.4,4.9,2.75,7.51,7.41,6a17.35,17.35,0,0,0,2.1-.45c1.55-.73,3.07-1.46,2-3.75a9.3,9.3,0,0,1-.66-3.67,2.46,2.46,0,0,1,1.06-1.94,85,85,0,0,1,9.45-3c5.24-1.24,10.55-2.21,15.83-3.29.85-.17,1.72-.32,2.59-.42,3.78-.41,4.51.11,5.77,3.62.78,2.18,2,4.23,2.56,6.45a3.28,3.28,0,0,1-1.47,2.77c-6.69,3.2-13.51,6.14-20.23,9.3-3.77,1.77-7.35,4-11.14,5.67-5.23,2.39-10.55,4.59-15.88,6.75-3.29,1.32-6.68,2.42-10,3.58a1.74,1.74,0,0,1-1.39,0c-3.22-3-6.52-5.84-9.51-9-3.9-4.13-7.61-8.46-11.28-12.8-3.06-3.63-5.91-7.44-8.95-11.1-2-2.38-4.21-4.56-6.19-6.95-4.64-5.61-9.06-11.41-13.89-16.86a9.12,9.12,0,0,0-5.61-2.43c-.75-.07-2.21,2.33-2.52,3.77-.73,3.39,1.14,6.18,3.06,8.74a28.17,28.17,0,0,0,4.12,4.27c1.61,1.41,1.75,2.83.79,4.66-4,7.62-7.78,15.34-11.9,22.87-3,5.56-6.42,10.93-9.83,16.28-.85,1.33-2.37,2.24-3.39,3.17-.58,2-.76,4.08-1.73,5.72-4.38,7.38-9,14.6-13.49,21.95-2.57,4.25-5,8.59-7.38,12.94a2.78,2.78,0,0,1-4.13,1.13c-3.18-1.82-6.28-3.92-9.68-5.18-2.62-1-5.65-.87-8.77-1.29a13.62,13.62,0,0,1,.49-2.49c2-5.23,4-10.43,6-15.67s3.75-10.28,5.56-15.44c1.49-4.25,2.9-8.53,4.37-12.79.25-.73.63-1.41.88-2.14.52-1.55,1-3.13,1.5-4.68.76-2.16,1.56-4.3,2.34-6.45,1.64-4.51,3.25-9,4.92-13.53,1-2.78,2.27-5.48,3.16-8.29,1.45-4.55,2.54-9.22,4.06-13.74,1.67-5,3.54-9.87,5.6-14.68a5.44,5.44,0,0,1,3.18-2.66c5.75-1.64,11.58-3,17.38-4.44,2.35-.59,4.73-1.11,7.05-1.79.61-.18,1.07-.83,1.59-1.27Z"/><path class="cls-1" d="M232,243.67c-1.29-5.1-2.51-9.82-3.67-14.55-.84-3.47-1.35-7-2.48-10.39a7.58,7.58,0,0,0-6.33-5.4c-5.26-.77-10.49-1.83-15.77-2.35-4.39-.44-8.84-.26-13.27-.37a78.47,78.47,0,0,0-8.66-.24c-4.44.39-8.84,1.15-13.25,1.85-6.09,1-12.18,2-18.25,3.11a59.19,59.19,0,0,0-5.86,1.83c-1.71.51-3.43,1-5.18,1.38-5.6,1.12-11.09,2.52-16,5.58-1.23.77-1.43,2-1.66,3.54-.69,4.64-2,9.2-3.11,13.78-.78,3.17-1.57,6.33-2.51,9.45a80,80,0,0,1-3,8.46c-.29.66-2.1,1.45-2.48,1.17-2.67-1.94-5.69-.83-8.5-1.12a25.5,25.5,0,0,1-13.37-4.94A11.61,11.61,0,0,0,84.18,252c-3.46-.68-3.62-3.54-4.53-5.94s-.18-4.61,1.76-6.41A21.6,21.6,0,0,0,83,237.61c1.74-2,3.27-4.29,5.32-5.93a103.15,103.15,0,0,1,10.21-7,80.1,80.1,0,0,1,7.4-3.74c3.07-1.47,6.19-2.85,9.26-4.31,3.54-1.68,6.93-4.36,10.61-4.84a61.3,61.3,0,0,0,9.58-2.08c4.11-1.21,8-3,12.06-4.57a2.41,2.41,0,0,1,.45-.16c8.28-1.52,16.55-3.1,24.85-4.52a91.42,91.42,0,0,1,13.43-1.74c7.12-.15,14.25.17,21.36.56,5.59.31,11.15,1.45,16.71,1.41,5.13,0,9.53,2.2,14.28,3.25a75.41,75.41,0,0,1,10.73,2.88,110.31,110.31,0,0,1,11.61,5.44c2,1,3.72,2.73,5.76,3.69,5.12,2.4,4.33,8.76.35,11.32-2.6,1.67-4.75,4.09-7.42,5.63a130,130,0,0,1-13.25,6.63,111.6,111.6,0,0,1-10.92,3.76A16.67,16.67,0,0,1,232,243.67Z"/><path class="cls-1" d="M315.06,164c-4.53,2-9.8,2.27-15.06,2.61-1.25.07-2.47.51-3.71.65-5.57.63-11.14,1.2-16.71,1.82-2.91.32-5.83.65-8.74,1.05-3.6.5-7.44-2.79-7.37-6.41,0-1.87,0-3.75.2-5.62.26-3.09,2.08-4.7,5.06-5.3,3.32-.67,6.59-1.62,9.92-2.19,2.58-.45,5.24-.41,7.85-.77,4.62-.63,9.21-1.45,13.83-2.09,3-.41,6-.61,8.92-1a76.76,76.76,0,0,0,10.43-1.62c1.31-.36,2.29-2.23,3.24-3.54,1.57-2.15,3.45-4.24,4.35-6.67.81-2.19.57-4.8.65-7.24s.08-5,0-7.55c-.1-2.08-.45-4.15-.63-6.22s-.79-4.53-.34-6.6c.58-2.62-.31-4.75-.86-7.1a33.22,33.22,0,0,1-.39-5.67c-.33-5.81-1-11.48-3.59-16.88-2.06-4.22-4.45-8-8.73-10a32,32,0,0,0-7.54-2.24,117.33,117.33,0,0,0-13.66-2.08,50.58,50.58,0,0,0-9.95.68c-6.77.87-13.55,1.74-20.28,2.89-8,1.38-10.18-3.54-10.55-9.78-.11-1.86.69-3.76.62-5.62-.08-2.24,1.13-3.15,2.9-3.64,2.19-.61,4.42-1.07,6.64-1.56,3.23-.71,6.49-1.35,9.72-2.09a24.42,24.42,0,0,1,10.66,0,8.85,8.85,0,0,0,3,0,32.88,32.88,0,0,1,14.42,1c2.06.64,4.25.82,6.37,1.27,5,1.07,9,3.91,12.62,7.33A26.66,26.66,0,0,1,325.86,66c.43,1.48,1.79,2.7,2.24,4.18,1.12,3.69,2,7.44,2.88,11.19.56,2.37,1,4.76,1.39,7.17.73,5.07,1.43,10.15,2,15.24.36,3.31.48,6.65.65,10,.31,5.88.77,11.75.78,17.63,0,2.58-1,5.15-1.43,7.75-.29,1.84-.3,3.72-.54,5.56A20,20,0,0,1,327,157.39C323.7,160.25,320.1,163.15,315.06,164Z"/><path class="cls-1" d="M54,82.75c.44,3.44,1,6.86,1.27,10.31.32,4,.53,8,.51,12a8.71,8.71,0,0,1-1.39,3.79c-1.24,2.28-2.69,4.43-4,6.68s-2.47,4.57-3.71,6.85c-.91,1.67-2.36,1.75-4.27.26-2.08-1.62-3.35-1.49-5.33.56-.82.84-.91,4.09.06,5,1.94,1.78,4,3.43,6.06,5.09a44,44,0,0,0,4.53,3.45c5.8,3.51,11.66,6.9,17.49,10.35a11.51,11.51,0,0,1,1.27,1.06,27.32,27.32,0,0,0,4.19,3.24c1.31.69,1.88.94,1,2.55-3.68,6.88-3.72,7.81-3.34,17.27l-5-2.82,1.05-2.2c-4,1.85-6.05-1-8.67-2.35-3.7-1.91-7.52-3.58-11.17-5.56C38.43,155,32.27,151.68,26.32,148c-4-2.46-7.73-5.46-11.52-8.29-2-1.49-2.88-6.86-1.42-8.85,2.39-3.24,5-6.33,7.36-9.59,2.06-2.8,3.74-5.89,5.92-8.57,2.75-3.38,5.85-6.47,8.8-9.68,0-.06.14-.08.19-.14,1.87-2.17,3.8-4.28,5.58-6.51a68.67,68.67,0,0,1,8.54-9.5,27.12,27.12,0,0,0,3.4-4.35Z"/><path class="cls-1" d="M70.78,187.27,77.85,184c.77.69,2,1.8,3.2,2.86,1.64,1.43,3.19,2.8,5.77,2.21,1.81-.41,3.79-.12,5.69-.18,2.26-.06,4.16-.76,5.3-2.93.29-.53.93-.87,1.6-1.47.29.92.42,1.44.62,1.94.77,1.88,1.07,4.36,2.46,5.51,2.52,2.07,5.55,4.17,8.65,4.74,4.2.78,8.45,2.66,12.94,1.34.39-.11.9.14,1.36.22l.16.62c-5.4,1.7-10.89,3.16-16.17,5.15s-10.06,5.62-16.2,7.49c-5,4.81-12.54,7.21-18.44,12.17A235.92,235.92,0,0,1,70.78,187.27Z"/><path class="cls-1" d="M100,175.43c.19-2,.29-3.21.37-4.14l9.85-5.7-.26-.32c1.61-.21,3.22-.53,4.83-.62a30.82,30.82,0,0,1,11.37,1.23,24.25,24.25,0,0,1,4.45,1.5c3.32,1.86,4,5.33,4.41,8.66.63,4.93-1.09,7.53-5.59,9.85-4,2.06-8.29,1.46-12.5,1.42-.64,0-1.27-1.09-1.91-1.67a7.48,7.48,0,0,1,2.12-.87c1.83-.11,5.93-2.24,6.17-3.38.84-4-1.18-5.95-5.33-5.83C112.08,175.73,106.16,175.49,100,175.43Z"/><path class="cls-1" d="M100.18,356.43a46.28,46.28,0,0,1,6.51,3.39c.82.59.92,2.33,1.1,3.58.1.74-.5,1.55-.45,2.3.21,3.09-1.19,3.92-4.2,4.51-7.58,1.49-6.88-1.38-7-6.74C96.15,360.4,98.34,358.81,100.18,356.43Z"/><path class="cls-1" d="M294.39,269.11c-1.93.36-3.86.77-5.81,1.07a3.81,3.81,0,0,1-4.29-2.65c-.49-2.19,1.12-2.91,2.68-3.55,2-.83,4-1.62,6.09-2.31.91-.3,2.13-.73,2.83-.37a6.38,6.38,0,0,1,2.78,2.78c.77,1.81-.86,3.69-3.43,4.43-.31.08-.61.19-.91.28Z"/><path class="cls-1" d="M93.56,166.29c-.61,3.68-1.17,7.13-1.75,10.58-.27,1.64-.81,3.36-2.84,3s-2.22-2.32-2-3.82a87.06,87.06,0,0,1,2.21-9.69c.12-.46,1.24-.94,1.87-.91A9,9,0,0,1,93.56,166.29Z"/><path class="cls-1" d="M104,158.84c-4,3.94-10.45,2.93-12.89.76a3.48,3.48,0,0,1-1-2.58c0-.43,1.43-1,2.22-1a37.72,37.72,0,0,1,7.45.41C101.25,156.69,102.48,157.91,104,158.84Z"/><path class="cls-1" d="M80.11,172.19c-.66-.92-1.37-1.47-1.29-1.88.49-2.8,1.1-5.59,1.79-8.36.1-.39.83-.62,1.27-.93.22.51.71,1.08.61,1.53C81.82,165.57,81,168.57,80.11,172.19Z"/><path d="M135.26,92.27c-1.33-4.23-3.11-8.39-3.84-12.72-.59-3.47.08-7.16.23-10.75q.15-3.75.41-7.48a8.45,8.45,0,0,1,.4-3.09c1.08-2.21,2-4.8,3.74-6.31,2.32-2,4-5.66,8.12-4.66.31.07.71-.28,1.08-.4,1.66-.57,3.36-1.69,5-1.6A22.93,22.93,0,0,1,165.58,52a19.64,19.64,0,0,1,5.35,9.68c.95,4.3,2.17,8.56,2.8,12.9a40.48,40.48,0,0,1-.09,8.8,42.1,42.1,0,0,1-1.26,9.06c-.83,2.73-1.9,6.19-4,7.53-3,1.94-5.4,5.18-9.38,5.64-1.1.13-2.1,1.34-3.17,1.38a27.89,27.89,0,0,1-6-.59c-6.08-1.12-9.48-5.88-13.19-10.11-.86-1-.92-2.66-1.34-4Zm28.49-7.91,1.07-.37a66.64,66.64,0,0,0,.5-8.45,26.47,26.47,0,0,0-6.61-15.9,17.8,17.8,0,0,0-5.37-4.47c-3.19-1.56-8.78,1-10.69,4-3.47,5.46-4.16,11.47-4.05,17.68a23.79,23.79,0,0,0,.58,3.51l.64.4c2-6.88,7.48-9.56,13.2-8.63S163.64,77,163.75,84.36Z"/><path d="M83.48,100c-3.78-3-2.62-7.36-3.37-11.11-.69-3.45-.07-7.23.37-10.81A34.11,34.11,0,0,1,86,62.73,23,23,0,0,1,97.55,54c5.54-2,9.58.4,14.08,3.23,3.79,2.39,6.61,5.28,8.11,9.24a56.1,56.1,0,0,1,3.52,13,60.54,60.54,0,0,1-.19,14.36C122.69,97,121.12,100,120,103a15.59,15.59,0,0,1-2,3.83c-2.29,3-5.41,5-8.64,7a13.39,13.39,0,0,1-11.24,1.4,20.83,20.83,0,0,1-10.54-8c-1.63-2.26-3.47-4.36-5.22-6.54Zm5.36-4.35c.86-.27,1.08-.27,1.14-.37a5.06,5.06,0,0,0,.54-1c1.09-3,2.44-5.78,5.15-7.92a14,14,0,0,1,14.88-1c2.29,1.39,3.13,3.51,4.63,5.92a8.77,8.77,0,0,0,.66-2.34c-.28-4-.1-8.18-1.15-12-1-3.62-3.17-7-5.07-10.3-3.05-5.38-9.35-6.22-13.58-1.76-2.25,2.36-4.81,4.82-6,7.73-1.3,3.32-1.45,7.19-1.61,10.84C88.3,87.4,88.68,91.39,88.84,95.65Z"/><path class="cls-1" d="M163.75,84.36c-.11-7.33-5-11.3-10.73-12.23s-11.22,1.75-13.2,8.63l-.64-.4a23.79,23.79,0,0,1-.58-3.51c-.11-6.21.58-12.22,4.05-17.68,1.91-3,7.5-5.56,10.69-4a17.8,17.8,0,0,1,5.37,4.47,26.47,26.47,0,0,1,6.61,15.9,66.64,66.64,0,0,1-.5,8.45Z"/><path class="cls-1" d="M88.84,95.65c-.16-4.26-.54-8.25-.36-12.2.16-3.65.31-7.52,1.61-10.84,1.14-2.91,3.7-5.37,6-7.73,4.23-4.46,10.53-3.62,13.58,1.76,1.9,3.33,4.07,6.68,5.07,10.3,1,3.82.87,8,1.15,12a8.77,8.77,0,0,1-.66,2.34c-1.5-2.41-2.34-4.53-4.63-5.92a14,14,0,0,0-14.88,1c-2.71,2.14-4.06,4.87-5.15,7.92a5.06,5.06,0,0,1-.54,1C89.92,95.38,89.7,95.38,88.84,95.65Z"/></g></g></svg>